<?xml version="1.0" encoding="utf-8"?>
<!-- Generator: Adobe Illustrator 26.3.0, SVG Export Plug-In . SVG Version: 6.00 Build 0)  -->
<svg version="1.1" id="Capa_1" xmlns="http://www.w3.org/2000/svg" xmlns:xlink="http://www.w3.org/1999/xlink" x="0px" y="0px"
	 viewBox="0 0 810.71 496.06" style="enable-background:new 0 0 810.71 496.06;" xml:space="preserve">
<style type="text/css">
	.st0{fill:none;stroke:#000000;stroke-width:3;stroke-miterlimit:10;}
	.st1{fill:#EFDEDE;}
	.st2{fill:none;stroke:#CDAAA8;stroke-width:3;stroke-miterlimit:10;}
	.st3{fill:#FFFFFF;stroke:#000000;stroke-width:3;stroke-miterlimit:10;}
	.st4{stroke:#000000;stroke-width:3;stroke-miterlimit:10;}
	.st5{fill:#FFFFFF;}
	.st6{fill:#E7D93E;}
	.st7{fill:#8B898A;}
	.st8{fill:#ACD298;stroke:#ACD298;stroke-miterlimit:10;}
	.st9{fill:#6D7BBB;}
	.st10{fill:#24356B;}
	.st11{fill:#ACD298;}
	.st12{fill:#ACD298;stroke:#ACD298;stroke-width:2;stroke-miterlimit:10;}
	.st13{fill:#E8D93E;stroke:#ACD298;stroke-width:2;stroke-miterlimit:10;}
	.st14{fill:#8C8A88;}
	.st15{fill:none;}
	.st16{fill:#262D61;}
	.st17{fill:#28316C;}
	.st18{fill:#23398A;}
</style>
<g>
	<g>
		<rect x="66.4" y="151.39" class="st0" width="492.29" height="25.07"/>
		<rect x="66.4" y="176.46" class="st0" width="492.29" height="25.07"/>
		<rect x="66.4" y="201.54" class="st0" width="492.29" height="25.07"/>
		<rect x="66.4" y="226.61" class="st0" width="492.29" height="25.07"/>
		<rect x="66.4" y="251.68" class="st0" width="492.29" height="25.07"/>
	</g>
	<path d="M103.5,239.04c0.29-0.2-0.81-1.35-1.31-3.71c-0.19-0.89-0.95-4.46,1.09-7.64c2.28-3.54,6.57-4.28,8.08-4.54
		c1.39-0.24,4.92-0.85,8.3,1.03c4.95,2.75,5.41,8.48,5.46,9.29c0.41,6.5-4.99,10.78-6.34,11.76c-4.63,3.39-9.78,3.34-11.58,3.3
		c-7.03-0.16-15.05-3.95-18.57-11.14c-4.95-10.1,2.41-19.85,3.93-21.87c1.91-2.53,2.85-2.75,8.3-7.22
		c9.64-7.91,15.81-12.97,19.23-19.4c4.75-8.92,2.93-18.1,2.4-21.25c-0.64-3.83-1.42-9.16-5.24-14.03c-1.39-1.77-2.22-2.79-3.5-2.89
		c-4.42-0.34-10.16,10.65-11.36,21.05c-0.22,1.86-0.35,4.28,2.19,18.78c1.24,7.1,2.44,13.17,5.03,25.59
		c2.77,13.31,4.15,19.96,4.59,21.25c0.26,0.77,3.02,8.95,5.03,18.78c0.32,1.56,0.88,4.44,0.22,8.05c-0.47,2.58-1.2,6.61-4.81,9.08
		c0,0-3.76,2.58-9.26,1.83c-1.09-0.15-1.19-0.36-4.53-1.13c-0.31-0.07-1.3-0.3-1.28-0.49c0.01-0.12,0.42-0.19,0.49-0.21
		c0.36-0.06,0.65-0.01,0.68,0c0.58,0.11,2.45-0.21,3.71-0.85c1.65-0.83,2.41-2.26,2.87-3.12c0.39-0.74,2.92-5.47,0.27-9.18
		c-2.64-3.7-9.02-4.46-12.67-1.7c-3.66,2.77-2.91,7.82-2.79,8.67c0.58,3.91,3.28,6.27,4.15,7.02c4.98,4.24,11.52,3.25,12.45,3.1
		c0.51-0.09,7.04-1.27,10.54-6.81c2.23-3.52,2.07-6.95,1.86-11.56c-0.04-0.87-0.15-2.61-1.91-10.27c-1.29-5.61-1.9-7.61-3.28-13.26
		c-0.7-2.88-1.36-5.82-2.68-11.71c-2.06-9.23-3.1-14.32-3.39-15.73c-0.61-2.99-0.47-2.43-0.87-4.39c-1.95-9.45-2.7-10.81-3.17-14.7
		c-0.49-4.11-0.2-7.16,0.11-10.47c0,0,0.55-5.86,3.93-14.44c0.42-1.06,1.25-3.06,3.28-4.02c0.35-0.16,1.57-0.74,2.9-0.41
		c1.91,0.48,2.8,2.54,3.28,3.71c1.99,4.86,0.31,9.87-0.16,11.14c-0.92,2.51-3.16,5.23-7.65,10.68c-1.18,1.43-2.45,2.9-4.37,4.49
		c-1.62,1.34-2.4,1.69-4.04,2.89c-0.58,0.43-2.06,1.53-5.9,5.42c-3.69,3.73-5.53,5.6-7.32,7.94c-1.49,1.96-3.36,4.44-5.03,8.1
		c-0.77,1.69-2.26,5.02-2.84,9.6c-0.43,3.35-0.96,7.54,1.04,12.12c1.72,3.93,4.46,6.22,6.5,7.89c2.02,1.65,8.58,7.02,18.41,6.91
		c2.03-0.02,8.83-0.19,14.97-4.8c1.73-1.3,5.52-4.22,7.16-9.44c0.43-1.38,2.51-7.99-1.8-13.88c-3.41-4.65-8.92-6.26-12.13-6.45
		c-0.93-0.06-2.31-0.03-3.55,0.05c-2.12,0.14-4.44,0.3-6.61,1.13c-4.38,1.68-6.48,5.47-7.05,6.5c-0.9,1.63-2.45,4.42-1.75,7.94
		C98.2,236.35,102.97,239.41,103.5,239.04z"/>
</g>
<g>
	<g>
		<g>
			<path class="st1" d="M702.18,232.44c-1.08,3.41-0.73,6.99-0.63,10.5c0.11,3.66,0.11,7.32,0.01,10.97
				c-0.2,7.33-0.79,14.66-1.82,21.92c-0.19,1.34,0.33,2.69,1.75,3.08c1.17,0.32,2.88-0.4,3.08-1.75c1.05-7.39,1.74-14.82,1.97-22.28
				c0.12-3.66,0.13-7.32,0.04-10.97c-0.08-3.35-0.61-6.9,0.42-10.15C707.98,230.69,703.16,229.38,702.18,232.44L702.18,232.44z"/>
		</g>
	</g>
	<g>
		<g>
			<path class="st1" d="M692.54,218.75c0.14,0.61,0.26,1.22,0.35,1.83c-0.12-0.89-0.24-1.77-0.36-2.66c0.26,2.18,0.16,4.33-0.12,6.5
				c0.12-0.89,0.24-1.77,0.36-2.66c-0.73,5.2-3.03,10.79-1.66,16.01c1.58,6.05,8.11,9.27,13.96,7.88c3.81-0.9,6.42-3.35,8.67-6.38
				c2.61-3.51,3.92-7.88,5.24-12.01c1.23-3.85,2.22-7.83,3.59-11.63c-0.34,0.8-0.67,1.59-1.01,2.39c0.07-0.19,0.17-0.37,0.29-0.54
				c-0.52,0.67-1.04,1.35-1.56,2.02c0.07-0.07,0.13-0.15,0.2-0.22c-0.67,0.52-1.35,1.04-2.02,1.56c0.08-0.06,0.16-0.12,0.24-0.18
				c-0.8,0.34-1.59,0.67-2.39,1.01c0.18-0.1,0.37-0.16,0.57-0.16c-0.89,0.12-1.77,0.24-2.66,0.36c0.09,0.01,0.19,0.02,0.28,0.03
				c-0.89-0.12-1.77-0.24-2.66-0.36c0.09,0.03,0.18,0.06,0.28,0.09c-0.8-0.34-1.59-0.67-2.39-1.01c0.19,0.09,0.37,0.2,0.53,0.33
				c-0.67-0.52-1.35-1.04-2.02-1.56c0.26,0.24,0.48,0.48,0.7,0.76c-0.52-0.67-1.04-1.35-1.56-2.02c0.92,1.37,1.53,3.01,2.23,4.5
				c0.75,1.59,1.53,3.17,2.22,4.79c-0.34-0.8-0.67-1.59-1.01-2.39c0.57,1.39,1.04,2.78,1.29,4.27c-0.12-0.89-0.24-1.77-0.36-2.66
				c0.15,1.12,0.15,2.21,0,3.34c0.12-0.89,0.24-1.77,0.36-2.66c-0.19,1.22-0.54,2.37-1,3.51c0.34-0.8,0.67-1.59,1.01-2.39
				c-1.07,2.47-2.59,4.67-4.22,6.79c0.52-0.67,1.04-1.35,1.56-2.02c-0.43,0.55-0.87,1.1-1.31,1.65c5.24,4.04,10.47,8.08,15.71,12.12
				c4.44-8.88,8.88-17.77,13.32-26.65c-6.09-0.8-12.18-1.59-18.28-2.39c0.27,1.09,0.48,2.19,0.64,3.3
				c-0.12-0.89-0.24-1.77-0.36-2.66c0.32,2.49,0.34,4.99,0.02,7.48c0.12-0.89,0.24-1.77,0.36-2.66c-0.28,1.96-0.77,3.85-1.52,5.68
				c0.34-0.8,0.67-1.59,1.01-2.39c-0.63,1.46-1.4,2.82-2.35,4.09c0.52-0.67,1.04-1.35,1.56-2.02c-0.99,1.27-2.11,2.37-3.38,3.36
				c0.67-0.52,1.35-1.04,2.02-1.56c-4,3.05-8.55,5.47-12.83,8.1c-4.48,2.75-8.97,5.5-13.45,8.25c-2.17,1.33-3.91,3.5-4.6,5.98
				c-0.66,2.39-0.36,5.58,1.01,7.71c2.88,4.47,8.91,6.51,13.68,3.59c7.54-4.63,15.1-9.22,22.62-13.88
				c4.47-2.77,8.32-5.92,11.26-10.31c2.22-3.31,3.66-7.34,4.24-11.27c0.81-5.46,0.68-10.7-0.66-16.09
				c-0.96-3.84-4.51-6.65-8.31-7.16c-3.72-0.5-8.19,1.22-9.96,4.77c-4.44,8.88-8.88,17.77-13.32,26.65
				c-2.25,4.5-1.52,9.74,2.58,12.9c1.69,1.3,3.87,2.25,6.06,2.15c2.48-0.11,5.44-0.91,7.07-2.93c1.69-2.09,3.39-4.19,4.88-6.43
				c1.45-2.18,2.53-4.54,3.45-6.99c1.91-5.07,1.51-10.91-0.52-15.86c-1.06-2.58-2.24-5.09-3.43-7.6c-1.15-2.44-2.18-4.82-4.17-6.75
				c-4.48-4.35-11.61-4.62-16.16-0.22c-2.48,2.4-3.26,5.82-4.22,8.99c-1.36,4.51-2.59,9.15-4.41,13.5c0.34-0.8,0.67-1.59,1.01-2.39
				c-0.61,1.4-1.32,2.71-2.25,3.93c0.52-0.67,1.04-1.35,1.56-2.02c-0.3,0.37-0.6,0.69-0.96,0.99c0.67-0.52,1.35-1.04,2.02-1.56
				c-0.28,0.2-0.54,0.36-0.85,0.52c0.8-0.34,1.59-0.67,2.39-1.01c-0.3,0.12-0.57,0.21-0.89,0.27c0.89-0.12,1.77-0.24,2.66-0.36
				c-0.19,0.03-0.38,0.03-0.56,0c0.89,0.12,1.77,0.24,2.66,0.36c-0.09-0.02-0.17-0.05-0.26-0.07c0.8,0.34,1.59,0.67,2.39,1.01
				c-0.17-0.06-0.33-0.16-0.46-0.29c0.67,0.52,1.35,1.04,2.02,1.56c-0.06-0.07-0.13-0.15-0.19-0.22c0.52,0.67,1.04,1.35,1.56,2.02
				c-0.06-0.11-0.12-0.21-0.17-0.32c0.34,0.8,0.67,1.59,1.01,2.39c-0.03-0.12-0.07-0.23-0.1-0.35c0.12,0.89,0.24,1.77,0.36,2.66
				c-0.04-0.39-0.03-0.72,0.02-1.12c-0.12,0.89-0.24,1.77-0.36,2.66c0.52-3.09,1.3-6.13,1.74-9.23c0.66-4.69,0.87-8.97-0.23-13.65
				c-1.2-5.1-7.3-8.6-12.3-6.98C694.21,208.16,691.25,213.29,692.54,218.75L692.54,218.75z"/>
		</g>
	</g>
	<g>
		<g>
			<path class="st1" d="M687.46,210.41c-1.97,9.12-3.3,18.41-3.96,27.72c-0.65,9.19-1.47,19.37,3.25,27.69
				c2.58,4.55,9.18,6.49,13.68,3.59c4.6-2.97,6.35-8.81,3.59-13.68c-0.28-0.49-0.53-0.99-0.76-1.5c0.34,0.8,0.67,1.59,1.01,2.39
				c-0.65-1.57-1.04-3.19-1.28-4.86c0.12,0.89,0.24,1.77,0.36,2.66c-0.54-4.34-0.27-8.8-0.04-13.15c0.25-4.66,0.69-9.31,1.3-13.93
				c-0.12,0.89-0.24,1.77-0.36,2.66c0.64-4.79,1.48-9.54,2.5-14.26c0.57-2.62,0.37-5.34-1.01-7.71c-1.21-2.07-3.59-4.05-5.98-4.6
				c-2.56-0.58-5.43-0.46-7.71,1.01C689.94,205.8,688.02,207.86,687.46,210.41L687.46,210.41z"/>
		</g>
	</g>
	<g>
		<g>
			<path class="st1" d="M677.89,222.55c-0.72,4.12-1.45,8.25-2.17,12.37c-0.82,4.68-1.75,9.54-1.24,14.31
				c0.41,3.85,1.14,7.49,2.55,11.09c1.43,3.65,3.1,7.17,4.9,10.64c1.65,3.18,3.34,6.34,4.74,9.64c-0.34-0.8-0.67-1.59-1.01-2.39
				c1.12,2.7,2.01,5.48,2.43,8.38c-0.12-0.89-0.24-1.77-0.36-2.66c0.22,1.75,0.27,3.49,0.1,5.24c-0.23,2.41,1.28,5.42,2.93,7.07
				c1.73,1.73,4.58,3.04,7.07,2.93c2.59-0.12,5.27-0.97,7.07-2.93c1.89-2.06,2.67-4.29,2.93-7.07c0.67-7.06-1.69-13.83-4.54-20.15
				c-2.33-5.16-5.29-10.02-7.51-15.24c0.34,0.8,0.67,1.59,1.01,2.39c-1.2-2.86-2.15-5.81-2.59-8.9c0.12,0.89,0.24,1.77,0.36,2.66
				c-0.36-2.85-0.2-5.69,0.18-8.52c-0.12,0.89-0.24,1.77-0.36,2.66c0.77-5.42,1.84-10.81,2.79-16.2c0.48-2.71,0.43-5.25-1.01-7.71
				c-1.21-2.07-3.59-4.05-5.98-4.6c-2.56-0.58-5.43-0.46-7.71,1.01C680.41,217.91,678.33,220.03,677.89,222.55L677.89,222.55z"/>
		</g>
	</g>
	<g>
		<g>
			<path class="st1" d="M706.47,291.72c0.18-8.73-0.12-17.47-0.91-26.16c-0.25-2.7-0.95-5.09-2.93-7.07
				c-1.73-1.73-4.58-3.04-7.07-2.93c-2.59,0.12-5.27,0.97-7.07,2.93c-1.7,1.85-3.17,4.46-2.93,7.07c0.79,8.7,1.09,17.43,0.91,26.16
				c-0.11,5.23,4.68,10.24,10,10C701.98,301.47,706.35,297.33,706.47,291.72L706.47,291.72z"/>
		</g>
	</g>
	<g>
		<g>
			<path class="st1" d="M692.76,300.86c2.77,0.15,5.6-0.82,7.97-2.18c1.13-0.65,2.15-1.45,3.34-1.98c-0.8,0.34-1.59,0.67-2.39,1.01
				c0.4-0.15,0.78-0.26,1.2-0.34c-0.89,0.12-1.77,0.24-2.66,0.36c0.39-0.04,0.74-0.03,1.14,0c-0.89-0.12-1.77-0.24-2.66-0.36
				c0.75,0.12,1.49,0.31,2.24,0.45c2.7,0.5,3.86,0.52,6.54,0.06c3.32-0.57,6.56-3,8.06-5.99c0.96-1.92,1.51-3.99,1.5-6.14
				c-0.01-0.89-0.12-1.77-0.14-2.66c-0.04-1.75,0.07-3.5,0.29-5.23c-0.12,0.89-0.24,1.77-0.36,2.66c0.51-3.57,1.55-7.03,2.25-10.56
				c0.48-2.42,0.86-4.89,0.97-7.36c0.11-2.52-0.33-5.02-0.74-7.49c0.12,0.89,0.24,1.77,0.36,2.66c-0.05-0.42-0.06-0.78-0.02-1.2
				c-0.12,0.89-0.24,1.77-0.36,2.66c0.04-0.13,0.07-0.26,0.11-0.38c-0.34,0.8-0.67,1.59-1.01,2.39c0.08-0.21,0.2-0.41,0.34-0.58
				c-0.52,0.67-1.04,1.35-1.56,2.02c0.14-0.18,0.3-0.34,0.48-0.48c-0.67,0.52-1.35,1.04-2.02,1.56c1.11-0.85,2.4-1.47,3.68-2.02
				c-0.8,0.34-1.59,0.67-2.39,1.01c0.84-0.35,1.69-0.65,2.56-0.9c2.44-0.73,4.68-2.38,5.98-4.6c1.25-2.14,1.79-5.3,1.01-7.71
				c-1.64-5.07-6.93-8.58-12.3-6.98c-2.96,0.88-6.13,2.08-8.63,3.94c-2.58,1.92-4.74,4.19-5.52,7.43c-0.69,2.84-0.09,5.41,0.29,8.22
				c-0.12-0.89-0.24-1.77-0.36-2.66c0.19,1.8,0.13,3.58-0.09,5.37c0.12-0.89,0.24-1.77,0.36-2.66c-0.51,3.71-1.62,7.3-2.32,10.98
				c-0.49,2.56-0.85,5.18-0.96,7.79c-0.08,1.83,0.28,3.73,0.07,5.55c0.12-0.89,0.24-1.77,0.36-2.66c-0.03,0.12-0.06,0.24-0.09,0.35
				c0.34-0.8,0.67-1.59,1.01-2.39c-0.07,0.22-0.19,0.42-0.34,0.6c0.52-0.67,1.04-1.35,1.56-2.02c-0.08,0.07-0.15,0.15-0.23,0.22
				c0.67-0.52,1.35-1.04,2.02-1.56c-0.17,0.14-0.35,0.25-0.55,0.33c0.8-0.34,1.59-0.67,2.39-1.01c-0.33,0.12-0.62,0.19-0.97,0.24
				c0.89-0.12,1.77-0.24,2.66-0.36c-0.35,0.02-0.67,0.01-1.02-0.03c0.89,0.12,1.77,0.24,2.66,0.36c-1.83-0.31-3.63-0.87-5.51-0.88
				c-2.13,0-3.88,0.43-5.78,1.23c-1.91,0.81-3.51,2.04-5.37,2.91c0.8-0.34,1.59-0.67,2.39-1.01c-0.38,0.16-0.76,0.27-1.16,0.35
				c0.89-0.12,1.77-0.24,2.66-0.36c-0.32,0.04-0.6,0.05-0.92,0.03c-5.23-0.28-10.23,4.8-10,10
				C683.01,296.52,687.15,300.56,692.76,300.86L692.76,300.86z"/>
		</g>
	</g>
	<g>
		<g>
			<path class="st1" d="M721.3,263.03c2.87-1.08,4.7-2.08,7.01-4.12c1.54-1.35,2.8-3.11,3.88-4.84c1.92-3.05,3.21-6.59,4.54-9.91
				c2.44-6.09,4.31-12.41,5.57-18.85c0.3-1.51,0.56-3.04,0.8-4.56c0.45-2.99,1.09-5.91,0.31-8.91c-0.86-3.29-3.02-6.22-6.08-7.76
				c-2.15-1.08-4.48-1.64-6.79-2.25c-6.48-1.72-13.03-3.12-19.64-4.22c-8.27-1.37-16.63-2.35-25-2.84
				c-2.47-0.14-5.36,1.22-7.07,2.93c-1.73,1.73-3.04,4.58-2.93,7.07c0.25,5.68,4.4,9.67,10,10c5.41,0.32,10.81,0.84,16.19,1.56
				c-0.89-0.12-1.77-0.24-2.66-0.36c5.14,0.7,10.25,1.58,15.32,2.65c4.96,1.05,10.07,2.08,14.87,3.73c-0.8-0.34-1.59-0.67-2.39-1.01
				c0.23,0.08,0.45,0.2,0.65,0.34c-0.67-0.52-1.35-1.04-2.02-1.56c0.2,0.14,0.36,0.3,0.49,0.5c-0.52-0.67-1.04-1.35-1.56-2.02
				c0.05,0.1,0.11,0.2,0.16,0.29c-0.34-0.8-0.67-1.59-1.01-2.39c0.09,0.21,0.15,0.42,0.18,0.65c-0.12-0.89-0.24-1.77-0.36-2.66
				c0.06,0.6,0.03,1.17-0.05,1.76c0.12-0.89,0.24-1.77,0.36-2.66c-1.27,9.35-3.77,18.48-7.42,27.17c0.34-0.8,0.67-1.59,1.01-2.39
				c-1.03,2.42-2.08,4.86-3.69,6.96c0.52-0.67,1.04-1.35,1.56-2.02c-0.54,0.66-1.11,1.25-1.77,1.79c0.67-0.52,1.35-1.04,2.02-1.56
				c-0.58,0.43-1.18,0.79-1.85,1.08c0.8-0.34,1.59-0.67,2.39-1.01c-0.11,0.04-0.23,0.09-0.34,0.13c-2.5,0.94-4.59,2.23-5.98,4.6
				c-1.25,2.14-1.79,5.3-1.01,7.71c0.78,2.42,2.28,4.75,4.6,5.98C715.85,263.21,718.81,263.96,721.3,263.03L721.3,263.03z"/>
		</g>
	</g>
	<g>
		<g>
			<path class="st1" d="M674.14,205.2c0.43,7.26,0.85,14.52,1.28,21.79c0.16,2.66,1.01,5.15,2.93,7.07
				c1.73,1.73,4.58,3.04,7.07,2.93c2.59-0.12,5.27-0.97,7.07-2.93c1.73-1.89,3.08-4.42,2.93-7.07c-0.43-7.26-0.85-14.52-1.28-21.79
				c-0.16-2.66-1.01-5.15-2.93-7.07c-1.73-1.73-4.58-3.04-7.07-2.93c-2.59,0.12-5.27,0.97-7.07,2.93
				C675.33,200.02,673.98,202.55,674.14,205.2L674.14,205.2z"/>
		</g>
	</g>
	<g>
		<g>
			<path class="st1" d="M680.75,222.85c-0.26,1.31-0.64,2.57-1.15,3.8c0.34-0.8,0.67-1.59,1.01-2.39c-0.73,1.73-1.68,3.35-2.83,4.84
				c0.52-0.67,1.04-1.35,1.56-2.02c-1.16,1.48-2.49,2.8-3.98,3.95c0.67-0.52,1.35-1.04,2.02-1.56c-1.44,1.09-2.98,1.99-4.64,2.69
				c0.8-0.34,1.59-0.67,2.39-1.01c-1.16,0.48-2.35,0.85-3.57,1.11c-2.37,0.5-4.78,2.55-5.98,4.6c-1.25,2.14-1.79,5.3-1.01,7.71
				c0.78,2.42,2.28,4.75,4.6,5.98c2.46,1.3,4.97,1.59,7.71,1.01c2.81-0.6,5.57-1.74,8.06-3.14c1.27-0.71,2.41-1.57,3.55-2.45
				c1.15-0.89,2.28-1.76,3.3-2.8c3.98-4.04,7.13-9.39,8.24-14.99c0.53-2.66,0.4-5.3-1.01-7.71c-1.21-2.07-3.59-4.05-5.98-4.6
				c-2.56-0.58-5.43-0.46-7.71,1.01C683.25,218.23,681.26,220.31,680.75,222.85L680.75,222.85z"/>
		</g>
	</g>
	<g>
		<g>
			<path class="st1" d="M704.72,289.93c-2.18-5.47-3.68-11.16-4.5-16.98c0.12,0.89,0.24,1.77,0.36,2.66
				c-0.54-4.08-0.7-8.22-1.56-12.26c-0.82-3.82-2.57-7.52-4.9-10.65c-4.43-5.96-9.54-11.39-15.07-16.34
				c-1.98-1.77-4.36-2.93-7.07-2.93c-2.45,0-5.38,1.09-7.07,2.93c-1.75,1.91-3.05,4.41-2.93,7.07c0.11,2.57,0.95,5.3,2.93,7.07
				c4.67,4.18,9.1,8.7,12.98,13.63c-0.52-0.67-1.04-1.35-1.56-2.02c1.32,1.71,2.5,3.5,3.36,5.48c-0.34-0.8-0.67-1.59-1.01-2.39
				c0.75,1.84,1.16,3.76,1.45,5.73c-0.12-0.89-0.24-1.77-0.36-2.66c0.65,4.94,0.98,9.9,1.99,14.79c0.86,4.17,2.1,8.24,3.68,12.19
				c1,2.51,2.18,4.56,4.6,5.98c2.14,1.25,5.3,1.79,7.71,1.01c2.42-0.78,4.75-2.28,5.98-4.6
				C704.89,295.41,705.7,292.38,704.72,289.93L704.72,289.93z"/>
		</g>
	</g>
	<g>
		<g>
			<path class="st1" d="M670.95,252.27c5.23,0,10.24-4.6,10-10c-0.24-5.42-4.39-10-10-10c-5.23,0-10.24,4.6-10,10
				C661.2,247.69,665.35,252.27,670.95,252.27L670.95,252.27z"/>
		</g>
	</g>
	<g>
		<g>
			<path class="st1" d="M674.95,247.91c5.23,0,10.24-4.6,10-10c-0.24-5.42-4.39-10-10-10c-5.23,0-10.24,4.6-10,10
				C665.2,243.33,669.35,247.91,674.95,247.91L674.95,247.91z"/>
		</g>
	</g>
	<g>
		<g>
			<path class="st1" d="M698.06,269.92c-0.31,6.37,1.62,12.58,2.5,18.83c-0.12-0.89-0.24-1.77-0.36-2.66
				c0.11,0.85,0.18,1.68,0.1,2.54c0.12-0.89,0.24-1.77,0.36-2.66c-0.07,0.45-0.18,0.85-0.35,1.27c0.34-0.8,0.67-1.59,1.01-2.39
				c-0.14,0.28-0.29,0.51-0.48,0.76c0.52-0.67,1.04-1.35,1.56-2.02c-0.13,0.15-0.27,0.29-0.42,0.42c0.67-0.52,1.35-1.04,2.02-1.56
				c-0.15,0.12-0.32,0.23-0.49,0.32c0.8-0.34,1.59-0.67,2.39-1.01c-0.18,0.09-0.36,0.15-0.55,0.19c0.89-0.12,1.77-0.24,2.66-0.36
				c-0.42,0.05-0.76,0.04-1.18,0c0.89,0.12,1.77,0.24,2.66,0.36c-3.99-0.7-7.91-1.29-11.96-0.87c-2.72,0.28-5.07,0.93-7.07,2.93
				c-1.73,1.73-3.04,4.58-2.93,7.07c0.12,2.59,0.97,5.27,2.93,7.07c1.84,1.69,4.48,3.2,7.07,2.93c2.31-0.24,4.61-0.21,6.91,0.09
				c-0.89-0.12-1.77-0.24-2.66-0.36c1.79,0.26,3.64,0.82,5.45,0.82c2.43,0,4.83-0.57,6.88-1.91c4.06-2.66,6.3-7.16,6.25-11.99
				c-0.03-2.77-0.66-5.61-1.19-8.34c-0.41-2.15-0.86-4.29-1.17-6.45c0.12,0.89,0.24,1.77,0.36,2.66c-0.25-1.89-0.38-3.78-0.29-5.68
				c0.12-2.48-1.2-5.34-2.93-7.07s-4.58-3.04-7.07-2.93C702.42,260.17,698.33,264.31,698.06,269.92L698.06,269.92z"/>
		</g>
	</g>
	<g>
		<g>
			<path class="st1" d="M716.77,265.36c5.23,0,10.24-4.6,10-10c-0.24-5.42-4.39-10-10-10c-5.23,0-10.24,4.6-10,10
				C707.02,260.78,711.17,265.36,716.77,265.36L716.77,265.36z"/>
		</g>
	</g>
	<g>
		<g>
			<path class="st1" d="M698.2,269.83c-0.53,2.29-1.06,4.58-1.6,6.88c-0.42,1.33-0.48,2.66-0.18,3.99c0.06,1.33,0.46,2.57,1.19,3.72
				c0.63,1.17,1.49,2.1,2.58,2.81c0.97,0.88,2.1,1.48,3.4,1.79c0.89,0.12,1.77,0.24,2.66,0.36c1.81-0.01,3.49-0.46,5.05-1.37
				c0.67-0.52,1.35-1.04,2.02-1.56c1.24-1.25,2.1-2.72,2.57-4.41c0.53-2.29,1.06-4.58,1.6-6.88c0.42-1.33,0.48-2.66,0.18-3.99
				c-0.06-1.33-0.46-2.57-1.19-3.72c-0.63-1.17-1.49-2.1-2.58-2.81c-0.97-0.88-2.1-1.48-3.4-1.79c-0.89-0.12-1.77-0.24-2.66-0.36
				c-1.81,0.01-3.49,0.46-5.05,1.37c-0.67,0.52-1.35,1.04-2.02,1.56C699.53,266.67,698.68,268.14,698.2,269.83L698.2,269.83z"/>
		</g>
	</g>
	<g>
		<g>
			<path class="st1" d="M711.28,285.81c0.06-0.04,0.12-0.09,0.18-0.13c-0.8,0.34-1.59,0.67-2.39,1.01c0.06-0.01,0.13-0.03,0.19-0.04
				c-1.77,0-3.54,0-5.32,0c0.07,0.01,0.13,0.02,0.2,0.03c-0.8-0.34-1.59-0.67-2.39-1.01c0.15,0.05,0.28,0.13,0.4,0.23
				c-0.67-0.52-1.35-1.04-2.02-1.56c0.13,0.12,0.25,0.24,0.35,0.39c-0.52-0.67-1.04-1.35-1.56-2.02c0.1,0.14,0.19,0.29,0.25,0.45
				c-0.34-0.8-0.67-1.59-1.01-2.39c0.71,1.8,1.2,3.65,1.47,5.56c-0.12-0.89-0.24-1.77-0.36-2.66c0.16,1.32,0.23,2.63,0.18,3.96
				c6.55-0.89,13.1-1.77,19.64-2.66c-0.89-3.94-1.61-7.92-2.16-11.92c0.12,0.89,0.24,1.77,0.36,2.66c-0.33-2.5-0.6-5.01-0.8-7.53
				c-6.55,0.89-13.1,1.77-19.64,2.66c1.47,3.65,2.47,7.46,3,11.36c-0.12-0.89-0.24-1.77-0.36-2.66c0.35,2.72,0.46,5.45,0.34,8.19
				c-0.11,2.49,1.19,5.33,2.93,7.07c1.73,1.73,4.58,3.04,7.07,2.93c5.61-0.25,9.75-4.39,10-10c0.33-7.48-0.9-15.26-3.7-22.21
				c-0.31-1.3-0.91-2.43-1.79-3.4c-0.71-1.09-1.64-1.95-2.81-2.58c-2.02-1.07-4.1-1.49-6.38-1.19c-2.1,0.28-4.27,1.14-5.74,2.75
				c-1.71,1.87-3.14,4.45-2.93,7.07c0.59,7.43,1.67,14.84,3.31,22.11c0.52,2.28,2.53,4.88,4.6,5.98c2.02,1.07,4.1,1.49,6.38,1.19
				c4.98-0.67,8.5-4.8,8.67-9.82c0.11-3.38-0.33-6.89-1.29-10.14c-0.76-2.58-1.78-5.17-3.7-7.11c-3.29-3.32-9.26-4.73-13.28-1.83
				c-2.17,1.56-3.86,3.32-4.6,5.98c-0.66,2.39-0.36,5.58,1.01,7.71c1.38,2.14,3.43,4.01,5.98,4.6
				C706.06,287.38,709.13,287.36,711.28,285.81L711.28,285.81z"/>
		</g>
	</g>
	<g>
		<g>
			<path class="st1" d="M708.02,264.64c2.44,0.44,4.87,0.9,7.31,1.3c2.58,0.42,4.65,0.69,7.2-0.06c3.2-0.94,5.45-3.04,7.33-5.68
				c2.55-3.57,4.56-7.66,6.39-11.64c4.11-8.96,7.19-18.28,8.7-28.03c0.43-2.75,0.45-5.21-1.01-7.71c-1.21-2.07-3.59-4.05-5.98-4.6
				c-2.56-0.58-5.43-0.46-7.71,1.01c-2.04,1.32-4.21,3.46-4.6,5.98c-1.23,7.91-3.43,15.63-6.53,23c0.34-0.8,0.67-1.59,1.01-2.39
				c-1.07,2.52-2.24,5-3.52,7.42c-1.23,2.32-2.47,4.74-4.03,6.86c0.52-0.67,1.04-1.35,1.56-2.02c-0.24,0.28-0.46,0.51-0.75,0.75
				c0.67-0.52,1.35-1.04,2.02-1.56c-0.19,0.14-0.39,0.25-0.61,0.33c0.8-0.34,1.59-0.67,2.39-1.01c-0.12,0.03-0.24,0.07-0.37,0.1
				c0.89-0.12,1.77-0.24,2.66-0.36c-0.4,0.05-0.74,0.05-1.14,0.01c0.89,0.12,1.77,0.24,2.66,0.36c-2.57-0.36-5.13-0.9-7.69-1.36
				c-2.7-0.48-5.26-0.42-7.71,1.01c-2.07,1.21-4.05,3.59-4.6,5.98c-0.58,2.56-0.46,5.43,1.01,7.71
				C703.38,262.11,705.49,264.18,708.02,264.64L708.02,264.64z"/>
		</g>
	</g>
	<g>
		<g>
			<path class="st1" d="M725.93,216.83c0.23,3.84,0.43,7.69-0.07,11.52c0.12-0.89,0.24-1.77,0.36-2.66
				c-0.31,2.14-0.86,4.18-1.69,6.19c0.34-0.8,0.67-1.59,1.01-2.39c-1.98,4.63-4.66,9.03-7.25,13.34c-2.62,4.37-5.41,8.64-8.33,12.81
				c-1.42,2.02-1.64,5.41-1.01,7.71c0.64,2.32,2.43,4.83,4.6,5.98c2.32,1.23,5.13,1.84,7.71,1.01c2.59-0.84,4.41-2.36,5.98-4.6
				c4.77-6.8,9.16-13.87,13.11-21.18c2.23-4.12,4.35-8.43,5.1-13.1c0.79-4.92,0.79-9.68,0.49-14.63c-0.16-2.66-1.01-5.15-2.93-7.07
				c-1.73-1.73-4.58-3.04-7.07-2.93c-2.59,0.12-5.27,0.97-7.07,2.93C727.12,211.64,725.77,214.18,725.93,216.83L725.93,216.83z"/>
		</g>
	</g>
	<g>
		<g>
			<path class="st1" d="M732.93,260.16c3.03-6.91,6.05-13.82,9.08-20.73c0.73-1.15,1.13-2.39,1.19-3.72
				c0.3-1.33,0.24-2.66-0.18-3.99c-0.64-2.32-2.43-4.83-4.6-5.98c-2.32-1.23-5.13-1.84-7.71-1.01c-2.31,0.75-4.96,2.27-5.98,4.6
				c-3.03,6.91-6.05,13.82-9.08,20.73c-0.73,1.15-1.13,2.39-1.19,3.72c-0.3,1.33-0.24,2.66,0.18,3.99c0.64,2.32,2.43,4.83,4.6,5.98
				c2.32,1.23,5.13,1.84,7.71,1.01C729.27,264.01,731.91,262.49,732.93,260.16L732.93,260.16z"/>
		</g>
	</g>
	<g>
		<g>
			<path class="st1" d="M680.36,206.55c2.94,3.63,8.03,4.62,12.4,5.29c4.27,0.65,8.57,1.07,12.85,1.64
				c-0.89-0.12-1.77-0.24-2.66-0.36c10.78,1.46,21.43,3.77,31.85,6.93c5.01,1.52,11.12-1.81,12.3-6.98
				c1.23-5.4-1.62-10.68-6.98-12.3c-6.66-2.02-13.42-3.7-20.25-5.03c-7.55-1.46-15.18-2.3-22.8-3.31c0.89,0.12,1.77,0.24,2.66,0.36
				c-2.62-0.36-5.43-0.66-7.9-1.65c0.8,0.34,1.59,0.67,2.39,1.01c-0.34-0.16-0.65-0.33-0.97-0.54c0.67,0.52,1.35,1.04,2.02,1.56
				c-0.3-0.24-0.53-0.47-0.78-0.77c-1.51-1.87-4.77-2.93-7.07-2.93c-2.45,0-5.38,1.09-7.07,2.93c-1.75,1.91-3.05,4.41-2.93,7.07
				c0.12,0.89,0.24,1.77,0.36,2.66C678.26,203.83,679.12,205.3,680.36,206.55L680.36,206.55z"/>
		</g>
	</g>
	<g>
		<g>
			<path class="st1" d="M706.87,199.93c0.21-0.08,0.42-0.14,0.64-0.18c-0.79,0.09-0.91,0.12-0.35,0.09c0.17,0,0.33,0.01,0.5,0.03
				c0.39,0.04,0.22,0.01-0.49-0.06c0.05-0.11,2.12,0.54,2.36,0.61c2.14,0.6,4.4,1,6.59,0.45c1.06-0.27,2.08-0.74,2.96-1.38
				c0.4-0.3,0.79-0.6,1.17-0.9c-0.48,0.37-0.49,0.38-0.01,0.05c0.37-0.22,0.72-0.46,1.07-0.71c2.3-1.64,3.71-3.8,4.6-6.46
				c1.29-3.85,1.36-8.13,1.53-12.16c0.04-0.99,0.09-1.99,0.15-2.98c0.03-0.49,0.07-0.98,0.12-1.48c0.03-0.3,0.01-1.75,0.05-0.55
				c-0.03-0.9,0.36-2,0.59-2.85c0.11-0.4,0.23-0.8,0.37-1.19c0.09-0.26,0.19-0.52,0.29-0.78c-0.24,0.55-0.24,0.56,0,0.04
				c1.11-2.36,0.74-5.5-1.79-6.84c-2.22-1.17-5.66-0.73-6.84,1.79c-1.84,3.92-2.54,7.98-2.81,12.28c-0.12,1.85-0.16,3.7-0.27,5.55
				c-0.05,0.92-0.12,1.85-0.22,2.76c-0.02,0.21-0.05,0.42-0.07,0.63c0.09-0.63,0.09-0.65,0-0.07c-0.08,0.42-0.15,0.83-0.23,1.25
				c-0.13,0.61-0.22,1.84-0.64,2.3c0.27-0.6,0.28-0.65,0.04-0.14c-0.09,0.17-0.18,0.33-0.28,0.49c-0.2,0.3-0.12,0.22,0.22-0.25
				c-0.17,0.19-0.35,0.37-0.54,0.53c0.77-0.71-0.25,0.1-0.39,0.19c-0.59,0.4-1.12,0.85-1.69,1.27c0.48-0.36,0.49-0.38,0.03-0.06
				c-0.45,0.24-0.47,0.26-0.06,0.07c0.4-0.16,0.39-0.17-0.02-0.05c0.81-0.08,0.93-0.11,0.38-0.08c-0.11,0-0.22-0.01-0.32-0.01
				c-0.55-0.05-0.43-0.03,0.34,0.05c-0.21-0.12-0.76-0.17-1-0.23c-0.79-0.2-1.57-0.46-2.36-0.65c-2.06-0.49-4.23-0.69-6.27-0.02
				c-2.48,0.81-4.35,3.5-3.49,6.15C701.52,198.92,704.21,200.79,706.87,199.93L706.87,199.93z"/>
		</g>
	</g>
	<g>
		<g>
			<path class="st1" d="M723.66,144.27c0.11,0.25,0.2,0.51,0.26,0.78c-0.06-0.66-0.07-0.7-0.03-0.11c0,0.28,0,0.56-0.03,0.83
				c0.1-0.63,0.1-0.65,0.01-0.07c-0.2,1.04-0.43,2.08-0.64,3.12c-0.45,2.28-0.85,4.56-1.19,6.86c-0.73,4.96-1.27,9.93-1.52,14.94
				c-0.13,2.62,2.4,5.12,5,5c2.82-0.13,4.86-2.2,5-5c0.12-2.4,0.3-4.79,0.54-7.18c0.13-1.27,0.28-2.54,0.44-3.82
				c0.08-0.6,0.08-0.63,0.01-0.1c0.04-0.32,0.09-0.63,0.14-0.95c0.08-0.55,0.17-1.11,0.25-1.66c0.38-2.37,0.81-4.73,1.31-7.08
				c0.57-2.69,1.12-5.57,0.09-8.22c-0.95-2.43-3.39-4.38-6.15-3.49C724.79,138.88,722.63,141.66,723.66,144.27L723.66,144.27z"/>
		</g>
	</g>
	<g>
		<g>
			<path class="st1" d="M723.66,143.23c-3.94,17.3-6.62,34.89-8,52.58c-0.39,4.94-0.66,9.89-0.85,14.84c-0.1,2.62,2.37,5.12,5,5
				c2.79-0.12,4.9-2.2,5-5c0.31-8.6,0.93-17.19,1.87-25.75c0.23-2.1,0.48-4.2,0.75-6.29c0.07-0.56,0.15-1.13,0.22-1.69
				c0.08-0.59,0,0.02-0.02,0.12c0.03-0.24,0.07-0.48,0.1-0.72c0.16-1.13,0.32-2.25,0.48-3.38c0.63-4.26,1.34-8.5,2.12-12.74
				c0.89-4.79,1.88-9.56,2.96-14.31c0.58-2.54-0.78-5.53-3.49-6.15C727.27,139.16,724.29,140.5,723.66,143.23L723.66,143.23z"/>
		</g>
	</g>
	<g>
		<g>
			<path class="st1" d="M720.48,168.82c0.01,7.29,0.03,14.59,0.04,21.88c0.01,3.86,0.04,7.7,0.78,11.51
				c0.65,3.35,2.01,6.63,3.81,9.53c1.37,2.22,4.53,3.28,6.84,1.79c2.23-1.44,3.27-4.46,1.79-6.84c-0.41-0.67-0.81-1.35-1.16-2.06
				c-0.16-0.32-0.31-0.65-0.46-0.97c0.3,0.64,0.09,0.21-0.07-0.2c-0.54-1.44-0.89-2.9-1.2-4.4c-0.03-0.16-0.05-0.32-0.08-0.48
				c0.06,0.45,0.06,0.49,0.02,0.13c-0.03-0.4-0.08-0.8-0.11-1.21c-0.07-0.89-0.11-1.78-0.13-2.67c-0.04-1.71-0.03-3.43-0.03-5.15
				c-0.01-6.96-0.03-13.92-0.04-20.89c0-2.62-2.3-5.12-5-5C722.78,163.94,720.48,166.01,720.48,168.82L720.48,168.82z"/>
		</g>
	</g>
	<g>
		<g>
			<path class="st1" d="M721.51,193.51c-1.82,2.64-0.99,6.22,1.01,8.47c1.27,1.42,3.09,2.17,4.76,3c1.65,0.82,3.44,1.99,5.24,2.37
				c1.67,0.36,3.48,0.21,4.95-0.72c0.57-0.36,1.12-0.81,1.54-1.34c0.22-0.27,0.42-0.52,0.69-0.74c-0.34,0.26-0.67,0.52-1.01,0.78
				c0.12-0.09,0.25-0.16,0.39-0.22c-0.4,0.17-0.8,0.34-1.19,0.5c0.29-0.11,0.57-0.18,0.87-0.23c-0.44,0.06-0.89,0.12-1.33,0.18
				c1.87-0.24,3.58-0.23,5.31-1.11c2.23-1.13,3.55-3.34,3.64-5.82c0.09-2.62-2.36-5.12-5-5c-2.79,0.12-4.9,2.2-5,5
				c0,0.06,0,0.12-0.01,0.19c0.06-0.44,0.12-0.89,0.18-1.33c-0.01,0.12-0.04,0.23-0.09,0.34c0.17-0.4,0.34-0.8,0.5-1.19
				c-0.05,0.11-0.1,0.21-0.17,0.3c0.26-0.34,0.52-0.67,0.78-1.01c-0.12,0.15-0.24,0.26-0.39,0.38c0.34-0.26,0.67-0.52,1.01-0.78
				c-0.16,0.11-0.32,0.2-0.5,0.29c0.4-0.17,0.8-0.34,1.19-0.5c-0.31,0.13-0.62,0.22-0.95,0.27c0.44-0.06,0.89-0.12,1.33-0.18
				c-1.31,0.15-2.67,0.09-3.93,0.52c-1.16,0.4-2.07,0.9-2.95,1.77c-0.35,0.34-0.58,0.76-0.96,1.07c0.34-0.26,0.67-0.52,1.01-0.78
				c-0.06,0.04-0.12,0.08-0.19,0.11c0.4-0.17,0.8-0.34,1.19-0.5c-0.14,0.07-0.29,0.11-0.45,0.12c0.44-0.06,0.89-0.12,1.33-0.18
				c-0.16,0.01-0.31,0-0.47-0.02c0.44,0.06,0.89,0.12,1.33,0.18c-0.25-0.06-0.46-0.13-0.7-0.22c0.4,0.17,0.8,0.34,1.19,0.5
				c-1.18-0.53-2.33-1.14-3.48-1.72c-1.06-0.53-2.21-1-3.16-1.72c0.34,0.26,0.67,0.52,1.01,0.78c-0.19-0.17-0.36-0.33-0.52-0.53
				c0.26,0.34,0.52,0.67,0.78,1.01c-0.14-0.2-0.24-0.38-0.33-0.6c0.17,0.4,0.34,0.8,0.5,1.19c-0.05-0.14-0.09-0.29-0.12-0.45
				c0.06,0.44,0.12,0.89,0.18,1.33c-0.02-0.15-0.03-0.3-0.02-0.45c-0.06,0.44-0.12,0.89-0.18,1.33c0.01-0.15,0.04-0.29,0.1-0.43
				c-0.17,0.4-0.34,0.8-0.5,1.19c0.05-0.14,0.13-0.27,0.22-0.38c0.7-1.02,0.82-2.69,0.5-3.85s-1.22-2.42-2.3-2.99
				C725.81,190.37,723.1,191.2,721.51,193.51L721.51,193.51z"/>
		</g>
	</g>
	<g>
		<g>
			<path class="st1" d="M737.49,201.15c-0.06,0.89-0.06,1.88-0.26,2.76c0.28-1.26,0,0.01-0.04,0.24c-0.06,0.39-0.12,0.78-0.19,1.17
				c-0.31,1.75-0.69,3.49-1.13,5.22c-0.86,3.4-1.91,6.75-2.96,10.09c-0.78,2.5,0.92,5.57,3.49,6.15c2.72,0.62,5.31-0.82,6.15-3.49
				c2.28-7.25,4.41-14.51,4.93-22.13c0.18-2.61-2.43-5.12-5-5C739.63,196.28,737.68,198.35,737.49,201.15L737.49,201.15z"/>
		</g>
	</g>
	<g>
		<g>
			<path class="st1" d="M713.5,215.64c2.62,0,5.12-2.3,5-5c-0.12-2.71-2.2-5-5-5c-2.62,0-5.12,2.3-5,5
				C708.62,213.35,710.7,215.64,713.5,215.64L713.5,215.64z"/>
		</g>
	</g>
	<g>
		<g>
			<path class="st1" d="M713.14,215.64c2.62,0,5.12-2.3,5-5c-0.12-2.71-2.2-5-5-5c-2.62,0-5.12,2.3-5,5
				C708.26,213.35,710.33,215.64,713.14,215.64L713.14,215.64z"/>
		</g>
	</g>
	<g>
		<g>
			<path class="st1" d="M730.57,212.88c-1.93-2.46-4.6-4.23-7.05-6.12c0.34,0.26,0.67,0.52,1.01,0.78
				c-1.52-1.18-3.01-2.42-4.19-3.95c0.26,0.34,0.52,0.67,0.78,1.01c-0.19-0.26-0.38-0.52-0.55-0.79c-0.71-1.09-1.71-1.95-2.99-2.3
				c-1.2-0.33-2.79-0.18-3.85,0.5c-1.07,0.69-2.01,1.71-2.3,2.99c-0.29,1.27-0.24,2.73,0.5,3.85c1.07,1.63,2.35,3.1,3.83,4.38
				c1.49,1.28,3.09,2.43,4.65,3.63c-0.34-0.26-0.67-0.52-1.01-0.78c1.49,1.15,2.93,2.37,4.1,3.86c0.74,0.94,2.41,1.46,3.54,1.46
				c1.23,0,2.69-0.54,3.54-1.46c0.87-0.95,1.52-2.2,1.46-3.54c-0.06-0.44-0.12-0.89-0.18-1.33
				C731.62,214.23,731.19,213.5,730.57,212.88L730.57,212.88z"/>
		</g>
	</g>
	<g>
		<g>
			<path class="st1" d="M718.36,208.88c4.35,1.13,8.84,1.8,13.32,2.04c1.24,0.07,2.68-0.61,3.54-1.46c0.87-0.87,1.52-2.29,1.46-3.54
				c-0.13-2.83-2.2-4.85-5-5c-1.6-0.09-3.2-0.24-4.79-0.45c0.44,0.06,0.89,0.12,1.33,0.18c-2.43-0.33-4.83-0.8-7.2-1.42
				c-1.27-0.33-2.72-0.16-3.85,0.5c-1.04,0.61-2.03,1.8-2.3,2.99C714.27,205.34,715.65,208.18,718.36,208.88L718.36,208.88z"/>
		</g>
	</g>
	<g>
		<g>
			<path class="st1" d="M735.37,201.5c-5.73-4.06-12.28-7.05-19.07-8.81c-2.53-0.65-5.54,0.83-6.15,3.49
				c-0.59,2.61,0.78,5.45,3.49,6.15c1.63,0.42,3.23,0.91,4.81,1.48c0.69,0.25,1.37,0.52,2.06,0.79c0.5,0.2,0.39,0.16-0.32-0.14
				c0.19,0.08,0.39,0.17,0.58,0.25c0.38,0.17,0.77,0.34,1.15,0.52c2.95,1.38,5.76,3.03,8.41,4.91c1,0.71,2.71,0.82,3.85,0.5
				c1.16-0.32,2.42-1.22,2.99-2.3C738.52,205.76,737.65,203.12,735.37,201.5L735.37,201.5z"/>
		</g>
	</g>
	<g>
		<g>
			<path class="st1" d="M694.23,206.18c2.62,0,5.12-2.3,5-5c-0.12-2.71-2.2-5-5-5c-2.62,0-5.12,2.3-5,5
				C689.35,203.89,691.42,206.18,694.23,206.18L694.23,206.18z"/>
		</g>
	</g>
	<g>
		<g>
			<path class="st1" d="M692.89,148.82c1.35,8.4,1.43,16.95,1.66,25.44c0.23,8.74,0.47,17.47,0.7,26.21c0.09,3.21,5.09,3.22,5,0
				c-0.24-8.9-0.48-17.81-0.72-26.71c-0.24-8.79-0.44-17.58-1.83-26.27c-0.21-1.33-1.88-2.08-3.08-1.75
				C693.22,146.14,692.68,147.48,692.89,148.82L692.89,148.82z"/>
		</g>
	</g>
	<g>
		<g>
			<path class="st1" d="M692.5,134.64c-0.13,17.78,0.5,35.56,1.89,53.29c0.4,5.03,0.85,10.05,1.37,15.07c0.14,1.34,1.05,2.5,2.5,2.5
				c1.24,0,2.64-1.15,2.5-2.5c-1.82-17.69-2.89-35.45-3.19-53.23c-0.09-5.04-0.11-10.09-0.07-15.13
				C697.53,131.42,692.53,131.41,692.5,134.64L692.5,134.64z"/>
		</g>
	</g>
	<g>
		<g>
			<path class="st1" d="M694.83,133.18c-0.1,20.34,1.63,40.66,5.1,60.71c0.23,1.33,1.86,2.08,3.08,1.75
				c1.41-0.39,1.98-1.74,1.75-3.08c-3.39-19.6-5.02-39.49-4.92-59.38C699.85,129.97,694.85,129.96,694.83,133.18L694.83,133.18z"/>
		</g>
	</g>
	<g>
		<g>
			<path class="st1" d="M695.08,158.64c-0.36,7.75-0.39,15.66,1.65,23.21c1.01,3.74,2.58,7.31,4.32,10.77
				c1.54,3.08,3.03,6.9,5.73,9.17c1.03,0.87,2.52,1.01,3.54,0c0.89-0.89,1.04-2.66,0-3.54c-1.18-0.99-1.86-2.25-2.57-3.59
				c-0.81-1.51-1.61-3.03-2.38-4.56c-1.62-3.22-3.03-6.52-3.93-10.02c-1.8-6.98-1.68-14.28-1.35-21.43
				C700.23,155.42,695.23,155.43,695.08,158.64L695.08,158.64z"/>
		</g>
	</g>
	<g>
		<g>
			<path class="st1" d="M751.79,161.86c-2.03,3.69-3.15,7.74-4.4,11.73c-1.23,3.95-3.02,7.51-4.85,11.2
				c-1.9,3.81-3.31,7.75-4.15,11.93c-0.85,4.23-1.25,8.54-1.65,12.83c-0.12,1.35,1.24,2.5,2.5,2.5c1.46,0,2.38-1.15,2.5-2.5
				c0.37-4,0.74-8,1.56-11.94c0.82-3.92,2.16-7.54,3.97-11.11c1.84-3.64,3.58-7.25,4.81-11.15c1.18-3.72,2.14-7.52,4.03-10.96
				C757.66,161.56,753.35,159.04,751.79,161.86L751.79,161.86z"/>
		</g>
	</g>
	<g>
		<g>
			<path class="st1" d="M694.16,167.74c1.01,11.76,5.37,22.82,12.59,32.14c0.83,1.07,2.67,0.87,3.54,0c1.05-1.05,0.83-2.46,0-3.54
				c-6.34-8.18-10.25-18.3-11.13-28.61c-0.11-1.35-1.07-2.5-2.5-2.5C695.39,165.24,694.04,166.39,694.16,167.74L694.16,167.74z"/>
		</g>
	</g>
	<g>
		<g>
			<path class="st1" d="M694.28,129.23c-0.69,4.35-1.38,8.7-2.06,13.05c-0.2,1.29,0.33,2.75,1.75,3.08c1.2,0.27,2.86-0.36,3.08-1.75
				c0.69-4.35,1.38-8.7,2.06-13.05c0.2-1.29-0.33-2.75-1.75-3.08C696.16,127.21,694.5,127.85,694.28,129.23L694.28,129.23z"/>
		</g>
	</g>
	<g>
		<g>
			<path class="st1" d="M694.17,129.91c0.03,1.96-0.02,3.93-0.15,5.89c-0.06,0.94-0.15,1.88-0.25,2.82
				c-0.05,0.47-0.11,0.94-0.17,1.4c-0.04,0.3-0.04,0.31,0,0.04c-0.02,0.12-0.03,0.23-0.05,0.35c-0.04,0.27-0.08,0.54-0.12,0.82
				c-0.2,1.29,0.33,2.75,1.75,3.08c1.19,0.27,2.86-0.36,3.08-1.75c0.65-4.19,0.98-8.4,0.92-12.64c-0.02-1.31-1.14-2.56-2.5-2.5
				C695.33,127.47,694.15,128.51,694.17,129.91L694.17,129.91z"/>
		</g>
	</g>
	<g>
		<g>
			<path class="st1" d="M659.75,149.37c3.51,9.01,7.32,17.91,11.45,26.66c2.05,4.35,4.19,8.66,6.39,12.93
				c2.03,3.93,4.14,7.81,5.1,12.17c0.69,3.14,5.51,1.81,4.82-1.33c-0.98-4.45-3.09-8.53-5.18-12.54c-2.21-4.26-4.35-8.55-6.41-12.88
				c-4.1-8.64-7.89-17.42-11.36-26.33c-0.49-1.26-1.68-2.13-3.08-1.75C660.29,146.63,659.25,148.11,659.75,149.37L659.75,149.37z"/>
		</g>
	</g>
	<g>
		<g>
			<path class="st1" d="M664.57,146.35c-0.04-0.07-0.08-0.14-0.11-0.22c0.08,0.64,0.17,1.28,0.25,1.93
				c0.02-0.08,0.04-0.16,0.05-0.24c-0.21,0.37-0.43,0.74-0.64,1.1c-0.03,0.01-0.06,0.03-0.08,0.04c-0.42,0.11-0.84,0.23-1.26,0.34
				c0.09,0,0.18,0,0.28-0.01c-0.42-0.11-0.84-0.23-1.26-0.34c-0.31-0.46-0.36-0.5-0.13-0.11c0.11,0.24,0.22,0.48,0.31,0.72
				c0.26,0.61,0.52,1.21,0.78,1.82c0.52,1.21,1.04,2.43,1.56,3.64c0.97,2.28,1.95,4.55,2.92,6.83c2.01,4.7,4.03,9.41,6.04,14.11
				c2.01,4.7,4.03,9.41,6.04,14.11c0.62,1.44,1.78,3.26,1.07,4.84c-0.7,1.57-2.36,2.7-3.72,3.65c1.22,0.5,2.45,1,3.67,1.49
				c-2.75-7.66-0.44-16.02-1.8-23.92c-0.72-4.15-2.78-7.63-4.9-11.2c-2.2-3.71-3.83-7.62-4.87-11.81c-0.78-3.12-5.6-1.8-4.82,1.33
				c1.06,4.28,2.72,8.42,4.93,12.24c2.03,3.51,4.13,6.7,4.84,10.76c0.66,3.81,0.32,7.78,0.26,11.62c-0.06,4.14,0.13,8.37,1.54,12.3
				c0.5,1.4,2.25,2.48,3.67,1.49c3.13-2.18,6.67-5.14,6.44-9.36c-0.14-2.49-1.51-4.86-2.48-7.11c-0.97-2.28-1.95-4.55-2.92-6.83
				c-3.93-9.18-7.86-18.36-11.79-27.53c-0.52-1.21-1.04-2.43-1.56-3.64c-0.47-1.1-0.83-2.32-1.7-3.17c-2.53-2.47-6.57,0.5-4.92,3.63
				C661.76,151.72,666.08,149.2,664.57,146.35L664.57,146.35z"/>
		</g>
	</g>
	<g>
		<g>
			<path class="st1" d="M665.26,146.97c0.07,0.08,0.29,1.67,0.24,1.74c-0.17,0.2-0.49,0.1-0.62,0.2c-0.75,0.6-0.19-0.12-0.23,0.01
				c-0.03,0.1,0.45,0.75,0.51,0.88c0.2,0.41,0.36,0.83,0.53,1.25c0.87,2.13,1.73,4.26,2.6,6.39c1.73,4.26,3.46,8.53,5.2,12.79
				c2.84,6.99,5.41,14.35,9.82,20.54c2.42,3.39,5.33,6.34,8.93,8.45c2.78,1.63,5.3-2.69,2.52-4.32
				c-6.92-4.07-10.58-11.73-13.55-18.88c-1.93-4.64-3.79-9.32-5.69-13.98c-1.97-4.85-3.72-9.89-5.97-14.62
				c-1.06-2.23-3.3-4.09-5.88-3.28c-2.76,0.86-3.88,4.17-1.94,6.35C663.87,152.91,667.39,149.37,665.26,146.97L665.26,146.97z"/>
		</g>
	</g>
	<g>
		<g>
			<path class="st1" d="M674.1,185.65c-1.27,4.43,1.66,8.43,3.83,12.03c2.28,3.79,4.57,7.58,6.85,11.37
				c1.66,2.75,5.98,0.24,4.32-2.52c-2.07-3.43-4.13-6.86-6.2-10.29c-0.99-1.64-2.03-3.27-2.96-4.95c-0.73-1.32-1.46-2.79-1.02-4.32
				C679.81,183.88,674.99,182.56,674.1,185.65L674.1,185.65z"/>
		</g>
	</g>
	<g>
		<g>
			<path class="st1" d="M679.85,206.23c2.88-8.61,0.46-17.72-2.06-26.1c-2.73-9.08-5.47-18.15-8.21-27.23
				c-1.26-4.18-2.11-9.63-6.78-11.28c-1.38-0.49-2.59,0.57-3.08,1.75c-1.71,4.17,0.43,8.52,1.98,12.37
				c1.67,4.15,3.29,8.32,4.85,12.51c3.12,8.38,6,16.86,8.65,25.4c1.51,4.88,2.95,9.79,4.31,14.72c0.86,3.1,5.68,1.78,4.82-1.33
				c-4.64-16.78-10.16-33.32-16.57-49.51c-0.87-2.19-1.8-4.36-2.64-6.57c-0.78-2.06-1.46-4.13-0.59-6.26
				c-1.03,0.58-2.05,1.16-3.08,1.75c0.93,0.33,1.39,1.68,1.68,2.54c0.68,1.96,1.22,3.97,1.82,5.96c1.26,4.19,2.52,8.37,3.79,12.56
				c1.26,4.19,2.52,8.37,3.79,12.56c1.18,3.93,2.39,7.86,3.1,11.91c0.76,4.33,0.78,8.74-0.62,12.94
				C674.01,207.96,678.83,209.27,679.85,206.23L679.85,206.23z"/>
		</g>
	</g>
	<g>
		<g>
			<path class="st1" d="M740.27,201.28c6.26-10.45,10.8-21.91,13.37-33.82c-1.64-0.22-3.27-0.44-4.91-0.66
				c0.62,7.34-1.21,14.44-3.07,21.47c-1.87,7.1-3.42,14.13-3.65,21.5c-0.41,13.33,1.96,28.24-6.84,39.53
				c-4.02,5.16-9.69,8.93-16.01,10.61c-3.11,0.83-1.79,5.65,1.33,4.82c13.11-3.49,22.86-14.45,25.4-27.68
				c1.43-7.45,1.08-15.04,1.07-22.58c-0.01-3.72,0.06-7.45,0.51-11.15c0.46-3.75,1.37-7.44,2.32-11.09
				c2.15-8.31,4.67-16.76,3.94-25.45c-0.1-1.24-0.87-2.3-2.17-2.46c-1.17-0.14-2.48,0.56-2.74,1.79
				c-2.48,11.52-6.81,22.51-12.86,32.62C734.29,201.53,738.61,204.04,740.27,201.28L740.27,201.28z"/>
		</g>
	</g>
	<g>
		<g>
			<path class="st1" d="M687.07,277.5c3.8-6.06-4.18-11.9-7.95-15.49c-2.64-2.51-5.27-5.02-7.91-7.52c-2.19-2.08-4.67-4.11-6.3-6.69
				s-2.37-5.58-3.24-8.48c-0.73-2.44-1.46-4.88-2.36-7.26c-1.87-4.95-4.39-9.72-8.68-12.97c-2.5-1.9-5.44-2.94-8.45-3.73
				c-3.07-0.81-6.19-1.45-8.82-3.32c-1.1-0.78-2.78-0.2-3.42,0.9c-0.73,1.25-0.21,2.64,0.9,3.42c4.49,3.19,10.19,3.04,14.95,5.55
				c4.01,2.12,6.47,6.06,8.17,10.14c1.96,4.69,2.91,9.72,4.77,14.44c1.21,3.08,2.96,5.66,5.28,8.01c2.23,2.27,4.6,4.41,6.9,6.6
				c2.76,2.62,5.51,5.24,8.27,7.86c1.23,1.17,4.82,4.01,3.57,6.01C681.04,277.71,685.36,280.22,687.07,277.5L687.07,277.5z"/>
		</g>
	</g>
	<g>
		<g>
			<path class="st1" d="M636.2,213.67c0.03,1.09-1.11,0.48-0.17,1.04c0.72,0.42,1.38,0.95,2.06,1.44c1.45,1.05,2.9,2.1,4.35,3.15
				c2.83,2.06,5.64,4.14,8.44,6.24c5.63,4.21,11.21,8.49,16.73,12.83c1.06,0.83,2.5,1.03,3.54,0c0.87-0.87,1.07-2.7,0-3.54
				c-6.76-5.31-13.58-10.53-20.48-15.66c-3.4-2.52-6.81-5.02-10.25-7.49c-1.64-1.18-3.36-2.47-5.51-2.17
				c-2.08,0.29-3.76,2-3.71,4.16C631.28,216.88,636.28,216.89,636.2,213.67L636.2,213.67z"/>
		</g>
	</g>
	<g>
		<g>
			<path class="st1" d="M668.31,234.99c-0.33-0.09-0.38-0.13-0.67-0.38c-0.38-0.32-0.72-0.71-1.09-1.04
				c-0.94-0.82-1.97-1.49-3.23-1.68c-2.73-0.4-5.58,2.14-4.62,4.99c0.89,2.62,4.87,2.25,4.91-0.66c0.02-1.24,0.52-2.49,1.59-3.36
				c1.12-0.91,2.9-1.2,4.37-1.47c4.08-0.77,8.16-1.52,12.24-2.28c1.33-0.25,2.08-1.85,1.75-3.08c-0.38-1.39-1.74-1.99-3.08-1.75
				c-4.63,0.86-9.37,1.52-13.95,2.64c-4.48,1.09-7.86,4.53-7.92,9.3c1.64-0.22,3.27-0.44,4.91-0.66c0.08,0.24-0.11,0.92-0.35,1.11
				c0.6-0.46-0.64,0.35-0.62,0.13c0-0.02,0.98,0.79,1.02,0.83c1,0.97,2.05,1.83,3.42,2.19C670.1,240.63,671.43,235.81,668.31,234.99
				L668.31,234.99z"/>
		</g>
	</g>
	<g>
		<g>
			<path class="st1" d="M699.19,183.24c1.9,4.08,4.04,8.05,6.41,11.88c0.69,1.11,2.27,1.64,3.42,0.9c1.11-0.72,1.63-2.23,0.9-3.42
				c-2.37-3.83-4.51-7.8-6.41-11.88c-0.55-1.19-2.36-1.58-3.42-0.9C698.86,180.61,698.6,181.97,699.19,183.24L699.19,183.24z"/>
		</g>
	</g>
	<g>
		<g>
			<path class="st1" d="M715.71,181.91c-0.03,0.63-0.08,1.27-0.15,1.9c-0.04,0.3-0.04,0.31,0,0.04c-0.02,0.16-0.05,0.31-0.07,0.47
				c-0.04,0.23-0.08,0.47-0.13,0.7c-0.24,1.21-0.56,2.4-0.97,3.56c-0.09,0.26-0.19,0.52-0.29,0.78c-0.06,0.15-0.12,0.3-0.18,0.44
				c0.1-0.23,0.09-0.21-0.03,0.06c-0.25,0.54-0.5,1.08-0.78,1.61c-0.57,1.09-1.23,2.13-1.95,3.13c-0.77,1.06-0.22,2.83,0.9,3.42
				c1.3,0.68,2.6,0.24,3.42-0.9c3.2-4.42,4.97-9.77,5.23-15.22c0.06-1.31-1.19-2.56-2.5-2.5
				C716.8,179.47,715.77,180.51,715.71,181.91L715.71,181.91z"/>
		</g>
	</g>
	<g>
		<g>
			<path class="st1" d="M684.48,194.77c1.45,0.22,2.9,0.44,4.35,0.66c1.56,0.23,3.13,0.43,4.69,0.01c3.01-0.83,4.34-3.57,5.21-6.31
				c0.39-1.25-0.46-2.78-1.75-3.08c-1.36-0.31-2.65,0.41-3.08,1.75c-0.14,0.45-0.29,0.9-0.46,1.34c-0.03,0.07-0.17,0.44-0.03,0.09
				c0.13-0.34-0.01,0.01-0.05,0.08c-0.11,0.22-0.22,0.44-0.36,0.65c-0.04,0.07-0.16,0.19-0.18,0.27c0.02-0.1,0.33-0.38,0.09-0.13
				c-0.07,0.08-0.14,0.16-0.22,0.23c-0.03,0.03-0.43,0.37-0.11,0.12c0.29-0.23-0.01-0.01-0.08,0.03s-0.42,0.18-0.11,0.08
				c0.38-0.13-0.58,0.14-0.58,0.14c0.02-0.06,0.53-0.04,0.11-0.02c-0.12,0.01-0.25,0.01-0.37,0.02c-0.25,0-0.5,0-0.76-0.02
				c-0.16-0.01-0.32-0.03-0.47-0.04c-0.07-0.01-0.5-0.06-0.14-0.01s-0.07-0.01-0.14-0.02c-0.14-0.02-0.28-0.04-0.42-0.06
				c-1.28-0.19-2.56-0.39-3.84-0.58c-0.69-0.1-1.3-0.11-1.93,0.25c-0.52,0.3-1.01,0.9-1.15,1.49
				C682.46,192.89,683.09,194.56,684.48,194.77L684.48,194.77z"/>
		</g>
	</g>
	<g>
		<g>
			<path class="st1" d="M753.1,158.84c-4.1-0.34-6.62,3.48-8,6.79c-1.69,4.07-2.94,8.32-3.88,12.62c-1.91,8.74-2.6,17.69-3.28,26.59
				c-0.1,1.35,1.22,2.5,2.5,2.5c1.44,0,2.4-1.15,2.5-2.5c0.6-7.85,1.19-15.73,2.73-23.47c0.77-3.87,1.77-7.7,3.1-11.42
				c0.69-1.94,1.91-6.31,4.33-6.11c1.35,0.11,2.5-1.23,2.5-2.5C755.6,159.89,754.45,158.95,753.1,158.84L753.1,158.84z"/>
		</g>
	</g>
	<g>
		<g>
			<path class="st1" d="M671.07,235.66c-3.11-2.03-6.26-4.04-9.07-6.48c-2.92-2.53-5.17-5.64-7.92-8.33
				c-5.31-5.2-12.24-8.19-19.16-10.58c-1.28-0.44-2.73,0.5-3.08,1.75c-0.38,1.37,0.47,2.63,1.75,3.08
				c6.56,2.27,13.08,5.13,17.91,10.27c2.58,2.75,4.89,5.66,7.82,8.07c2.92,2.4,6.07,4.49,9.23,6.55
				C671.25,241.74,673.76,237.41,671.07,235.66L671.07,235.66z"/>
		</g>
	</g>
	<g>
		<g>
			<path class="st1" d="M631.34,213.55c0.12-0.91,0.5-1.4,1.14-1.47c-0.33,0-0.38,0-0.16-0.02c-0.37-0.15-0.76-0.23-1.08-0.48
				c-0.1-0.08-0.35-0.37-0.34-0.37c0.14,0.01-0.4,0.51-0.41,0.44c-0.02-0.14,2.28,0.51,2.41,0.55c1.02,0.37,2,0.84,2.96,1.35
				c4.33,2.31,8.4,5.2,12.54,7.85c2,1.28,3.97,2.41,5.5,4.26c1.47,1.77,2.97,3.33,4.82,4.71c3.55,2.65,7.73,4.32,11.89,5.75
				c1.28,0.44,2.73-0.5,3.08-1.75c0.38-1.37-0.46-2.63-1.75-3.08c-3.96-1.36-8.06-2.98-11.28-5.74c-1.7-1.45-2.88-3.35-4.51-4.84
				c-1.9-1.75-4.26-3.02-6.43-4.41c-4.08-2.61-8.11-5.55-12.48-7.66c-2.02-0.97-4.4-2.1-6.7-2.02c-2.59,0.09-4.75,2.07-4.61,4.76
				c0.15,2.79,2.37,4.68,4.91,5.44c2.37,0.71,5.65-0.34,5.53-3.28C636.2,210.35,631.2,210.33,631.34,213.55L631.34,213.55z"/>
		</g>
	</g>
	<g>
		<g>
			<path class="st1" d="M630.35,210.95c3.14-1.82,6.81-0.46,9.66,1.27c3.39,2.06,6.52,4.64,9.69,7.02
				c6.59,4.95,13.06,10.08,19.03,15.79c2.32,2.23,5.87-1.31,3.54-3.54c-6.61-6.33-13.85-11.94-21.17-17.42
				c-6.41-4.79-14.83-12.33-23.27-7.44C625.04,208.24,627.56,212.56,630.35,210.95L630.35,210.95z"/>
		</g>
	</g>
	<g>
		<g>
			<path class="st1" d="M668.99,229.93c-6.84-9.75-16.41-17.17-27.54-21.38c-1.26-0.48-2.74,0.53-3.08,1.75
				c-0.39,1.4,0.48,2.6,1.75,3.08c9.83,3.72,18.52,10.48,24.55,19.08c0.77,1.1,2.19,1.62,3.42,0.9
				C669.19,232.71,669.77,231.04,668.99,229.93L668.99,229.93z"/>
		</g>
	</g>
	<g>
		<g>
			<path class="st1" d="M654.26,216.64c-2.3-3.14-4.84-6.41-8.51-8.01c-4.48-1.95-8.77-0.29-12.85,1.82c-1.81,0.94-1.42,3.29,0,4.32
				c11.28,8.15,22.57,16.77,31.24,27.77c0.84,1.06,2.66,0.88,3.54,0c1.05-1.05,0.84-2.47,0-3.54
				c-8.93-11.33-20.64-20.16-32.26-28.55c0,1.44,0,2.88,0,4.32c2.6-1.35,5.55-2.88,8.46-1.53c2.57,1.19,4.42,3.7,6.05,5.92
				c0.8,1.09,2.17,1.63,3.42,0.9C654.43,219.44,655.06,217.74,654.26,216.64L654.26,216.64z"/>
		</g>
	</g>
	<g>
		<g>
			<path class="st1" d="M633.55,214.84c6.96,1.39,10.84,8.59,14.43,14.01c5.14,7.75,10.28,15.5,15.42,23.24
				c1.77,2.67,6.1,0.17,4.32-2.52c-5.42-8.16-10.83-16.33-16.25-24.49c-4.11-6.19-8.74-13.49-16.6-15.06
				c-1.32-0.26-2.7,0.38-3.08,1.75C631.47,212.99,632.22,214.57,633.55,214.84L633.55,214.84z"/>
		</g>
	</g>
	<g>
		<g>
			<path class="st1" d="M683.41,299.78c1.64-3.5,3.55-6.86,5.71-10.06c0.73-1.09,0.24-2.82-0.9-3.42c-1.26-0.67-2.64-0.26-3.42,0.9
				c-2.16,3.2-4.07,6.57-5.71,10.06c-0.29,0.62-0.44,1.24-0.25,1.93c0.16,0.58,0.61,1.21,1.15,1.49
				C681.1,301.27,682.82,301.05,683.41,299.78L683.41,299.78z"/>
		</g>
	</g>
	<g>
		<g>
			<path class="st1" d="M685.24,303.35c4.33,0.76,8.7,1.32,13.08,1.61c4.08,0.27,8.3,0.48,12.38,0.12c3.23-0.29,6.8-1.21,8.59-4.18
				c2.16-3.59,0.3-8.26-0.18-12.08c-0.6-4.81-0.77-9.66-0.56-14.5c0.14-3.22-4.86-3.21-5,0c-0.22,5-0.01,10.01,0.63,14.98
				c0.3,2.34,0.89,4.67,1.11,7.01c0.14,1.52-0.26,2.47-1.61,3.09c-1.48,0.67-3.21,0.74-4.8,0.78c-2.45,0.07-4.91,0.05-7.36-0.04
				c-5.01-0.19-10-0.72-14.94-1.6c-1.33-0.23-2.69,0.36-3.08,1.75C683.16,301.49,683.9,303.12,685.24,303.35L685.24,303.35z"/>
		</g>
	</g>
	<g>
		<g>
			<path class="st1" d="M685.1,300.42c2.53-2.08,5.05-4.17,7.58-6.25c0.47-0.38,0.73-1.19,0.73-1.77c0-0.61-0.27-1.35-0.73-1.77
				c-0.48-0.44-1.1-0.76-1.77-0.73c-0.7,0.03-1.23,0.29-1.77,0.73c-2.53,2.08-5.05,4.17-7.58,6.25c-0.47,0.38-0.73,1.19-0.73,1.77
				c0,0.61,0.27,1.35,0.73,1.77c0.48,0.44,1.1,0.76,1.77,0.73C684.03,301.12,684.56,300.87,685.1,300.42L685.1,300.42z"/>
		</g>
	</g>
	<g>
		<g>
			<path class="st1" d="M715.92,241.49c0.16-0.46,0.33-0.91,0.52-1.36c-0.08,0.2-0.17,0.4-0.25,0.6c0.66-1.55,1.52-3.01,2.54-4.34
				c-0.13,0.17-0.26,0.34-0.39,0.51c0.21-0.27,0.42-0.53,0.64-0.78c0.44-0.51,0.73-1.07,0.73-1.77c0-0.61-0.27-1.35-0.73-1.77
				c-0.48-0.44-1.1-0.76-1.77-0.73c-0.63,0.03-1.34,0.23-1.77,0.73c-1.93,2.26-3.38,4.78-4.34,7.59c-0.2,0.59-0.06,1.4,0.25,1.93
				c0.3,0.52,0.9,1.01,1.49,1.15C714.23,243.55,715.46,242.81,715.92,241.49L715.92,241.49z"/>
		</g>
	</g>
	<g>
		<g>
			<path class="st1" d="M693.2,128.47c-2.71,3.61-2.18,8.32-1.47,12.49c0.82,4.84,1.25,9.63,1.25,14.54
				c0.02,9.71-0.87,19.41,0.55,29.08c0.75,5.15,2.25,10.15,4.72,14.74c1.53,2.83,5.84,0.31,4.32-2.52
				c-4.05-7.54-4.87-16.23-4.88-24.65c-0.02-9.66,0.88-19.32-0.53-28.94c-0.57-3.9-2.26-8.73,0.36-12.21
				c0.81-1.08,0.17-2.79-0.9-3.42C695.34,126.82,694.01,127.39,693.2,128.47L693.2,128.47z"/>
		</g>
	</g>
	<g>
		<g>
			<path class="st1" d="M687.68,242.96c3.22,0,3.22-5,0-5S684.46,242.96,687.68,242.96L687.68,242.96z"/>
		</g>
	</g>
	<g>
		<g>
			<path class="st1" d="M663.17,239.07c-1.32-3.67-3.54-6.79-6.12-9.69c-2.41-2.7-5.01-5.26-7.8-7.56
				c-5.66-4.67-12.05-8.17-19.41-9.07c-1.34-0.16-2.5,1.27-2.5,2.5c0,1.49,1.15,2.33,2.5,2.5c6.05,0.74,11.59,4.02,16.19,7.87
				c2.45,2.06,4.74,4.31,6.91,6.66c2.2,2.4,4.3,5.02,5.41,8.12c0.46,1.27,1.7,2.12,3.08,1.75
				C662.65,241.81,663.63,240.35,663.17,239.07L663.17,239.07z"/>
		</g>
	</g>
	<g>
		<g>
			<path class="st1" d="M628.81,211.79c-0.68,0.07,0.34,0.25,0.58,0.34c-0.06-0.02,0.64,0.57,0.15,0.08
				c0.01,0.06,0.02,0.12,0.03,0.17c0.01-0.31,0.01-0.33-0.01-0.08c-0.03,0.04-0.06,0.09-0.08,0.13c0.23-0.35,0.14-0.3-0.27,0.16
				c-0.16-0.19,1.36-0.1,1.43-0.08c0.77,0.18,1.47,0.51,2.18,0.85c2.34,1.14,4.57,2.53,6.65,4.09c4.15,3.12,7.74,7.02,11.05,11.02
				c6.85,8.27,12.62,17.47,20.26,25.08c4.21,4.19,9.03,7.85,14.5,10.24c1.24,0.54,2.68,0.36,3.42-0.9c0.62-1.06,0.35-2.88-0.9-3.42
				c-10.77-4.71-18.16-14.12-25.05-23.28c-7.19-9.55-14.43-19.76-25-25.86c-3.2-1.85-7.75-4.39-11.26-1.9
				c-3.13,2.22-2.21,8.81,2.31,8.35c1.34-0.14,2.5-1.05,2.5-2.5C631.31,213.04,630.16,211.65,628.81,211.79L628.81,211.79z"/>
		</g>
	</g>
	<path class="st2" d="M730.59,297.58c0.52-3.1-3.64-4.42-4.73-12c-0.32-2.2-0.73-7.39-0.73-13.09l0,0c1.78-0.11,3.15-0.46,4-0.73
		c20.77-6.52,25.33-53.59,25.45-71.27c0.03-4.61-0.23-8.11,0.73-13.82c1.21-7.23,5.23-23.13,5.82-25.45c0.78-3.1,1.52-5.93,0-7.64
		c-2.47-2.78-9.09-0.49-9.45-0.36c-14.67,5.22-17,36.53-17.82,36.36c-0.68-0.14,2.33-21.82,3.64-31.27
		c0.1-0.71,0.94-6.97,0.73-15.27c-0.32-12.73-2.34-14.81-3.64-15.64c-2.79-1.77-6.83-0.96-9.43,0.63
		c-3.09,1.88-4.59,5.11-6.55,14.18c-2.32,10.73-2.49,16.68-4.36,27.64c-1.46,8.5-2.45,14.3-3.66,14.28
		c-2.15-0.04-4.87-18.66-4.89-33.55c-0.01-4.74,0.28,4.84-0.93-14.08c-0.37-5.77-0.57-9.12-2.89-12.46
		c-0.68-0.99-3.47-4.99-6.57-4.63c-4.38,0.51-6.39,9.39-6.91,11.64c-0.91,3.99-0.81,7.16-0.73,9.09c0.75,18.35,1.12,27.52,2.19,37.3
		c0.4,3.64,0.76,6.62,0.35,6.7c-0.58,0.12-2.18-5.81-5.09-15.27c-0.84-2.73-7.82-25.03-15.27-31.27c-1.93-1.62-4.35-2.57-4.35-2.57
		c-1.56-0.62-4.74-1.88-7.04-0.79c-1.48,0.7-3.11,2.63-3.52,8.45c-0.66,9.37,2.64,17.05,5.09,23.27c0,0,8.8,22.38,10.55,40.36
		c0.26,2.72,0.05,5.57-0.36,11.27c-0.26,3.53-0.47,4.47-1.09,4.73c-1.86,0.76-4.97-5.54-9.82-10.55
		c-8.5-8.79-23.43-14.72-32.36-9.82c-0.81,0.44-5.4,3.08-6.55,8.36c-0.15,0.68-1.62,7.25,2.91,10.91c2.19,1.77,3.74,0.68,8,1.82
		c4.23,1.12,6.92,3.39,9.82,5.82c5.01,4.2,7.54,8.62,11.27,15.27c4.84,8.63,4.38,10.42,8.36,15.27c4.1,4.99,5.28,3.93,9.09,8.36
		c0.8,0.93,10.69,12.76,7.64,24.36c-1.79,6.8-6.53,7.82-5.82,10.55C674.05,311.76,728.77,308.47,730.59,297.58z"/>
</g>
<g>
	<g>
		<rect x="98.73" y="348.47" class="st3" width="30.55" height="129.82"/>
		<rect x="129.28" y="348.47" class="st3" width="30.55" height="129.82"/>
		<rect x="159.82" y="348.47" class="st3" width="30.55" height="129.82"/>
		<rect x="190.37" y="348.47" class="st3" width="30.55" height="129.82"/>
		<rect x="220.91" y="348.47" class="st3" width="30.55" height="129.82"/>
		<rect x="251.46" y="348.47" class="st3" width="30.55" height="129.82"/>
		<rect x="282" y="348.47" class="st3" width="30.55" height="129.82"/>
		<rect x="312.55" y="348.47" class="st3" width="30.55" height="129.82"/>
		<rect x="343.1" y="348.47" class="st3" width="30.55" height="129.82"/>
		<rect x="373.64" y="348.47" class="st3" width="30.55" height="129.82"/>
		<rect x="404.19" y="348.47" class="st3" width="30.55" height="129.82"/>
		<rect x="434.73" y="348.47" class="st3" width="30.55" height="129.82"/>
		<rect x="465.28" y="348.47" class="st3" width="30.55" height="129.82"/>
		<rect x="495.82" y="348.47" class="st3" width="30.55" height="129.82"/>
		<rect x="526.37" y="348.47" class="st3" width="30.55" height="129.82"/>
		<rect x="556.91" y="348.47" class="st3" width="30.55" height="129.82"/>
		<rect x="587.46" y="348.47" class="st3" width="30.55" height="129.82"/>
		<rect x="618" y="348.47" class="st3" width="30.55" height="129.82"/>
		<rect x="648.55" y="348.47" class="st3" width="30.55" height="129.82"/>
		<rect x="679.1" y="348.47" class="st3" width="30.55" height="129.82"/>
	</g>
	<rect x="118.73" y="348.47" class="st4" width="18.91" height="77.09"/>
	<rect x="150.37" y="348.47" class="st4" width="18.91" height="77.09"/>
	<rect x="211.46" y="348.47" class="st4" width="18.91" height="77.09"/>
	<rect x="242" y="348.47" class="st4" width="18.91" height="77.09"/>
	<rect x="272.55" y="348.47" class="st4" width="18.91" height="77.09"/>
	<rect x="333.64" y="348.47" class="st4" width="18.91" height="77.09"/>
	<rect x="333.64" y="348.47" class="st4" width="18.91" height="77.09"/>
	<rect x="365.28" y="348.47" class="st4" width="18.91" height="77.09"/>
	<rect x="426.37" y="348.47" class="st4" width="18.91" height="77.09"/>
	<rect x="456.91" y="348.47" class="st4" width="18.91" height="77.09"/>
	<rect x="487.46" y="348.47" class="st4" width="18.91" height="77.09"/>
	<rect x="548.55" y="348.47" class="st4" width="18.91" height="77.09"/>
	<rect x="548.55" y="348.47" class="st4" width="18.91" height="77.09"/>
	<rect x="580.19" y="348.47" class="st4" width="18.91" height="77.09"/>
	<rect x="641.28" y="348.47" class="st4" width="18.91" height="77.09"/>
	<rect x="671.82" y="348.47" class="st4" width="18.91" height="77.09"/>
</g>
<rect x="347.36" y="430.38" class="st5" width="21.82" height="44.36"/>
<g>
	<g>
		<path class="st6" d="M632.68,211.01c3.22,0,3.22-5,0-5C629.47,206.01,629.46,211.01,632.68,211.01L632.68,211.01z"/>
	</g>
</g>
<path class="st7" d="M224.92,217.98c-1.23,0.59-1.98,0.05-3.09,0.36c-2.15,0.6-3.05,3.69-3.45,5.09c-0.34,1.17-2.05,7.06,1.45,11.45
	c3.78,4.74,11.34,4.86,16.36,2c4.05-2.3,7.23-6.99,6.91-12.36c-0.38-6.31-5.36-9.76-6-10.18c-0.33-0.22-6.17-4-11.09-1.82
	c-2.56,1.13-6.25,4.49-8.36,5.09c-0.43,0.12-1.54,0.44-2.31-0.14c-0.13-0.1-0.21-0.19-0.24-0.22c-0.69-0.85,1.12-3.92,2.18-5.27
	c3.03-3.84,9.77-5.97,16-4.73c6.4,1.28,10.03,5.68,10.73,6.55c0.48,0.61,6.08,7.89,3.27,16.91c-2.19,7.04-8.51,11.91-15.45,12.73
	c-0.85,0.1-11.15,1.13-16.55-6.91c-3.76-5.61-2.97-12.39-0.73-16.73c0.55-1.07,2.99-5.77,7.27-6.36c2-0.28,4.75,0.3,5.09,1.64
	C227.18,216.06,226.09,217.41,224.92,217.98z"/>
<path class="st8" d="M322.59,192.06c-1.23,0.59-1.98,0.05-3.09,0.36c-2.15,0.6-3.05,3.69-3.45,5.09c-0.34,1.17-2.05,7.06,1.45,11.45
	c3.78,4.74,11.34,4.86,16.36,2c4.05-2.3,7.23-6.99,6.91-12.36c-0.38-6.31-5.36-9.76-6-10.18c-0.33-0.22-6.17-4-11.09-1.82
	c-2.56,1.13-6.25,4.49-8.36,5.09c-0.43,0.12-1.54,0.44-2.31-0.14c-0.13-0.1-0.21-0.19-0.24-0.22c-0.69-0.85,1.12-3.92,2.18-5.27
	c3.03-3.84,9.77-5.97,16-4.73c6.4,1.28,10.03,5.68,10.73,6.55c0.48,0.61,6.08,7.89,3.27,16.91c-2.19,7.04-8.51,11.91-15.45,12.73
	c-0.85,0.1-11.15,1.13-16.55-6.91c-3.76-5.61-2.97-12.39-0.73-16.73c0.55-1.07,2.99-5.77,7.27-6.36c2-0.28,4.75,0.3,5.09,1.64
	C324.85,190.14,323.76,191.49,322.59,192.06z"/>
<path class="st9" d="M442.29,166.52c-1.23,0.59-1.98,0.05-3.09,0.36c-2.15,0.6-3.05,3.69-3.45,5.09c-0.34,1.17-2.05,7.06,1.45,11.45
	c3.78,4.74,11.34,4.86,16.36,2c4.05-2.3,7.23-6.99,6.91-12.36c-0.38-6.31-5.36-9.76-6-10.18c-0.33-0.22-6.17-4-11.09-1.82
	c-2.56,1.13-6.25,4.49-8.36,5.09c-0.43,0.12-1.54,0.44-2.31-0.14c-0.13-0.1-0.21-0.19-0.24-0.22c-0.69-0.85,1.12-3.92,2.18-5.27
	c3.03-3.84,9.77-5.97,16-4.73c6.4,1.28,10.03,5.68,10.73,6.55c0.48,0.61,6.08,7.89,3.27,16.91c-2.19,7.04-8.51,11.91-15.45,12.73
	c-0.85,0.1-11.15,1.13-16.55-6.91c-3.76-5.61-2.97-12.39-0.73-16.73c0.55-1.07,2.99-5.77,7.27-6.36c2-0.28,4.75,0.3,5.09,1.64
	C444.55,164.6,443.46,165.95,442.29,166.52z"/>
<rect x="624.79" y="430.39" class="st9" width="19.89" height="42.33"/>
<rect x="501.67" y="430.55" class="st7" width="18.18" height="42.01"/>
<rect x="511.11" y="353.65" class="st7" width="8.75" height="85.15"/>
<path class="st10" d="M351.48,320.15c0.13-0.34,0.41-0.88,1.03-1.16c0.38-0.17,0.7-0.15,1.72-0.14c0.88,0.01,1.79,0.01,2.28,0
	c1.64-0.02,1.91-0.14,2.67,0.04c0.8,0.19,1.23,0.49,1.38,0.6c0.28,0.21,0.75,0.57,0.77,1.09c0.03,0.53-0.41,0.91-0.69,1.16
	c-0.17,0.15-0.6,0.49-1.38,0.7c-0.81,0.22-1.16,0.08-2.76,0.04c-1.79-0.04-1.99,0.12-2.96-0.08c-0.71-0.14-1.39-0.29-1.81-0.81
	C351.28,321.03,351.42,320.38,351.48,320.15z"/>
<path class="st10" d="M442.85,322.66c0.13-0.34,0.41-0.88,1.03-1.16c0.38-0.17,0.7-0.15,1.72-0.14c0.88,0.01,1.79,0.01,2.28,0
	c1.64-0.02,1.91-0.14,2.67,0.04c0.8,0.19,1.23,0.49,1.38,0.6c0.28,0.21,0.75,0.57,0.77,1.09c0.03,0.53-0.41,0.91-0.69,1.16
	c-0.17,0.15-0.6,0.49-1.38,0.7c-0.81,0.22-1.16,0.08-2.76,0.04c-1.79-0.04-1.99,0.12-2.96-0.08c-0.71-0.14-1.39-0.29-1.81-0.81
	C442.65,323.54,442.79,322.89,442.85,322.66z"/>
<g>
	<path class="st9" d="M753.95,163.12"/>
	<g>
		<path class="st9" d="M753.95,168.12c2.62,0,5.12-2.3,5-5c-0.12-2.71-2.2-5-5-5c-2.62,0-5.12,2.3-5,5
			C749.07,165.83,751.15,168.12,753.95,168.12L753.95,168.12z"/>
	</g>
</g>
<g>
	<g>
		<path class="st11" d="M697.33,138.18c2.62,0,5.12-2.3,5-5c-0.12-2.71-2.2-5-5-5c-2.62,0-5.12,2.3-5,5
			C692.46,135.89,694.53,138.18,697.33,138.18L697.33,138.18z"/>
	</g>
</g>
<g>
	<path class="st7" d="M632.68,208.51"/>
	<g>
		<path class="st7" d="M632.68,213.51c2.62,0,5.12-2.3,5-5c-0.12-2.71-2.2-5-5-5c-2.62,0-5.12,2.3-5,5
			C627.81,211.22,629.88,213.51,632.68,213.51L632.68,213.51z"/>
	</g>
</g>
<rect x="624.79" y="353.57" class="st9" width="9.94" height="85.32"/>
<rect x="562.73" y="430.55" class="st12" width="17.45" height="42.01"/>
<rect x="572.61" y="352.02" class="st13" width="2.66" height="85.15"/>
<g>
	<path class="st14" d="M304.2,36.67c3.81,2.62,3.05,7.8,6.91,9.09c1.04,0.35,2.75,0.52,3.64-0.36c1.91-1.9-0.41-8.25-4-12
		c-3.89-4.06-10.77-6.63-16.36-4.73c-11.11,3.77-15.09,24.46-7.64,33.82c3.78,4.75,9.09,6.18,9.09,6.18
		c4.78,1.29,6.55-0.77,10.18,0.73c5.92,2.44,7.63,10.6,8,12.36c0.32,1.55,1.51,8.08-2.18,14.55c-1.51,2.64-4.02,7.03-8.73,7.64
		c-4.92,0.63-10.37-3.11-10.55-6.55c-0.19-3.68,5.76-5.55,5.09-9.09c-0.32-1.72-2.07-3.11-3.64-3.27c-3.12-0.33-6.05,4.14-6.91,7.64
		c-1.51,6.13,2.76,11.39,3.27,12c4.51,5.39,12.78,7.32,19.27,4.73c8.86-3.54,10.58-13.97,11.27-18.18
		c0.34-2.05,2.23-13.5-5.09-21.45c-4.45-4.84-10.54-6.45-10.91-6.55c-5.67-1.43-8.27,0.53-11.47-1.78
		c-3.61-2.61-3.97-7.76-4.17-10.59c-0.19-2.78-0.76-10.92,4.73-14.18C296.9,34.96,301.3,34.68,304.2,36.67z"/>
	<g>
		<path class="st15" d="M327.78,70.55c0.17,0.75,0.82,1.57,1.55,1.64c0.88,0.08,1.32-1.02,1.91-0.91c1.07,0.19,1.18,4,1.18,4
			c0.15,5.23-0.78,9.23-1.73,14.45c-1.33,7.39-0.6,5.69-1.36,8.82c-0.64,2.62-1.25,4.17-0.64,6.27c0.18,0.61,0.93,3.21,3.36,4.09
			c1.66,0.61,3.19,0.07,3.64-0.09c3.65-1.35,5.43-6.29,4.45-7.27c-0.45-0.46-1.65-0.19-2.36,0.18c-1.14,0.6-1.34,1.66-2,1.64
			c-0.72-0.02-1.21-1.3-1.27-1.45c-0.8-2.12,0.49-4.22,1.27-6.18c0.33-0.82,0.61-3.43,1.18-8.64c0.75-6.86,0.95-11.35,0.27-16.27
			c-0.28-2.01-0.66-3.8-2.09-4.64c-2-1.17-4.64,0.35-4.82,0.45C329.15,67.34,327.43,68.95,327.78,70.55z"/>
		<path class="st14" d="M335.12,50.43c0.22-0.27,1.04,0.01,1.57,0.3c0.3,0.16,1.62,0.95,1.88,2.55c0.18,1.12-0.28,2-0.42,2.27
			c-0.79,1.47-2.6,2.49-4.36,2.27c-2.81-0.34-3.84-3.59-4-4.09c-0.18-0.58-0.76-2.4,0.18-4.27c0.09-0.17,1.39-2.67,4-2.82
			c2.02-0.11,4.27,1.21,4.55,3c0.19,1.24-0.53,2.87-1.55,3c-0.55,0.07-1.29-0.28-1.55-0.82c-0.23-0.49,0.02-0.97-0.39-1.5
			c-0.07-0.09-0.18-0.23-0.39-0.32c-0.49-0.21-1.01,0.13-1.11,0.19c-0.59,0.37-0.87,1.14-0.8,1.81c0.07,0.75,0.6,1.63,1.23,1.64
			c0.39,0,0.69-0.34,0.84-0.52c0.5-0.58,0.49-1.31,0.48-1.5C335.27,50.91,334.96,50.63,335.12,50.43z"/>
		<path class="st14" d="M328.41,67.12c0.47,0.46,1.33,0.56,1.94,0.3c0.56-0.23,0.75-0.71,1.21-0.67c0.34,0.03,0.57,0.31,0.67,0.42
			c1.02,1.22,0.26,5.58-0.06,9.39c-0.13,1.55-0.04,1.16-0.18,2.97c-0.14,1.73-0.35,3.64-0.97,7.52c-0.43,2.71-0.48,2.76-1.09,6.48
			c-0.65,3.98-0.79,5.15-0.55,6.79c0.26,1.72,0.55,3.68,2.06,4.55c1.88,1.08,4.31-0.26,5.15-0.73c0.38-0.21,3.53-2,3.58-4.73
			c0.01-0.94-0.34-2.15-0.97-2.3c-0.32-0.08-0.75,0.21-1.58,0.79c-1.03,0.72-1.28,1.09-1.7,1.03c-0.55-0.08-0.86-0.85-0.91-0.97
			c-0.58-1.45,0.43-3.16,0.67-3.58c0.52-0.92,0.93-4.81,1.76-12.61c0.16-1.47,0.76-7.34,0.36-12.36c-0.02-0.27-0.13-1.5-0.61-3.03
			c-0.63-2.01-1.3-4.14-3.09-4.79c-1.7-0.61-3.45,0.47-3.88,0.73c-0.41,0.25-1.64,1.01-2.06,2.48
			C328.06,65.18,327.7,66.44,328.41,67.12z"/>
	</g>
</g>
<g>
	<g>
		<path class="st16" d="M311.9,302.95c0.44-0.12,1.08-0.29,1.89-0.15c1.12,0.18,1.44,0.76,2.02,0.62c0.95-0.23,1.89-2.14,1.48-3.24
			c-0.72-1.96-6.21-2.66-9.85,0.31c-2.9,2.37-3.92,6.49-3.64,9.72c0.09,1.09,0.37,4.3,2.43,5.86c1.39,1.05,3.04,0.94,5.66,0.77
			c2.35-0.15,2.57-0.6,4.18-0.46c1.07,0.09,3.46,0.3,4.72,2.01c1.85,2.5,0.61,7.36-1.35,10.18c-2.24,3.23-6.39,5.17-9.31,3.86
			c-2.13-0.96-3.08-3.41-4.18-2.93c-0.73,0.32-1.05,1.71-0.94,2.78c0.33,3.33,5.03,5.02,5.66,5.25c0.9,0.32,6.72,2.27,11.6-2.16
			c3.69-3.35,5.48-9.11,4.18-14.35c-0.22-0.88-1.44-5.89-5.13-7.72c-1.71-0.85-3.53-0.8-4.45-0.77c-3.1,0.08-4.18,1.4-6.34,0.62
			c-0.46-0.16-1.94-0.7-2.7-2.31c-0.93-1.98-0.08-4.13,0.13-4.63C309.06,303.7,311.39,303.08,311.9,302.95z"/>
		<g>
			<path class="st16" d="M328.38,317.22c0.67,0.77,2.13,0.45,2.83,0c0.19-0.12,0.67-0.58,0.99-1.23l0,0
				c0.13-0.35,0.14-0.66,0.24-0.68c0.15-0.02,0.41,0.89,0.43,1c0.8,2.95,0.65,5.28,0.65,5.28s-0.28,4.25-0.53,12.3
				c-0.01,0.24-0.02,0.88,0.24,1.63c0.13,0.37,0.81,2.11,2.48,2.55c0.97,0.25,2.62,0.18,3.16-0.98c0.32-0.69,0.3-1.71-0.19-2.1
				c-0.32-0.26-0.63-0.08-0.92-0.23c-0.95-0.49-0.25-3.81-0.1-4.58c0.81-3.97,0.72-7.07,0.63-10.45c-0.01-0.51-0.15-4.21-1.76-7.05
				c-0.39-0.69-0.91-1.4-1.76-1.7c-0.88-0.31-1.68-0.03-2.46,0.25c-0.63,0.23-3.42,1.25-4.1,3.78
				C328.11,315.43,327.81,316.56,328.38,317.22z"/>
			<path class="st16" d="M336.8,300.15c-0.49,1.18,0.16,1.86-0.1,2.9c-0.22,0.88-1.01,1.85-1.98,1.9c-1.05,0.06-1.88-1-2.17-1.87
				c-0.07-0.22-0.42-1.26,0.19-2.2c0.49-0.75,1.34-1.05,1.99-1c0.42,0.03,0.74,0.2,1.35,0.53c0.91,0.49,1.09,0.82,1.33,0.73
				c0.43-0.16,0.65-1.48,0.19-2.45c-0.64-1.37-2.62-1.97-4.15-1.6c-2.78,0.67-3.51,4.39-3.57,4.7c-0.12,0.64-0.55,3.02,1.01,4.8
				c0.17,0.2,1.23,1.37,2.94,1.5c2.21,0.17,4.03-1.52,4.77-3.2c0.05-0.12,0.96-2.26,0.05-4.1c-0.24-0.48-0.84-1.41-1.35-1.3
				C337.05,299.56,336.9,299.91,336.8,300.15z"/>
		</g>
	</g>
</g>
<g>
	<path class="st16" d="M380.96,329.77c0.74,0.64,1.95,0.9,2.77,0.47c0.92-0.49,1.13-1.75,1.27-4.34c0.18-3.46,0.03-5.79-0.05-8.39
		c-0.12-3.77-0.17-5.66-0.09-7.13c0.04-0.7,0.18-2.94-0.19-5.83c-0.25-1.97-0.54-2.69-1.17-3.12c-1.05-0.71-2.83-0.47-3.56,0.47
		c-0.26,0.34-0.3,0.86-0.38,1.87c-0.1,1.29-0.03,2.19-0.03,2.19c1.08,13.66,0.78,17.67,0.78,17.67
		C380.09,326.48,379.63,328.62,380.96,329.77z"/>
	<path class="st10" d="M369.56,291.86c-0.98,0.74-2.79,2.15-3.94,4.66c-0.45,0.99-2.29,5.43,0,8.72c1.41,2.02,3.87,2.85,4.97,2.61
		c0.37-0.08,1.29-0.37,1.32-0.83c0.01-0.08-0.01-0.19-0.62-0.9c-0.4-0.46-0.59-0.71-0.75-0.84c-0.46-0.38-0.84-0.45-1.08-0.56
		c-1.02-0.49-1.13-2.72-0.94-4.15c0.07-0.51,0.4-2.53,2.3-4.66c2.81-3.16,8.39-5.79,14.4-4.76c1.06,0.18,8.88,1.65,11.3,8.16
		c0.38,1.02,1.56,4.67-0.23,8.16c-2.08,4.05-7.5,6.6-10.83,5.46c-0.81-0.28-2.04-0.97-2.91-0.42c-0.61,0.38-0.92,1.29-0.7,1.96
		c0.44,1.34,3.02,1.54,4.27,1.63c1.4,0.11,7.02,0.54,11.77-3.59c1.26-1.1,3.68-3.2,4.36-6.57c1.41-6.97-5.92-12.86-6.71-13.48
		c-6.98-5.46-15.43-4.12-18.33-3.64C372.77,289.57,370.38,291.24,369.56,291.86z"/>
	<path class="st15" d="M368.25,293.49"/>
	<path class="st17" d="M390.62,315.97c-0.31-0.4-0.34-1.03-0.09-1.49c0.42-0.81,1.51-0.83,1.73-0.84c0.21,0,0.9,0.01,1.8,0.65
		c0.97,0.7,1.44,1.6,2,2.89c0.88,2.02,1.33,3.03,1.69,4.52c0.54,2.2,0.63,3.92,0.7,5.55c0.22,4.53-0.41,6.09,0.89,7.69
		c0.2,0.24,1.09,1.34,2.3,1.35c1.36,0.01,2.41-1.3,3.09-2.14c0.66-0.82,1.06-1.65,2.25-2.7c0.46-0.41,0.73-0.58,0.98-0.51
		c0.66,0.16,0.91,1.75,0.84,2.75c-0.15,2.41-2.28,4.8-4.83,5.74c-2.39,0.87-5.71,0.75-7.55-1.21c-0.22-0.23-0.91-1.02-1.5-3.82
		c-0.55-2.63-0.33-3.78-0.42-7.83c0,0-0.14-6.09-1.73-8.67c-0.65-1.05-1.25-1.39-1.25-1.39
		C391.12,316.27,390.85,316.27,390.62,315.97z"/>
</g>
<path class="st10" d="M415.25,331.62c0.42-0.53,1.1-0.2,2.46-0.35c2.57-0.3,4.35-2,5.47-3.06c1.63-1.55,3.11-2.97,2.9-4.71
	c-0.27-2.24-3.16-3.37-3.57-3.53c-3.03-1.18-6.45,0.06-8.59,2c-1.99,1.8-2.68,4.01-3.13,5.53c-0.49,1.65-2.41,8.12,1.45,12.59
	c2.9,3.36,7.09,3.3,7.92,3.29c0.43-0.01,4.76-0.06,5.47-2.23c0.25-0.78,0.04-1.84-0.56-2.35c-0.66-0.57-1.47-0.17-2.68-0.12
	c-2.28,0.1-4.4-1.1-5.58-2.35C415.47,334.9,414.54,332.53,415.25,331.62z"/>
<path class="st5" d="M416.14,326.8c0.52,0.76,1.91,0.47,2.46,0.35c1.91-0.4,4.15-1.97,3.91-3.29c-0.17-0.92-1.48-1.41-2.23-1.53
	c-1.67-0.26-3.14,0.91-3.79,2.12C416.34,324.7,415.62,326.03,416.14,326.8z"/>
<g>
	<g>
		<path class="st10" d="M470.98,304.34c0.62-0.31,1.61,0.04,2.16,0.37c0.78,0.48,1.11,1.19,1.41,1.87c0.48,1.07,0.55,2.01,0.56,2.24
			c0.31,4.64-0.84,15.65,0.28,20.98c0.02,0.09,0.24,1.15,0.28,2.58c0.05,1.78,0.07,3.64-1.13,4.88c-0.17,0.17-1.1,1.14-2.16,0.93
			c-0.83-0.16-1.3-0.96-1.5-1.31c-0.77-1.32-0.6-2.75-0.56-3.08c0.27-2.42,1.11-15.07,0.18-23.23
			C470.25,308.33,469.69,304.98,470.98,304.34z"/>
		<path class="st10" d="M484.76,321.12c-0.01-0.36-0.55-0.67-0.84-0.84c-0.77-0.44-1.57-0.4-1.88-0.37
			c-3.84,0.28-7.23,0.8-9.38,1.03c-1.96,0.21-3.33,0.21-4.69,1.21c-0.35,0.26-1.39,1.02-1.27,1.87c0.08,0.55,0.61,0.9,0.8,1.02
			c1.32,0.83,2.95,0.16,5.44-0.47c2.81-0.71,2.15-0.21,5.63-1.03C481.06,322.96,484.79,322.09,484.76,321.12z"/>
		<path class="st10" d="M487.01,309.75c0.23,0.88,0.4,1.54,0.94,1.77c0.97,0.41,2.65-0.78,3.28-2.24c0.13-0.29,0.27-0.74,0.28-2.14
			c0-0.75-0.03-2.92-0.38-4.01c-0.87-2.71-6.44-3.29-9.75-3.64c-2.7-0.28-6.16,0-13.07,0.56c-0.4,0.03-1.78,0.27-4.56,0.74
			c-0.97,0.17-1.89,0.33-2.91,0.93c-0.65,0.39-1.48,0.89-1.78,1.87c-0.27,0.86,0,1.67,0.09,1.87c0.93,2.02,7.6-0.73,15.38-1.31
			c4.88-0.36,0.58,0.23,9.57,0.37c0.67,0.01,1.76,0.02,2.34,0.75C487.19,306.19,486.4,307.4,487.01,309.75z"/>
	</g>
</g>
<g>
	<g>
		<path class="st10" d="M494.67,318.27c0.13,0.66,0.69,1.03,0.73,1.05c0.9,0.57,2.25-0.06,3.04-0.79c0.86-0.8,0.64-1.35,1.34-1.84
			c0.97-0.68,2.64-0.5,3.53,0.39c0.34,0.34,0.86,1.08,0.49,6.04c-0.12,1.59-0.35,3.82-0.49,6.83c-0.08,1.82-0.08,2.88,0.61,3.68
			c0.6,0.69,1.66,1.1,2.56,0.79c0.64-0.22,1.31-0.85,1.22-1.31c-0.09-0.47-0.89-0.38-1.34-0.92c-0.79-0.94,0.08-3.05,0.37-3.81
			c1.26-3.38,1.36-8.13,0-10.91c-1.3-2.65-4.49-4.62-7.33-4.04C496.8,313.96,494.34,316.63,494.67,318.27z"/>
		<path class="st10" d="M502.7,334.43c-0.15,0.36-0.41,0.88-0.87,1.4c-1.5,1.71-3.92,1.95-5.68,1.48c-0.51-0.14-2.29-0.64-3.54-2.49
			c-1.69-2.51-0.97-5.38-0.87-5.77c0.91-3.39,3.99-4.62,4.77-4.93c0.23-0.09,3.23-1.23,5.91,0.2c0.54,0.29,1.56,0.85,1.76,1.9
			c0.11,0.56,0.01,1.39-0.43,1.58c-0.39,0.17-0.76-0.56-1.46-1.03c-1.27-0.87-2.8-0.48-3.31-0.37c-0.97,0.21-1.65,0.66-1.98,0.89
			c-0.18,0.12-0.75,0.52-1.35,1.21c-0.48,0.55-0.92,1.05-1.19,1.85c-0.15,0.45-0.47,1.37-0.11,2.37c0.29,0.82,0.88,1.25,1.12,1.43
			c0.23,0.17,0.75,0.54,1.48,0.59c1.14,0.08,2-0.68,2.35-0.99c0.58-0.51,0.5-0.7,0.96-0.96c0.62-0.35,1.71-0.52,2.24,0.17
			C502.91,333.49,502.74,334.28,502.7,334.43z"/>
	</g>
</g>
<g>
	<path class="st18" d="M507.82,305.3c0.17-0.24,0.55-0.62,1.4-0.81c0.52-0.12,0.95-0.1,2.33-0.1c1.19,0.01,2.42,0,3.09,0
		c2.22-0.02,2.58-0.1,3.61,0.02c1.09,0.13,1.67,0.34,1.86,0.42c0.38,0.15,1.01,0.39,1.05,0.76s-0.56,0.64-0.93,0.81
		c-0.23,0.1-0.81,0.34-1.86,0.49c-1.1,0.16-1.58,0.06-3.73,0.03c-2.42-0.03-2.7,0.08-4.01-0.05c-0.96-0.1-1.88-0.2-2.45-0.56
		C507.55,305.91,507.73,305.46,507.82,305.3z"/>
	<path class="st18" d="M507.82,309.58c0.17-0.24,0.55-0.62,1.4-0.81c0.52-0.12,0.95-0.1,2.33-0.1c1.19,0.01,2.42,0,3.09,0
		c2.22-0.02,2.58-0.1,3.61,0.02c1.09,0.13,1.67,0.34,1.86,0.42c0.38,0.15,1.01,0.39,1.05,0.76s-0.56,0.64-0.93,0.81
		c-0.23,0.1-0.81,0.34-1.86,0.49c-1.1,0.16-1.58,0.06-3.73,0.03c-2.42-0.03-2.7,0.08-4.01-0.05c-0.96-0.1-1.88-0.2-2.45-0.56
		C507.55,310.2,507.73,309.74,507.82,309.58z"/>
	<path class="st18" d="M511.08,315.03c-0.21-0.2-0.53-0.64-0.64-1.56c-0.07-0.56-0.03-1.02,0.08-2.51c0.09-1.28,0.19-2.6,0.23-3.31
		c0.15-2.38,0.1-2.78,0.29-3.87c0.2-1.16,0.44-1.76,0.53-1.97c0.17-0.4,0.44-1.06,0.78-1.07c0.35-0.01,0.55,0.65,0.68,1.06
		c0.08,0.25,0.25,0.89,0.31,2.04c0.06,1.19-0.07,1.7-0.25,4.01c-0.21,2.6-0.12,2.9-0.35,4.3c-0.17,1.02-0.33,2-0.71,2.58
		C511.63,315.36,511.22,315.13,511.08,315.03z"/>
	<path class="st18" d="M507.82,309.58c0.17-0.24,0.55-0.62,1.4-0.81c0.52-0.12,0.95-0.1,2.33-0.1c1.19,0.01,2.42,0,3.09,0
		c2.22-0.02,2.58-0.1,3.61,0.02c1.09,0.13,1.67,0.34,1.86,0.42c0.38,0.15,1.01,0.39,1.05,0.76s-0.56,0.64-0.93,0.81
		c-0.23,0.1-0.81,0.34-1.86,0.49c-1.1,0.16-1.58,0.06-3.73,0.03c-2.42-0.03-2.7,0.08-4.01-0.05c-0.96-0.1-1.88-0.2-2.45-0.56
		C507.55,310.2,507.73,309.74,507.82,309.58z"/>
	<path class="st18" d="M514.68,315.03c-0.21-0.2-0.53-0.64-0.64-1.56c-0.07-0.56-0.03-1.02,0.08-2.51c0.09-1.28,0.19-2.6,0.23-3.31
		c0.15-2.38,0.1-2.78,0.29-3.87c0.2-1.16,0.44-1.76,0.53-1.97c0.17-0.4,0.44-1.06,0.78-1.07c0.35-0.01,0.55,0.65,0.68,1.06
		c0.08,0.25,0.25,0.89,0.31,2.04c0.06,1.19-0.07,1.7-0.25,4.01c-0.21,2.6-0.12,2.9-0.35,4.3c-0.17,1.02-0.33,2-0.71,2.58
		C515.23,315.36,514.82,315.13,514.68,315.03z"/>
</g>
<g>
	<path class="st9" d="M468.61,158.66c0.17-0.24,0.55-0.62,1.4-0.81c0.52-0.12,0.95-0.1,2.33-0.1c1.19,0.01,2.42,0,3.09,0
		c2.22-0.02,2.58-0.1,3.61,0.02c1.09,0.13,1.67,0.34,1.86,0.42c0.38,0.15,1.01,0.39,1.05,0.76c0.04,0.37-0.56,0.64-0.93,0.81
		c-0.23,0.1-0.81,0.34-1.86,0.49c-1.1,0.16-1.58,0.06-3.73,0.03c-2.42-0.03-2.7,0.08-4.01-0.05c-0.96-0.1-1.88-0.2-2.45-0.56
		C468.34,159.28,468.52,158.82,468.61,158.66z"/>
	<path class="st9" d="M468.61,162.95c0.17-0.24,0.55-0.62,1.4-0.81c0.52-0.12,0.95-0.1,2.33-0.1c1.19,0.01,2.42,0,3.09,0
		c2.22-0.02,2.58-0.1,3.61,0.02c1.09,0.13,1.67,0.34,1.86,0.42c0.38,0.15,1.01,0.39,1.05,0.76c0.04,0.37-0.56,0.64-0.93,0.81
		c-0.23,0.1-0.81,0.34-1.86,0.49c-1.1,0.16-1.58,0.06-3.73,0.03c-2.42-0.03-2.7,0.08-4.01-0.05c-0.96-0.1-1.88-0.2-2.45-0.56
		C468.34,163.56,468.52,163.11,468.61,162.95z"/>
	<path class="st9" d="M471.87,168.39c-0.21-0.2-0.53-0.64-0.64-1.56c-0.07-0.56-0.03-1.02,0.08-2.51c0.09-1.28,0.19-2.6,0.23-3.31
		c0.15-2.38,0.1-2.78,0.29-3.87c0.2-1.16,0.44-1.76,0.53-1.97c0.17-0.4,0.44-1.06,0.78-1.07c0.35-0.01,0.55,0.65,0.68,1.06
		c0.08,0.25,0.25,0.89,0.31,2.04c0.06,1.19-0.07,1.7-0.25,4.01c-0.21,2.6-0.12,2.9-0.35,4.3c-0.17,1.02-0.33,2-0.71,2.58
		C472.42,168.72,472.01,168.49,471.87,168.39z"/>
	<path class="st9" d="M468.61,162.95c0.17-0.24,0.55-0.62,1.4-0.81c0.52-0.12,0.95-0.1,2.33-0.1c1.19,0.01,2.42,0,3.09,0
		c2.22-0.02,2.58-0.1,3.61,0.02c1.09,0.13,1.67,0.34,1.86,0.42c0.38,0.15,1.01,0.39,1.05,0.76c0.04,0.37-0.56,0.64-0.93,0.81
		c-0.23,0.1-0.81,0.34-1.86,0.49c-1.1,0.16-1.58,0.06-3.73,0.03c-2.42-0.03-2.7,0.08-4.01-0.05c-0.96-0.1-1.88-0.2-2.45-0.56
		C468.34,163.56,468.52,163.11,468.61,162.95z"/>
	<path class="st9" d="M475.47,168.39c-0.21-0.2-0.53-0.64-0.64-1.56c-0.07-0.56-0.03-1.02,0.08-2.51c0.09-1.28,0.19-2.6,0.23-3.31
		c0.15-2.38,0.1-2.78,0.29-3.87c0.2-1.16,0.44-1.76,0.53-1.97c0.17-0.4,0.44-1.06,0.78-1.07c0.35-0.01,0.55,0.65,0.68,1.06
		c0.08,0.25,0.25,0.89,0.31,2.04c0.06,1.19-0.07,1.7-0.25,4.01c-0.21,2.6-0.12,2.9-0.35,4.3c-0.17,1.02-0.33,2-0.71,2.58
		C476.02,168.72,475.61,168.49,475.47,168.39z"/>
</g>
<path class="st14" d="M359.27,54.45c0.12,0.15,0.99,1.26,2.1,1.1c1.05-0.15,1.64-1.34,1.73-1.52c0.52-1.05,0.11-1.6,0.62-2.9
	c0.23-0.59,0.53-1.37,1.11-1.66c1.39-0.69,3.85,1.68,5.19,4c0.99,1.72,1.31,3.33,1.48,4.28c0.97,5.34,0.86,9.93,0.74,13.79
	c-0.17,5.77-0.26,8.66-0.32,10.35c-0.25,6.97-0.38,10.46-0.55,12.68c-0.24,3.2-0.11,6.46-0.68,9.6c-0.42,2.32-1.04,4.64,0.06,6.67
	c0.19,0.35,0.9,1.68,2.1,1.79c1.19,0.11,2.09-1.07,2.22-1.24c0.75-0.99,0.72-2,0.99-4.41c0.26-2.27,0.23-0.85,0.62-4.14
	c1.72-14.59,1.73-24.27,1.73-24.27c0-3.62-0.11-6.19-0.25-9.38c-0.27-6.17-0.42-9.28-0.99-10.9c-0.51-1.45-1.48-3.59-1.98-6.9
	c-0.22-1.48-0.23-2.37,0-3.31c0.07-0.31,0.81-3.13,3.21-4.14c1.42-0.59,2.68-0.25,3.58,0c0.37,0.1,2.03,0.59,3.58,2.21
	c1.52,1.58,2.1,3.37,2.47,4.55c0.59,1.88,0.66,3.35,0.74,5.52c0.3,7.6,0.45,11.4,0.25,13.79c-0.15,1.74-0.19,3.5-0.37,5.24
	c-0.13,1.32-0.23,1.99-0.12,3.03c0.14,1.3,0.32,3.01,1.48,3.86c1.33,0.97,3.4,0.43,4.44-0.83c0.5-0.6,0.69-1.28,0.99-3.72
	c0.31-2.56,0.46-3.84,0.49-5.65c0.04-2.44-0.04-5.97-0.62-10.48c-0.37-2.89-0.56-4.33-0.99-6.07c-0.95-3.82-1.95-5.25-1.48-7.72
	c0.18-0.97,0.58-1.8,1.36-3.45c0.96-2.02,1.44-3.03,2.47-3.86c1.64-1.32,3.46-1.26,3.83-1.24c2.32,0.13,3.89,1.77,4.57,2.48
	c1.78,1.86,3.98,5.69,4.2,17.93c0.06,3.33,0.13,8.73-0.86,15.72c-0.88,6.2-1.69,12.42-2.59,18.62c0,0-0.2,1.4-0.12,4.83
	c0.04,1.79,0.15,2.31,0.49,2.76c0.87,1.13,2.78,1.15,4.07,0.41c1.38-0.78,1.95-2.37,2.22-3.17c2.05-6.17,1.56-13.17,2.1-21.38
	c0.18-2.67,0.23-1.88,0.49-5.38c0.87-11.29,1.38-18.07-0.86-25.51c-1.07-3.55-2.45-7.92-6.3-11.03c-1.22-0.99-4.83-3.91-9.38-2.9
	c-2.74,0.61-6.53,2.81-7.53,6.34c-0.38,1.35-0.38,2.98-1.23,3.31c-0.62,0.23-1.25-0.37-2.22-1.1c0,0-1.98-1.49-4.57-2.62
	c-0.83-0.36-3.78-1.65-6.67-0.28c-0.54,0.26-2.78,1.32-3.7,3.72c-0.55,1.42-0.43,2.79-1.36,3.31c-0.43,0.24-0.85,0.17-1.61,0
	c-2.22-0.5-3.29-0.95-3.95-1.1c-2.3-0.53-5.3,1.33-6.54,4C358.27,50,358.01,52.84,359.27,54.45z"/>
<path class="st14" d="M448.16,80.15c0.47-0.59,0.38-1.17,0.19-4.34c-0.35-5.69-0.2-5.95-0.62-9.65c-0.37-3.29-0.6-4.11-0.86-4.83
	c-0.53-1.42-1.25-3.39-2.96-4.28c-2.2-1.15-4.63,0.23-5.43,0.69c-2.1,1.2-3.12,2.99-4.82,6c-1.84,3.27-2.76,6.11-3.33,7.93
	c-0.78,2.46-1.17,4.36-1.48,5.93c-1.2,5.94-1.9,9.42-0.68,11.93c0.05,0.1,0.59,1.22,1.05,2.83c0.44,1.54,0.66,2.36,0.31,2.9
	c-0.57,0.87-2.53,0.81-3.7-0.21c-0.63-0.54-1.24-1.54-1.48-5.86c-0.23-4.23,0.06-6.62,0.06-6.62c1.26-10.19,1.89-15.28,3.02-18.21
	c1.16-2.98,4.31-11.11,10.87-13.72c2.71-1.08,4.74-0.71,5.19-0.62c3.58,0.72,5.68,3.72,6.36,4.69c0.41,0.59,1.78,2.64,2.78,8
	c0.51,2.75,0.6,6.56,0.74,14.07c0.17,8.83-0.06,8.59,0.19,10.14c0.26,1.65,0.21,2.55,0.11,4.35c-0.09,1.53-0.25,2.07-0.54,2.54
	c-0.6,0.99-1.76,1.74-2.96,1.59c-0.24-0.03-0.96-0.13-1.54-0.76c-0.62-0.67-0.72-1.55-0.8-2.41c-0.19-1.91,0.37-2.77-0.12-3.38
	c-0.33-0.4-0.87-0.36-1.54-0.34c-1.44,0.03-2.88-0.29-4.32-0.34c-0.98-0.04-2.32-0.21-5-0.55c-3.13-0.4-3.19-0.52-4.75-0.62
	c-2.5-0.17-2.44,0.12-3.89-0.14c-1.42-0.25-3.49-0.65-4.88-2.48c-0.34-0.44-0.96-1.29-1.05-2.55c-0.01-0.13-0.12-2.07,1.05-3.1
	c0.72-0.64,1.58-0.57,3.27-0.41c1.74,0.16,2.55,0.52,4.63,0.97c1.11,0.24,1.88,0.35,3.27,0.55c2.39,0.35,3.24,0.32,7.28,0.62
	C446.61,80.78,447.51,80.97,448.16,80.15z"/>
<path class="st14" d="M466.37,59.69c0.88,0.2,1.42,1.17,1.65,1.56c0.08,0.13,0.4,0.73,0.58,1.75c0.21,1.23,0.04,2.23,0,2.48
	c-1.38,8.65,0.33,13.7,0.33,13.7c0.42,1.23,1.1,2.48,2.47,4.97c0.73,1.34,1.1,1.89,1.73,2.39c1.46,1.16,3.14,1.04,3.62,1.01
	c3.24-0.22,5.32-3.23,5.76-3.86c1.34-1.94,1.68-3.9,2.3-7.72c0.57-3.51,0.7-6.46,0.82-9.1c0.14-3.02,0.91-5.99,0.99-9.01
	c0.02-0.6,0.03-1.77,0.74-2.39c0.88-0.76,2.54-0.43,3.46,0.55c0.7,0.74,0.85,1.73,0.91,2.11c0.87,6.08-0.08,15.17-0.08,15.17
	c-0.65,6.22-0.72,7.55-1.65,9.84c-0.88,2.18-2.01,3.9-2.8,4.97c-2.01,2.71-3.01,4.06-4.77,4.78c-0.73,0.3-1.98,0.65-2.55,1.84
	c-0.24,0.51-0.38,1.21-0.41,1.38c-0.19,0.98-0.15,1.75-0.13,2.01c0.2,3.82-0.22,4.31,0.13,12.88c0.01,0.17,0.04,0.86-0.08,1.75
	c-0.17,1.26-0.39,2.93-1.56,3.77c-0.82,0.59-1.73,0.49-2.06,0.46c-0.24-0.03-1.54-0.16-2.22-1.2c-0.65-0.98-0.42-2.29-0.33-2.85
	c1.2-7.47-0.47-13.34,0.66-17.1c0.08-0.27,0.37-1.18,0-1.65c-0.31-0.4-0.94-0.3-1.15-0.28c-1.64,0.16-3.48-2.11-4.53-3.4
	c-3.09-3.81-4.59-10.88-4.69-11.4c-1.81-8.83-1.25-16.82,0.91-18.66C464.69,60.18,465.48,59.49,466.37,59.69z"/>
<path class="st14" d="M525.47,64.01c0.31,0.12,0.83,0.4,1.4,0.18c0.95-0.36,1.55-1.92,1.4-3.22c-0.2-1.69-1.64-2.64-1.98-2.85
	c-3.45-2.12-8.68,1.96-9.47,2.57c-3.22,2.52-4.78,5.66-6.09,8.37c-0.48,1-2.64,5.57-3.62,12.78c-0.77,5.69-1.46,10.76,0.58,16.55
	c0.81,2.31,2.89,8.21,8.48,11.13c6.54,3.41,12.9,0.21,13.99-0.37c7.46-3.95,9.76-12.88,11.11-18.11c1.94-7.52,1.13-13.66,0.74-16.37
	c-0.81-5.71-2.42-8.7-2.96-9.65c-0.79-1.38-3.45-6.05-7.24-6.53c-1.42-0.18-2.77,0.25-3.13,0.37c-0.97,0.32-2.3,0.75-2.55,1.84
	c-0.13,0.55,0.07,1.04,0.2,1.36c0.57,1.4,1.79,2.01,2.6,2.5c0,0,1.91,1.16,4.2,4.05c1.42,1.79,2.01,3.56,2.55,5.15
	c0.29,0.85,1.55,4.76,1.15,10.02c-0.34,4.57-1.76,7.8-2.63,9.75c-1.02,2.28-2.29,5.02-4.94,7.45c-1.3,1.19-2.9,2.65-5.27,3.03
	c-3.49,0.56-6.31-1.6-6.83-2.02c-7.51-6.01-3.7-23.18-3.29-25.01c1.2-5.4,2.91-7.84,4.28-9.29
	C518.64,67.17,522.73,62.95,525.47,64.01z"/>
<path class="st14" d="M561.73,63.51c1.19-0.35,1.98,0.18,1.98,0.18c0.96,0.64,1.13,2.11,1.23,3.03c0.26,2.34-0.32,4.22-0.41,4.51
	c-0.07,0.23-0.54,3.43-1.48,9.84c-0.73,4.95-1.02,10.25-1.32,15.72c-0.06,1.07-0.19,3.51-1.23,6.34c-0.7,1.89-1.3,3.54-2.8,4.6
	c-2.18,1.54-4.68,0.82-6.91,0.18c-1.95-0.56-3.39-0.97-4.12-2.48c-0.68-1.43-0.64-3.67,0.58-4.87c0.94-0.93,2.17-0.85,2.39-0.83
	c1.37,0.12,2.32,1.21,2.39,1.29c0.49,0.58,0.6,1.07,1.15,1.29c0,0,0.54,0.21,1.23-0.09c1.75-0.76,1.65-12.97,2.22-21.06
	C557.37,70.56,559.46,64.16,561.73,63.51z"/>
<path class="st14" d="M553.37,65.76c0.2-0.07,0.77-0.28,0.99-0.83c0.34-0.86-0.33-2.2-0.33-2.21c0,0-1.07-2.34-0.58-6.62
	c0.39-3.34,3.43-5.44,4.86-6.44c3.97-2.79,8.11-2.33,9.8-2.11c1.97,0.25,4.34,0.55,6.5,2.48c2.75,2.46,3.46,6.01,4.2,9.75
	c0.52,2.6,0.96,4.83,0.41,7.72c-0.21,1.11-1.04,5.5-4.44,8c-0.83,0.61-2.4,1.76-4.53,1.84c-1.63,0.06-2.59-0.56-3.54,0.18
	c-0.88,0.68-1.12,2.03-1.07,2.94c0.13,2.35,2.34,3.53,2.63,3.68c1.11,0.57,2.3,0.55,2.3,0.55c0.91-0.01,1.18-0.29,1.56-0.09
	c0.86,0.44,0.77,2.48,0.74,4.14c-0.04,2.42,0.27,4.84,0.25,7.26c-0.09,8.46-0.05,7.48-0.08,8.46c-0.08,2.25-0.23,5.42-1.32,16.37
	c-0.92,9.25-1.1,10-1.07,12.87c0.08,6.25,0.12,9.7,2.39,12.69c2.42,3.19,6.86,5.18,10.7,3.86c2.68-0.93,4.28-3.2,5.51-4.96
	c0.89-1.27,2.34-3.39,2.72-6.53c0.31-2.55-0.28-4.28-0.66-5.42c-0.5-1.5-0.92-1.78-1.23-1.84c-0.56-0.1-1.2,0.45-1.45,1.06
	c-0.25,0.61-0.02,1.03-0.03,1.79c-0.01,0.8-0.28,1.46-0.99,2.67c-2.31,3.91-3.46,5.87-5.19,6.44c-1.46,0.48-3.59,0.4-4.86-1.01
	c-0.88-0.98-1.05-2.28-1.15-4.69c-0.25-5.97,0.16-9.19,0.16-9.19c1.31-10.25,1.32-10.12,1.48-11.49c0.96-8.37,0.67-15.16,0.49-18.94
	c-0.1-2.14-0.16-6.15-0.74-9.01c-0.4-1.94-0.6-2.92-0.91-3.68c-0.44-1.09-0.8-1.54-0.66-2.11c0.26-1.04,1.88-1.22,2.88-1.56
	c3.94-1.36,5.58-7.89,6.26-10.57c1.18-4.7,0.65-8.59,0.33-10.76c-0.53-3.63-1.46-9.95-6.17-14.44c-4.95-4.72-11.01-4.47-14.49-4.32
	c-3.32,0.14-9.32,0.39-13.75,5.42c-1.15,1.31-4.7,5.79-4.03,11.31c0.38,3.17,2.06,5.91,3.7,6.9
	C551.39,65.54,552.36,66.13,553.37,65.76z"/>
<g>
	<path class="st18" d="M423.41,303.01c0.17-0.24,0.55-0.62,1.4-0.81c0.52-0.12,0.95-0.1,2.33-0.1c1.19,0.01,2.42,0,3.09,0
		c2.22-0.02,2.58-0.1,3.61,0.02c1.09,0.13,1.67,0.34,1.86,0.42c0.38,0.15,1.01,0.39,1.05,0.76s-0.56,0.64-0.93,0.81
		c-0.23,0.1-0.81,0.34-1.86,0.49c-1.1,0.16-1.58,0.06-3.73,0.03c-2.42-0.03-2.7,0.08-4.01-0.05c-0.96-0.1-1.88-0.2-2.45-0.56
		C423.14,303.62,423.32,303.17,423.41,303.01z"/>
	<path class="st18" d="M423.41,307.29c0.17-0.24,0.55-0.62,1.4-0.81c0.52-0.12,0.95-0.1,2.33-0.1c1.19,0.01,2.42,0,3.09,0
		c2.22-0.02,2.58-0.1,3.61,0.02c1.09,0.13,1.67,0.34,1.86,0.42c0.38,0.15,1.01,0.39,1.05,0.76s-0.56,0.64-0.93,0.81
		c-0.23,0.1-0.81,0.34-1.86,0.49c-1.1,0.16-1.58,0.06-3.73,0.03c-2.42-0.03-2.7,0.08-4.01-0.05c-0.96-0.1-1.88-0.2-2.45-0.56
		C423.14,307.91,423.32,307.45,423.41,307.29z"/>
	<path class="st18" d="M426.67,312.74c-0.21-0.2-0.53-0.64-0.64-1.56c-0.07-0.56-0.03-1.02,0.08-2.51c0.09-1.28,0.19-2.6,0.23-3.31
		c0.15-2.38,0.1-2.78,0.29-3.87c0.2-1.16,0.44-1.76,0.53-1.97c0.17-0.4,0.44-1.06,0.78-1.07c0.35-0.01,0.55,0.65,0.68,1.06
		c0.08,0.25,0.25,0.89,0.31,2.04c0.06,1.19-0.07,1.7-0.25,4.01c-0.21,2.6-0.12,2.9-0.35,4.3c-0.17,1.02-0.33,2-0.71,2.58
		C427.22,313.07,426.81,312.84,426.67,312.74z"/>
	<path class="st18" d="M423.41,307.29c0.17-0.24,0.55-0.62,1.4-0.81c0.52-0.12,0.95-0.1,2.33-0.1c1.19,0.01,2.42,0,3.09,0
		c2.22-0.02,2.58-0.1,3.61,0.02c1.09,0.13,1.67,0.34,1.86,0.42c0.38,0.15,1.01,0.39,1.05,0.76s-0.56,0.64-0.93,0.81
		c-0.23,0.1-0.81,0.34-1.86,0.49c-1.1,0.16-1.58,0.06-3.73,0.03c-2.42-0.03-2.7,0.08-4.01-0.05c-0.96-0.1-1.88-0.2-2.45-0.56
		C423.14,307.91,423.32,307.45,423.41,307.29z"/>
	<path class="st18" d="M430.27,312.74c-0.21-0.2-0.53-0.64-0.64-1.56c-0.07-0.56-0.03-1.02,0.08-2.51c0.09-1.28,0.19-2.6,0.23-3.31
		c0.15-2.38,0.1-2.78,0.29-3.87c0.2-1.16,0.44-1.76,0.53-1.97c0.17-0.4,0.44-1.06,0.78-1.07c0.35-0.01,0.55,0.65,0.68,1.06
		c0.08,0.25,0.25,0.89,0.31,2.04c0.06,1.19-0.07,1.7-0.25,4.01c-0.21,2.6-0.12,2.9-0.35,4.3c-0.17,1.02-0.33,2-0.71,2.58
		C430.82,313.07,430.41,312.84,430.27,312.74z"/>
</g>
<g>
	<path class="st11" d="M345.93,183.69c0.17-0.24,0.55-0.62,1.4-0.81c0.52-0.12,0.95-0.1,2.33-0.1c1.19,0.01,2.42,0,3.09,0
		c2.22-0.02,2.58-0.1,3.61,0.02c1.09,0.13,1.67,0.34,1.86,0.42c0.38,0.15,1.01,0.39,1.05,0.76c0.04,0.37-0.56,0.64-0.93,0.81
		c-0.23,0.1-0.81,0.34-1.86,0.49c-1.1,0.16-1.58,0.06-3.73,0.03c-2.42-0.03-2.7,0.08-4.01-0.05c-0.96-0.1-1.88-0.2-2.45-0.56
		C345.66,184.31,345.84,183.85,345.93,183.69z"/>
	<path class="st11" d="M345.93,187.98c0.17-0.24,0.55-0.62,1.4-0.81c0.52-0.12,0.95-0.1,2.33-0.1c1.19,0.01,2.42,0,3.09,0
		c2.22-0.02,2.58-0.1,3.61,0.02c1.09,0.13,1.67,0.34,1.86,0.42c0.38,0.15,1.01,0.39,1.05,0.76c0.04,0.37-0.56,0.64-0.93,0.81
		c-0.23,0.1-0.81,0.34-1.86,0.49c-1.1,0.16-1.58,0.06-3.73,0.03c-2.42-0.03-2.7,0.08-4.01-0.05c-0.96-0.1-1.88-0.2-2.45-0.56
		C345.66,188.59,345.84,188.14,345.93,187.98z"/>
	<path class="st11" d="M349.19,193.42c-0.21-0.2-0.53-0.64-0.64-1.56c-0.07-0.56-0.03-1.02,0.08-2.51c0.09-1.28,0.19-2.6,0.23-3.31
		c0.15-2.38,0.1-2.78,0.29-3.87c0.2-1.16,0.44-1.76,0.53-1.97c0.17-0.4,0.44-1.06,0.78-1.07c0.35-0.01,0.55,0.65,0.68,1.06
		c0.08,0.25,0.25,0.89,0.31,2.04c0.06,1.19-0.07,1.7-0.25,4.01c-0.21,2.6-0.12,2.9-0.35,4.3c-0.17,1.02-0.33,2-0.71,2.58
		C349.74,193.75,349.33,193.52,349.19,193.42z"/>
	<path class="st11" d="M345.93,187.98c0.17-0.24,0.55-0.62,1.4-0.81c0.52-0.12,0.95-0.1,2.33-0.1c1.19,0.01,2.42,0,3.09,0
		c2.22-0.02,2.58-0.1,3.61,0.02c1.09,0.13,1.67,0.34,1.86,0.42c0.38,0.15,1.01,0.39,1.05,0.76c0.04,0.37-0.56,0.64-0.93,0.81
		c-0.23,0.1-0.81,0.34-1.86,0.49c-1.1,0.16-1.58,0.06-3.73,0.03c-2.42-0.03-2.7,0.08-4.01-0.05c-0.96-0.1-1.88-0.2-2.45-0.56
		C345.66,188.59,345.84,188.14,345.93,187.98z"/>
	<path class="st11" d="M352.79,193.42c-0.21-0.2-0.53-0.64-0.64-1.56c-0.07-0.56-0.03-1.02,0.08-2.51c0.09-1.28,0.19-2.6,0.23-3.31
		c0.15-2.38,0.1-2.78,0.29-3.87c0.2-1.16,0.44-1.76,0.53-1.97c0.17-0.4,0.44-1.06,0.78-1.07c0.35-0.01,0.55,0.65,0.68,1.06
		c0.08,0.25,0.25,0.89,0.31,2.04c0.06,1.19-0.07,1.7-0.25,4.01c-0.21,2.6-0.12,2.9-0.35,4.3c-0.17,1.02-0.33,2-0.71,2.58
		C353.34,193.75,352.93,193.52,352.79,193.42z"/>
</g>
</svg>
