<?xml version="1.0" encoding="utf-8"?>
<!-- Generator: Adobe Illustrator 26.3.0, SVG Export Plug-In . SVG Version: 6.00 Build 0)  -->
<svg version="1.1" id="Capa_1" xmlns="http://www.w3.org/2000/svg" xmlns:xlink="http://www.w3.org/1999/xlink" x="0px" y="0px"
	 viewBox="0 0 810.71 496.06" style="enable-background:new 0 0 810.71 496.06;" xml:space="preserve">
<style type="text/css">
	.st0{fill:#EC6468;}
	.st1{fill:none;stroke:#000000;stroke-width:3;stroke-miterlimit:10;}
	.st2{fill:#EFDEDE;}
	.st3{fill:none;stroke:#CDAAA8;stroke-width:3;stroke-miterlimit:10;}
	.st4{fill:#FFFFFF;stroke:#000000;stroke-width:3;stroke-miterlimit:10;}
	.st5{stroke:#000000;stroke-width:3;stroke-miterlimit:10;}
	.st6{fill:#FFFFFF;}
	.st7{fill:#E7D93E;}
	.st8{fill:#AA7DB6;}
	.st9{fill:#E83F42;}
	.st10{fill:#ADD399;}
	.st11{fill:#24356B;}
	.st12{fill:#ED6A6F;}
	.st13{fill:#ED6B6B;}
	.st14{fill:#262D61;}
	.st15{fill:none;}
	.st16{fill:#28316C;}
</style>
<path class="st0" d="M379.62,37.51c0.35,0.94,1.53,1.33,2,1.54c3.63,1.62,3.48,9.86,3.43,14.87c-0.04,4.1,0.3,8.21,0,12.3
	c-0.68,9.34-0.7,20.08-0.57,27.17c0.09,4.83,0.36,3.74,0.29,6.41c-0.08,2.97-0.41,4.34,0.57,5.9c0.84,1.34,2.71,2.91,4.01,2.56
	c1.94-0.52,1.78-5.1,1.72-15.64c0,0-0.07-10.31,0-19.99c0.03-4.81,0.14-9.62,0-16.92c-0.18-9.63-0.55-11.91-2-13.84
	c-0.33-0.45-1.39-1.76-1.14-3.33c0.23-1.46,1.54-2.85,3.15-3.33c3.14-0.95,6.19,1.94,6.58,2.31c2.36,2.23,2.7,5.08,2.86,6.66
	c1.1,10.77,0,20.76,0,20.76c-0.45,4.12-1.06,8.48,1.14,13.07c0.56,1.16,1.63,3.32,3.15,3.33c1.94,0.01,3.31-3.76,3.43-4.1
	c1.51-4.27-0.59-6.95-1.43-12.56c-0.69-4.64,0.65-3.47,0.29-10.51c-0.43-8.34-0.96-12.5-2.86-15.64c-0.39-0.64-1.35-2.11-0.72-3.25
	c0.69-1.25,3-1.65,4.19-1.49c5.24,0.7,7.01,14.93,7.69,20.38c1.81,14.5,0.64,29.44,0,34.61c-0.36,2.9-0.21,5.83-0.47,8.73
	c-0.24,2.63-0.5,4.39,0.47,6.39c0.24,0.5,1.69,3.9,3.72,3.85c1.53-0.04,2.59-2.02,3.15-3.08c1.6-3,1.47-5.72,1.43-8.2
	c-0.12-7.4,0.85,5.77,0.29-10c-0.42-11.59-0.81-15.06-1.14-22.81c-0.42-9.89-0.11-11.9-1.43-16.66c-1.59-5.73-3.77-9.01-4.87-10.51
	c-3.01-4.14-4.68-7.34-8.01-7.69c-2.29-0.24-5.23,0.79-6.14,2.57c-0.73,1.42,0.01,2.95-0.48,3.1c-0.59,0.19-1.43-2.16-3.54-3.46
	c-1.65-1.01-4.35-1.57-6.55-0.77c-3.25,1.18-3.88,4.79-5.69,4.57c-1.11-0.14-1.2-1.54-2.58-1.68c-1.54-0.16-2.85,1.43-3.06,1.68
	C380.21,35.15,379.19,36.38,379.62,37.51z"/>
<path class="st0" d="M432.81,62.24c-0.41-0.13-0.69,0.25-1.23,0.19c-0.87-0.09-1.64-1.2-1.72-2.21c-0.11-1.45,1.23-2.44,1.56-2.69
	c0.93-0.7,1.95-0.89,2.36-0.96c5.9-1.04,8.51-1.14,12.02-1.73c2.06-0.35,3.37-0.69,5.26-0.34c0.77,0.15,2.24,0.44,3.38,1.54
	c0.22,0.21,0.75,0.76,1.45,2.79c0.38,1.09,0.9,2.63,1.07,4.9c0.2,2.56,0.3,3.84-0.59,4.95c-0.09,0.12-1.5,1.99-3.17,1.73
	c-1.22-0.19-1.87-1.41-2.04-1.73c-0.54-1.01-0.26-1.59-0.32-3.7c-0.07-2.23-0.11-3.36-0.86-3.85c-0.59-0.38-0.95-0.01-3.54,0.24
	c-1.9,0.18-3.78,0.53-5.69,0.58c-0.29,0.01-0.88,0.02-1.23,0.38c-0.44,0.46-0.22,1.21-0.16,1.44c0.61,2.28,0.15,4.69,0.48,7.02
	c0,0,0.16,2.52-0.11,7.21c-0.05,0.8,0.08,1.6,0.05,2.4c-0.02,0.47-0.04,0.65,0.11,0.82c0.29,0.34,0.94,0.32,3.33,0
	c1.83-0.25,2.11-0.32,2.68-0.19c1.17,0.27,1.84,1.03,1.99,1.2c0.19,0.22,0.88,1.06,0.75,2.16c-0.14,1.22-1.19,1.97-1.66,2.31
	c-1,0.71-2.82,1.48-4.83,1.35c-0.75-0.05-1.54-0.23-1.99,0.19c-0.34,0.32-0.29,0.83-0.27,1.01c0.41,4.04,1.12,11.03,0.27,13.89
	c-0.07,0.22-0.25,0.8,0.05,1.3c0.43,0.7,1.56,0.77,3.06,0.91c4.74,0.44,5.6,0.8,6.17,0.19c0.39-0.41,0.25-0.84,0.11-2.31
	c-0.29-2.93-0.52-5.62,0.86-7.64c0.76-1.11,1.58-1.4,1.88-1.49c0.19-0.06,1.27-0.35,2.15,0.14c0.42,0.23,0.67,0.58,1.13,1.2
	c0.2,0.27,0.35,0.48,0.48,0.77c0.34,0.75,0.29,1.43,0.27,1.68c-0.09,1.19-0.3,6.65,0.21,10.62c0.1,0.74,0.15,0.87,0.05,1.15
	c-0.72,2.17-6.29,2.37-12.72,2.6c0,0-2.98,0.1-8.59-0.82c-0.48-0.08-1.71-0.3-2.84-1.11c-0.26-0.19-0.5-0.36-0.7-0.62
	c-0.72-0.96-0.35-2.39,0.21-3.32c0.78-1.27,1.8-1.35,1.99-2.51c0.01-0.08,0.01-0.06,0-1.14c0-1.05,0-1.57,0-1.9
	c0-1.63-0.15-3.5-0.16-3.73c-0.21-2.92-0.14-28.69-0.23-32.93C433.56,63.85,433.51,62.47,432.81,62.24z"/>
<path class="st0" d="M470.27,111.94c0.6-0.88,0.46-1.84,0.43-2.11c-0.57-4.89,3.42-29.91,2.04-44.03c-0.05-0.52-0.23-2.29,0.21-2.4
	c0.47-0.12,1.35,1.69,3.11,5c3.27,6.12,5.2,9.17,7.08,9.04c0.68-0.05,1.3-0.5,1.82-0.19c0.66,0.39,0.49,1.6,0.43,2.02
	c-0.81,5.85,0.97,9.37-1.07,18.46c-0.26,1.15-0.35,2.43-0.54,5c-0.15,2.04-0.11,2.81,0.43,3.56c0.76,1.05,2.3,1.78,3.86,1.63
	c2.41-0.22,3.47-2.34,3.65-2.69c0.6-1.2,0.41-2.16,0.32-3.65c-0.13-2.32,0.2-2.25,0.43-6.34c0.8-14.43-1.94-41.43-0.54-46.62
	c0.06-0.23,0.34-1.2-0.14-2.15c-0.62-1.2-2.47-2.38-3.97-1.79c-0.82,0.32-1.18,1.07-1.5,1.76c-0.63,1.36-0.44,2.54-0.32,3.88
	c0.14,1.56,0.09,3.12,0.18,4.68c0.08,1.41,0.09,3.77,0.11,8.49c0.01,1.61,0.11,2.69,0,4.87c-0.07,1.26-0.15,1.82-0.43,1.89
	c-0.53,0.13-1.44-1.57-2.43-3.4c0,0-4.54-8.33-9.19-12.85c-0.15-0.15-0.49-0.46-1.04-0.67c-1.45-0.56-3,0.17-3.11,0.22
	c-1.52,0.73-2.05,2.31-2.29,3.14c-1.45,5.03-0.9,13.37-0.79,15.89c0.12,2.61-0.17,6.18-0.75,13.33c-0.58,7.07-0.86,10.61-1.43,12.62
	c-0.7,2.48-0.94,4.26-1.43,7.82c0,0-0.2,1.44,0.18,4.36c0.1,0.8,0.19,1.18,0.5,1.57c0.88,1.11,2.91,1.45,4.44,0.93
	C468.8,113.1,469.71,112.77,470.27,111.94z"/>
<path class="st0" d="M516.99,52.15c0,0-0.07,0.07-0.07,0.07c-0.01,0.01-0.28,0.27-0.31,0.31c0,0-0.68,0.68-0.78,0.78
	c-0.02,0.03-0.05,0.05-0.05,0.05c0,0-0.04,0.04-0.07,0.07c-0.02,0.02-2.03,2.16-3.37,4.1c-0.28,0.41-0.73,1.09-2.36,4.55
	c-1.64,3.47-2.45,5.2-3.08,7c-0.8,2.31-1.17,4.09-1.5,5.68c-0.57,2.77-1.33,6.53-1,11.28c0.26,3.77,0.99,5.15,1.36,5.77
	c0.51,0.85,1.86,3.04,4.65,3.97c0,0,2.04,0.68,4.15,0.32c8.01-1.38,11.01-19.12,11.38-21.28c0.7-4.15,0.58-6.78,0.43-10.13
	c-0.21-4.63-0.35-6.98-1.93-8.59c-1.26-1.28-4.57-3.6-6.73-4.29c0,0-1.23-0.4-2-1.15c-0.61-0.6-0.87-1.31-0.87-1.31
	c0,0,0-0.01-0.01-0.02c-0.28-0.8-0.12-1.72-0.05-1.94c0.27-0.89,2.52-1.67,4.58-1.6c5.06,0.17,8.58,5.46,9.59,6.99
	c0.65,0.98,2.2,3.5,3.15,8.2c1.58,7.82,0.01,14.26-1.22,19.1c-1.08,4.25-2.31,7.06-4.01,10.96c-3.4,7.79-5.33,9.4-6.58,10.25
	c-0.78,0.53-4.36,2.96-8.73,2.5c-5.94-0.62-9.4-6.16-10.52-7.95c-7.37-11.78-0.27-26.54,4.94-37.36c1.05-2.19,0.94-1.1,5.44-7.31
	c0.31-0.43,1.04-1.44,2.36-1.79c0.34-0.09,1.72-0.41,2.9,0.36c0.86,0.57,1.11,1.38,1.18,1.65"/>
<path class="st0" d="M537.89,57.92c0.42-0.07,0.67-0.46,0.86-0.77c0.89-1.43,0.3-2.77,0.32-3.94c0.05-3.4,5.25-5.85,5.9-6.15
	c1.12-0.53,3.5-1.65,6.33-1.25c4.21,0.59,6.56,4.12,8.37,6.83c2.21,3.3,5.48,8.2,3.65,13.17c-1.43,3.88-6.24,8.52-9.98,9.61
	c-0.43,0.12-1.72,0.46-2.25,1.44c-0.57,1.06-0.08,2.53,0.75,3.36c2.19,2.21,7.4,0.65,7.62,0.58c6.18-1.93,8.47-8.62,8.91-9.9
	c2.59-7.56-0.85-14.32-2.9-18.36c-2.52-4.96-4.52-8.91-9.55-10.86c-5.07-1.97-11.33-1.18-15.67,1.83
	c-3.74,2.59-6.94,7.43-5.58,11.05C535.2,55.97,536.77,58.12,537.89,57.92z"/>
<path class="st0" d="M545.94,53.88c-0.99,0.27-1.53,1.02-1.82,1.44c-0.92,1.32-0.87,2.73-0.86,3.08c0.13,4.16,0.05,17.05-0.43,23.07
	c-0.19,2.38-0.56,4.92-1.29,10c-0.53,3.69-0.19,7.44-0.43,11.15c-0.06,0.88-0.17,2.52,0.97,3.94c0.95,1.19,2.8,2.24,4.19,1.83
	c1.49-0.45,1.98-2.45,2.36-4.61c1.24-7.03,0.81-12.82,0.75-18.07c-0.03-2.26,0.05-4.36,0.21-8.56c0.2-5.12-0.25-10.28,0.32-15.38
	c0.33-2.98,0.85-5.89-0.97-7.21C548.84,54.48,547.42,53.48,545.94,53.88z"/>
<path class="st0" d="M557.42,82.72c-0.69,0.62-1.05,1.48-1.18,3.65c-0.1,1.7-0.15,2.54,0.11,3.94c0.38,2.11,0.15,6.09-0.32,14.03
	c-0.3,5.11-0.73,8.99-0.86,10.09c-0.71,6.22-1.02,6.1-1.29,9.71c-0.4,5.48-0.65,9.66,1.72,13.94c1,1.82,2.58,4.67,5.47,5.09
	c3.67,0.54,6.84-3.24,7.51-4.04c2.75-3.27,3.57-7.4,2.47-10.67c-0.4-1.2-1.34-3.14-2.25-3.08c-1.07,0.07-1.72,2.89-1.82,3.36
	c-0.39,1.69-0.02,2.1-0.32,3.17c-0.64,2.28-3.4,4.39-4.72,3.94c-1.11-0.37-1.17-2.51-0.75-9.9c0.33-5.84,0.66-9.57,0.86-12.21
	c0.85-11.27-0.09-9.77,0.64-18.07c0.27-3.1-0.48-6.21-0.29-9.32c0.07-1.16,0.26-3.58-1.12-4.31c-0.73-0.39-1.79-0.25-1.9-0.24
	C559.25,81.85,558.24,81.99,557.42,82.72z"/>
<g>
	<g>
		<rect x="57.54" y="152.09" class="st1" width="492.29" height="25.07"/>
		<rect x="57.54" y="177.16" class="st1" width="492.29" height="25.07"/>
		<rect x="57.54" y="202.23" class="st1" width="492.29" height="25.07"/>
		<rect x="57.54" y="227.3" class="st1" width="492.29" height="25.07"/>
		<rect x="57.54" y="252.38" class="st1" width="492.29" height="25.07"/>
	</g>
	<path d="M94.63,239.74c0.29-0.2-0.81-1.35-1.31-3.71c-0.19-0.89-0.95-4.46,1.09-7.64c2.28-3.54,6.57-4.28,8.08-4.54
		c1.39-0.24,4.92-0.85,8.3,1.03c4.95,2.75,5.41,8.48,5.46,9.29c0.41,6.5-4.99,10.78-6.34,11.76c-4.63,3.39-9.78,3.34-11.58,3.3
		c-7.03-0.16-15.05-3.95-18.57-11.14c-4.95-10.1,2.41-19.85,3.93-21.87c1.91-2.53,2.85-2.75,8.3-7.22
		c9.64-7.91,15.81-12.97,19.23-19.4c4.75-8.92,2.93-18.1,2.4-21.25c-0.64-3.83-1.42-9.16-5.24-14.03c-1.39-1.77-2.22-2.79-3.5-2.89
		c-4.42-0.34-10.16,10.65-11.36,21.05c-0.22,1.86-0.35,4.28,2.19,18.78c1.24,7.1,2.44,13.17,5.03,25.59
		c2.77,13.31,4.15,19.96,4.59,21.25c0.26,0.77,3.02,8.95,5.03,18.78c0.32,1.56,0.88,4.44,0.22,8.05c-0.47,2.58-1.2,6.61-4.81,9.08
		c0,0-3.76,2.58-9.26,1.83c-1.09-0.15-1.19-0.36-4.53-1.13c-0.31-0.07-1.3-0.3-1.28-0.49c0.01-0.12,0.42-0.19,0.49-0.21
		c0.36-0.06,0.65-0.01,0.68,0c0.58,0.11,2.45-0.21,3.71-0.85c1.65-0.83,2.41-2.26,2.87-3.12c0.39-0.74,2.92-5.47,0.27-9.18
		c-2.64-3.7-9.02-4.46-12.67-1.7c-3.66,2.77-2.91,7.82-2.79,8.67c0.58,3.91,3.28,6.27,4.15,7.02c4.98,4.24,11.52,3.25,12.45,3.1
		c0.51-0.09,7.04-1.27,10.54-6.81c2.23-3.52,2.07-6.95,1.86-11.56c-0.04-0.87-0.15-2.61-1.91-10.27c-1.29-5.61-1.9-7.61-3.28-13.26
		c-0.7-2.88-1.36-5.82-2.68-11.71c-2.06-9.23-3.1-14.32-3.39-15.73c-0.61-2.99-0.47-2.43-0.87-4.39c-1.95-9.45-2.7-10.81-3.17-14.7
		c-0.49-4.11-0.2-7.16,0.11-10.47c0,0,0.55-5.86,3.93-14.44c0.42-1.06,1.25-3.06,3.28-4.02c0.35-0.16,1.57-0.74,2.9-0.41
		c1.91,0.48,2.8,2.54,3.28,3.71c1.99,4.86,0.31,9.87-0.16,11.14c-0.92,2.51-3.16,5.23-7.65,10.68c-1.18,1.43-2.45,2.9-4.37,4.49
		c-1.62,1.34-2.4,1.69-4.04,2.89c-0.58,0.43-2.06,1.53-5.9,5.42c-3.69,3.73-5.53,5.6-7.32,7.94c-1.49,1.96-3.36,4.44-5.03,8.1
		c-0.77,1.69-2.26,5.02-2.84,9.6c-0.43,3.35-0.96,7.54,1.04,12.12c1.72,3.93,4.46,6.22,6.5,7.89c2.02,1.65,8.58,7.02,18.41,6.91
		c2.03-0.02,8.83-0.19,14.97-4.8c1.73-1.3,5.52-4.22,7.16-9.44c0.43-1.38,2.51-7.99-1.8-13.88c-3.41-4.65-8.92-6.26-12.13-6.45
		c-0.93-0.06-2.31-0.03-3.55,0.05c-2.12,0.14-4.44,0.3-6.61,1.13c-4.38,1.68-6.48,5.47-7.05,6.5c-0.9,1.63-2.45,4.42-1.75,7.94
		C89.34,237.05,94.1,240.1,94.63,239.74z"/>
</g>
<g>
	<g>
		<g>
			<path class="st2" d="M693.32,233.13c-1.08,3.41-0.73,6.99-0.63,10.5c0.11,3.66,0.11,7.32,0.01,10.97
				c-0.2,7.33-0.79,14.66-1.82,21.92c-0.19,1.34,0.33,2.69,1.75,3.08c1.17,0.32,2.88-0.4,3.08-1.75c1.05-7.39,1.74-14.82,1.97-22.28
				c0.12-3.66,0.13-7.32,0.04-10.97c-0.08-3.35-0.61-6.9,0.42-10.15C699.12,231.39,694.29,230.07,693.32,233.13L693.32,233.13z"/>
		</g>
	</g>
	<g>
		<g>
			<path class="st2" d="M683.67,219.44c0.14,0.61,0.26,1.22,0.35,1.83c-0.12-0.89-0.24-1.77-0.36-2.66c0.26,2.18,0.16,4.33-0.12,6.5
				c0.12-0.89,0.24-1.77,0.36-2.66c-0.73,5.2-3.03,10.79-1.66,16.01c1.58,6.05,8.11,9.27,13.96,7.88c3.81-0.9,6.42-3.35,8.67-6.38
				c2.61-3.51,3.92-7.88,5.24-12.01c1.23-3.85,2.22-7.83,3.59-11.63c-0.34,0.8-0.67,1.59-1.01,2.39c0.07-0.19,0.17-0.37,0.29-0.54
				c-0.52,0.67-1.04,1.35-1.56,2.02c0.07-0.07,0.13-0.15,0.2-0.22c-0.67,0.52-1.35,1.04-2.02,1.56c0.08-0.06,0.16-0.12,0.24-0.18
				c-0.8,0.34-1.59,0.67-2.39,1.01c0.18-0.1,0.37-0.16,0.57-0.16c-0.89,0.12-1.77,0.24-2.66,0.36c0.09,0.01,0.19,0.02,0.28,0.03
				c-0.89-0.12-1.77-0.24-2.66-0.36c0.09,0.03,0.18,0.06,0.28,0.09c-0.8-0.34-1.59-0.67-2.39-1.01c0.19,0.09,0.37,0.2,0.53,0.33
				c-0.67-0.52-1.35-1.04-2.02-1.56c0.26,0.24,0.48,0.48,0.7,0.76c-0.52-0.67-1.04-1.35-1.56-2.02c0.92,1.37,1.53,3.01,2.23,4.5
				c0.75,1.59,1.53,3.17,2.22,4.79c-0.34-0.8-0.67-1.59-1.01-2.39c0.57,1.39,1.04,2.78,1.29,4.27c-0.12-0.89-0.24-1.77-0.36-2.66
				c0.15,1.12,0.15,2.21,0,3.34c0.12-0.89,0.24-1.77,0.36-2.66c-0.19,1.22-0.54,2.37-1,3.51c0.34-0.8,0.67-1.59,1.01-2.39
				c-1.07,2.47-2.59,4.67-4.22,6.79c0.52-0.67,1.04-1.35,1.56-2.02c-0.43,0.55-0.87,1.1-1.31,1.65c5.24,4.04,10.47,8.08,15.71,12.12
				c4.44-8.88,8.88-17.77,13.32-26.65c-6.09-0.8-12.18-1.59-18.28-2.39c0.27,1.09,0.48,2.19,0.64,3.3
				c-0.12-0.89-0.24-1.77-0.36-2.66c0.32,2.49,0.34,4.99,0.02,7.48c0.12-0.89,0.24-1.77,0.36-2.66c-0.28,1.96-0.77,3.85-1.52,5.68
				c0.34-0.8,0.67-1.59,1.01-2.39c-0.63,1.46-1.4,2.82-2.35,4.09c0.52-0.67,1.04-1.35,1.56-2.02c-0.99,1.27-2.11,2.37-3.37,3.36
				c0.67-0.52,1.35-1.04,2.02-1.56c-4,3.05-8.55,5.47-12.83,8.1c-4.48,2.75-8.97,5.5-13.45,8.25c-2.17,1.33-3.91,3.5-4.6,5.98
				c-0.66,2.39-0.36,5.58,1.01,7.71c2.88,4.47,8.91,6.51,13.68,3.59c7.54-4.63,15.1-9.22,22.62-13.88
				c4.47-2.77,8.32-5.92,11.26-10.31c2.22-3.31,3.66-7.34,4.24-11.27c0.81-5.46,0.68-10.7-0.66-16.09
				c-0.96-3.84-4.51-6.65-8.31-7.16c-3.72-0.5-8.19,1.22-9.96,4.77c-4.44,8.88-8.88,17.77-13.32,26.65
				c-2.25,4.5-1.52,9.74,2.58,12.9c1.69,1.3,3.87,2.25,6.06,2.15c2.48-0.11,5.44-0.91,7.07-2.93c1.69-2.09,3.39-4.19,4.88-6.43
				c1.45-2.18,2.53-4.54,3.45-6.99c1.91-5.07,1.51-10.91-0.52-15.86c-1.06-2.58-2.24-5.09-3.43-7.6c-1.15-2.44-2.18-4.82-4.17-6.75
				c-4.48-4.35-11.61-4.62-16.16-0.22c-2.48,2.4-3.26,5.82-4.22,8.99c-1.36,4.51-2.59,9.15-4.41,13.5c0.34-0.8,0.67-1.59,1.01-2.39
				c-0.61,1.4-1.32,2.71-2.25,3.93c0.52-0.67,1.04-1.35,1.56-2.02c-0.3,0.37-0.6,0.69-0.96,0.99c0.67-0.52,1.35-1.04,2.02-1.56
				c-0.28,0.2-0.54,0.36-0.85,0.52c0.8-0.34,1.59-0.67,2.39-1.01c-0.3,0.12-0.57,0.21-0.89,0.27c0.89-0.12,1.77-0.24,2.66-0.36
				c-0.19,0.03-0.38,0.03-0.56,0c0.89,0.12,1.77,0.24,2.66,0.36c-0.09-0.02-0.17-0.05-0.26-0.07c0.8,0.34,1.59,0.67,2.39,1.01
				c-0.17-0.06-0.33-0.16-0.46-0.29c0.67,0.52,1.35,1.04,2.02,1.56c-0.06-0.07-0.13-0.15-0.19-0.22c0.52,0.67,1.04,1.35,1.56,2.02
				c-0.06-0.11-0.12-0.21-0.17-0.32c0.34,0.8,0.67,1.59,1.01,2.39c-0.03-0.12-0.07-0.23-0.1-0.35c0.12,0.89,0.24,1.77,0.36,2.66
				c-0.04-0.39-0.03-0.72,0.02-1.12c-0.12,0.89-0.24,1.77-0.36,2.66c0.52-3.09,1.3-6.13,1.74-9.23c0.66-4.69,0.87-8.97-0.23-13.65
				c-1.2-5.1-7.3-8.6-12.3-6.98C685.34,208.86,682.39,213.98,683.67,219.44L683.67,219.44z"/>
		</g>
	</g>
	<g>
		<g>
			<path class="st2" d="M678.6,211.1c-1.97,9.12-3.3,18.41-3.96,27.72c-0.65,9.19-1.47,19.37,3.25,27.69
				c2.58,4.55,9.18,6.49,13.68,3.59c4.6-2.97,6.35-8.81,3.59-13.68c-0.28-0.49-0.53-0.99-0.76-1.5c0.34,0.8,0.67,1.59,1.01,2.39
				c-0.65-1.57-1.04-3.19-1.28-4.86c0.12,0.89,0.24,1.77,0.36,2.66c-0.54-4.34-0.27-8.8-0.04-13.15c0.25-4.66,0.69-9.31,1.3-13.93
				c-0.12,0.89-0.24,1.77-0.36,2.66c0.64-4.79,1.48-9.54,2.5-14.26c0.57-2.62,0.37-5.34-1.01-7.71c-1.21-2.07-3.59-4.05-5.98-4.6
				c-2.56-0.58-5.43-0.46-7.71,1.01C681.07,206.49,679.15,208.56,678.6,211.1L678.6,211.1z"/>
		</g>
	</g>
	<g>
		<g>
			<path class="st2" d="M669.02,223.25c-0.72,4.12-1.45,8.25-2.17,12.37c-0.82,4.68-1.75,9.54-1.24,14.31
				c0.41,3.85,1.14,7.49,2.55,11.09c1.43,3.65,3.1,7.17,4.9,10.64c1.65,3.18,3.34,6.34,4.74,9.64c-0.34-0.8-0.67-1.59-1.01-2.39
				c1.12,2.7,2.01,5.48,2.43,8.38c-0.12-0.89-0.24-1.77-0.36-2.66c0.22,1.75,0.27,3.49,0.1,5.24c-0.23,2.41,1.28,5.42,2.93,7.07
				c1.73,1.73,4.58,3.04,7.07,2.93c2.59-0.12,5.27-0.97,7.07-2.93c1.89-2.06,2.67-4.29,2.93-7.07c0.67-7.06-1.69-13.83-4.54-20.15
				c-2.33-5.16-5.29-10.02-7.51-15.24c0.34,0.8,0.67,1.59,1.01,2.39c-1.2-2.86-2.15-5.81-2.59-8.9c0.12,0.89,0.24,1.77,0.36,2.66
				c-0.36-2.85-0.2-5.69,0.18-8.52c-0.12,0.89-0.24,1.77-0.36,2.66c0.77-5.42,1.84-10.81,2.79-16.2c0.48-2.71,0.43-5.25-1.01-7.71
				c-1.21-2.07-3.59-4.05-5.98-4.6c-2.56-0.58-5.43-0.46-7.71,1.01C671.55,218.61,669.46,220.72,669.02,223.25L669.02,223.25z"/>
		</g>
	</g>
	<g>
		<g>
			<path class="st2" d="M697.6,292.42c0.18-8.73-0.12-17.47-0.91-26.16c-0.25-2.7-0.95-5.09-2.93-7.07
				c-1.73-1.73-4.58-3.04-7.07-2.93c-2.59,0.12-5.27,0.97-7.07,2.93c-1.7,1.85-3.17,4.46-2.93,7.07c0.79,8.7,1.09,17.43,0.91,26.16
				c-0.11,5.23,4.68,10.24,10,10C693.11,302.17,697.48,298.02,697.6,292.42L697.6,292.42z"/>
		</g>
	</g>
	<g>
		<g>
			<path class="st2" d="M683.89,301.56c2.77,0.15,5.6-0.82,7.97-2.18c1.13-0.65,2.15-1.45,3.34-1.98c-0.8,0.34-1.59,0.67-2.39,1.01
				c0.4-0.15,0.78-0.26,1.2-0.34c-0.89,0.12-1.77,0.24-2.66,0.36c0.39-0.04,0.74-0.03,1.14,0c-0.89-0.12-1.77-0.24-2.66-0.36
				c0.75,0.12,1.49,0.31,2.24,0.45c2.7,0.5,3.86,0.52,6.54,0.06c3.32-0.57,6.56-3,8.06-5.99c0.96-1.92,1.51-3.99,1.5-6.14
				c-0.01-0.89-0.12-1.77-0.14-2.66c-0.04-1.75,0.07-3.5,0.29-5.23c-0.12,0.89-0.24,1.77-0.36,2.66c0.51-3.57,1.55-7.03,2.25-10.56
				c0.48-2.42,0.86-4.89,0.97-7.36c0.11-2.52-0.33-5.02-0.74-7.49c0.12,0.89,0.24,1.77,0.36,2.66c-0.05-0.42-0.06-0.78-0.02-1.2
				c-0.12,0.89-0.24,1.77-0.36,2.66c0.04-0.13,0.07-0.26,0.11-0.38c-0.34,0.8-0.67,1.59-1.01,2.39c0.08-0.21,0.2-0.41,0.34-0.58
				c-0.52,0.67-1.04,1.35-1.56,2.02c0.14-0.18,0.3-0.34,0.48-0.48c-0.67,0.52-1.35,1.04-2.02,1.56c1.11-0.85,2.4-1.47,3.68-2.02
				c-0.8,0.34-1.59,0.67-2.39,1.01c0.84-0.35,1.69-0.65,2.56-0.9c2.44-0.73,4.68-2.38,5.98-4.6c1.25-2.14,1.79-5.3,1.01-7.71
				c-1.64-5.07-6.93-8.58-12.3-6.98c-2.96,0.88-6.13,2.08-8.63,3.94c-2.58,1.92-4.74,4.19-5.52,7.43c-0.69,2.84-0.09,5.41,0.29,8.22
				c-0.12-0.89-0.24-1.77-0.36-2.66c0.19,1.8,0.13,3.58-0.09,5.37c0.12-0.89,0.24-1.77,0.36-2.66c-0.51,3.71-1.62,7.3-2.32,10.98
				c-0.49,2.56-0.85,5.18-0.96,7.79c-0.08,1.83,0.28,3.73,0.07,5.55c0.12-0.89,0.24-1.77,0.36-2.66c-0.03,0.12-0.06,0.24-0.09,0.35
				c0.34-0.8,0.67-1.59,1.01-2.39c-0.07,0.22-0.19,0.42-0.34,0.6c0.52-0.67,1.04-1.35,1.56-2.02c-0.08,0.07-0.15,0.15-0.23,0.22
				c0.67-0.52,1.35-1.04,2.02-1.56c-0.17,0.14-0.35,0.25-0.55,0.33c0.8-0.34,1.59-0.67,2.39-1.01c-0.33,0.12-0.62,0.19-0.97,0.24
				c0.89-0.12,1.77-0.24,2.66-0.36c-0.35,0.02-0.67,0.01-1.02-0.03c0.89,0.12,1.77,0.24,2.66,0.36c-1.83-0.31-3.63-0.87-5.51-0.88
				c-2.13,0-3.88,0.43-5.78,1.23c-1.91,0.81-3.51,2.04-5.37,2.91c0.8-0.34,1.59-0.67,2.39-1.01c-0.38,0.16-0.76,0.27-1.16,0.35
				c0.89-0.12,1.77-0.24,2.66-0.36c-0.32,0.04-0.6,0.05-0.92,0.03c-5.23-0.28-10.23,4.8-10,10
				C674.15,297.22,678.29,301.25,683.89,301.56L683.89,301.56z"/>
		</g>
	</g>
	<g>
		<g>
			<path class="st2" d="M712.43,263.72c2.87-1.08,4.7-2.08,7.01-4.12c1.54-1.35,2.8-3.11,3.88-4.84c1.92-3.05,3.21-6.59,4.54-9.91
				c2.44-6.09,4.31-12.41,5.57-18.85c0.3-1.51,0.56-3.04,0.8-4.56c0.45-2.99,1.09-5.91,0.31-8.91c-0.86-3.29-3.02-6.22-6.08-7.76
				c-2.15-1.08-4.48-1.64-6.79-2.25c-6.48-1.72-13.03-3.12-19.64-4.22c-8.27-1.37-16.63-2.35-25-2.84
				c-2.47-0.14-5.36,1.22-7.07,2.93c-1.73,1.73-3.04,4.58-2.93,7.07c0.25,5.68,4.4,9.67,10,10c5.42,0.32,10.81,0.84,16.19,1.56
				c-0.89-0.12-1.77-0.24-2.66-0.36c5.14,0.7,10.25,1.58,15.32,2.65c4.96,1.05,10.07,2.08,14.87,3.73c-0.8-0.34-1.59-0.67-2.39-1.01
				c0.23,0.08,0.45,0.2,0.65,0.34c-0.67-0.52-1.35-1.04-2.02-1.56c0.2,0.14,0.36,0.3,0.49,0.5c-0.52-0.67-1.04-1.35-1.56-2.02
				c0.05,0.1,0.11,0.2,0.16,0.29c-0.34-0.8-0.67-1.59-1.01-2.39c0.09,0.21,0.15,0.42,0.18,0.65c-0.12-0.89-0.24-1.77-0.36-2.66
				c0.06,0.6,0.03,1.17-0.05,1.76c0.12-0.89,0.24-1.77,0.36-2.66c-1.27,9.35-3.77,18.48-7.42,27.17c0.34-0.8,0.67-1.59,1.01-2.39
				c-1.03,2.42-2.08,4.86-3.69,6.96c0.52-0.67,1.04-1.35,1.56-2.02c-0.54,0.66-1.11,1.25-1.77,1.79c0.67-0.52,1.35-1.04,2.02-1.56
				c-0.58,0.43-1.18,0.79-1.85,1.08c0.8-0.34,1.59-0.67,2.39-1.01c-0.11,0.04-0.23,0.09-0.34,0.13c-2.5,0.94-4.59,2.23-5.98,4.6
				c-1.25,2.14-1.79,5.3-1.01,7.71c0.78,2.42,2.28,4.75,4.6,5.98C706.98,263.91,709.94,264.66,712.43,263.72L712.43,263.72z"/>
		</g>
	</g>
	<g>
		<g>
			<path class="st2" d="M665.27,205.89c0.43,7.26,0.85,14.52,1.28,21.79c0.16,2.66,1.01,5.15,2.93,7.07
				c1.73,1.73,4.58,3.04,7.07,2.93c2.59-0.12,5.27-0.97,7.07-2.93c1.73-1.89,3.08-4.42,2.93-7.07c-0.43-7.26-0.85-14.52-1.28-21.79
				c-0.16-2.66-1.01-5.15-2.93-7.07c-1.73-1.73-4.58-3.04-7.07-2.93c-2.59,0.12-5.27,0.97-7.07,2.93
				C666.47,200.71,665.12,203.25,665.27,205.89L665.27,205.89z"/>
		</g>
	</g>
	<g>
		<g>
			<path class="st2" d="M671.89,223.55c-0.26,1.31-0.64,2.57-1.15,3.8c0.34-0.8,0.67-1.59,1.01-2.39c-0.73,1.73-1.68,3.35-2.83,4.84
				c0.52-0.67,1.04-1.35,1.56-2.02c-1.16,1.48-2.49,2.8-3.98,3.95c0.67-0.52,1.35-1.04,2.02-1.56c-1.44,1.09-2.98,1.99-4.64,2.69
				c0.8-0.34,1.59-0.67,2.39-1.01c-1.16,0.48-2.35,0.85-3.57,1.11c-2.37,0.5-4.78,2.55-5.98,4.6c-1.25,2.14-1.79,5.3-1.01,7.71
				c0.78,2.42,2.28,4.75,4.6,5.98c2.46,1.3,4.97,1.59,7.71,1.01c2.81-0.6,5.57-1.74,8.06-3.14c1.27-0.71,2.41-1.57,3.55-2.45
				c1.15-0.89,2.28-1.76,3.3-2.8c3.98-4.04,7.13-9.39,8.24-14.99c0.53-2.66,0.4-5.3-1.01-7.71c-1.21-2.07-3.59-4.05-5.98-4.6
				c-2.56-0.58-5.43-0.46-7.71,1.01C674.38,218.92,672.39,221.01,671.89,223.55L671.89,223.55z"/>
		</g>
	</g>
	<g>
		<g>
			<path class="st2" d="M695.86,290.63c-2.18-5.47-3.68-11.16-4.5-16.98c0.12,0.89,0.24,1.77,0.36,2.66
				c-0.54-4.08-0.7-8.22-1.56-12.26c-0.82-3.82-2.57-7.52-4.9-10.65c-4.43-5.96-9.54-11.39-15.07-16.34
				c-1.98-1.77-4.36-2.93-7.07-2.93c-2.45,0-5.38,1.09-7.07,2.93c-1.75,1.91-3.05,4.41-2.93,7.07c0.11,2.57,0.95,5.3,2.93,7.07
				c4.67,4.18,9.1,8.7,12.98,13.63c-0.52-0.67-1.04-1.35-1.56-2.02c1.32,1.71,2.5,3.5,3.36,5.48c-0.34-0.8-0.67-1.59-1.01-2.39
				c0.75,1.84,1.16,3.76,1.45,5.73c-0.12-0.89-0.24-1.77-0.36-2.66c0.65,4.94,0.98,9.9,1.99,14.79c0.86,4.17,2.1,8.24,3.68,12.19
				c1,2.51,2.18,4.56,4.6,5.98c2.14,1.25,5.3,1.79,7.71,1.01c2.42-0.78,4.75-2.28,5.98-4.6
				C696.03,296.11,696.83,293.08,695.86,290.63L695.86,290.63z"/>
		</g>
	</g>
	<g>
		<g>
			<path class="st2" d="M662.09,252.97c5.23,0,10.24-4.6,10-10c-0.24-5.42-4.39-10-10-10c-5.23,0-10.24,4.6-10,10
				C652.33,248.39,656.48,252.97,662.09,252.97L662.09,252.97z"/>
		</g>
	</g>
	<g>
		<g>
			<path class="st2" d="M666.09,248.61c5.23,0,10.24-4.6,10-10c-0.24-5.42-4.39-10-10-10c-5.23,0-10.24,4.6-10,10
				C656.33,244.02,660.48,248.61,666.09,248.61L666.09,248.61z"/>
		</g>
	</g>
	<g>
		<g>
			<path class="st2" d="M689.19,270.61c-0.31,6.37,1.62,12.58,2.5,18.83c-0.12-0.89-0.24-1.77-0.36-2.66
				c0.11,0.85,0.18,1.68,0.1,2.54c0.12-0.89,0.24-1.77,0.36-2.66c-0.07,0.45-0.18,0.85-0.35,1.27c0.34-0.8,0.67-1.59,1.01-2.39
				c-0.14,0.28-0.29,0.51-0.48,0.76c0.52-0.67,1.04-1.35,1.56-2.02c-0.13,0.15-0.27,0.29-0.42,0.42c0.67-0.52,1.35-1.04,2.02-1.56
				c-0.15,0.12-0.32,0.23-0.49,0.32c0.8-0.34,1.59-0.67,2.39-1.01c-0.18,0.09-0.36,0.15-0.55,0.19c0.89-0.12,1.77-0.24,2.66-0.36
				c-0.42,0.05-0.76,0.04-1.18,0c0.89,0.12,1.77,0.24,2.66,0.36c-3.99-0.7-7.91-1.29-11.96-0.87c-2.72,0.28-5.07,0.93-7.07,2.93
				c-1.73,1.73-3.04,4.58-2.93,7.07c0.12,2.59,0.97,5.27,2.93,7.07c1.84,1.69,4.48,3.2,7.07,2.93c2.31-0.24,4.61-0.21,6.91,0.09
				c-0.89-0.12-1.77-0.24-2.66-0.36c1.79,0.26,3.64,0.82,5.45,0.82c2.43,0,4.83-0.57,6.88-1.91c4.06-2.66,6.3-7.16,6.25-11.99
				c-0.03-2.77-0.66-5.61-1.19-8.34c-0.41-2.15-0.86-4.29-1.17-6.45c0.12,0.89,0.24,1.77,0.36,2.66c-0.25-1.89-0.38-3.78-0.29-5.68
				c0.12-2.48-1.2-5.34-2.93-7.07c-1.73-1.73-4.58-3.04-7.07-2.93C693.55,260.86,689.47,265,689.19,270.61L689.19,270.61z"/>
		</g>
	</g>
	<g>
		<g>
			<path class="st2" d="M707.91,266.06c5.23,0,10.24-4.6,10-10c-0.24-5.42-4.39-10-10-10c-5.23,0-10.24,4.6-10,10
				C698.15,261.48,702.3,266.06,707.91,266.06L707.91,266.06z"/>
		</g>
	</g>
	<g>
		<g>
			<path class="st2" d="M689.33,270.53c-0.53,2.29-1.06,4.58-1.6,6.88c-0.42,1.33-0.48,2.66-0.18,3.99
				c0.06,1.33,0.46,2.57,1.19,3.72c0.63,1.17,1.49,2.1,2.58,2.81c0.97,0.88,2.1,1.48,3.4,1.79c0.89,0.12,1.77,0.24,2.66,0.36
				c1.81-0.01,3.49-0.46,5.05-1.37c0.67-0.52,1.35-1.04,2.02-1.56c1.24-1.25,2.1-2.72,2.57-4.41c0.53-2.29,1.06-4.58,1.6-6.88
				c0.42-1.33,0.48-2.66,0.18-3.99c-0.06-1.33-0.46-2.57-1.19-3.72c-0.63-1.17-1.49-2.1-2.58-2.81c-0.97-0.88-2.1-1.48-3.4-1.79
				c-0.89-0.12-1.77-0.24-2.66-0.36c-1.81,0.01-3.49,0.46-5.05,1.37c-0.67,0.52-1.35,1.04-2.02,1.56
				C690.67,267.36,689.81,268.84,689.33,270.53L689.33,270.53z"/>
		</g>
	</g>
	<g>
		<g>
			<path class="st2" d="M702.42,286.51c0.06-0.04,0.12-0.09,0.18-0.13c-0.8,0.34-1.59,0.67-2.39,1.01c0.06-0.01,0.13-0.03,0.19-0.04
				c-1.77,0-3.54,0-5.32,0c0.07,0.01,0.13,0.02,0.2,0.03c-0.8-0.34-1.59-0.67-2.39-1.01c0.15,0.05,0.28,0.13,0.4,0.23
				c-0.67-0.52-1.35-1.04-2.02-1.56c0.13,0.12,0.25,0.24,0.35,0.39c-0.52-0.67-1.04-1.35-1.56-2.02c0.1,0.14,0.19,0.29,0.25,0.45
				c-0.34-0.8-0.67-1.59-1.01-2.39c0.71,1.8,1.2,3.65,1.47,5.56c-0.12-0.89-0.24-1.77-0.36-2.66c0.16,1.32,0.23,2.63,0.18,3.96
				c6.55-0.89,13.1-1.77,19.64-2.66c-0.89-3.94-1.61-7.92-2.16-11.92c0.12,0.89,0.24,1.77,0.36,2.66c-0.33-2.5-0.6-5.01-0.8-7.53
				c-6.55,0.89-13.1,1.77-19.64,2.66c1.47,3.65,2.47,7.46,3,11.36c-0.12-0.89-0.24-1.77-0.36-2.66c0.35,2.72,0.46,5.45,0.34,8.19
				c-0.11,2.49,1.19,5.33,2.93,7.07c1.73,1.73,4.58,3.04,7.07,2.93c5.61-0.25,9.75-4.39,10-10c0.33-7.48-0.9-15.26-3.7-22.21
				c-0.31-1.3-0.91-2.43-1.79-3.4c-0.71-1.09-1.64-1.95-2.81-2.58c-2.02-1.07-4.1-1.49-6.38-1.19c-2.1,0.28-4.27,1.14-5.74,2.75
				c-1.71,1.87-3.14,4.45-2.93,7.07c0.59,7.43,1.67,14.84,3.31,22.11c0.52,2.28,2.53,4.88,4.6,5.98c2.02,1.07,4.1,1.49,6.38,1.19
				c4.98-0.67,8.5-4.8,8.67-9.82c0.11-3.38-0.33-6.89-1.29-10.14c-0.76-2.58-1.78-5.17-3.7-7.11c-3.29-3.32-9.26-4.73-13.28-1.83
				c-2.17,1.56-3.86,3.32-4.6,5.98c-0.66,2.39-0.36,5.58,1.01,7.71c1.38,2.14,3.43,4.01,5.98,4.6
				C697.19,288.08,700.26,288.05,702.42,286.51L702.42,286.51z"/>
		</g>
	</g>
	<g>
		<g>
			<path class="st2" d="M699.15,265.33c2.44,0.44,4.87,0.9,7.31,1.3c2.58,0.42,4.65,0.69,7.2-0.06c3.2-0.94,5.45-3.04,7.33-5.68
				c2.55-3.57,4.56-7.66,6.39-11.64c4.11-8.96,7.19-18.28,8.7-28.03c0.43-2.75,0.45-5.21-1.01-7.71c-1.21-2.07-3.59-4.05-5.98-4.6
				c-2.56-0.58-5.43-0.46-7.71,1.01c-2.04,1.32-4.21,3.46-4.6,5.98c-1.23,7.91-3.43,15.63-6.53,23c0.34-0.8,0.67-1.59,1.01-2.39
				c-1.07,2.52-2.24,5-3.52,7.42c-1.23,2.32-2.47,4.74-4.03,6.86c0.52-0.67,1.04-1.35,1.56-2.02c-0.24,0.28-0.46,0.51-0.75,0.75
				c0.67-0.52,1.35-1.04,2.02-1.56c-0.19,0.14-0.39,0.25-0.61,0.33c0.8-0.34,1.59-0.67,2.39-1.01c-0.12,0.03-0.24,0.07-0.37,0.1
				c0.89-0.12,1.77-0.24,2.66-0.36c-0.4,0.05-0.74,0.05-1.14,0.01c0.89,0.12,1.77,0.24,2.66,0.36c-2.57-0.36-5.13-0.9-7.69-1.36
				c-2.7-0.48-5.26-0.42-7.71,1.01c-2.07,1.21-4.05,3.59-4.6,5.98c-0.58,2.56-0.46,5.43,1.01,7.71
				C694.51,262.81,696.62,264.88,699.15,265.33L699.15,265.33z"/>
		</g>
	</g>
	<g>
		<g>
			<path class="st2" d="M717.06,217.52c0.23,3.84,0.43,7.69-0.07,11.52c0.12-0.89,0.24-1.77,0.36-2.66
				c-0.31,2.14-0.86,4.18-1.69,6.19c0.34-0.8,0.67-1.59,1.01-2.39c-1.98,4.63-4.66,9.03-7.25,13.34c-2.62,4.37-5.41,8.64-8.33,12.81
				c-1.42,2.02-1.64,5.41-1.01,7.71c0.64,2.32,2.43,4.83,4.6,5.98c2.32,1.23,5.13,1.84,7.71,1.01c2.59-0.84,4.41-2.36,5.98-4.6
				c4.77-6.8,9.16-13.87,13.11-21.18c2.23-4.12,4.35-8.43,5.1-13.1c0.79-4.92,0.79-9.68,0.49-14.63c-0.16-2.66-1.01-5.15-2.93-7.07
				c-1.73-1.73-4.58-3.04-7.07-2.93c-2.59,0.12-5.27,0.97-7.07,2.93C718.26,212.34,716.9,214.88,717.06,217.52L717.06,217.52z"/>
		</g>
	</g>
	<g>
		<g>
			<path class="st2" d="M724.06,260.85c3.03-6.91,6.05-13.82,9.08-20.73c0.73-1.15,1.13-2.39,1.19-3.72
				c0.3-1.33,0.24-2.66-0.18-3.99c-0.64-2.32-2.43-4.83-4.6-5.98c-2.32-1.23-5.13-1.84-7.71-1.01c-2.31,0.75-4.96,2.27-5.98,4.6
				c-3.03,6.91-6.05,13.82-9.08,20.73c-0.73,1.15-1.13,2.39-1.19,3.72c-0.3,1.33-0.24,2.66,0.18,3.99c0.64,2.32,2.43,4.83,4.6,5.98
				c2.32,1.23,5.13,1.84,7.71,1.01C720.4,264.7,723.05,263.18,724.06,260.85L724.06,260.85z"/>
		</g>
	</g>
	<g>
		<g>
			<path class="st2" d="M671.49,207.25c2.94,3.63,8.03,4.62,12.4,5.29c4.27,0.65,8.57,1.07,12.85,1.64
				c-0.89-0.12-1.77-0.24-2.66-0.36c10.78,1.46,21.43,3.77,31.85,6.93c5.01,1.52,11.12-1.81,12.3-6.98
				c1.23-5.4-1.62-10.68-6.98-12.3c-6.66-2.02-13.42-3.7-20.25-5.03c-7.55-1.46-15.18-2.3-22.8-3.31c0.89,0.12,1.77,0.24,2.66,0.36
				c-2.62-0.36-5.43-0.66-7.9-1.65c0.8,0.34,1.59,0.67,2.39,1.01c-0.34-0.16-0.65-0.33-0.97-0.54c0.67,0.52,1.35,1.04,2.02,1.56
				c-0.3-0.24-0.53-0.47-0.78-0.77c-1.51-1.87-4.77-2.93-7.07-2.93c-2.45,0-5.38,1.09-7.07,2.93c-1.75,1.91-3.05,4.41-2.93,7.07
				c0.12,0.89,0.24,1.77,0.36,2.66C669.39,204.53,670.25,206,671.49,207.25L671.49,207.25z"/>
		</g>
	</g>
	<g>
		<g>
			<path class="st2" d="M698,200.62c0.21-0.08,0.42-0.14,0.64-0.18c-0.79,0.09-0.91,0.12-0.35,0.09c0.17,0,0.33,0.01,0.5,0.03
				c0.39,0.04,0.22,0.01-0.49-0.06c0.05-0.11,2.12,0.54,2.36,0.61c2.14,0.6,4.4,1,6.59,0.45c1.06-0.27,2.08-0.74,2.96-1.38
				c0.4-0.3,0.79-0.6,1.17-0.9c-0.48,0.37-0.49,0.38-0.01,0.05c0.37-0.22,0.72-0.46,1.07-0.71c2.3-1.64,3.71-3.8,4.6-6.46
				c1.29-3.85,1.36-8.13,1.53-12.16c0.04-0.99,0.09-1.99,0.15-2.98c0.03-0.49,0.07-0.98,0.12-1.48c0.03-0.3,0.01-1.75,0.05-0.55
				c-0.03-0.9,0.36-2,0.59-2.85c0.11-0.4,0.23-0.8,0.37-1.19c0.09-0.26,0.19-0.52,0.29-0.78c-0.24,0.55-0.24,0.56,0,0.04
				c1.11-2.36,0.74-5.5-1.79-6.84c-2.22-1.17-5.66-0.73-6.84,1.79c-1.84,3.92-2.54,7.98-2.81,12.28c-0.12,1.85-0.16,3.7-0.27,5.55
				c-0.05,0.92-0.12,1.85-0.22,2.76c-0.02,0.21-0.05,0.42-0.07,0.63c0.09-0.63,0.09-0.65,0-0.07c-0.08,0.42-0.15,0.83-0.23,1.25
				c-0.13,0.61-0.22,1.84-0.64,2.3c0.27-0.6,0.28-0.65,0.04-0.14c-0.09,0.17-0.18,0.33-0.28,0.49c-0.2,0.3-0.12,0.22,0.22-0.25
				c-0.17,0.19-0.35,0.37-0.54,0.53c0.77-0.71-0.25,0.1-0.39,0.19c-0.59,0.4-1.12,0.85-1.69,1.27c0.48-0.36,0.49-0.38,0.03-0.06
				c-0.45,0.24-0.47,0.26-0.06,0.07c0.4-0.16,0.39-0.17-0.02-0.05c0.81-0.08,0.93-0.11,0.38-0.08c-0.11,0-0.22-0.01-0.32-0.01
				c-0.55-0.05-0.43-0.03,0.34,0.05c-0.21-0.12-0.76-0.17-1-0.23c-0.79-0.2-1.57-0.46-2.36-0.65c-2.06-0.49-4.23-0.69-6.27-0.02
				c-2.48,0.81-4.35,3.5-3.49,6.15C692.66,199.61,695.34,201.49,698,200.62L698,200.62z"/>
		</g>
	</g>
	<g>
		<g>
			<path class="st2" d="M714.79,144.97c0.11,0.25,0.2,0.51,0.26,0.78c-0.06-0.66-0.07-0.7-0.03-0.11c0,0.28,0,0.56-0.03,0.83
				c0.1-0.63,0.1-0.65,0.01-0.07c-0.2,1.04-0.43,2.08-0.64,3.12c-0.45,2.28-0.85,4.56-1.19,6.86c-0.73,4.96-1.27,9.93-1.52,14.94
				c-0.13,2.62,2.4,5.12,5,5c2.82-0.13,4.86-2.2,5-5c0.12-2.4,0.3-4.79,0.54-7.18c0.13-1.27,0.28-2.54,0.44-3.82
				c0.08-0.6,0.08-0.63,0.01-0.1c0.04-0.32,0.09-0.63,0.14-0.95c0.08-0.55,0.17-1.11,0.25-1.66c0.38-2.37,0.81-4.73,1.31-7.08
				c0.57-2.69,1.12-5.57,0.09-8.22c-0.95-2.43-3.39-4.38-6.15-3.49C715.92,139.58,713.77,142.36,714.79,144.97L714.79,144.97z"/>
		</g>
	</g>
	<g>
		<g>
			<path class="st2" d="M714.8,143.92c-3.94,17.3-6.62,34.89-8,52.58c-0.39,4.94-0.66,9.89-0.85,14.84c-0.1,2.62,2.37,5.12,5,5
				c2.79-0.12,4.9-2.2,5-5c0.31-8.6,0.93-17.19,1.87-25.75c0.23-2.1,0.48-4.2,0.75-6.29c0.07-0.56,0.15-1.13,0.22-1.69
				c0.08-0.59,0,0.02-0.02,0.12c0.03-0.24,0.07-0.48,0.1-0.72c0.16-1.13,0.32-2.25,0.48-3.38c0.63-4.26,1.34-8.5,2.12-12.74
				c0.89-4.79,1.88-9.56,2.96-14.31c0.58-2.54-0.78-5.53-3.49-6.15C718.4,139.85,715.42,141.19,714.8,143.92L714.8,143.92z"/>
		</g>
	</g>
	<g>
		<g>
			<path class="st2" d="M711.62,169.51c0.01,7.29,0.03,14.59,0.04,21.88c0.01,3.86,0.04,7.7,0.78,11.51
				c0.65,3.35,2.01,6.63,3.81,9.53c1.37,2.22,4.53,3.28,6.84,1.79c2.23-1.44,3.27-4.46,1.79-6.84c-0.41-0.67-0.81-1.35-1.16-2.06
				c-0.16-0.32-0.31-0.65-0.46-0.97c0.3,0.64,0.09,0.21-0.07-0.2c-0.54-1.44-0.89-2.9-1.2-4.4c-0.03-0.16-0.05-0.32-0.08-0.48
				c0.06,0.45,0.06,0.49,0.02,0.13c-0.03-0.4-0.08-0.8-0.11-1.21c-0.07-0.89-0.11-1.78-0.13-2.67c-0.04-1.71-0.03-3.43-0.03-5.15
				c-0.01-6.96-0.03-13.92-0.04-20.89c0-2.62-2.3-5.12-5-5C713.91,164.63,711.61,166.71,711.62,169.51L711.62,169.51z"/>
		</g>
	</g>
	<g>
		<g>
			<path class="st2" d="M712.64,194.2c-1.82,2.64-0.99,6.22,1.01,8.47c1.27,1.42,3.09,2.17,4.76,3c1.65,0.82,3.44,1.99,5.24,2.37
				c1.67,0.36,3.48,0.21,4.95-0.72c0.57-0.36,1.12-0.81,1.54-1.34c0.22-0.27,0.42-0.52,0.69-0.74c-0.34,0.26-0.67,0.52-1.01,0.78
				c0.12-0.09,0.25-0.16,0.39-0.22c-0.4,0.17-0.8,0.34-1.19,0.5c0.29-0.11,0.57-0.18,0.87-0.23c-0.44,0.06-0.89,0.12-1.33,0.18
				c1.87-0.24,3.58-0.23,5.31-1.11c2.23-1.13,3.55-3.34,3.64-5.82c0.09-2.62-2.36-5.12-5-5c-2.79,0.12-4.9,2.2-5,5
				c0,0.06,0,0.12-0.01,0.19c0.06-0.44,0.12-0.89,0.18-1.33c-0.01,0.12-0.04,0.23-0.09,0.34c0.17-0.4,0.34-0.8,0.5-1.19
				c-0.05,0.11-0.1,0.21-0.17,0.3c0.26-0.34,0.52-0.67,0.78-1.01c-0.12,0.15-0.24,0.26-0.39,0.38c0.34-0.26,0.67-0.52,1.01-0.78
				c-0.16,0.11-0.32,0.2-0.5,0.29c0.4-0.17,0.8-0.34,1.19-0.5c-0.31,0.13-0.62,0.22-0.95,0.27c0.44-0.06,0.89-0.12,1.33-0.18
				c-1.31,0.15-2.67,0.09-3.93,0.52c-1.16,0.4-2.07,0.9-2.95,1.77c-0.35,0.34-0.58,0.76-0.96,1.07c0.34-0.26,0.67-0.52,1.01-0.78
				c-0.06,0.04-0.12,0.08-0.19,0.11c0.4-0.17,0.8-0.34,1.19-0.5c-0.14,0.07-0.29,0.11-0.45,0.12c0.44-0.06,0.89-0.12,1.33-0.18
				c-0.16,0.01-0.31,0-0.47-0.02c0.44,0.06,0.89,0.12,1.33,0.18c-0.25-0.06-0.46-0.13-0.7-0.22c0.4,0.17,0.8,0.34,1.19,0.5
				c-1.18-0.53-2.33-1.14-3.48-1.72c-1.06-0.53-2.21-1-3.16-1.72c0.34,0.26,0.67,0.52,1.01,0.78c-0.19-0.17-0.36-0.33-0.52-0.53
				c0.26,0.34,0.52,0.67,0.78,1.01c-0.14-0.2-0.24-0.38-0.33-0.6c0.17,0.4,0.34,0.8,0.5,1.19c-0.05-0.14-0.09-0.29-0.12-0.45
				c0.06,0.44,0.12,0.89,0.18,1.33c-0.02-0.15-0.03-0.3-0.02-0.45c-0.06,0.44-0.12,0.89-0.18,1.33c0.01-0.15,0.04-0.29,0.1-0.43
				c-0.17,0.4-0.34,0.8-0.5,1.19c0.05-0.14,0.13-0.27,0.22-0.38c0.7-1.02,0.82-2.69,0.5-3.85c-0.32-1.16-1.22-2.42-2.3-2.99
				C716.94,191.06,714.23,191.89,712.64,194.2L712.64,194.2z"/>
		</g>
	</g>
	<g>
		<g>
			<path class="st2" d="M728.62,201.84c-0.06,0.89-0.06,1.88-0.26,2.76c0.28-1.26,0,0.01-0.04,0.24c-0.06,0.39-0.12,0.78-0.19,1.17
				c-0.31,1.75-0.69,3.49-1.13,5.22c-0.86,3.4-1.91,6.75-2.96,10.09c-0.78,2.5,0.92,5.57,3.49,6.15c2.72,0.62,5.31-0.82,6.15-3.49
				c2.28-7.25,4.41-14.51,4.93-22.13c0.18-2.61-2.43-5.12-5-5C730.76,196.97,728.82,199.04,728.62,201.84L728.62,201.84z"/>
		</g>
	</g>
	<g>
		<g>
			<path class="st2" d="M704.63,216.33c2.62,0,5.12-2.3,5-5c-0.12-2.71-2.2-5-5-5c-2.62,0-5.12,2.3-5,5
				C699.76,214.04,701.83,216.33,704.63,216.33L704.63,216.33z"/>
		</g>
	</g>
	<g>
		<g>
			<path class="st2" d="M704.27,216.33c2.62,0,5.12-2.3,5-5c-0.12-2.71-2.2-5-5-5c-2.62,0-5.12,2.3-5,5
				C699.39,214.04,701.47,216.33,704.27,216.33L704.27,216.33z"/>
		</g>
	</g>
	<g>
		<g>
			<path class="st2" d="M721.71,213.57c-1.93-2.46-4.6-4.23-7.05-6.12c0.34,0.26,0.67,0.52,1.01,0.78
				c-1.52-1.18-3.01-2.42-4.19-3.95c0.26,0.34,0.52,0.67,0.78,1.01c-0.19-0.26-0.38-0.52-0.55-0.79c-0.71-1.09-1.71-1.95-2.99-2.3
				c-1.2-0.33-2.79-0.18-3.85,0.5c-1.07,0.69-2.01,1.71-2.3,2.99c-0.29,1.27-0.24,2.73,0.5,3.85c1.07,1.63,2.35,3.1,3.83,4.38
				c1.49,1.28,3.09,2.43,4.65,3.63c-0.34-0.26-0.67-0.52-1.01-0.78c1.49,1.15,2.93,2.37,4.1,3.86c0.74,0.94,2.41,1.46,3.54,1.46
				c1.23,0,2.69-0.54,3.54-1.46c0.87-0.95,1.52-2.2,1.46-3.54c-0.06-0.44-0.12-0.89-0.18-1.33
				C722.76,214.93,722.33,214.19,721.71,213.57L721.71,213.57z"/>
		</g>
	</g>
	<g>
		<g>
			<path class="st2" d="M709.49,209.58c4.35,1.13,8.84,1.8,13.32,2.04c1.24,0.07,2.68-0.61,3.54-1.46c0.87-0.87,1.52-2.29,1.46-3.54
				c-0.13-2.83-2.2-4.85-5-5c-1.6-0.09-3.2-0.24-4.79-0.45c0.44,0.06,0.89,0.12,1.33,0.18c-2.43-0.33-4.83-0.8-7.2-1.42
				c-1.27-0.33-2.72-0.16-3.85,0.5c-1.04,0.61-2.03,1.8-2.3,2.99C705.41,206.04,706.79,208.88,709.49,209.58L709.49,209.58z"/>
		</g>
	</g>
	<g>
		<g>
			<path class="st2" d="M726.5,202.19c-5.73-4.06-12.28-7.05-19.07-8.81c-2.53-0.65-5.54,0.83-6.15,3.49
				c-0.59,2.61,0.78,5.45,3.49,6.15c1.63,0.42,3.23,0.91,4.81,1.48c0.69,0.25,1.37,0.52,2.06,0.79c0.5,0.2,0.39,0.16-0.32-0.14
				c0.19,0.08,0.39,0.17,0.58,0.25c0.38,0.17,0.77,0.34,1.15,0.52c2.95,1.38,5.76,3.03,8.41,4.91c1,0.71,2.71,0.82,3.85,0.5
				c1.16-0.32,2.42-1.22,2.99-2.3C729.65,206.46,728.78,203.81,726.5,202.19L726.5,202.19z"/>
		</g>
	</g>
	<g>
		<g>
			<path class="st2" d="M685.36,206.88c2.62,0,5.12-2.3,5-5c-0.12-2.71-2.2-5-5-5c-2.62,0-5.12,2.3-5,5
				C680.48,204.59,682.56,206.88,685.36,206.88L685.36,206.88z"/>
		</g>
	</g>
	<g>
		<g>
			<path class="st2" d="M684.03,149.52c1.35,8.4,1.43,16.95,1.66,25.44c0.23,8.74,0.47,17.47,0.7,26.21c0.09,3.21,5.09,3.22,5,0
				c-0.24-8.9-0.48-17.81-0.72-26.71c-0.24-8.79-0.44-17.58-1.83-26.27c-0.21-1.33-1.88-2.08-3.08-1.75
				C684.35,146.83,683.81,148.18,684.03,149.52L684.03,149.52z"/>
		</g>
	</g>
	<g>
		<g>
			<path class="st2" d="M683.64,135.33c-0.13,17.78,0.5,35.56,1.89,53.29c0.4,5.03,0.85,10.05,1.37,15.07
				c0.14,1.34,1.05,2.5,2.5,2.5c1.24,0,2.64-1.15,2.5-2.5c-1.82-17.69-2.89-35.45-3.19-53.23c-0.09-5.04-0.11-10.09-0.07-15.13
				C688.66,132.11,683.66,132.11,683.64,135.33L683.64,135.33z"/>
		</g>
	</g>
	<g>
		<g>
			<path class="st2" d="M685.97,133.88c-0.1,20.34,1.63,40.66,5.1,60.71c0.23,1.33,1.86,2.08,3.08,1.75
				c1.41-0.39,1.98-1.74,1.75-3.08c-3.39-19.6-5.02-39.49-4.92-59.38C690.98,130.66,685.98,130.66,685.97,133.88L685.97,133.88z"/>
		</g>
	</g>
	<g>
		<g>
			<path class="st2" d="M686.22,159.33c-0.36,7.75-0.39,15.66,1.65,23.21c1.01,3.74,2.58,7.31,4.32,10.77
				c1.54,3.08,3.03,6.9,5.73,9.17c1.03,0.87,2.52,1.01,3.54,0c0.89-0.89,1.04-2.66,0-3.54c-1.18-0.99-1.86-2.25-2.57-3.59
				c-0.81-1.51-1.61-3.03-2.38-4.56c-1.62-3.22-3.03-6.52-3.93-10.02c-1.8-6.98-1.68-14.28-1.35-21.43
				C691.37,156.12,686.37,156.12,686.22,159.33L686.22,159.33z"/>
		</g>
	</g>
	<g>
		<g>
			<path class="st2" d="M742.93,162.56c-2.03,3.69-3.15,7.74-4.4,11.73c-1.23,3.95-3.02,7.51-4.85,11.2
				c-1.9,3.81-3.31,7.75-4.15,11.93c-0.85,4.23-1.25,8.54-1.65,12.83c-0.12,1.35,1.24,2.5,2.5,2.5c1.46,0,2.38-1.15,2.5-2.5
				c0.37-4,0.74-8,1.56-11.94c0.82-3.92,2.16-7.54,3.97-11.11c1.84-3.64,3.58-7.25,4.81-11.15c1.18-3.72,2.14-7.52,4.03-10.96
				C748.8,162.26,744.48,159.73,742.93,162.56L742.93,162.56z"/>
		</g>
	</g>
	<g>
		<g>
			<path class="st2" d="M685.29,168.43c1.01,11.76,5.37,22.82,12.59,32.14c0.83,1.07,2.67,0.87,3.54,0c1.05-1.05,0.83-2.46,0-3.54
				c-6.34-8.18-10.25-18.3-11.13-28.61c-0.11-1.35-1.07-2.5-2.5-2.5C686.53,165.93,685.17,167.08,685.29,168.43L685.29,168.43z"/>
		</g>
	</g>
	<g>
		<g>
			<path class="st2" d="M685.42,129.93c-0.69,4.35-1.38,8.7-2.06,13.05c-0.2,1.29,0.33,2.75,1.75,3.08c1.2,0.27,2.86-0.36,3.08-1.75
				c0.69-4.35,1.38-8.7,2.06-13.05c0.2-1.29-0.33-2.75-1.75-3.08C687.29,127.91,685.63,128.55,685.42,129.93L685.42,129.93z"/>
		</g>
	</g>
	<g>
		<g>
			<path class="st2" d="M685.3,130.6c0.03,1.96-0.02,3.93-0.15,5.89c-0.06,0.94-0.15,1.88-0.25,2.82c-0.05,0.47-0.11,0.94-0.17,1.4
				c-0.04,0.3-0.04,0.31,0,0.04c-0.02,0.12-0.03,0.23-0.05,0.35c-0.04,0.27-0.08,0.54-0.12,0.82c-0.2,1.29,0.33,2.75,1.75,3.08
				c1.19,0.27,2.86-0.36,3.08-1.75c0.65-4.19,0.98-8.4,0.92-12.64c-0.02-1.31-1.14-2.56-2.5-2.5
				C686.47,128.16,685.28,129.2,685.3,130.6L685.3,130.6z"/>
		</g>
	</g>
	<g>
		<g>
			<path class="st2" d="M650.88,150.07c3.51,9.01,7.32,17.91,11.45,26.66c2.05,4.35,4.19,8.66,6.39,12.93
				c2.03,3.93,4.14,7.81,5.1,12.17c0.69,3.14,5.51,1.81,4.82-1.33c-0.98-4.45-3.09-8.53-5.18-12.54c-2.21-4.26-4.35-8.55-6.41-12.88
				c-4.1-8.64-7.89-17.42-11.36-26.33c-0.49-1.26-1.68-2.13-3.08-1.75C651.43,147.32,650.39,148.8,650.88,150.07L650.88,150.07z"/>
		</g>
	</g>
	<g>
		<g>
			<path class="st2" d="M655.71,147.05c-0.04-0.07-0.08-0.14-0.11-0.22c0.08,0.64,0.17,1.28,0.25,1.93
				c0.02-0.08,0.04-0.16,0.05-0.24c-0.21,0.37-0.43,0.74-0.64,1.1c-0.03,0.01-0.06,0.03-0.08,0.04c-0.42,0.11-0.84,0.23-1.26,0.34
				c0.09,0,0.18,0,0.28-0.01c-0.42-0.11-0.84-0.23-1.26-0.34c-0.31-0.46-0.36-0.5-0.13-0.11c0.11,0.24,0.22,0.48,0.32,0.72
				c0.26,0.61,0.52,1.21,0.78,1.82c0.52,1.21,1.04,2.43,1.56,3.64c0.97,2.28,1.95,4.55,2.92,6.83c2.01,4.7,4.03,9.41,6.04,14.11
				c2.01,4.7,4.03,9.41,6.04,14.11c0.62,1.44,1.78,3.26,1.07,4.84c-0.7,1.57-2.36,2.7-3.72,3.65c1.22,0.5,2.45,1,3.67,1.49
				c-2.75-7.66-0.44-16.02-1.8-23.92c-0.72-4.15-2.78-7.63-4.9-11.2c-2.2-3.71-3.83-7.62-4.87-11.81c-0.78-3.12-5.6-1.8-4.82,1.33
				c1.06,4.28,2.72,8.42,4.93,12.24c2.03,3.51,4.13,6.7,4.84,10.76c0.66,3.81,0.32,7.78,0.26,11.62c-0.06,4.14,0.13,8.37,1.54,12.3
				c0.5,1.4,2.25,2.48,3.67,1.49c3.13-2.18,6.67-5.14,6.44-9.36c-0.14-2.49-1.51-4.86-2.48-7.11c-0.97-2.28-1.95-4.55-2.92-6.83
				c-3.93-9.18-7.86-18.36-11.79-27.53c-0.52-1.21-1.04-2.43-1.56-3.64c-0.47-1.1-0.83-2.32-1.7-3.17c-2.53-2.47-6.57,0.5-4.92,3.63
				C652.89,152.42,657.21,149.89,655.71,147.05L655.71,147.05z"/>
		</g>
	</g>
	<g>
		<g>
			<path class="st2" d="M656.4,147.66c0.07,0.08,0.29,1.67,0.24,1.74c-0.17,0.2-0.49,0.1-0.62,0.2c-0.75,0.6-0.19-0.12-0.23,0.01
				c-0.03,0.1,0.45,0.75,0.51,0.88c0.2,0.41,0.36,0.83,0.53,1.25c0.87,2.13,1.73,4.26,2.6,6.39c1.73,4.26,3.46,8.53,5.2,12.79
				c2.84,6.99,5.41,14.35,9.82,20.54c2.42,3.39,5.33,6.34,8.93,8.45c2.78,1.63,5.3-2.69,2.52-4.32
				c-6.92-4.07-10.58-11.73-13.55-18.88c-1.93-4.64-3.79-9.32-5.69-13.98c-1.97-4.85-3.72-9.89-5.97-14.62
				c-1.06-2.23-3.3-4.09-5.88-3.28c-2.76,0.86-3.88,4.17-1.94,6.35C655,153.61,658.53,150.06,656.4,147.66L656.4,147.66z"/>
		</g>
	</g>
	<g>
		<g>
			<path class="st2" d="M665.23,186.35c-1.27,4.43,1.66,8.43,3.83,12.03c2.28,3.79,4.57,7.58,6.85,11.37
				c1.66,2.75,5.98,0.24,4.32-2.52c-2.07-3.43-4.13-6.86-6.2-10.29c-0.99-1.64-2.03-3.27-2.96-4.95c-0.73-1.32-1.46-2.79-1.02-4.32
				C670.94,184.58,666.12,183.26,665.23,186.35L665.23,186.35z"/>
		</g>
	</g>
	<g>
		<g>
			<path class="st2" d="M670.98,206.92c2.88-8.61,0.46-17.72-2.06-26.1c-2.73-9.08-5.47-18.15-8.21-27.23
				c-1.26-4.18-2.11-9.63-6.78-11.28c-1.38-0.49-2.59,0.57-3.08,1.75c-1.71,4.17,0.43,8.52,1.98,12.37
				c1.67,4.15,3.29,8.32,4.85,12.51c3.12,8.38,6,16.86,8.65,25.4c1.51,4.88,2.95,9.79,4.31,14.72c0.86,3.1,5.68,1.78,4.82-1.33
				c-4.64-16.78-10.16-33.32-16.57-49.51c-0.87-2.19-1.8-4.36-2.64-6.57c-0.78-2.06-1.46-4.13-0.59-6.26
				c-1.03,0.58-2.05,1.16-3.08,1.75c0.93,0.33,1.39,1.68,1.68,2.54c0.68,1.96,1.22,3.97,1.82,5.96c1.26,4.19,2.52,8.37,3.79,12.56
				c1.26,4.19,2.52,8.37,3.79,12.56c1.18,3.93,2.39,7.86,3.1,11.91c0.76,4.33,0.78,8.74-0.62,12.94
				C665.14,208.65,669.97,209.96,670.98,206.92L670.98,206.92z"/>
		</g>
	</g>
	<g>
		<g>
			<path class="st2" d="M731.4,201.98c6.26-10.45,10.8-21.91,13.37-33.82c-1.64-0.22-3.27-0.44-4.91-0.66
				c0.62,7.34-1.21,14.44-3.07,21.47c-1.87,7.1-3.42,14.13-3.65,21.5c-0.41,13.33,1.96,28.24-6.84,39.53
				c-4.02,5.16-9.69,8.93-16.01,10.61c-3.11,0.83-1.79,5.65,1.33,4.82c13.11-3.49,22.86-14.45,25.4-27.68
				c1.43-7.45,1.08-15.04,1.07-22.58c-0.01-3.72,0.06-7.45,0.51-11.15c0.46-3.75,1.37-7.44,2.32-11.09
				c2.15-8.31,4.67-16.76,3.94-25.45c-0.1-1.24-0.87-2.3-2.17-2.46c-1.17-0.14-2.48,0.56-2.74,1.79
				c-2.48,11.52-6.81,22.51-12.86,32.62C725.42,202.22,729.75,204.74,731.4,201.98L731.4,201.98z"/>
		</g>
	</g>
	<g>
		<g>
			<path class="st2" d="M678.2,278.2c3.8-6.06-4.18-11.9-7.95-15.49c-2.64-2.51-5.27-5.02-7.91-7.52c-2.19-2.08-4.67-4.11-6.3-6.69
				c-1.63-2.58-2.37-5.58-3.24-8.48c-0.73-2.44-1.46-4.88-2.36-7.26c-1.87-4.95-4.39-9.72-8.68-12.97c-2.5-1.9-5.44-2.94-8.45-3.73
				c-3.07-0.81-6.19-1.45-8.82-3.32c-1.1-0.78-2.78-0.2-3.42,0.9c-0.73,1.25-0.21,2.64,0.9,3.42c4.49,3.19,10.19,3.04,14.95,5.55
				c4.01,2.12,6.47,6.06,8.17,10.14c1.96,4.69,2.91,9.72,4.77,14.44c1.21,3.08,2.96,5.66,5.28,8.01c2.23,2.27,4.6,4.41,6.9,6.6
				c2.76,2.62,5.51,5.24,8.27,7.86c1.23,1.17,4.82,4.01,3.57,6.01C672.17,278.41,676.49,280.92,678.2,278.2L678.2,278.2z"/>
		</g>
	</g>
	<g>
		<g>
			<path class="st2" d="M627.33,214.36c0.03,1.09-1.11,0.48-0.17,1.04c0.72,0.42,1.38,0.95,2.06,1.44c1.45,1.05,2.9,2.1,4.35,3.15
				c2.83,2.06,5.64,4.14,8.44,6.24c5.63,4.21,11.21,8.49,16.73,12.83c1.06,0.83,2.5,1.03,3.54,0c0.87-0.87,1.07-2.7,0-3.54
				c-6.76-5.31-13.58-10.53-20.48-15.66c-3.4-2.52-6.81-5.02-10.25-7.49c-1.64-1.18-3.36-2.47-5.51-2.17
				c-2.08,0.29-3.76,2-3.71,4.16C622.42,217.57,627.42,217.59,627.33,214.36L627.33,214.36z"/>
		</g>
	</g>
	<g>
		<g>
			<path class="st2" d="M659.45,235.68c-0.33-0.09-0.38-0.13-0.67-0.38c-0.38-0.32-0.72-0.71-1.09-1.04
				c-0.94-0.82-1.97-1.49-3.23-1.68c-2.73-0.4-5.58,2.14-4.62,4.99c0.89,2.62,4.87,2.25,4.91-0.66c0.02-1.24,0.52-2.49,1.59-3.36
				c1.12-0.91,2.9-1.2,4.37-1.47c4.08-0.77,8.16-1.52,12.24-2.28c1.33-0.25,2.08-1.85,1.75-3.08c-0.38-1.39-1.74-1.99-3.08-1.75
				c-4.63,0.86-9.37,1.52-13.95,2.64c-4.48,1.09-7.86,4.53-7.92,9.3c1.64-0.22,3.27-0.44,4.91-0.66c0.08,0.24-0.11,0.92-0.35,1.11
				c0.6-0.46-0.64,0.35-0.62,0.13c0-0.02,0.98,0.79,1.02,0.83c1,0.97,2.05,1.83,3.42,2.19C661.23,241.32,662.56,236.5,659.45,235.68
				L659.45,235.68z"/>
		</g>
	</g>
	<g>
		<g>
			<path class="st2" d="M690.32,183.94c1.9,4.08,4.04,8.05,6.41,11.88c0.69,1.11,2.27,1.64,3.42,0.9c1.11-0.72,1.63-2.23,0.9-3.42
				c-2.37-3.83-4.51-7.8-6.41-11.88c-0.55-1.19-2.36-1.58-3.42-0.9C689.99,181.31,689.73,182.67,690.32,183.94L690.32,183.94z"/>
		</g>
	</g>
	<g>
		<g>
			<path class="st2" d="M706.84,182.6c-0.03,0.63-0.08,1.27-0.15,1.9c-0.04,0.3-0.04,0.31,0,0.04c-0.02,0.16-0.05,0.31-0.07,0.47
				c-0.04,0.23-0.08,0.47-0.13,0.7c-0.24,1.21-0.56,2.4-0.97,3.56c-0.09,0.26-0.19,0.52-0.29,0.78c-0.06,0.15-0.12,0.3-0.18,0.44
				c0.1-0.23,0.09-0.21-0.03,0.06c-0.25,0.54-0.5,1.08-0.78,1.61c-0.57,1.09-1.23,2.13-1.95,3.13c-0.77,1.06-0.22,2.83,0.9,3.42
				c1.3,0.68,2.6,0.24,3.42-0.9c3.2-4.42,4.97-9.77,5.23-15.22c0.06-1.31-1.19-2.56-2.5-2.5
				C707.93,180.17,706.91,181.2,706.84,182.6L706.84,182.6z"/>
		</g>
	</g>
	<g>
		<g>
			<path class="st2" d="M675.61,195.47c1.45,0.22,2.9,0.44,4.35,0.66c1.56,0.23,3.13,0.43,4.69,0.01c3.01-0.83,4.34-3.57,5.21-6.31
				c0.39-1.25-0.46-2.78-1.75-3.08c-1.36-0.31-2.65,0.41-3.08,1.75c-0.14,0.45-0.29,0.9-0.46,1.34c-0.03,0.07-0.17,0.44-0.03,0.09
				c0.13-0.34-0.01,0.01-0.05,0.08c-0.11,0.22-0.22,0.44-0.36,0.65c-0.04,0.07-0.16,0.19-0.18,0.27c0.02-0.1,0.33-0.38,0.09-0.13
				c-0.07,0.08-0.14,0.16-0.22,0.23c-0.03,0.03-0.43,0.37-0.11,0.12c0.29-0.23-0.01-0.01-0.08,0.03c-0.07,0.04-0.42,0.18-0.11,0.08
				c0.38-0.13-0.58,0.14-0.58,0.14c0.02-0.06,0.53-0.04,0.11-0.02c-0.12,0.01-0.25,0.01-0.37,0.02c-0.25,0-0.5,0-0.76-0.02
				c-0.16-0.01-0.32-0.03-0.47-0.04c-0.07-0.01-0.5-0.06-0.14-0.01c0.36,0.05-0.07-0.01-0.14-0.02c-0.14-0.02-0.28-0.04-0.42-0.06
				c-1.28-0.19-2.56-0.39-3.84-0.58c-0.69-0.1-1.3-0.11-1.93,0.25c-0.52,0.3-1.01,0.9-1.15,1.49
				C673.59,193.58,674.23,195.26,675.61,195.47L675.61,195.47z"/>
		</g>
	</g>
	<g>
		<g>
			<path class="st2" d="M744.23,159.53c-4.1-0.34-6.62,3.48-8,6.79c-1.69,4.07-2.94,8.32-3.88,12.62
				c-1.91,8.74-2.6,17.69-3.28,26.59c-0.1,1.35,1.22,2.5,2.5,2.5c1.44,0,2.4-1.15,2.5-2.5c0.6-7.85,1.19-15.73,2.73-23.47
				c0.77-3.87,1.77-7.7,3.1-11.42c0.69-1.94,1.91-6.31,4.33-6.11c1.35,0.11,2.5-1.23,2.5-2.5
				C746.73,160.58,745.58,159.64,744.23,159.53L744.23,159.53z"/>
		</g>
	</g>
	<g>
		<g>
			<path class="st2" d="M662.2,236.35c-3.11-2.03-6.26-4.04-9.07-6.48c-2.92-2.53-5.17-5.64-7.92-8.33
				c-5.31-5.2-12.24-8.19-19.16-10.58c-1.28-0.44-2.73,0.5-3.08,1.75c-0.38,1.37,0.47,2.63,1.75,3.08
				c6.56,2.27,13.08,5.13,17.91,10.27c2.58,2.75,4.89,5.66,7.82,8.07c2.92,2.4,6.07,4.49,9.23,6.55
				C662.38,242.43,664.89,238.1,662.2,236.35L662.2,236.35z"/>
		</g>
	</g>
	<g>
		<g>
			<path class="st2" d="M622.48,214.25c0.12-0.91,0.5-1.4,1.14-1.47c-0.33,0-0.38,0-0.16-0.02c-0.37-0.15-0.76-0.23-1.08-0.48
				c-0.1-0.08-0.35-0.37-0.34-0.37c0.14,0.01-0.4,0.51-0.41,0.44c-0.02-0.14,2.28,0.51,2.41,0.55c1.02,0.37,2,0.84,2.96,1.35
				c4.33,2.31,8.4,5.2,12.54,7.85c2,1.28,3.97,2.41,5.5,4.26c1.47,1.77,2.97,3.33,4.82,4.71c3.55,2.65,7.73,4.32,11.89,5.75
				c1.28,0.44,2.73-0.5,3.08-1.75c0.38-1.37-0.46-2.63-1.75-3.08c-3.96-1.36-8.06-2.98-11.28-5.74c-1.7-1.45-2.88-3.35-4.51-4.84
				c-1.9-1.75-4.26-3.02-6.43-4.41c-4.08-2.61-8.11-5.55-12.48-7.66c-2.02-0.97-4.4-2.1-6.7-2.02c-2.59,0.09-4.75,2.07-4.61,4.76
				c0.15,2.79,2.37,4.68,4.91,5.44c2.37,0.71,5.65-0.34,5.53-3.28C627.34,211.04,622.34,211.02,622.48,214.25L622.48,214.25z"/>
		</g>
	</g>
	<g>
		<g>
			<path class="st2" d="M621.49,211.64c3.14-1.82,6.81-0.46,9.66,1.27c3.39,2.06,6.52,4.64,9.69,7.02
				c6.59,4.95,13.06,10.08,19.03,15.79c2.32,2.23,5.87-1.31,3.54-3.54c-6.61-6.33-13.85-11.94-21.17-17.42
				c-6.41-4.79-14.83-12.33-23.27-7.44C616.18,208.94,618.69,213.26,621.49,211.64L621.49,211.64z"/>
		</g>
	</g>
	<g>
		<g>
			<path class="st2" d="M660.13,230.63c-6.84-9.75-16.41-17.17-27.54-21.38c-1.26-0.48-2.74,0.53-3.08,1.75
				c-0.39,1.4,0.48,2.6,1.75,3.08c9.83,3.72,18.52,10.48,24.55,19.08c0.77,1.1,2.19,1.62,3.42,0.9
				C660.32,233.41,660.91,231.74,660.13,230.63L660.13,230.63z"/>
		</g>
	</g>
	<g>
		<g>
			<path class="st2" d="M645.39,217.34c-2.3-3.14-4.84-6.41-8.51-8.01c-4.48-1.95-8.77-0.29-12.85,1.82c-1.81,0.94-1.42,3.29,0,4.32
				c11.28,8.15,22.57,16.77,31.24,27.77c0.84,1.06,2.66,0.88,3.54,0c1.05-1.05,0.84-2.47,0-3.54
				c-8.93-11.33-20.64-20.16-32.26-28.55c0,1.44,0,2.88,0,4.32c2.6-1.35,5.55-2.88,8.46-1.53c2.57,1.19,4.42,3.7,6.05,5.92
				c0.8,1.09,2.17,1.63,3.42,0.9C645.57,220.13,646.2,218.43,645.39,217.34L645.39,217.34z"/>
		</g>
	</g>
	<g>
		<g>
			<path class="st2" d="M624.69,215.53c6.96,1.39,10.84,8.59,14.43,14.01c5.14,7.75,10.28,15.5,15.42,23.24
				c1.77,2.67,6.1,0.17,4.32-2.52c-5.42-8.16-10.83-16.33-16.25-24.49c-4.11-6.19-8.74-13.49-16.6-15.06
				c-1.32-0.26-2.7,0.38-3.08,1.75C622.6,213.69,623.36,215.26,624.69,215.53L624.69,215.53z"/>
		</g>
	</g>
	<g>
		<g>
			<path class="st2" d="M674.54,300.48c1.64-3.5,3.55-6.86,5.71-10.06c0.73-1.09,0.24-2.82-0.9-3.42c-1.26-0.67-2.64-0.26-3.42,0.9
				c-2.16,3.2-4.07,6.57-5.71,10.06c-0.29,0.62-0.44,1.24-0.25,1.93c0.16,0.58,0.61,1.21,1.15,1.49
				C672.23,301.96,673.95,301.74,674.54,300.48L674.54,300.48z"/>
		</g>
	</g>
	<g>
		<g>
			<path class="st2" d="M676.38,304.05c4.33,0.76,8.7,1.32,13.08,1.61c4.08,0.27,8.3,0.48,12.38,0.12c3.23-0.29,6.8-1.21,8.59-4.18
				c2.16-3.59,0.3-8.26-0.18-12.08c-0.6-4.81-0.77-9.66-0.56-14.5c0.14-3.22-4.86-3.21-5,0c-0.22,5-0.01,10.01,0.63,14.98
				c0.3,2.34,0.89,4.67,1.11,7.01c0.14,1.52-0.26,2.47-1.61,3.09c-1.48,0.67-3.21,0.74-4.8,0.78c-2.45,0.07-4.91,0.05-7.36-0.04
				c-5.01-0.19-10-0.72-14.94-1.6c-1.33-0.23-2.69,0.36-3.08,1.75C674.3,302.18,675.04,303.81,676.38,304.05L676.38,304.05z"/>
		</g>
	</g>
	<g>
		<g>
			<path class="st2" d="M676.23,301.12c2.53-2.08,5.05-4.17,7.58-6.25c0.47-0.38,0.73-1.19,0.73-1.77c0-0.61-0.27-1.35-0.73-1.77
				c-0.48-0.44-1.1-0.76-1.77-0.73c-0.7,0.03-1.23,0.29-1.77,0.73c-2.53,2.08-5.05,4.17-7.58,6.25c-0.47,0.38-0.73,1.19-0.73,1.77
				c0,0.61,0.27,1.35,0.73,1.77c0.48,0.44,1.1,0.76,1.77,0.73C675.16,301.82,675.7,301.56,676.23,301.12L676.23,301.12z"/>
		</g>
	</g>
	<g>
		<g>
			<path class="st2" d="M707.05,242.18c0.16-0.46,0.33-0.91,0.52-1.36c-0.08,0.2-0.17,0.4-0.25,0.6c0.66-1.55,1.52-3.01,2.54-4.34
				c-0.13,0.17-0.26,0.34-0.39,0.51c0.21-0.27,0.42-0.53,0.64-0.78c0.44-0.51,0.73-1.07,0.73-1.77c0-0.61-0.27-1.35-0.73-1.77
				c-0.48-0.44-1.1-0.76-1.77-0.73c-0.63,0.03-1.34,0.23-1.77,0.73c-1.93,2.26-3.38,4.78-4.34,7.59c-0.2,0.59-0.06,1.4,0.25,1.93
				c0.3,0.52,0.9,1.01,1.49,1.15C705.36,244.24,706.6,243.51,707.05,242.18L707.05,242.18z"/>
		</g>
	</g>
	<g>
		<g>
			<path class="st2" d="M684.33,129.16c-2.71,3.61-2.18,8.32-1.47,12.49c0.82,4.84,1.25,9.63,1.25,14.54
				c0.02,9.71-0.87,19.41,0.55,29.08c0.75,5.15,2.25,10.15,4.72,14.74c1.53,2.83,5.84,0.31,4.32-2.52
				c-4.05-7.54-4.87-16.23-4.88-24.65c-0.02-9.66,0.88-19.32-0.53-28.94c-0.57-3.9-2.26-8.73,0.36-12.21
				c0.81-1.08,0.17-2.79-0.9-3.42C686.47,127.52,685.15,128.08,684.33,129.16L684.33,129.16z"/>
		</g>
	</g>
	<g>
		<g>
			<path class="st2" d="M678.82,243.65c3.22,0,3.22-5,0-5C675.6,238.65,675.59,243.65,678.82,243.65L678.82,243.65z"/>
		</g>
	</g>
	<g>
		<g>
			<path class="st2" d="M654.3,239.77c-1.32-3.67-3.54-6.79-6.12-9.69c-2.41-2.7-5.01-5.26-7.8-7.56
				c-5.66-4.67-12.05-8.17-19.41-9.07c-1.34-0.16-2.5,1.27-2.5,2.5c0,1.49,1.15,2.33,2.5,2.5c6.05,0.74,11.59,4.02,16.19,7.87
				c2.45,2.06,4.74,4.31,6.91,6.66c2.2,2.4,4.3,5.02,5.41,8.12c0.46,1.27,1.7,2.12,3.08,1.75
				C653.78,242.5,654.76,241.04,654.3,239.77L654.3,239.77z"/>
		</g>
	</g>
	<g>
		<g>
			<path class="st2" d="M619.94,212.48c-0.68,0.07,0.34,0.25,0.58,0.34c-0.06-0.02,0.64,0.57,0.15,0.08
				c0.01,0.06,0.02,0.12,0.03,0.17c0.01-0.31,0.01-0.33-0.01-0.08c-0.03,0.04-0.06,0.09-0.08,0.13c0.23-0.35,0.14-0.3-0.27,0.16
				c-0.16-0.19,1.36-0.1,1.43-0.08c0.77,0.18,1.47,0.51,2.18,0.85c2.34,1.14,4.57,2.53,6.65,4.09c4.15,3.12,7.74,7.02,11.05,11.02
				c6.85,8.27,12.62,17.47,20.26,25.08c4.21,4.19,9.03,7.85,14.5,10.24c1.24,0.54,2.68,0.36,3.42-0.9c0.62-1.06,0.35-2.88-0.9-3.42
				c-10.77-4.71-18.16-14.12-25.05-23.28c-7.19-9.55-14.43-19.76-25-25.86c-3.2-1.85-7.75-4.39-11.26-1.9
				c-3.13,2.22-2.21,8.81,2.31,8.35c1.34-0.14,2.5-1.05,2.5-2.5C622.44,213.74,621.29,212.35,619.94,212.48L619.94,212.48z"/>
		</g>
	</g>
	<path class="st3" d="M721.72,298.28c0.52-3.1-3.64-4.42-4.73-12c-0.32-2.2-0.73-7.39-0.73-13.09c0,0,0,0,0,0
		c1.78-0.11,3.15-0.46,4-0.73c20.77-6.52,25.33-53.59,25.45-71.27c0.03-4.61-0.23-8.11,0.73-13.82c1.21-7.23,5.23-23.13,5.82-25.45
		c0.78-3.1,1.52-5.93,0-7.64c-2.47-2.78-9.09-0.49-9.45-0.36c-14.67,5.22-17,36.53-17.82,36.36c-0.68-0.14,2.33-21.82,3.64-31.27
		c0.1-0.71,0.94-6.97,0.73-15.27c-0.32-12.73-2.34-14.81-3.64-15.64c-2.79-1.77-6.83-0.96-9.43,0.63
		c-3.09,1.88-4.59,5.11-6.55,14.18c-2.32,10.73-2.49,16.68-4.36,27.64c-1.46,8.5-2.45,14.3-3.66,14.28
		c-2.15-0.04-4.87-18.66-4.89-33.55c-0.01-4.74,0.28,4.84-0.93-14.08c-0.37-5.77-0.57-9.12-2.89-12.46
		c-0.68-0.99-3.47-4.99-6.57-4.63c-4.38,0.51-6.39,9.39-6.91,11.64c-0.91,3.99-0.81,7.16-0.73,9.09c0.75,18.35,1.12,27.52,2.19,37.3
		c0.4,3.64,0.76,6.62,0.35,6.7c-0.58,0.12-2.18-5.81-5.09-15.27c-0.84-2.73-7.82-25.03-15.27-31.27c-1.93-1.62-4.35-2.57-4.35-2.57
		c-1.56-0.62-4.74-1.88-7.04-0.79c-1.48,0.7-3.11,2.63-3.52,8.45c-0.66,9.37,2.64,17.05,5.09,23.27c0,0,8.8,22.38,10.55,40.36
		c0.26,2.72,0.05,5.57-0.36,11.27c-0.26,3.53-0.47,4.47-1.09,4.73c-1.86,0.76-4.97-5.54-9.82-10.55
		c-8.5-8.79-23.43-14.72-32.36-9.82c-0.81,0.44-5.4,3.08-6.55,8.36c-0.15,0.68-1.62,7.25,2.91,10.91c2.19,1.77,3.74,0.68,8,1.82
		c4.23,1.12,6.92,3.39,9.82,5.82c5.01,4.2,7.54,8.62,11.27,15.27c4.84,8.63,4.38,10.42,8.36,15.27c4.1,4.99,5.28,3.93,9.09,8.36
		c0.8,0.93,10.69,12.76,7.64,24.36c-1.79,6.8-6.53,7.82-5.82,10.55C665.18,312.46,719.9,309.17,721.72,298.28z"/>
</g>
<g>
	<g>
		<rect x="89.87" y="349.16" class="st4" width="30.55" height="129.82"/>
		<rect x="120.41" y="349.16" class="st4" width="30.55" height="129.82"/>
		<rect x="150.96" y="349.16" class="st4" width="30.55" height="129.82"/>
		<rect x="181.5" y="349.16" class="st4" width="30.55" height="129.82"/>
		<rect x="212.05" y="349.16" class="st4" width="30.55" height="129.82"/>
		<rect x="242.59" y="349.16" class="st4" width="30.55" height="129.82"/>
		<rect x="273.14" y="349.16" class="st4" width="30.55" height="129.82"/>
		<rect x="303.68" y="349.16" class="st4" width="30.55" height="129.82"/>
		<rect x="334.23" y="349.16" class="st4" width="30.55" height="129.82"/>
		<rect x="364.78" y="349.16" class="st4" width="30.55" height="129.82"/>
		<rect x="395.32" y="349.16" class="st4" width="30.55" height="129.82"/>
		<rect x="425.87" y="349.16" class="st4" width="30.55" height="129.82"/>
		<rect x="456.41" y="349.16" class="st4" width="30.55" height="129.82"/>
		<rect x="486.96" y="349.16" class="st4" width="30.55" height="129.82"/>
		<rect x="517.5" y="349.16" class="st4" width="30.55" height="129.82"/>
		<rect x="548.05" y="349.16" class="st4" width="30.55" height="129.82"/>
		<rect x="578.59" y="349.16" class="st4" width="30.55" height="129.82"/>
		<rect x="609.14" y="349.16" class="st4" width="30.55" height="129.82"/>
		<rect x="639.68" y="349.16" class="st4" width="30.55" height="129.82"/>
		<rect x="670.23" y="349.16" class="st4" width="30.55" height="129.82"/>
	</g>
	<rect x="109.87" y="349.16" class="st5" width="18.91" height="77.09"/>
	<rect x="141.5" y="349.16" class="st5" width="18.91" height="77.09"/>
	<rect x="202.59" y="349.16" class="st5" width="18.91" height="77.09"/>
	<rect x="233.14" y="349.16" class="st5" width="18.91" height="77.09"/>
	<rect x="263.68" y="349.16" class="st5" width="18.91" height="77.09"/>
	<rect x="324.78" y="349.16" class="st5" width="18.91" height="77.09"/>
	<rect x="324.78" y="349.16" class="st5" width="18.91" height="77.09"/>
	<rect x="356.41" y="349.16" class="st5" width="18.91" height="77.09"/>
	<rect x="417.5" y="349.16" class="st5" width="18.91" height="77.09"/>
	<rect x="448.05" y="349.16" class="st5" width="18.91" height="77.09"/>
	<rect x="478.59" y="349.16" class="st5" width="18.91" height="77.09"/>
	<rect x="539.68" y="349.16" class="st5" width="18.91" height="77.09"/>
	<rect x="539.68" y="349.16" class="st5" width="18.91" height="77.09"/>
	<rect x="571.32" y="349.16" class="st5" width="18.91" height="77.09"/>
	<rect x="632.41" y="349.16" class="st5" width="18.91" height="77.09"/>
	<rect x="662.96" y="349.16" class="st5" width="18.91" height="77.09"/>
</g>
<rect x="338.5" y="431.07" class="st6" width="21.82" height="44.36"/>
<g>
	<g>
		<path class="st7" d="M623.82,211.7c3.22,0,3.22-5,0-5C620.6,206.7,620.6,211.7,623.82,211.7L623.82,211.7z"/>
	</g>
</g>
<path class="st8" d="M321.1,230.38c-1.23,0.59-1.98,0.05-3.09,0.36c-2.15,0.6-3.05,3.69-3.45,5.09c-0.34,1.17-2.05,7.06,1.45,11.45
	c3.78,4.74,11.34,4.86,16.36,2c4.05-2.3,7.23-6.99,6.91-12.36c-0.38-6.31-5.36-9.76-6-10.18c-0.33-0.22-6.17-4-11.09-1.82
	c-2.56,1.13-6.25,4.49-8.36,5.09c-0.43,0.12-1.54,0.44-2.31-0.14c-0.13-0.1-0.21-0.19-0.24-0.22c-0.69-0.85,1.12-3.92,2.18-5.27
	c3.03-3.84,9.77-5.97,16-4.73c6.4,1.28,10.03,5.68,10.73,6.55c0.48,0.61,6.08,7.89,3.27,16.91c-2.19,7.04-8.51,11.91-15.45,12.73
	c-0.85,0.1-11.15,1.13-16.55-6.91c-3.76-5.61-2.97-12.39-0.73-16.73c0.55-1.07,2.99-5.77,7.27-6.36c2-0.28,4.75,0.3,5.09,1.64
	C323.36,228.46,322.27,229.81,321.1,230.38z"/>
<path class="st9" d="M206.6,244.29c-1.23,0.59-1.98,0.05-3.09,0.36c-2.15,0.6-3.05,3.69-3.45,5.09c-0.34,1.17-2.05,7.06,1.45,11.45
	c3.78,4.74,11.34,4.86,16.36,2c4.05-2.3,7.23-6.99,6.91-12.36c-0.38-6.31-5.36-9.76-6-10.18c-0.33-0.22-6.17-4-11.09-1.82
	c-2.56,1.13-6.25,4.49-8.36,5.09c-0.43,0.12-1.54,0.44-2.31-0.14c-0.13-0.1-0.21-0.19-0.24-0.22c-0.69-0.85,1.12-3.92,2.18-5.27
	c3.03-3.84,9.77-5.97,16-4.73c6.4,1.28,10.03,5.68,10.73,6.55c0.48,0.61,6.08,7.89,3.27,16.91c-2.19,7.04-8.51,11.91-15.45,12.73
	c-0.85,0.1-11.15,1.13-16.55-6.91c-3.76-5.61-2.97-12.39-0.73-16.73c0.55-1.07,2.99-5.77,7.27-6.36c2-0.28,4.75,0.3,5.09,1.64
	C208.86,242.37,207.77,243.72,206.6,244.29z"/>
<path class="st10" d="M430.96,192.76c-1.23,0.59-1.98,0.05-3.09,0.36c-2.15,0.6-3.05,3.69-3.45,5.09
	c-0.34,1.17-2.05,7.06,1.45,11.45c3.78,4.74,11.34,4.86,16.36,2c4.05-2.3,7.23-6.99,6.91-12.36c-0.38-6.31-5.36-9.76-6-10.18
	c-0.33-0.22-6.17-4-11.09-1.82c-2.56,1.13-6.25,4.49-8.36,5.09c-0.43,0.12-1.54,0.44-2.31-0.14c-0.13-0.1-0.21-0.19-0.24-0.22
	c-0.69-0.85,1.12-3.92,2.18-5.27c3.03-3.84,9.77-5.97,16-4.73c6.4,1.28,10.03,5.68,10.73,6.55c0.48,0.61,6.08,7.89,3.27,16.91
	c-2.19,7.04-8.51,11.91-15.45,12.73c-0.85,0.1-11.15,1.13-16.55-6.91c-3.76-5.61-2.97-12.39-0.73-16.73
	c0.55-1.07,2.99-5.77,7.27-6.36c2-0.28,4.75,0.3,5.09,1.64C433.22,190.84,432.13,192.19,430.96,192.76z"/>
<rect x="430.5" y="431.07" class="st9" width="21.27" height="42.36"/>
<rect x="439.91" y="355.06" class="st9" width="3.91" height="85.15"/>
<rect x="484.06" y="354.34" class="st8" width="8.26" height="66.73"/>
<rect x="554.59" y="431.25" class="st10" width="17.45" height="42.01"/>
<rect x="562.23" y="354.34" class="st10" width="5.1" height="85.15"/>
<g>
	<g>
		<path class="st8" d="M344.1,212.22c0.17-0.24,0.55-0.62,1.4-0.81c0.52-0.12,0.95-0.1,2.33-0.1c1.19,0.01,2.42,0,3.09,0
			c2.22-0.02,2.58-0.1,3.61,0.02c1.09,0.13,1.67,0.34,1.86,0.42c0.38,0.15,1.01,0.39,1.05,0.76c0.04,0.37-0.56,0.64-0.93,0.81
			c-0.23,0.1-0.81,0.34-1.86,0.49c-1.1,0.16-1.58,0.06-3.73,0.03c-2.42-0.03-2.7,0.08-4.01-0.05c-0.96-0.1-1.88-0.2-2.45-0.56
			C343.83,212.84,344.02,212.38,344.1,212.22z"/>
		<path class="st8" d="M344.1,216.51c0.17-0.24,0.55-0.62,1.4-0.81c0.52-0.12,0.95-0.1,2.33-0.1c1.19,0.01,2.42,0,3.09,0
			c2.22-0.02,2.58-0.1,3.61,0.02c1.09,0.13,1.67,0.34,1.86,0.42c0.38,0.15,1.01,0.39,1.05,0.76c0.04,0.37-0.56,0.64-0.93,0.81
			c-0.23,0.1-0.81,0.34-1.86,0.49c-1.1,0.16-1.58,0.06-3.73,0.03c-2.42-0.03-2.7,0.08-4.01-0.05c-0.96-0.1-1.88-0.2-2.45-0.56
			C343.83,217.12,344.02,216.67,344.1,216.51z"/>
		<path class="st8" d="M347.36,221.95c-0.21-0.2-0.53-0.64-0.64-1.56c-0.07-0.56-0.03-1.02,0.08-2.51c0.09-1.28,0.19-2.6,0.23-3.31
			c0.15-2.38,0.1-2.78,0.29-3.87c0.2-1.16,0.44-1.76,0.53-1.97c0.17-0.4,0.44-1.06,0.78-1.07c0.35-0.01,0.55,0.65,0.68,1.06
			c0.08,0.25,0.25,0.89,0.31,2.04c0.06,1.19-0.07,1.7-0.25,4.01c-0.21,2.6-0.12,2.9-0.35,4.3c-0.17,1.02-0.33,2-0.71,2.58
			C347.91,222.28,347.5,222.05,347.36,221.95z"/>
		<path class="st8" d="M344.1,216.51c0.17-0.24,0.55-0.62,1.4-0.81c0.52-0.12,0.95-0.1,2.33-0.1c1.19,0.01,2.42,0,3.09,0
			c2.22-0.02,2.58-0.1,3.61,0.02c1.09,0.13,1.67,0.34,1.86,0.42c0.38,0.15,1.01,0.39,1.05,0.76c0.04,0.37-0.56,0.64-0.93,0.81
			c-0.23,0.1-0.81,0.34-1.86,0.49c-1.1,0.16-1.58,0.06-3.73,0.03c-2.42-0.03-2.7,0.08-4.01-0.05c-0.96-0.1-1.88-0.2-2.45-0.56
			C343.83,217.12,344.02,216.67,344.1,216.51z"/>
		<path class="st8" d="M350.96,221.95c-0.21-0.2-0.53-0.64-0.64-1.56c-0.07-0.56-0.03-1.02,0.08-2.51c0.09-1.28,0.19-2.6,0.23-3.31
			c0.15-2.38,0.1-2.78,0.29-3.87c0.2-1.16,0.44-1.76,0.53-1.97c0.17-0.4,0.44-1.06,0.78-1.07c0.35-0.01,0.55,0.65,0.68,1.06
			c0.08,0.25,0.25,0.89,0.31,2.04c0.06,1.19-0.07,1.7-0.25,4.01c-0.21,2.6-0.12,2.9-0.35,4.3c-0.17,1.02-0.33,2-0.71,2.58
			C351.51,222.28,351.1,222.05,350.96,221.95z"/>
	</g>
</g>
<path class="st11" d="M342.61,320.85c0.13-0.34,0.41-0.88,1.03-1.16c0.38-0.17,0.7-0.15,1.72-0.14c0.88,0.01,1.79,0.01,2.28,0
	c1.64-0.02,1.91-0.14,2.67,0.04c0.8,0.19,1.23,0.49,1.38,0.6c0.28,0.21,0.75,0.57,0.77,1.09c0.03,0.53-0.41,0.91-0.69,1.16
	c-0.17,0.15-0.6,0.49-1.38,0.7c-0.81,0.22-1.16,0.08-2.76,0.04c-1.79-0.04-1.99,0.12-2.96-0.08c-0.71-0.14-1.39-0.29-1.81-0.81
	C342.42,321.73,342.55,321.08,342.61,320.85z"/>
<g>
	<path class="st11" d="M290.26,301.48c0.41-0.11,1.01-0.26,1.78-0.14c1.06,0.16,1.36,0.69,1.91,0.56c0.9-0.21,1.78-1.95,1.4-2.95
		c-0.68-1.78-5.85-2.42-9.28,0.28c-2.73,2.15-3.69,5.9-3.43,8.84c0.09,0.99,0.35,3.91,2.29,5.33c1.31,0.96,2.86,0.86,5.34,0.7
		c2.22-0.14,2.42-0.55,3.94-0.42c1.01,0.08,3.26,0.27,4.45,1.82c1.74,2.28,0.58,6.69-1.27,9.26c-2.11,2.93-6.02,4.7-8.77,3.51
		c-2.01-0.87-2.9-3.1-3.94-2.66c-0.69,0.29-0.99,1.56-0.89,2.52c0.31,3.03,4.74,4.56,5.34,4.77c0.85,0.3,6.33,2.07,10.93-1.96
		c3.48-3.05,5.16-8.28,3.94-13.04c-0.2-0.8-1.36-5.36-4.83-7.01c-1.61-0.77-3.33-0.72-4.2-0.7c-2.93,0.08-3.94,1.27-5.98,0.56
		c-0.43-0.15-1.83-0.64-2.54-2.1c-0.87-1.8-0.07-3.76,0.13-4.21C287.59,302.17,289.79,301.6,290.26,301.48z"/>
	<path class="st11" d="M328.66,295.03c0.52-0.48,1.33-0.5,1.91-0.28c0.43,0.16,1.46,0.74,2.16,4.07c0.61,2.93,0.39,5.25,0.25,7.01
		c-0.56,7.27,0.24,6.4-0.38,11.36c-0.19,1.49-0.6,4.26-1.14,8.98c-0.26,2.29-0.44,4,0.53,5.39c0.71,1.03,2.12,1.98,3.28,1.62
		c1.17-0.36,1.32-1.8,2.29-1.82c0.78-0.02,1.6,0.9,1.78,1.82c0.34,1.77-1.69,3.7-3.31,4.49c-1.86,0.9-4.26,0.82-6.1-0.56
		c-2-1.5-2.5-3.89-2.8-5.33c-0.52-2.49-0.14-4.36,0.13-6.31c0.34-2.43,0.35-5.22,0.38-10.8c0.03-5.71,0.69-11.42,0.38-17.11
		C328,297.07,327.91,295.71,328.66,295.03z"/>
	<path class="st11" d="M310.22,312.55c0.81-0.73,2.23-1.99,4.4-2.31c0.42-0.06,3.26-0.42,5.64,1.58c2.49,2.1,2.78,5.36,2.94,7.05
		c0.4,4.44-1.09,10.86-5.76,13.24c-0.52,0.27-3.28,1.67-6.21,0.49c-4.08-1.65-5.02-6.94-5.19-7.9
		C305.15,319.68,307.49,315.05,310.22,312.55z"/>
	<path class="st6" d="M312.3,315.88c1.41-1.04,3.64-1.49,5.12-0.27c0.82,0.67,1.16,1.66,1.42,2.41c0.64,1.85,0.45,3.52,0.34,4.44
		c-0.18,1.45-0.53,4.21-2.47,5.65c-0.27,0.2-1.5,1.12-2.99,0.77c-0.87-0.2-1.45-0.75-1.8-1.1c-1.38-1.34-1.78-3.15-1.9-3.73
		C309.51,321.63,309.83,317.7,312.3,315.88z"/>
</g>
<path class="st11" d="M416.73,321.1c0.13-0.34,0.41-0.88,1.03-1.16c0.38-0.17,0.7-0.15,1.72-0.14c0.88,0.01,1.79,0.01,2.28,0
	c1.64-0.02,1.91-0.14,2.67,0.04c0.8,0.19,1.23,0.49,1.38,0.6c0.28,0.21,0.75,0.57,0.77,1.09c0.03,0.53-0.41,0.91-0.69,1.16
	c-0.17,0.15-0.6,0.49-1.38,0.7c-0.81,0.22-1.16,0.08-2.76,0.04c-1.79-0.04-1.99,0.12-2.96-0.08c-0.71-0.14-1.39-0.29-1.81-0.81
	C416.54,321.98,416.67,321.33,416.73,321.1z"/>
<g>
	<path class="st10" d="M742.83,163.49"/>
	<g>
		<path class="st10" d="M742.83,168.49c2.62,0,5.12-2.3,5-5c-0.12-2.71-2.2-5-5-5c-2.62,0-5.12,2.3-5,5
			C737.95,166.2,740.03,168.49,742.83,168.49L742.83,168.49z"/>
	</g>
</g>
<g>
	<g>
		<path class="st0" d="M624.34,216.5c2.62,0,5.12-2.3,5-5c-0.12-2.71-2.2-5-5-5c-2.62,0-5.12,2.3-5,5
			C619.47,214.21,621.54,216.5,624.34,216.5L624.34,216.5z"/>
	</g>
</g>
<g>
	<path class="st8" d="M686.69,133.88"/>
	<g>
		<path class="st8" d="M686.69,138.88c2.62,0,5.12-2.3,5-5c-0.12-2.71-2.2-5-5-5c-2.62,0-5.12,2.3-5,5
			C681.81,136.59,683.89,138.88,686.69,138.88L686.69,138.88z"/>
	</g>
</g>
<g>
	<path class="st12" d="M252.14,23.64c1.5,0.71,2.94,1.4,4.16,3.04c1.02,1.38,1.07,2.32,2.08,2.9c1.41,0.81,3.64,0.3,4.42-1.01
		c1.28-2.16-1.42-6.44-2.86-8.26c-4.9-6.19-15.7-9.62-24.04-4.34c-6.87,4.35-8.8,12.55-9.22,14.34c-1.55,6.57-0.21,11.93,0.13,13.18
		c2.02,7.43,7.18,12.95,12.6,15.35c5.46,2.42,11.59,1.86,12.99,1.74c3.64-0.33,6.11-1.28,9.87-0.14c1.23,0.37,3.76,1.13,5.85,3.33
		c5.15,5.44,3.46,15.34,2.86,18.83c-1.16,6.75-4.05,11.16-5.07,12.6c-1.4,1.99-3.73,5.22-7.93,7.39c-4.66,2.4-8.84,2.06-10.65,1.88
		c-2.81-0.27-6.39-0.62-9.61-3.62c-0.66-0.62-4.96-4.61-4.68-10.57c0.04-0.88,0.23-4.98,3.12-7.39c0.42-0.35,2.68-2.24,5.2-1.74
		c1.11,0.22,1.64,0.78,2.34,0.43c1.07-0.53,1.65-2.72,1.04-4.06c-1.11-2.4-5.9-1.52-6.24-1.45c-4.83,0.95-7.65,5.41-8.31,6.52
		c-3.17,5.34-2.44,11.14-2.21,12.6c1.59,10.18,10.83,15.08,12.86,16.08c12.13,5.93,23.86-2.25,24.55-2.75
		c11.06-8,12.28-22.27,12.73-27.52c0.3-3.51,0.87-11.21-2.99-18.68c-1.11-2.15-2.89-5.51-6.39-7.51c-3.02-1.73-5.18-1.22-11.54-1.18
		c-8.59,0.06-12.89,0.09-15.98-1.59c-0.8-0.43-8.23-4.64-8.83-13.32c-0.36-5.13,1.77-10.32,5.59-13.47
		C243.37,20.78,249.67,22.46,252.14,23.64z"/>
	<path class="st13" d="M308.01,58.54c-1.86,0.39-2.39,0.12-3.77,0.43c-1.98,0.45-3.32,1.56-4.16,2.24c-3.3,2.72-4.4,6.81-5.2,9.78
		c-0.5,1.87-1.29,5.57-0.84,10.21c0.32,3.29,0.56,5.77,2.27,8.11c2.54,3.47,6.35,3.94,7.28,4.06c4.99,0.62,8.61-2.56,9.48-3.33
		c4.19-3.69,5.06-8.81,5.26-10.14c0.7-4.52-0.52-7.92-1.88-11.73c-1.01-2.81-1.89-5.18-3.96-6.52c-2.52-1.62-4.16-1.74-4.16-1.74
		c-0.82-0.06-1.45,0.06-2.01-0.43c-0.73-0.64-1.01-2.02-0.71-3.04c0.63-2.17,3.98-3.01,6.43-2.68c1.63,0.22,3,0.98,4.29,2.03
		c5.08,4.13,6.75,10.91,7.28,13.18c0.65,2.8,1.87,8.32,0,14.92c-0.66,2.32-3.01,9.4-9.61,13.61c-1.66,1.06-5.82,3.63-11.37,2.9
		c-1.68-0.22-5.57-1.02-8.96-4.27c-7.75-7.42-6.06-21.01-5.59-24.84c0.47-3.77,1.36-6.34,1.88-7.68c1.28-3.26,3.02-7.7,7.34-10.21
		c3.54-2.06,6.88-1.69,9.16-1.45c1.04,0.11,2.33,0.36,3.51,1.38c0.14,0.12,2.17,1.92,1.75,3.4
		C311.4,57.83,309.85,58.15,308.01,58.54z"/>
	<path class="st13" d="M328.92,54.41c-0.33-0.99-1.29-3.69-0.19-5.29c0.67-0.98,1.98-1.34,2.99-1.09c2.24,0.57,2.98,4.22,3.18,5.21
		c0.11,0.52,0.16,1.39,0.26,3.11c0.16,2.69,0.19,4.56,0.19,4.56c0.16,8,0.24,12.01,0.39,15.5c0.21,4.77,0.54,9,0.39,11.8
		c-0.07,1.28-0.08,2.56-0.13,3.84c0,0-0.02,0.52,0,2.39c0.01,1.05,0.07,1.59,0.26,2.1c0.4,1.08,1.24,1.63,1.62,1.88
		c2.3,1.51,5.59,0.72,7.28,0.29c3.12-0.79,3.93-1.78,5.65-1.23c1.03,0.33,2.45,1.23,2.66,2.61c0.29,1.85-1.72,3.68-3.38,4.34
		c-0.68,0.27-1.14,0.27-2.47,0.29c-5.96,0.08-6.43,0.16-9.09,0c-1.76-0.1-2.66-0.16-3.18-0.36c-3.03-1.16-4.46-4.4-4.74-5.07
		c-1.32-3.16-0.79-6.25-0.52-8.18c0.89-6.27,0.64-11.08,0.19-19.84C329.77,61.23,329.52,56.2,328.92,54.41z"/>
</g>
<path class="st11" d="M372.68,293.31c0.78-0.21,1.54,0.37,1.69,0.49c1.14,0.91,1.18,2.59,1.2,3.22c0.2,7.71,0.3,11.58,0.28,12.03
	c-0.22,4.91-0.23,6.45-0.49,9.51c-0.28,3.22-0.42,4.83-0.7,5.74c-0.12,0.37-0.39,1.19-0.42,2.31c-0.03,0.9-0.07,2.42,0.84,3.15
	c0.2,0.16,0.46,0.29,2.67,0.35c1.56,0.04,2.34,0.06,3.24,0c2.23-0.16,2.73-0.52,3.17-0.14c0.7,0.62,0.42,2.5-0.49,3.71
	c-2.03,2.7-6.95,1.7-7.39,1.61c-0.88-0.19-4.42-1.08-6.05-4.13c-1.17-2.19-0.72-4.33-0.35-6.78c0.91-6.03,2.11-19.08,1.01-24.38
	c-0.02-0.09-0.44-2.12,0.25-4.43C371.36,294.77,371.75,293.56,372.68,293.31z"/>
<g>
	<g>
		<path class="st11" d="M390.32,317.24c0.13,0.66,0.69,1.03,0.73,1.05c0.9,0.57,2.25-0.06,3.04-0.79c0.86-0.8,0.64-1.35,1.34-1.84
			c0.97-0.68,2.64-0.5,3.53,0.39c0.34,0.34,0.86,1.08,0.49,6.04c-0.12,1.59-0.35,3.82-0.49,6.83c-0.08,1.82-0.08,2.88,0.61,3.68
			c0.6,0.69,1.66,1.1,2.56,0.79c0.64-0.22,1.31-0.85,1.22-1.31c-0.09-0.47-0.89-0.38-1.34-0.92c-0.79-0.94,0.08-3.05,0.37-3.81
			c1.26-3.38,1.36-8.13,0-10.91c-1.3-2.65-4.49-4.62-7.33-4.04C392.45,312.93,389.99,315.59,390.32,317.24z"/>
		<path class="st11" d="M398.35,333.4c-0.15,0.36-0.41,0.88-0.87,1.4c-1.5,1.71-3.92,1.95-5.68,1.48c-0.51-0.14-2.29-0.64-3.54-2.49
			c-1.69-2.51-0.97-5.38-0.87-5.77c0.91-3.39,3.99-4.62,4.77-4.93c0.23-0.09,3.23-1.23,5.91,0.2c0.54,0.29,1.56,0.85,1.76,1.9
			c0.11,0.56,0.01,1.39-0.43,1.58c-0.39,0.17-0.76-0.56-1.46-1.03c-1.27-0.87-2.8-0.48-3.31-0.37c-0.97,0.21-1.65,0.66-1.98,0.89
			c-0.18,0.12-0.75,0.52-1.35,1.21c-0.48,0.55-0.92,1.05-1.19,1.85c-0.15,0.45-0.47,1.37-0.11,2.37c0.29,0.82,0.88,1.25,1.12,1.43
			c0.23,0.17,0.75,0.54,1.48,0.59c1.14,0.08,2-0.68,2.35-0.99c0.58-0.51,0.5-0.7,0.96-0.96c0.62-0.35,1.71-0.52,2.24,0.17
			C398.56,332.46,398.39,333.25,398.35,333.4z"/>
	</g>
</g>
<g>
	<path class="st14" d="M448.92,332.4c0.74,0.64,1.95,0.9,2.77,0.47c0.92-0.49,1.13-1.75,1.27-4.34c0.18-3.46,0.03-5.79-0.05-8.39
		c-0.12-3.77-0.17-5.66-0.09-7.13c0.04-0.7,0.18-2.94-0.19-5.83c-0.25-1.97-0.54-2.69-1.17-3.12c-1.05-0.71-2.83-0.47-3.56,0.47
		c-0.26,0.34-0.3,0.86-0.38,1.87c-0.1,1.29-0.03,2.19-0.03,2.19c1.08,13.66,0.78,17.67,0.78,17.67
		C448.05,329.11,447.59,331.25,448.92,332.4z"/>
	<path class="st11" d="M437.53,294.49c-0.98,0.74-2.79,2.15-3.94,4.66c-0.45,0.99-2.29,5.43,0,8.72c1.41,2.02,3.87,2.85,4.97,2.61
		c0.37-0.08,1.29-0.37,1.32-0.83c0.01-0.08-0.01-0.19-0.62-0.9c-0.4-0.46-0.59-0.71-0.75-0.84c-0.46-0.38-0.84-0.45-1.08-0.56
		c-1.02-0.49-1.13-2.72-0.94-4.15c0.07-0.51,0.4-2.53,2.3-4.66c2.81-3.16,8.39-5.79,14.4-4.76c1.06,0.18,8.88,1.65,11.3,8.16
		c0.38,1.02,1.56,4.67-0.23,8.16c-2.08,4.05-7.5,6.6-10.83,5.46c-0.81-0.28-2.04-0.97-2.91-0.42c-0.61,0.38-0.92,1.29-0.7,1.96
		c0.44,1.34,3.02,1.54,4.27,1.63c1.4,0.11,7.02,0.54,11.77-3.59c1.26-1.1,3.68-3.2,4.36-6.57c1.41-6.97-5.92-12.86-6.71-13.48
		c-6.98-5.46-15.43-4.12-18.33-3.64C440.73,292.2,438.34,293.87,437.53,294.49z"/>
	<path class="st15" d="M436.22,296.12"/>
	<path class="st16" d="M458.58,318.6c-0.31-0.4-0.34-1.03-0.09-1.49c0.42-0.81,1.51-0.83,1.73-0.84c0.21,0,0.9,0.01,1.8,0.65
		c0.97,0.7,1.44,1.6,2,2.89c0.88,2.02,1.33,3.03,1.69,4.52c0.54,2.2,0.63,3.92,0.7,5.55c0.22,4.53-0.41,6.09,0.89,7.69
		c0.2,0.24,1.09,1.34,2.3,1.35c1.36,0.01,2.41-1.3,3.09-2.14c0.66-0.82,1.06-1.65,2.25-2.7c0.46-0.41,0.73-0.58,0.98-0.51
		c0.66,0.16,0.91,1.75,0.84,2.75c-0.15,2.41-2.28,4.8-4.83,5.74c-2.39,0.87-5.71,0.75-7.55-1.21c-0.22-0.23-0.91-1.02-1.5-3.82
		c-0.55-2.63-0.33-3.78-0.42-7.83c0,0-0.14-6.09-1.73-8.67c-0.65-1.05-1.25-1.39-1.25-1.39C459.08,318.9,458.82,318.9,458.58,318.6z
		"/>
</g>
<path class="st11" d="M485.04,329.59c0.42-0.53,1.1-0.2,2.46-0.35c2.57-0.3,4.35-2,5.47-3.06c1.63-1.55,3.11-2.97,2.9-4.71
	c-0.27-2.24-3.16-3.37-3.57-3.53c-3.03-1.18-6.45,0.06-8.59,2c-1.99,1.8-2.68,4.01-3.13,5.53c-0.49,1.65-2.41,8.12,1.45,12.59
	c2.9,3.36,7.09,3.3,7.92,3.29c0.43-0.01,4.76-0.06,5.47-2.23c0.25-0.78,0.04-1.84-0.56-2.35c-0.66-0.57-1.47-0.17-2.68-0.12
	c-2.28,0.1-4.4-1.1-5.58-2.35C485.27,332.87,484.33,330.5,485.04,329.59z"/>
<path class="st6" d="M485.94,324.77c0.52,0.76,1.91,0.47,2.46,0.35c1.91-0.4,4.15-1.97,3.91-3.29c-0.17-0.92-1.48-1.41-2.23-1.53
	c-1.67-0.26-3.14,0.91-3.79,2.12C486.13,322.67,485.41,324,485.94,324.77z"/>
<g>
	<g>
		<path class="st11" d="M403.97,300.99c0.17-0.24,0.55-0.62,1.4-0.81c0.52-0.12,0.95-0.1,2.33-0.1c1.19,0.01,2.42,0,3.09,0
			c2.22-0.02,2.58-0.1,3.61,0.02c1.09,0.13,1.67,0.34,1.86,0.42c0.38,0.15,1.01,0.39,1.05,0.76c0.04,0.37-0.56,0.64-0.93,0.81
			c-0.23,0.1-0.81,0.34-1.86,0.49c-1.1,0.16-1.58,0.06-3.73,0.03c-2.42-0.03-2.7,0.08-4.01-0.05c-0.96-0.1-1.88-0.2-2.45-0.56
			C403.7,301.61,403.89,301.15,403.97,300.99z"/>
		<path class="st11" d="M403.97,305.28c0.17-0.24,0.55-0.62,1.4-0.81c0.52-0.12,0.95-0.1,2.33-0.1c1.19,0.01,2.42,0,3.09,0
			c2.22-0.02,2.58-0.1,3.61,0.02c1.09,0.13,1.67,0.34,1.86,0.42c0.38,0.15,1.01,0.39,1.05,0.76c0.04,0.37-0.56,0.64-0.93,0.81
			c-0.23,0.1-0.81,0.34-1.86,0.49c-1.1,0.16-1.58,0.06-3.73,0.03c-2.42-0.03-2.7,0.08-4.01-0.05c-0.96-0.1-1.88-0.2-2.45-0.56
			C403.7,305.89,403.89,305.44,403.97,305.28z"/>
		<path class="st11" d="M407.23,310.72c-0.21-0.2-0.53-0.64-0.64-1.56c-0.07-0.56-0.03-1.02,0.08-2.51c0.09-1.28,0.19-2.6,0.23-3.31
			c0.15-2.38,0.1-2.78,0.29-3.87c0.2-1.16,0.44-1.76,0.53-1.97c0.17-0.4,0.44-1.06,0.78-1.07c0.35-0.01,0.55,0.65,0.68,1.06
			c0.08,0.25,0.25,0.89,0.31,2.04c0.06,1.19-0.07,1.7-0.25,4.01c-0.21,2.6-0.12,2.9-0.35,4.3c-0.17,1.02-0.33,2-0.71,2.58
			C407.78,311.05,407.37,310.82,407.23,310.72z"/>
		<path class="st11" d="M403.97,305.28c0.17-0.24,0.55-0.62,1.4-0.81c0.52-0.12,0.95-0.1,2.33-0.1c1.19,0.01,2.42,0,3.09,0
			c2.22-0.02,2.58-0.1,3.61,0.02c1.09,0.13,1.67,0.34,1.86,0.42c0.38,0.15,1.01,0.39,1.05,0.76c0.04,0.37-0.56,0.64-0.93,0.81
			c-0.23,0.1-0.81,0.34-1.86,0.49c-1.1,0.16-1.58,0.06-3.73,0.03c-2.42-0.03-2.7,0.08-4.01-0.05c-0.96-0.1-1.88-0.2-2.45-0.56
			C403.7,305.89,403.89,305.44,403.97,305.28z"/>
		<path class="st11" d="M410.83,310.72c-0.21-0.2-0.53-0.64-0.64-1.56c-0.07-0.56-0.03-1.02,0.08-2.51c0.09-1.28,0.19-2.6,0.23-3.31
			c0.15-2.38,0.1-2.78,0.29-3.87c0.2-1.16,0.44-1.76,0.53-1.97c0.17-0.4,0.44-1.06,0.78-1.07c0.35-0.01,0.55,0.65,0.68,1.06
			c0.08,0.25,0.25,0.89,0.31,2.04c0.06,1.19-0.07,1.7-0.25,4.01c-0.21,2.6-0.12,2.9-0.35,4.3c-0.17,1.02-0.33,2-0.71,2.58
			C411.38,311.05,410.97,310.82,410.83,310.72z"/>
	</g>
</g>
</svg>
