<?xml version="1.0" encoding="UTF-8"?>
<!DOCTYPE svg PUBLIC "-//W3C//DTD SVG 1.1//EN" "http://www.w3.org/Graphics/SVG/1.1/DTD/svg11.dtd">
<svg xmlns="http://www.w3.org/2000/svg" version="1.1" width="440px" height="170px" style="shape-rendering:geometricPrecision; text-rendering:geometricPrecision; image-rendering:optimizeQuality; fill-rule:evenodd; clip-rule:evenodd" xmlns:xlink="http://www.w3.org/1999/xlink">
<g><path style="opacity:1" fill="#fafafa" d="M -0.5,-0.5 C 4.83333,-0.5 10.1667,-0.5 15.5,-0.5C 15.1683,35.3372 15.5016,71.0039 16.5,106.5C 19.6248,107.479 22.9581,107.813 26.5,107.5C 26.5,125.5 26.5,143.5 26.5,161.5C 17.5,161.5 8.5,161.5 -0.5,161.5C -0.5,107.5 -0.5,53.5 -0.5,-0.5 Z"/></g>
<g><path style="opacity:1" fill="#0b0b0b" d="M 15.5,-0.5 C 21.5,-0.5 27.5,-0.5 33.5,-0.5C 33.8317,35.3372 33.4984,71.0039 32.5,106.5C 31.5,106.5 30.5,106.5 29.5,106.5C 28.8333,106.5 28.1667,106.5 27.5,106.5C 23.8333,106.5 20.1667,106.5 16.5,106.5C 15.5016,71.0039 15.1683,35.3372 15.5,-0.5 Z"/></g>
<g><path style="opacity:1" fill="#fcfcfc" d="M 33.5,-0.5 C 40.8333,-0.5 48.1667,-0.5 55.5,-0.5C 55.1683,35.3372 55.5016,71.0039 56.5,106.5C 58.4665,124.598 59.1331,142.931 58.5,161.5C 49.1667,161.5 39.8333,161.5 30.5,161.5C 29.8669,142.931 30.5335,124.598 32.5,106.5C 33.4984,71.0039 33.8317,35.3372 33.5,-0.5 Z"/></g>
<g><path style="opacity:1" fill="#0a0a0a" d="M 55.5,-0.5 C 61.5,-0.5 67.5,-0.5 73.5,-0.5C 73.5,35.1667 73.5,70.8333 73.5,106.5C 69.5,106.5 65.5,106.5 61.5,106.5C 60.8333,106.5 60.1667,106.5 59.5,106.5C 58.5,106.5 57.5,106.5 56.5,106.5C 55.5016,71.0039 55.1683,35.3372 55.5,-0.5 Z"/></g>
<g><path style="opacity:1" fill="#fbfbfb" d="M 73.5,-0.5 C 79.1667,-0.5 84.8333,-0.5 90.5,-0.5C 90.5,53.5 90.5,107.5 90.5,161.5C 80.8333,161.5 71.1667,161.5 61.5,161.5C 61.5,143.167 61.5,124.833 61.5,106.5C 65.5,106.5 69.5,106.5 73.5,106.5C 73.5,70.8333 73.5,35.1667 73.5,-0.5 Z"/></g>
<g><path style="opacity:1" fill="#d1d1d1" d="M 90.5,-0.5 C 90.8333,-0.5 91.1667,-0.5 91.5,-0.5C 91.5,53.8333 91.5,108.167 91.5,162.5C 81.5,162.5 71.5,162.5 61.5,162.5C 61.5,162.167 61.5,161.833 61.5,161.5C 71.1667,161.5 80.8333,161.5 90.5,161.5C 90.5,107.5 90.5,53.5 90.5,-0.5 Z"/></g>
<g><path style="opacity:1" fill="#050505" d="M 91.5,-0.5 C 91.8333,-0.5 92.1667,-0.5 92.5,-0.5C 92.5,53.8333 92.5,108.167 92.5,162.5C 102.833,162.5 113.167,162.5 123.5,162.5C 123.5,143.833 123.5,125.167 123.5,106.5C 119.5,106.5 115.5,106.5 111.5,106.5C 110.502,71.0039 110.168,35.3372 110.5,-0.5C 116.5,-0.5 122.5,-0.5 128.5,-0.5C 128.832,35.3372 128.498,71.0039 127.5,106.5C 126.5,106.5 125.5,106.5 124.5,106.5C 124.5,125.167 124.5,143.833 124.5,162.5C 134.5,162.5 144.5,162.5 154.5,162.5C 155.167,162.5 155.833,162.5 156.5,162.5C 166.833,162.5 177.167,162.5 187.5,162.5C 187.83,143.659 187.497,124.993 186.5,106.5C 185.5,106.5 184.5,106.5 183.5,106.5C 183.5,70.8333 183.5,35.1667 183.5,-0.5C 189.167,-0.5 194.833,-0.5 200.5,-0.5C 200.5,35.1667 200.5,70.8333 200.5,106.5C 196.5,106.5 192.5,106.5 188.5,106.5C 188.5,125.167 188.5,143.833 188.5,162.5C 198.5,162.5 208.5,162.5 218.5,162.5C 219.167,162.5 219.833,162.5 220.5,162.5C 230.5,162.5 240.5,162.5 250.5,162.5C 250.5,143.833 250.5,125.167 250.5,106.5C 246.5,106.5 242.5,106.5 238.5,106.5C 238.5,70.8333 238.5,35.1667 238.5,-0.5C 244.167,-0.5 249.833,-0.5 255.5,-0.5C 255.5,35.1667 255.5,70.8333 255.5,106.5C 254.5,106.5 253.5,106.5 252.5,106.5C 251.503,124.993 251.17,143.659 251.5,162.5C 261.833,162.5 272.167,162.5 282.5,162.5C 282.833,162.5 283.167,162.5 283.5,162.5C 293.833,162.5 304.167,162.5 314.5,162.5C 314.5,108.167 314.5,53.8333 314.5,-0.5C 314.833,-0.5 315.167,-0.5 315.5,-0.5C 315.5,53.8333 315.5,108.167 315.5,162.5C 325.833,162.5 336.167,162.5 346.5,162.5C 346.5,143.833 346.5,125.167 346.5,106.5C 342.167,106.5 337.833,106.5 333.5,106.5C 333.5,70.8333 333.5,35.1667 333.5,-0.5C 339.5,-0.5 345.5,-0.5 351.5,-0.5C 351.832,35.3372 351.498,71.0039 350.5,106.5C 349.5,106.5 348.5,106.5 347.5,106.5C 347.5,125.167 347.5,143.833 347.5,162.5C 357.5,162.5 367.5,162.5 377.5,162.5C 378.167,162.5 378.833,162.5 379.5,162.5C 389.5,162.5 399.5,162.5 409.5,162.5C 410.167,162.5 410.833,162.5 411.5,162.5C 420.833,162.5 430.167,162.5 439.5,162.5C 439.5,162.833 439.5,163.167 439.5,163.5C 292.833,163.5 146.167,163.5 -0.5,163.5C -0.5,163.167 -0.5,162.833 -0.5,162.5C 8.83333,162.5 18.1667,162.5 27.5,162.5C 28.1667,162.5 28.8333,162.5 29.5,162.5C 39.5,162.5 49.5,162.5 59.5,162.5C 60.1667,162.5 60.8333,162.5 61.5,162.5C 71.5,162.5 81.5,162.5 91.5,162.5C 91.5,108.167 91.5,53.8333 91.5,-0.5 Z"/></g>
<g><path style="opacity:1" fill="#fcfcfc" d="M 316.5,-0.5 C 322.167,-0.5 327.833,-0.5 333.5,-0.5C 333.5,35.1667 333.5,70.8333 333.5,106.5C 337.298,107.483 341.298,107.817 345.5,107.5C 345.5,125.5 345.5,143.5 345.5,161.5C 335.833,161.5 326.167,161.5 316.5,161.5C 316.5,107.5 316.5,53.5 316.5,-0.5 Z"/></g>
<g><path style="opacity:1" fill="#adadad" d="M 313.5,-0.5 C 313.833,-0.5 314.167,-0.5 314.5,-0.5C 314.5,53.8333 314.5,108.167 314.5,162.5C 304.167,162.5 293.833,162.5 283.5,162.5C 283.17,143.659 283.503,124.993 284.5,106.5C 284.5,124.833 284.5,143.167 284.5,161.5C 294.167,161.5 303.833,161.5 313.5,161.5C 313.5,107.5 313.5,53.5 313.5,-0.5 Z"/></g>
<g><path style="opacity:1" fill="#fcfcfc" d="M 296.5,-0.5 C 302.167,-0.5 307.833,-0.5 313.5,-0.5C 313.5,53.5 313.5,107.5 313.5,161.5C 303.833,161.5 294.167,161.5 284.5,161.5C 284.5,143.167 284.5,124.833 284.5,106.5C 288.5,106.5 292.5,106.5 296.5,106.5C 296.5,70.8333 296.5,35.1667 296.5,-0.5 Z"/></g>
<g><path style="opacity:1" fill="#0c0c0c" d="M 278.5,-0.5 C 284.5,-0.5 290.5,-0.5 296.5,-0.5C 296.5,35.1667 296.5,70.8333 296.5,106.5C 292.5,106.5 288.5,106.5 284.5,106.5C 283.503,124.993 283.17,143.659 283.5,162.5C 283.167,162.5 282.833,162.5 282.5,162.5C 282.5,143.833 282.5,125.167 282.5,106.5C 281.5,106.5 280.5,106.5 279.5,106.5C 278.502,71.0039 278.168,35.3372 278.5,-0.5 Z"/></g>
<g><path style="opacity:1" fill="#f9f9f9" d="M 255.5,-0.5 C 263.167,-0.5 270.833,-0.5 278.5,-0.5C 278.168,35.3372 278.502,71.0039 279.5,106.5C 281.466,124.598 282.133,142.931 281.5,161.5C 271.833,161.5 262.167,161.5 252.5,161.5C 252.5,143.167 252.5,124.833 252.5,106.5C 253.5,106.5 254.5,106.5 255.5,106.5C 255.5,70.8333 255.5,35.1667 255.5,-0.5 Z"/></g>
<g><path style="opacity:1" fill="#f9f9f9" d="M 220.5,-0.5 C 226.5,-0.5 232.5,-0.5 238.5,-0.5C 238.5,35.1667 238.5,70.8333 238.5,106.5C 241.962,107.482 245.629,107.815 249.5,107.5C 249.5,125.5 249.5,143.5 249.5,161.5C 239.833,161.5 230.167,161.5 220.5,161.5C 220.5,107.5 220.5,53.5 220.5,-0.5 Z"/></g>
<g><path style="opacity:1" fill="#494949" d="M 218.5,-0.5 C 219.167,-0.5 219.833,-0.5 220.5,-0.5C 220.5,53.5 220.5,107.5 220.5,161.5C 220.5,161.833 220.5,162.167 220.5,162.5C 219.833,162.5 219.167,162.5 218.5,162.5C 218.5,162.167 218.5,161.833 218.5,161.5C 218.5,107.5 218.5,53.5 218.5,-0.5 Z"/></g>
<g><path style="opacity:1" fill="#f9f9f9" d="M 200.5,-0.5 C 206.5,-0.5 212.5,-0.5 218.5,-0.5C 218.5,53.5 218.5,107.5 218.5,161.5C 208.833,161.5 199.167,161.5 189.5,161.5C 189.5,143.5 189.5,125.5 189.5,107.5C 193.371,107.815 197.038,107.482 200.5,106.5C 200.5,70.8333 200.5,35.1667 200.5,-0.5 Z"/></g>
<g><path style="opacity:1" fill="#f6f6f6" d="M 164.5,-0.5 C 170.833,-0.5 177.167,-0.5 183.5,-0.5C 183.5,35.1667 183.5,70.8333 183.5,106.5C 184.5,106.5 185.5,106.5 186.5,106.5C 186.5,124.833 186.5,143.167 186.5,161.5C 176.833,161.5 167.167,161.5 157.5,161.5C 157.5,143.5 157.5,125.5 157.5,107.5C 160.059,107.802 162.393,107.468 164.5,106.5C 164.5,70.8333 164.5,35.1667 164.5,-0.5 Z"/></g>
<g><path style="opacity:1" fill="#0b0b0b" d="M 146.5,-0.5 C 152.5,-0.5 158.5,-0.5 164.5,-0.5C 164.5,35.1667 164.5,70.8333 164.5,106.5C 161.833,106.5 159.167,106.5 156.5,106.5C 155.833,106.5 155.167,106.5 154.5,106.5C 151.833,106.5 149.167,106.5 146.5,106.5C 146.5,70.8333 146.5,35.1667 146.5,-0.5 Z"/></g>
<g><path style="opacity:1" fill="#fbfbfb" d="M 128.5,-0.5 C 134.5,-0.5 140.5,-0.5 146.5,-0.5C 146.5,35.1667 146.5,70.8333 146.5,106.5C 149.167,106.5 151.833,106.5 154.5,106.5C 154.5,124.833 154.5,143.167 154.5,161.5C 144.833,161.5 135.167,161.5 125.5,161.5C 124.867,142.931 125.534,124.598 127.5,106.5C 128.498,71.0039 128.832,35.3372 128.5,-0.5 Z"/></g>
<g><path style="opacity:1" fill="#fcfcfc" d="M 93.5,-0.5 C 99.1667,-0.5 104.833,-0.5 110.5,-0.5C 110.168,35.3372 110.502,71.0039 111.5,106.5C 114.962,107.482 118.629,107.815 122.5,107.5C 122.5,125.5 122.5,143.5 122.5,161.5C 112.833,161.5 103.167,161.5 93.5,161.5C 93.5,107.5 93.5,53.5 93.5,-0.5 Z"/></g>
<g><path style="opacity:1" fill="#fcfcfc" d="M 351.5,-0.5 C 357.5,-0.5 363.5,-0.5 369.5,-0.5C 369.5,35.1667 369.5,70.8333 369.5,106.5C 372.167,106.5 374.833,106.5 377.5,106.5C 377.5,124.833 377.5,143.167 377.5,161.5C 367.833,161.5 358.167,161.5 348.5,161.5C 347.867,142.931 348.534,124.598 350.5,106.5C 351.498,71.0039 351.832,35.3372 351.5,-0.5 Z"/></g>
<g><path style="opacity:1" fill="#090909" d="M 369.5,-0.5 C 375.5,-0.5 381.5,-0.5 387.5,-0.5C 387.832,35.3372 387.498,71.0039 386.5,106.5C 384.167,106.5 381.833,106.5 379.5,106.5C 378.833,106.5 378.167,106.5 377.5,106.5C 374.833,106.5 372.167,106.5 369.5,106.5C 369.5,70.8333 369.5,35.1667 369.5,-0.5 Z"/></g>
<g><path style="opacity:1" fill="#fbfbfb" d="M 387.5,-0.5 C 393.5,-0.5 399.5,-0.5 405.5,-0.5C 405.168,35.3372 405.502,71.0039 406.5,106.5C 408.466,124.598 409.133,142.931 408.5,161.5C 399.167,161.5 389.833,161.5 380.5,161.5C 380.5,143.5 380.5,125.5 380.5,107.5C 382.735,107.795 384.735,107.461 386.5,106.5C 387.498,71.0039 387.832,35.3372 387.5,-0.5 Z"/></g>
<g><path style="opacity:1" fill="#0b0b0b" d="M 405.5,-0.5 C 411.5,-0.5 417.5,-0.5 423.5,-0.5C 423.832,35.3372 423.498,71.0039 422.5,106.5C 418.833,106.5 415.167,106.5 411.5,106.5C 410.833,106.5 410.167,106.5 409.5,106.5C 408.5,106.5 407.5,106.5 406.5,106.5C 405.502,71.0039 405.168,35.3372 405.5,-0.5 Z"/></g>
<g><path style="opacity:1" fill="#fafafa" d="M 423.5,-0.5 C 428.833,-0.5 434.167,-0.5 439.5,-0.5C 439.5,53.5 439.5,107.5 439.5,161.5C 430.5,161.5 421.5,161.5 412.5,161.5C 412.5,143.5 412.5,125.5 412.5,107.5C 416.042,107.813 419.375,107.479 422.5,106.5C 423.498,71.0039 423.832,35.3372 423.5,-0.5 Z"/></g>
<g><path style="opacity:1" fill="#a7a7a7" d="M 92.5,-0.5 C 92.8333,-0.5 93.1667,-0.5 93.5,-0.5C 93.5,53.5 93.5,107.5 93.5,161.5C 103.167,161.5 112.833,161.5 122.5,161.5C 122.5,143.5 122.5,125.5 122.5,107.5C 118.629,107.815 114.962,107.482 111.5,106.5C 115.5,106.5 119.5,106.5 123.5,106.5C 123.5,125.167 123.5,143.833 123.5,162.5C 113.167,162.5 102.833,162.5 92.5,162.5C 92.5,108.167 92.5,53.8333 92.5,-0.5 Z"/></g>
<g><path style="opacity:1" fill="#b3b3b3" d="M 315.5,-0.5 C 315.833,-0.5 316.167,-0.5 316.5,-0.5C 316.5,53.5 316.5,107.5 316.5,161.5C 326.167,161.5 335.833,161.5 345.5,161.5C 345.5,143.5 345.5,125.5 345.5,107.5C 341.298,107.817 337.298,107.483 333.5,106.5C 337.833,106.5 342.167,106.5 346.5,106.5C 346.5,125.167 346.5,143.833 346.5,162.5C 336.167,162.5 325.833,162.5 315.5,162.5C 315.5,108.167 315.5,53.8333 315.5,-0.5 Z"/></g>
<g><path style="opacity:1" fill="#d5d5d5" d="M 200.5,106.5 C 197.038,107.482 193.371,107.815 189.5,107.5C 189.5,125.5 189.5,143.5 189.5,161.5C 199.167,161.5 208.833,161.5 218.5,161.5C 218.5,161.833 218.5,162.167 218.5,162.5C 208.5,162.5 198.5,162.5 188.5,162.5C 188.5,143.833 188.5,125.167 188.5,106.5C 192.5,106.5 196.5,106.5 200.5,106.5 Z"/></g>
<g><path style="opacity:1" fill="#d7d7d7" d="M 379.5,106.5 C 381.833,106.5 384.167,106.5 386.5,106.5C 384.735,107.461 382.735,107.795 380.5,107.5C 380.5,125.5 380.5,143.5 380.5,161.5C 389.833,161.5 399.167,161.5 408.5,161.5C 409.133,142.931 408.466,124.598 406.5,106.5C 407.5,106.5 408.5,106.5 409.5,106.5C 409.5,125.167 409.5,143.833 409.5,162.5C 399.5,162.5 389.5,162.5 379.5,162.5C 379.5,143.833 379.5,125.167 379.5,106.5 Z"/></g>
<g><path style="opacity:1" fill="#dbdbdb" d="M 411.5,106.5 C 415.167,106.5 418.833,106.5 422.5,106.5C 419.375,107.479 416.042,107.813 412.5,107.5C 412.5,125.5 412.5,143.5 412.5,161.5C 421.5,161.5 430.5,161.5 439.5,161.5C 439.5,161.833 439.5,162.167 439.5,162.5C 430.167,162.5 420.833,162.5 411.5,162.5C 411.5,143.833 411.5,125.167 411.5,106.5 Z"/></g>
<g><path style="opacity:1" fill="#d7d7d7" d="M 16.5,106.5 C 20.1667,106.5 23.8333,106.5 27.5,106.5C 27.5,125.167 27.5,143.833 27.5,162.5C 18.1667,162.5 8.83333,162.5 -0.5,162.5C -0.5,162.167 -0.5,161.833 -0.5,161.5C 8.5,161.5 17.5,161.5 26.5,161.5C 26.5,143.5 26.5,125.5 26.5,107.5C 22.9581,107.813 19.6248,107.479 16.5,106.5 Z"/></g>
<g><path style="opacity:1" fill="#bfbfbf" d="M 127.5,106.5 C 125.534,124.598 124.867,142.931 125.5,161.5C 135.167,161.5 144.833,161.5 154.5,161.5C 154.5,161.833 154.5,162.167 154.5,162.5C 144.5,162.5 134.5,162.5 124.5,162.5C 124.5,143.833 124.5,125.167 124.5,106.5C 125.5,106.5 126.5,106.5 127.5,106.5 Z"/></g>
<g><path style="opacity:1" fill="#d5d5d5" d="M 238.5,106.5 C 242.5,106.5 246.5,106.5 250.5,106.5C 250.5,125.167 250.5,143.833 250.5,162.5C 240.5,162.5 230.5,162.5 220.5,162.5C 220.5,162.167 220.5,161.833 220.5,161.5C 230.167,161.5 239.833,161.5 249.5,161.5C 249.5,143.5 249.5,125.5 249.5,107.5C 245.629,107.815 241.962,107.482 238.5,106.5 Z"/></g>
<g><path style="opacity:1" fill="#494949" d="M 377.5,106.5 C 378.167,106.5 378.833,106.5 379.5,106.5C 379.5,125.167 379.5,143.833 379.5,162.5C 378.833,162.5 378.167,162.5 377.5,162.5C 377.5,162.167 377.5,161.833 377.5,161.5C 377.5,143.167 377.5,124.833 377.5,106.5 Z"/></g>
<g><path style="opacity:1" fill="#474747" d="M 409.5,106.5 C 410.167,106.5 410.833,106.5 411.5,106.5C 411.5,125.167 411.5,143.833 411.5,162.5C 410.833,162.5 410.167,162.5 409.5,162.5C 409.5,143.833 409.5,125.167 409.5,106.5 Z"/></g>
<g><path style="opacity:1" fill="#b5b5b5" d="M 252.5,106.5 C 252.5,124.833 252.5,143.167 252.5,161.5C 262.167,161.5 271.833,161.5 281.5,161.5C 282.133,142.931 281.466,124.598 279.5,106.5C 280.5,106.5 281.5,106.5 282.5,106.5C 282.5,125.167 282.5,143.833 282.5,162.5C 272.167,162.5 261.833,162.5 251.5,162.5C 251.17,143.659 251.503,124.993 252.5,106.5 Z"/></g>
<g><path style="opacity:1" fill="#404040" d="M 154.5,106.5 C 155.167,106.5 155.833,106.5 156.5,106.5C 156.5,125.167 156.5,143.833 156.5,162.5C 155.833,162.5 155.167,162.5 154.5,162.5C 154.5,162.167 154.5,161.833 154.5,161.5C 154.5,143.167 154.5,124.833 154.5,106.5 Z"/></g>
<g><path style="opacity:1" fill="#b1b1b1" d="M 156.5,106.5 C 159.167,106.5 161.833,106.5 164.5,106.5C 162.393,107.468 160.059,107.802 157.5,107.5C 157.5,125.5 157.5,143.5 157.5,161.5C 167.167,161.5 176.833,161.5 186.5,161.5C 186.5,143.167 186.5,124.833 186.5,106.5C 187.497,124.993 187.83,143.659 187.5,162.5C 177.167,162.5 166.833,162.5 156.5,162.5C 156.5,143.833 156.5,125.167 156.5,106.5 Z"/></g>
<g><path style="opacity:1" fill="#454545" d="M 27.5,106.5 C 28.1667,106.5 28.8333,106.5 29.5,106.5C 29.5,125.167 29.5,143.833 29.5,162.5C 28.8333,162.5 28.1667,162.5 27.5,162.5C 27.5,143.833 27.5,125.167 27.5,106.5 Z"/></g>
<g><path style="opacity:1" fill="#3c3c3c" d="M 59.5,106.5 C 60.1667,106.5 60.8333,106.5 61.5,106.5C 61.5,124.833 61.5,143.167 61.5,161.5C 61.5,161.833 61.5,162.167 61.5,162.5C 60.8333,162.5 60.1667,162.5 59.5,162.5C 59.5,143.833 59.5,125.167 59.5,106.5 Z"/></g>
<g><path style="opacity:1" fill="#d3d3d3" d="M 29.5,106.5 C 30.5,106.5 31.5,106.5 32.5,106.5C 30.5335,124.598 29.8669,142.931 30.5,161.5C 39.8333,161.5 49.1667,161.5 58.5,161.5C 59.1331,142.931 58.4665,124.598 56.5,106.5C 57.5,106.5 58.5,106.5 59.5,106.5C 59.5,125.167 59.5,143.833 59.5,162.5C 49.5,162.5 39.5,162.5 29.5,162.5C 29.5,143.833 29.5,125.167 29.5,106.5 Z"/></g>
<g><path style="opacity:1" fill="#d6d6d6" d="M 350.5,106.5 C 348.534,124.598 347.867,142.931 348.5,161.5C 358.167,161.5 367.833,161.5 377.5,161.5C 377.5,161.833 377.5,162.167 377.5,162.5C 367.5,162.5 357.5,162.5 347.5,162.5C 347.5,143.833 347.5,125.167 347.5,106.5C 348.5,106.5 349.5,106.5 350.5,106.5 Z"/></g>
<g><path style="opacity:1" fill="#f1f1f1" d="M -0.5,163.5 C 146.167,163.5 292.833,163.5 439.5,163.5C 439.5,165.5 439.5,167.5 439.5,169.5C 292.833,169.5 146.167,169.5 -0.5,169.5C -0.5,167.5 -0.5,165.5 -0.5,163.5 Z"/></g>
</svg>
