<?xml version="1.0" encoding="UTF-8"?>
<!DOCTYPE svg PUBLIC "-//W3C//DTD SVG 1.1//EN" "http://www.w3.org/Graphics/SVG/1.1/DTD/svg11.dtd">
<svg xmlns="http://www.w3.org/2000/svg" version="1.1" width="360px" height="180px" style="shape-rendering:geometricPrecision; text-rendering:geometricPrecision; image-rendering:optimizeQuality; fill-rule:evenodd; clip-rule:evenodd" xmlns:xlink="http://www.w3.org/1999/xlink">
<g><path style="opacity:1" fill="#fefffe" d="M -0.5,-0.5 C 4.5,-0.5 9.5,-0.5 14.5,-0.5C 14.5,4.5 14.5,9.5 14.5,14.5C 9.5,14.5 4.5,14.5 -0.5,14.5C -0.5,9.5 -0.5,4.5 -0.5,-0.5 Z"/></g>
<g><path style="opacity:1" fill="#edeeed" d="M 14.5,-0.5 C 19.5,-0.5 24.5,-0.5 29.5,-0.5C 29.5,4.5 29.5,9.5 29.5,14.5C 24.5,14.5 19.5,14.5 14.5,14.5C 14.5,9.5 14.5,4.5 14.5,-0.5 Z"/></g>
<g><path style="opacity:1" fill="#fefffe" d="M 29.5,-0.5 C 34.5,-0.5 39.5,-0.5 44.5,-0.5C 44.5,4.5 44.5,9.5 44.5,14.5C 39.5,14.5 34.5,14.5 29.5,14.5C 29.5,9.5 29.5,4.5 29.5,-0.5 Z"/></g>
<g><path style="opacity:1" fill="#edeeed" d="M 44.5,-0.5 C 49.5,-0.5 54.5,-0.5 59.5,-0.5C 59.5,4.5 59.5,9.5 59.5,14.5C 54.5,14.5 49.5,14.5 44.5,14.5C 44.5,9.5 44.5,4.5 44.5,-0.5 Z"/></g>
<g><path style="opacity:1" fill="#fefffe" d="M 59.5,-0.5 C 64.5,-0.5 69.5,-0.5 74.5,-0.5C 74.5,4.5 74.5,9.5 74.5,14.5C 69.5,14.5 64.5,14.5 59.5,14.5C 59.5,9.5 59.5,4.5 59.5,-0.5 Z"/></g>
<g><path style="opacity:1" fill="#edeeed" d="M 74.5,-0.5 C 79.5,-0.5 84.5,-0.5 89.5,-0.5C 89.5,4.5 89.5,9.5 89.5,14.5C 84.5,14.5 79.5,14.5 74.5,14.5C 74.5,9.5 74.5,4.5 74.5,-0.5 Z"/></g>
<g><path style="opacity:1" fill="#fefffe" d="M 89.5,-0.5 C 94.5,-0.5 99.5,-0.5 104.5,-0.5C 104.5,4.5 104.5,9.5 104.5,14.5C 99.5,14.5 94.5,14.5 89.5,14.5C 89.5,9.5 89.5,4.5 89.5,-0.5 Z"/></g>
<g><path style="opacity:1" fill="#edeeed" d="M 104.5,-0.5 C 109.5,-0.5 114.5,-0.5 119.5,-0.5C 119.5,4.5 119.5,9.5 119.5,14.5C 114.5,14.5 109.5,14.5 104.5,14.5C 104.5,9.5 104.5,4.5 104.5,-0.5 Z"/></g>
<g><path style="opacity:1" fill="#fefffe" d="M 119.5,-0.5 C 124.5,-0.5 129.5,-0.5 134.5,-0.5C 134.5,4.5 134.5,9.5 134.5,14.5C 129.5,14.5 124.5,14.5 119.5,14.5C 119.5,9.5 119.5,4.5 119.5,-0.5 Z"/></g>
<g><path style="opacity:1" fill="#edeeed" d="M 134.5,-0.5 C 139.5,-0.5 144.5,-0.5 149.5,-0.5C 149.5,4.5 149.5,9.5 149.5,14.5C 144.5,14.5 139.5,14.5 134.5,14.5C 134.5,9.5 134.5,4.5 134.5,-0.5 Z"/></g>
<g><path style="opacity:1" fill="#fefffe" d="M 149.5,-0.5 C 154.5,-0.5 159.5,-0.5 164.5,-0.5C 164.5,4.5 164.5,9.5 164.5,14.5C 159.5,14.5 154.5,14.5 149.5,14.5C 149.5,9.5 149.5,4.5 149.5,-0.5 Z"/></g>
<g><path style="opacity:1" fill="#edeeed" d="M 164.5,-0.5 C 169.5,-0.5 174.5,-0.5 179.5,-0.5C 179.5,4.5 179.5,9.5 179.5,14.5C 174.5,14.5 169.5,14.5 164.5,14.5C 164.5,9.5 164.5,4.5 164.5,-0.5 Z"/></g>
<g><path style="opacity:1" fill="#fefffe" d="M 179.5,-0.5 C 184.5,-0.5 189.5,-0.5 194.5,-0.5C 194.5,4.5 194.5,9.5 194.5,14.5C 189.5,14.5 184.5,14.5 179.5,14.5C 179.5,9.5 179.5,4.5 179.5,-0.5 Z"/></g>
<g><path style="opacity:1" fill="#edeeed" d="M 194.5,-0.5 C 199.5,-0.5 204.5,-0.5 209.5,-0.5C 209.5,4.5 209.5,9.5 209.5,14.5C 204.5,14.5 199.5,14.5 194.5,14.5C 194.5,9.5 194.5,4.5 194.5,-0.5 Z"/></g>
<g><path style="opacity:1" fill="#fefffe" d="M 209.5,-0.5 C 214.5,-0.5 219.5,-0.5 224.5,-0.5C 224.5,4.5 224.5,9.5 224.5,14.5C 219.5,14.5 214.5,14.5 209.5,14.5C 209.5,9.5 209.5,4.5 209.5,-0.5 Z"/></g>
<g><path style="opacity:1" fill="#edeeed" d="M 224.5,-0.5 C 229.5,-0.5 234.5,-0.5 239.5,-0.5C 239.5,4.5 239.5,9.5 239.5,14.5C 234.5,14.5 229.5,14.5 224.5,14.5C 224.5,9.5 224.5,4.5 224.5,-0.5 Z"/></g>
<g><path style="opacity:1" fill="#fefffe" d="M 239.5,-0.5 C 244.5,-0.5 249.5,-0.5 254.5,-0.5C 254.5,4.5 254.5,9.5 254.5,14.5C 249.5,14.5 244.5,14.5 239.5,14.5C 239.5,9.5 239.5,4.5 239.5,-0.5 Z"/></g>
<g><path style="opacity:1" fill="#edeeed" d="M 254.5,-0.5 C 259.5,-0.5 264.5,-0.5 269.5,-0.5C 269.5,4.5 269.5,9.5 269.5,14.5C 264.5,14.5 259.5,14.5 254.5,14.5C 254.5,9.5 254.5,4.5 254.5,-0.5 Z"/></g>
<g><path style="opacity:1" fill="#fefffe" d="M 269.5,-0.5 C 274.5,-0.5 279.5,-0.5 284.5,-0.5C 284.5,4.5 284.5,9.5 284.5,14.5C 279.5,14.5 274.5,14.5 269.5,14.5C 269.5,9.5 269.5,4.5 269.5,-0.5 Z"/></g>
<g><path style="opacity:1" fill="#edeeed" d="M 284.5,-0.5 C 289.5,-0.5 294.5,-0.5 299.5,-0.5C 299.5,4.5 299.5,9.5 299.5,14.5C 294.5,14.5 289.5,14.5 284.5,14.5C 284.5,9.5 284.5,4.5 284.5,-0.5 Z"/></g>
<g><path style="opacity:1" fill="#fefffe" d="M 299.5,-0.5 C 304.5,-0.5 309.5,-0.5 314.5,-0.5C 314.5,4.5 314.5,9.5 314.5,14.5C 309.5,14.5 304.5,14.5 299.5,14.5C 299.5,9.5 299.5,4.5 299.5,-0.5 Z"/></g>
<g><path style="opacity:1" fill="#edeeed" d="M 314.5,-0.5 C 319.5,-0.5 324.5,-0.5 329.5,-0.5C 329.5,4.5 329.5,9.5 329.5,14.5C 324.5,14.5 319.5,14.5 314.5,14.5C 314.5,9.5 314.5,4.5 314.5,-0.5 Z"/></g>
<g><path style="opacity:1" fill="#fefffe" d="M 329.5,-0.5 C 334.5,-0.5 339.5,-0.5 344.5,-0.5C 344.5,4.5 344.5,9.5 344.5,14.5C 339.5,14.5 334.5,14.5 329.5,14.5C 329.5,9.5 329.5,4.5 329.5,-0.5 Z"/></g>
<g><path style="opacity:1" fill="#edeeed" d="M 344.5,-0.5 C 349.5,-0.5 354.5,-0.5 359.5,-0.5C 359.5,4.5 359.5,9.5 359.5,14.5C 354.5,14.5 349.5,14.5 344.5,14.5C 344.5,9.5 344.5,4.5 344.5,-0.5 Z"/></g>
<g><path style="opacity:1" fill="#f6f6f6" d="M -0.5,14.5 C 4.5,14.5 9.5,14.5 14.5,14.5C 19.5,14.5 24.5,14.5 29.5,14.5C 34.5,14.5 39.5,14.5 44.5,14.5C 49.5,14.5 54.5,14.5 59.5,14.5C 64.5,14.5 69.5,14.5 74.5,14.5C 79.5,14.5 84.5,14.5 89.5,14.5C 94.5,14.5 99.5,14.5 104.5,14.5C 109.5,14.5 114.5,14.5 119.5,14.5C 124.5,14.5 129.5,14.5 134.5,14.5C 139.5,14.5 144.5,14.5 149.5,14.5C 154.5,14.5 159.5,14.5 164.5,14.5C 169.5,14.5 174.5,14.5 179.5,14.5C 184.5,14.5 189.5,14.5 194.5,14.5C 199.5,14.5 204.5,14.5 209.5,14.5C 214.5,14.5 219.5,14.5 224.5,14.5C 229.5,14.5 234.5,14.5 239.5,14.5C 244.5,14.5 249.5,14.5 254.5,14.5C 259.5,14.5 264.5,14.5 269.5,14.5C 274.5,14.5 279.5,14.5 284.5,14.5C 289.5,14.5 294.5,14.5 299.5,14.5C 304.5,14.5 309.5,14.5 314.5,14.5C 319.5,14.5 324.5,14.5 329.5,14.5C 334.5,14.5 339.5,14.5 344.5,14.5C 349.5,14.5 354.5,14.5 359.5,14.5C 359.5,20.5 359.5,26.5 359.5,32.5C 335.661,32.1691 311.994,32.5024 288.5,33.5C 284.167,33.5 279.833,33.5 275.5,33.5C 219.833,32.1667 164.167,32.1667 108.5,33.5C 104.167,33.5 99.8333,33.5 95.5,33.5C 63.671,32.5018 31.671,32.1684 -0.5,32.5C -0.5,26.5 -0.5,20.5 -0.5,14.5 Z"/></g>
<g><path style="opacity:1" fill="#b6b6b6" d="M -0.5,33.5 C -0.5,33.1667 -0.5,32.8333 -0.5,32.5C 31.671,32.1684 63.671,32.5018 95.5,33.5C 82.8333,33.5 70.1667,33.5 57.5,33.5C 52.9677,33.1818 48.6344,33.5151 44.5,34.5C 40.5,34.5 36.5,34.5 32.5,34.5C 28.03,33.5139 23.3633,33.1805 18.5,33.5C 12.1667,33.5 5.83333,33.5 -0.5,33.5 Z"/></g>
<g><path style="opacity:1" fill="#b5b5b5" d="M 108.5,33.5 C 164.167,32.1667 219.833,32.1667 275.5,33.5C 262.833,33.5 250.167,33.5 237.5,33.5C 232.968,33.1818 228.634,33.5151 224.5,34.5C 220.5,34.5 216.5,34.5 212.5,34.5C 208.03,33.5139 203.363,33.1805 198.5,33.5C 185.833,33.5 173.167,33.5 160.5,33.5C 155.637,33.1805 150.97,33.5139 146.5,34.5C 142.5,34.5 138.5,34.5 134.5,34.5C 130.366,33.5151 126.032,33.1818 121.5,33.5C 121.5,54.8333 121.5,76.1667 121.5,97.5C 120.503,76.6733 120.169,55.6733 120.5,34.5C 116.833,34.5 113.167,34.5 109.5,34.5C 109.5,33.8333 109.167,33.5 108.5,33.5 Z"/></g>
<g><path style="opacity:1" fill="#a9a9a9" d="M 288.5,33.5 C 311.994,32.5024 335.661,32.1691 359.5,32.5C 359.5,32.8333 359.5,33.1667 359.5,33.5C 353.167,33.5 346.833,33.5 340.5,33.5C 335.637,33.1805 330.97,33.5139 326.5,34.5C 322.5,34.5 318.5,34.5 314.5,34.5C 310.366,33.5151 306.032,33.1818 301.5,33.5C 301.5,54.8333 301.5,76.1667 301.5,97.5C 300.503,76.6733 300.169,55.6733 300.5,34.5C 296.833,34.5 293.167,34.5 289.5,34.5C 289.5,33.8333 289.167,33.5 288.5,33.5 Z"/></g>
<g><path style="opacity:1" fill="#595959" d="M -0.5,33.5 C 5.83333,33.5 12.1667,33.5 18.5,33.5C 18.5,33.8333 18.5,34.1667 18.5,34.5C 12.5,34.5 6.5,34.5 0.5,34.5C 0.5,71.1667 0.5,107.833 0.5,144.5C 8.5,144.5 16.5,144.5 24.5,144.5C 24.5,128.833 24.5,113.167 24.5,97.5C 24.8333,97.5 25.1667,97.5 25.5,97.5C 25.5,113.167 25.5,128.833 25.5,144.5C 33.8333,144.5 42.1667,144.5 50.5,144.5C 50.5,128.833 50.5,113.167 50.5,97.5C 50.8333,97.5 51.1667,97.5 51.5,97.5C 51.5,112.833 51.5,128.167 51.5,143.5C 59.6499,144.493 67.9832,144.826 76.5,144.5C 76.5,107.833 76.5,71.1667 76.5,34.5C 70.1667,34.5 63.8333,34.5 57.5,34.5C 57.5,34.1667 57.5,33.8333 57.5,33.5C 70.1667,33.5 82.8333,33.5 95.5,33.5C 95.5,33.8333 95.5,34.1667 95.5,34.5C 89.5,34.5 83.5,34.5 77.5,34.5C 77.5,71.1667 77.5,107.833 77.5,144.5C 85.5,144.5 93.5,144.5 101.5,144.5C 101.5,128.833 101.5,113.167 101.5,97.5C 101.833,97.5 102.167,97.5 102.5,97.5C 102.5,113.167 102.5,128.833 102.5,144.5C 111.017,144.826 119.35,144.493 127.5,143.5C 127.5,128.167 127.5,112.833 127.5,97.5C 127.833,97.5 128.167,97.5 128.5,97.5C 128.5,113.167 128.5,128.833 128.5,144.5C 136.833,144.5 145.167,144.5 153.5,144.5C 153.5,141.167 153.5,137.833 153.5,134.5C 153.5,122.167 153.5,109.833 153.5,97.5C 153.833,97.5 154.167,97.5 154.5,97.5C 154.5,113.167 154.5,128.833 154.5,144.5C 162.5,144.5 170.5,144.5 178.5,144.5C 179.167,144.5 179.833,144.5 180.5,144.5C 188.5,144.5 196.5,144.5 204.5,144.5C 204.5,128.833 204.5,113.167 204.5,97.5C 204.833,97.5 205.167,97.5 205.5,97.5C 205.5,113.167 205.5,128.833 205.5,144.5C 213.833,144.5 222.167,144.5 230.5,144.5C 230.5,128.833 230.5,113.167 230.5,97.5C 230.833,97.5 231.167,97.5 231.5,97.5C 231.5,113.167 231.5,128.833 231.5,144.5C 239.833,144.5 248.167,144.5 256.5,144.5C 256.833,144.5 257.167,144.5 257.5,144.5C 265.5,144.5 273.5,144.5 281.5,144.5C 281.5,128.833 281.5,113.167 281.5,97.5C 281.833,97.5 282.167,97.5 282.5,97.5C 282.17,113.342 282.504,129.009 283.5,144.5C 291.167,144.5 298.833,144.5 306.5,144.5C 307.496,129.009 307.83,113.342 307.5,97.5C 307.833,97.5 308.167,97.5 308.5,97.5C 308.5,97.8333 308.5,98.1667 308.5,98.5C 308.5,113.833 308.5,129.167 308.5,144.5C 316.5,144.5 324.5,144.5 332.5,144.5C 333.496,129.009 333.83,113.342 333.5,97.5C 333.833,97.5 334.167,97.5 334.5,97.5C 334.5,113.167 334.5,128.833 334.5,144.5C 342.5,144.5 350.5,144.5 358.5,144.5C 358.5,107.833 358.5,71.1667 358.5,34.5C 352.5,34.5 346.5,34.5 340.5,34.5C 340.5,34.1667 340.5,33.8333 340.5,33.5C 346.833,33.5 353.167,33.5 359.5,33.5C 359.5,70.8333 359.5,108.167 359.5,145.5C 316.833,145.5 274.167,145.5 231.5,145.5C 154.167,145.5 76.8333,145.5 -0.5,145.5C -0.5,108.167 -0.5,70.8333 -0.5,33.5 Z"/></g>
<g><path style="opacity:1" fill="#d6d6d6" d="M 301.5,97.5 C 303.5,97.5 305.5,97.5 307.5,97.5C 307.83,113.342 307.496,129.009 306.5,144.5C 306.5,136.167 306.5,127.833 306.5,119.5C 306.5,112.5 306.5,105.5 306.5,98.5C 304.585,98.7845 302.919,98.4511 301.5,97.5 Z"/></g>
<g><path style="opacity:1" fill="#aaaaaa" d="M 289.5,34.5 C 289.5,55.8333 289.5,77.1667 289.5,98.5C 287.5,98.5 285.5,98.5 283.5,98.5C 283.5,113.833 283.5,129.167 283.5,144.5C 282.504,129.009 282.17,113.342 282.5,97.5C 284.5,97.5 286.5,97.5 288.5,97.5C 288.169,76.3267 288.503,55.3267 289.5,34.5 Z"/></g>
<g><path style="opacity:1" fill="#dadada" d="M 51.5,97.5 C 53.5,97.5 55.5,97.5 57.5,97.5C 56.0813,98.4511 54.4147,98.7845 52.5,98.5C 52.8294,113.676 52.4961,128.676 51.5,143.5C 51.5,128.167 51.5,112.833 51.5,97.5 Z"/></g>
<g><path style="opacity:1" fill="#f9f9f9" d="M 308.5,98.5 C 310.5,98.5 312.5,98.5 314.5,98.5C 314.5,100.5 314.5,102.5 314.5,104.5C 319.5,104.5 324.5,104.5 329.5,104.5C 329.5,109.5 329.5,114.5 329.5,119.5C 330.5,119.5 331.5,119.5 332.5,119.5C 332.5,127.833 332.5,136.167 332.5,144.5C 324.5,144.5 316.5,144.5 308.5,144.5C 308.5,129.167 308.5,113.833 308.5,98.5 Z"/></g>
<g><path style="opacity:1" fill="#fafafa" d="M 289.5,98.5 C 288.081,99.4511 286.415,99.7845 284.5,99.5C 284.5,101.167 284.5,102.833 284.5,104.5C 289.5,104.5 294.5,104.5 299.5,104.5C 299.5,109.5 299.5,114.5 299.5,119.5C 301.833,119.5 304.167,119.5 306.5,119.5C 306.5,127.833 306.5,136.167 306.5,144.5C 298.833,144.5 291.167,144.5 283.5,144.5C 283.5,129.167 283.5,113.833 283.5,98.5C 285.5,98.5 287.5,98.5 289.5,98.5 Z"/></g>
<g><path style="opacity:1" fill="#fbfbfb" d="M 128.5,97.5 C 130.5,97.5 132.5,97.5 134.5,97.5C 134.865,99.588 134.865,101.921 134.5,104.5C 139.5,104.5 144.5,104.5 149.5,104.5C 149.5,109.5 149.5,114.5 149.5,119.5C 144.5,119.5 139.5,119.5 134.5,119.5C 134.5,124.5 134.5,129.5 134.5,134.5C 139.5,134.5 144.5,134.5 149.5,134.5C 149.5,137.5 149.5,140.5 149.5,143.5C 150.5,143.5 151.5,143.5 152.5,143.5C 152.19,140.287 152.523,137.287 153.5,134.5C 153.5,137.833 153.5,141.167 153.5,144.5C 145.167,144.5 136.833,144.5 128.5,144.5C 128.5,128.833 128.5,113.167 128.5,97.5 Z"/></g>
<g><path style="opacity:1" fill="#f5f5f5" d="M 102.5,97.5 C 103.167,97.5 103.833,97.5 104.5,97.5C 104.5,99.8333 104.5,102.167 104.5,104.5C 109.5,104.5 114.5,104.5 119.5,104.5C 119.5,109.5 119.5,114.5 119.5,119.5C 121.833,119.5 124.167,119.5 126.5,119.5C 126.174,127.684 126.508,135.684 127.5,143.5C 119.35,144.493 111.017,144.826 102.5,144.5C 102.5,128.833 102.5,113.167 102.5,97.5 Z"/></g>
<g><path style="opacity:1" fill="#717171" d="M 160.5,34.5 C 160.5,34.1667 160.5,33.8333 160.5,33.5C 173.167,33.5 185.833,33.5 198.5,33.5C 198.5,33.8333 198.5,34.1667 198.5,34.5C 192.5,34.5 186.5,34.5 180.5,34.5C 180.5,71.1667 180.5,107.833 180.5,144.5C 179.833,144.5 179.167,144.5 178.5,144.5C 178.5,107.833 178.5,71.1667 178.5,34.5C 172.5,34.5 166.5,34.5 160.5,34.5 Z"/></g>
<g><path style="opacity:1" fill="#f2f2f2" d="M 134.5,34.5 C 138.5,34.5 142.5,34.5 146.5,34.5C 147.497,55.3267 147.831,76.3267 147.5,97.5C 149.5,97.5 151.5,97.5 153.5,97.5C 153.5,109.833 153.5,122.167 153.5,134.5C 152.523,137.287 152.19,140.287 152.5,143.5C 151.5,143.5 150.5,143.5 149.5,143.5C 149.5,140.5 149.5,137.5 149.5,134.5C 144.5,134.5 139.5,134.5 134.5,134.5C 134.5,129.5 134.5,124.5 134.5,119.5C 139.5,119.5 144.5,119.5 149.5,119.5C 149.5,114.5 149.5,109.5 149.5,104.5C 144.5,104.5 139.5,104.5 134.5,104.5C 134.865,101.921 134.865,99.588 134.5,97.5C 134.5,76.5 134.5,55.5 134.5,34.5 Z"/></g>
<g><path style="opacity:1" fill="#6d6d6d" d="M 237.5,34.5 C 237.5,34.1667 237.5,33.8333 237.5,33.5C 250.167,33.5 262.833,33.5 275.5,33.5C 275.5,33.8333 275.5,34.1667 275.5,34.5C 269.5,34.5 263.5,34.5 257.5,34.5C 257.5,71.1667 257.5,107.833 257.5,144.5C 257.167,144.5 256.833,144.5 256.5,144.5C 256.5,107.833 256.5,71.1667 256.5,34.5C 250.167,34.5 243.833,34.5 237.5,34.5 Z"/></g>
<g><path style="opacity:1" fill="#f7f7f7" d="M 340.5,34.5 C 346.5,34.5 352.5,34.5 358.5,34.5C 358.5,71.1667 358.5,107.833 358.5,144.5C 350.5,144.5 342.5,144.5 334.5,144.5C 334.5,128.833 334.5,113.167 334.5,97.5C 336.5,97.5 338.5,97.5 340.5,97.5C 340.5,76.5 340.5,55.5 340.5,34.5 Z"/></g>
<g><path style="opacity:1" fill="#f7f7f7" d="M 314.5,34.5 C 318.5,34.5 322.5,34.5 326.5,34.5C 326.5,55.5 326.5,76.5 326.5,97.5C 328.833,97.5 331.167,97.5 333.5,97.5C 333.83,113.342 333.496,129.009 332.5,144.5C 332.5,136.167 332.5,127.833 332.5,119.5C 331.5,119.5 330.5,119.5 329.5,119.5C 329.5,114.5 329.5,109.5 329.5,104.5C 324.5,104.5 319.5,104.5 314.5,104.5C 314.5,102.5 314.5,100.5 314.5,98.5C 312.5,98.5 310.5,98.5 308.5,98.5C 308.5,98.1667 308.5,97.8333 308.5,97.5C 310.5,97.5 312.5,97.5 314.5,97.5C 314.5,76.5 314.5,55.5 314.5,34.5 Z"/></g>
<g><path style="opacity:1" fill="#f7f7f7" d="M 289.5,34.5 C 293.167,34.5 296.833,34.5 300.5,34.5C 300.169,55.6733 300.503,76.6733 301.5,97.5C 302.919,98.4511 304.585,98.7845 306.5,98.5C 306.5,105.5 306.5,112.5 306.5,119.5C 304.167,119.5 301.833,119.5 299.5,119.5C 299.5,114.5 299.5,109.5 299.5,104.5C 294.5,104.5 289.5,104.5 284.5,104.5C 284.5,102.833 284.5,101.167 284.5,99.5C 286.415,99.7845 288.081,99.4511 289.5,98.5C 289.5,77.1667 289.5,55.8333 289.5,34.5 Z"/></g>
<g><path style="opacity:1" fill="#f7f7f7" d="M 275.5,34.5 C 275.5,55.5 275.5,76.5 275.5,97.5C 277.5,97.5 279.5,97.5 281.5,97.5C 281.5,113.167 281.5,128.833 281.5,144.5C 273.5,144.5 265.5,144.5 257.5,144.5C 257.5,107.833 257.5,71.1667 257.5,34.5C 263.5,34.5 269.5,34.5 275.5,34.5 Z"/></g>
<g><path style="opacity:1" fill="#f4f4f4" d="M 237.5,34.5 C 243.833,34.5 250.167,34.5 256.5,34.5C 256.5,71.1667 256.5,107.833 256.5,144.5C 248.167,144.5 239.833,144.5 231.5,144.5C 231.5,128.833 231.5,113.167 231.5,97.5C 233.5,97.5 235.5,97.5 237.5,97.5C 237.5,76.5 237.5,55.5 237.5,34.5 Z"/></g>
<g><path style="opacity:1" fill="#f2f2f2" d="M 212.5,34.5 C 216.5,34.5 220.5,34.5 224.5,34.5C 224.5,55.5 224.5,76.5 224.5,97.5C 226.5,97.5 228.5,97.5 230.5,97.5C 230.5,113.167 230.5,128.833 230.5,144.5C 222.167,144.5 213.833,144.5 205.5,144.5C 205.5,128.833 205.5,113.167 205.5,97.5C 207.5,97.5 209.5,97.5 211.5,97.5C 211.169,76.3267 211.503,55.3267 212.5,34.5 Z"/></g>
<g><path style="opacity:1" fill="#f8f8f8" d="M 198.5,34.5 C 198.5,55.5 198.5,76.5 198.5,97.5C 200.5,97.5 202.5,97.5 204.5,97.5C 204.5,113.167 204.5,128.833 204.5,144.5C 196.5,144.5 188.5,144.5 180.5,144.5C 180.5,107.833 180.5,71.1667 180.5,34.5C 186.5,34.5 192.5,34.5 198.5,34.5 Z"/></g>
<g><path style="opacity:1" fill="#f7f7f7" d="M 160.5,34.5 C 166.5,34.5 172.5,34.5 178.5,34.5C 178.5,71.1667 178.5,107.833 178.5,144.5C 170.5,144.5 162.5,144.5 154.5,144.5C 154.5,128.833 154.5,113.167 154.5,97.5C 156.5,97.5 158.5,97.5 160.5,97.5C 160.5,76.5 160.5,55.5 160.5,34.5 Z"/></g>
<g><path style="opacity:1" fill="#efefef" d="M 109.5,34.5 C 113.167,34.5 116.833,34.5 120.5,34.5C 120.169,55.6733 120.503,76.6733 121.5,97.5C 123.5,97.5 125.5,97.5 127.5,97.5C 127.5,112.833 127.5,128.167 127.5,143.5C 126.508,135.684 126.174,127.684 126.5,119.5C 124.167,119.5 121.833,119.5 119.5,119.5C 119.5,114.5 119.5,109.5 119.5,104.5C 114.5,104.5 109.5,104.5 104.5,104.5C 104.5,102.167 104.5,99.8333 104.5,97.5C 105.833,97.5 107.167,97.5 108.5,97.5C 108.169,76.3267 108.503,55.3267 109.5,34.5 Z"/></g>
<g><path style="opacity:1" fill="#f7f7f7" d="M 95.5,34.5 C 95.5,55.5 95.5,76.5 95.5,97.5C 97.5,97.5 99.5,97.5 101.5,97.5C 101.5,113.167 101.5,128.833 101.5,144.5C 93.5,144.5 85.5,144.5 77.5,144.5C 77.5,107.833 77.5,71.1667 77.5,34.5C 83.5,34.5 89.5,34.5 95.5,34.5 Z"/></g>
<g><path style="opacity:1" fill="#f5f5f5" d="M 57.5,34.5 C 63.8333,34.5 70.1667,34.5 76.5,34.5C 76.5,71.1667 76.5,107.833 76.5,144.5C 67.9832,144.826 59.6499,144.493 51.5,143.5C 52.4961,128.676 52.8294,113.676 52.5,98.5C 54.4147,98.7845 56.0813,98.4511 57.5,97.5C 57.5,76.5 57.5,55.5 57.5,34.5 Z"/></g>
<g><path style="opacity:1" fill="#f6f6f6" d="M 32.5,34.5 C 36.5,34.5 40.5,34.5 44.5,34.5C 44.5,55.5 44.5,76.5 44.5,97.5C 46.5,97.5 48.5,97.5 50.5,97.5C 50.5,113.167 50.5,128.833 50.5,144.5C 42.1667,144.5 33.8333,144.5 25.5,144.5C 25.5,128.833 25.5,113.167 25.5,97.5C 27.8333,97.5 30.1667,97.5 32.5,97.5C 32.5,76.5 32.5,55.5 32.5,34.5 Z"/></g>
<g><path style="opacity:1" fill="#f7f7f7" d="M 18.5,34.5 C 18.5,55.5 18.5,76.5 18.5,97.5C 20.5,97.5 22.5,97.5 24.5,97.5C 24.5,113.167 24.5,128.833 24.5,144.5C 16.5,144.5 8.5,144.5 0.5,144.5C 0.5,107.833 0.5,71.1667 0.5,34.5C 6.5,34.5 12.5,34.5 18.5,34.5 Z"/></g>
<g><path style="opacity:1" fill="#0d0d0d" d="M 340.5,33.5 C 340.5,33.8333 340.5,34.1667 340.5,34.5C 340.5,55.5 340.5,76.5 340.5,97.5C 338.5,97.5 336.5,97.5 334.5,97.5C 334.167,97.5 333.833,97.5 333.5,97.5C 331.167,97.5 328.833,97.5 326.5,97.5C 326.5,76.5 326.5,55.5 326.5,34.5C 330.97,33.5139 335.637,33.1805 340.5,33.5 Z"/></g>
<g><path style="opacity:1" fill="#020202" d="M 314.5,34.5 C 314.5,55.5 314.5,76.5 314.5,97.5C 312.5,97.5 310.5,97.5 308.5,97.5C 308.167,97.5 307.833,97.5 307.5,97.5C 305.5,97.5 303.5,97.5 301.5,97.5C 301.5,76.1667 301.5,54.8333 301.5,33.5C 306.032,33.1818 310.366,33.5151 314.5,34.5 Z"/></g>
<g><path style="opacity:1" fill="#020202" d="M 275.5,33.5 C 279.833,33.5 284.167,33.5 288.5,33.5C 289.167,33.5 289.5,33.8333 289.5,34.5C 288.503,55.3267 288.169,76.3267 288.5,97.5C 286.5,97.5 284.5,97.5 282.5,97.5C 282.167,97.5 281.833,97.5 281.5,97.5C 279.5,97.5 277.5,97.5 275.5,97.5C 275.5,76.5 275.5,55.5 275.5,34.5C 275.5,34.1667 275.5,33.8333 275.5,33.5 Z"/></g>
<g><path style="opacity:1" fill="#000000" d="M 237.5,33.5 C 237.5,33.8333 237.5,34.1667 237.5,34.5C 237.5,55.5 237.5,76.5 237.5,97.5C 235.5,97.5 233.5,97.5 231.5,97.5C 231.167,97.5 230.833,97.5 230.5,97.5C 228.5,97.5 226.5,97.5 224.5,97.5C 224.5,76.5 224.5,55.5 224.5,34.5C 228.634,33.5151 232.968,33.1818 237.5,33.5 Z"/></g>
<g><path style="opacity:1" fill="#000000" d="M 198.5,33.5 C 203.363,33.1805 208.03,33.5139 212.5,34.5C 211.503,55.3267 211.169,76.3267 211.5,97.5C 209.5,97.5 207.5,97.5 205.5,97.5C 205.167,97.5 204.833,97.5 204.5,97.5C 202.5,97.5 200.5,97.5 198.5,97.5C 198.5,76.5 198.5,55.5 198.5,34.5C 198.5,34.1667 198.5,33.8333 198.5,33.5 Z"/></g>
<g><path style="opacity:1" fill="#020202" d="M 146.5,34.5 C 150.97,33.5139 155.637,33.1805 160.5,33.5C 160.5,33.8333 160.5,34.1667 160.5,34.5C 160.5,55.5 160.5,76.5 160.5,97.5C 158.5,97.5 156.5,97.5 154.5,97.5C 154.167,97.5 153.833,97.5 153.5,97.5C 151.5,97.5 149.5,97.5 147.5,97.5C 147.831,76.3267 147.497,55.3267 146.5,34.5 Z"/></g>
<g><path style="opacity:1" fill="#000000" d="M 134.5,34.5 C 134.5,55.5 134.5,76.5 134.5,97.5C 132.5,97.5 130.5,97.5 128.5,97.5C 128.167,97.5 127.833,97.5 127.5,97.5C 125.5,97.5 123.5,97.5 121.5,97.5C 121.5,76.1667 121.5,54.8333 121.5,33.5C 126.032,33.1818 130.366,33.5151 134.5,34.5 Z"/></g>
<g><path style="opacity:1" fill="#060606" d="M 95.5,33.5 C 99.8333,33.5 104.167,33.5 108.5,33.5C 109.167,33.5 109.5,33.8333 109.5,34.5C 108.503,55.3267 108.169,76.3267 108.5,97.5C 107.167,97.5 105.833,97.5 104.5,97.5C 103.833,97.5 103.167,97.5 102.5,97.5C 102.167,97.5 101.833,97.5 101.5,97.5C 99.5,97.5 97.5,97.5 95.5,97.5C 95.5,76.5 95.5,55.5 95.5,34.5C 95.5,34.1667 95.5,33.8333 95.5,33.5 Z"/></g>
<g><path style="opacity:1" fill="#000000" d="M 57.5,33.5 C 57.5,33.8333 57.5,34.1667 57.5,34.5C 57.5,55.5 57.5,76.5 57.5,97.5C 55.5,97.5 53.5,97.5 51.5,97.5C 51.1667,97.5 50.8333,97.5 50.5,97.5C 48.5,97.5 46.5,97.5 44.5,97.5C 44.5,76.5 44.5,55.5 44.5,34.5C 48.6344,33.5151 52.9677,33.1818 57.5,33.5 Z"/></g>
<g><path style="opacity:1" fill="#0e0e0e" d="M 18.5,33.5 C 23.3633,33.1805 28.03,33.5139 32.5,34.5C 32.5,55.5 32.5,76.5 32.5,97.5C 30.1667,97.5 27.8333,97.5 25.5,97.5C 25.1667,97.5 24.8333,97.5 24.5,97.5C 22.5,97.5 20.5,97.5 18.5,97.5C 18.5,76.5 18.5,55.5 18.5,34.5C 18.5,34.1667 18.5,33.8333 18.5,33.5 Z"/></g>
<g><path style="opacity:1" fill="#f6f6f6" d="M -0.5,145.5 C 76.8333,145.5 154.167,145.5 231.5,145.5C 233.948,146.473 236.615,146.806 239.5,146.5C 239.5,147.5 239.5,148.5 239.5,149.5C 244.5,149.5 249.5,149.5 254.5,149.5C 254.5,154.5 254.5,159.5 254.5,164.5C 259.5,164.5 264.5,164.5 269.5,164.5C 269.5,169.5 269.5,174.5 269.5,179.5C 179.5,179.5 89.5,179.5 -0.5,179.5C -0.5,168.167 -0.5,156.833 -0.5,145.5 Z"/></g>
<g><path style="opacity:1" fill="#f5f5f5" d="M 231.5,145.5 C 274.167,145.5 316.833,145.5 359.5,145.5C 359.5,156.833 359.5,168.167 359.5,179.5C 329.5,179.5 299.5,179.5 269.5,179.5C 269.5,174.5 269.5,169.5 269.5,164.5C 264.5,164.5 259.5,164.5 254.5,164.5C 254.5,159.5 254.5,154.5 254.5,149.5C 249.5,149.5 244.5,149.5 239.5,149.5C 239.5,148.5 239.5,147.5 239.5,146.5C 236.615,146.806 233.948,146.473 231.5,145.5 Z"/></g>
</svg>
