<?xml version="1.0" encoding="utf-8"?>
<!-- Generator: Adobe Illustrator 26.3.0, SVG Export Plug-In . SVG Version: 6.00 Build 0)  -->
<svg version="1.1" id="Capa_1" xmlns="http://www.w3.org/2000/svg" xmlns:xlink="http://www.w3.org/1999/xlink" x="0px" y="0px"
	 viewBox="0 0 810.71 496.06" style="enable-background:new 0 0 810.71 496.06;" xml:space="preserve">
<style type="text/css">
	.st0{fill:#EFDEDE;}
	.st1{fill:none;stroke:#CDAAA8;stroke-width:3;stroke-miterlimit:10;}
	.st2{fill:none;stroke:#000000;stroke-width:3;stroke-miterlimit:10;}
	.st3{fill:#FFFFFF;stroke:#000000;stroke-width:3;stroke-miterlimit:10;}
	.st4{stroke:#000000;stroke-width:3;stroke-miterlimit:10;}
	.st5{fill:#FBEA29;}
	.st6{fill:#EE706F;}
	.st7{fill:#EE706F;stroke:#8FC46F;stroke-width:0.25;stroke-miterlimit:10;}
	.st8{fill:#EDAE5D;stroke:#EDAE5D;stroke-miterlimit:10;}
	.st9{fill:#EDAE5D;}
	.st10{fill:#EE7070;}
	.st11{fill:#8FC46F;}
	.st12{fill:#FFFFFF;}
	.st13{fill:#263680;}
	.st14{fill:#23398A;}
	.st15{fill:#35398E;}
	.st16{fill:#ED6C15;}
	.st17{fill:#EC650F;}
	.st18{fill:#ED6A17;}
	.st19{fill:#ED6B1A;}
	.st20{fill:#EC6916;}
	.st21{fill:#EC691A;}
	.st22{fill:#EC6917;}
	.st23{fill:#FBEA24;}
</style>
<g>
	<g>
		<g>
			<path class="st0" d="M692.28,224.65c-1.27,3.93-0.82,8.1-0.7,12.16c0.12,4.18,0.12,8.36,0,12.53
				c-0.23,8.38-0.93,16.74-2.11,25.04c-0.19,1.33,0.33,2.69,1.75,3.08c1.17,0.32,2.88-0.4,3.08-1.75c1.2-8.42,1.99-16.88,2.26-25.38
				c0.13-4.18,0.15-8.36,0.05-12.53c-0.09-3.9-0.72-8.04,0.5-11.81C698.09,222.91,693.26,221.6,692.28,224.65L692.28,224.65z"/>
		</g>
	</g>
	<g>
		<g>
			<path class="st0" d="M682.26,208.48c0.18,0.75,0.32,1.5,0.43,2.26c-0.12-0.89-0.24-1.77-0.36-2.66c0.28,2.45,0.16,4.89-0.16,7.33
				c0.12-0.89,0.24-1.77,0.36-2.66c-0.33,2.32-0.81,4.61-1.29,6.91c-0.71,3.4-1.65,6.89-0.71,10.34c1.7,6.27,8.15,9.77,14.36,8.29
				c3.94-0.94,6.65-3.46,9-6.59c2.92-3.89,4.4-8.71,5.87-13.3c1.44-4.47,2.59-9.08,4.19-13.48c-0.34,0.8-0.67,1.59-1.01,2.39
				c0.08-0.22,0.2-0.43,0.33-0.62c-0.52,0.67-1.04,1.35-1.56,2.02c0.08-0.09,0.15-0.17,0.23-0.26c-0.67,0.52-1.35,1.04-2.02,1.56
				c0.17-0.16,0.36-0.27,0.58-0.33c-0.8,0.34-1.59,0.67-2.39,1.01c0.1-0.02,0.2-0.04,0.3-0.05c-0.89,0.12-1.77,0.24-2.66,0.36
				c0.1,0.01,0.2,0.01,0.3,0.02c-0.89-0.12-1.77-0.24-2.66-0.36c0.1,0.03,0.2,0.05,0.3,0.08c-0.8-0.34-1.59-0.67-2.39-1.01
				c0.21,0.08,0.4,0.18,0.57,0.31c-0.67-0.52-1.35-1.04-2.02-1.56c0.29,0.24,0.53,0.47,0.77,0.76c-0.52-0.67-1.04-1.35-1.56-2.02
				c1.17,1.56,1.87,3.54,2.7,5.29c0.88,1.85,1.79,3.7,2.61,5.58c-0.34-0.8-0.67-1.59-1.01-2.39c0.68,1.63,1.24,3.28,1.51,5.03
				c-0.12-0.89-0.24-1.77-0.36-2.66c0.15,1.24,0.14,2.47-0.02,3.71c0.12-0.89,0.24-1.77,0.36-2.66c-0.22,1.34-0.59,2.62-1.1,3.88
				c0.34-0.8,0.67-1.59,1.01-2.39c-1.16,2.72-2.81,5.15-4.6,7.48c0.52-0.67,1.04-1.35,1.56-2.02c-0.6,0.77-1.21,1.54-1.83,2.3
				c5.24,4.04,10.47,8.08,15.71,12.12c5.12-10.18,10.25-20.36,15.37-30.54c-6.09-0.8-12.18-1.59-18.28-2.39
				c0.33,1.32,0.59,2.65,0.77,4c-0.12-0.89-0.24-1.77-0.36-2.66c0.34,2.72,0.36,5.45,0.02,8.17c0.12-0.89,0.24-1.77,0.36-2.66
				c-0.32,2.31-0.9,4.55-1.79,6.7c0.34-0.8,0.67-1.59,1.01-2.39c-0.72,1.67-1.62,3.23-2.72,4.69c0.52-0.67,1.04-1.35,1.56-2.02
				c-1.14,1.46-2.45,2.72-3.92,3.86c0.67-0.52,1.35-1.04,2.02-1.56c-4.6,3.47-9.81,6.23-14.73,9.23
				c-5.19,3.16-10.37,6.32-15.56,9.48c-2.17,1.32-3.92,3.51-4.6,5.98c-0.66,2.39-0.36,5.58,1.01,7.71c2.89,4.48,8.9,6.5,13.68,3.59
				c8.72-5.31,17.46-10.59,26.16-15.94c4.91-3.02,9.14-6.45,12.38-11.25c2.48-3.68,4.11-8.18,4.75-12.57
				c0.87-5.99,0.72-11.77-0.76-17.68c-0.97-3.84-4.5-6.65-8.31-7.16c-3.73-0.5-8.18,1.22-9.96,4.77
				c-5.12,10.18-10.25,20.36-15.37,30.54c-2.26,4.49-1.51,9.74,2.58,12.9c1.69,1.3,3.87,2.25,6.06,2.15
				c2.49-0.11,5.43-0.91,7.07-2.93c1.82-2.24,3.65-4.5,5.27-6.9c1.6-2.35,2.77-4.84,3.81-7.49c2.11-5.34,1.96-11.62-0.13-16.93
				c-1.12-2.85-2.43-5.6-3.75-8.36c-1.31-2.74-2.42-5.43-4.47-7.74c-3.74-4.2-10.11-5.35-14.94-2.34
				c-3.99,2.49-5.11,6.67-6.38,10.86c-1.59,5.23-3.03,10.61-5.13,15.67c0.34-0.8,0.67-1.59,1.01-2.39c-0.72,1.68-1.58,3.27-2.7,4.72
				c0.52-0.67,1.04-1.35,1.56-2.02c-0.3,0.37-0.61,0.7-0.97,1.01c0.67-0.52,1.35-1.04,2.02-1.56c-0.36,0.28-0.73,0.5-1.14,0.7
				c0.8-0.34,1.59-0.67,2.39-1.01c-0.31,0.12-0.58,0.21-0.9,0.27c0.89-0.12,1.77-0.24,2.66-0.36c-0.19,0.03-0.39,0.04-0.58,0.02
				c0.89,0.12,1.77,0.24,2.66,0.36c-0.18-0.02-0.36-0.06-0.53-0.14c0.8,0.34,1.59,0.67,2.39,1.01c-0.08-0.04-0.16-0.09-0.24-0.13
				c0.67,0.52,1.35,1.04,2.02,1.56c-0.16-0.11-0.3-0.25-0.42-0.41c0.52,0.67,1.04,1.35,1.56,2.02c-0.06-0.1-0.12-0.21-0.18-0.31
				c0.34,0.8,0.67,1.59,1.01,2.39c-0.09-0.22-0.15-0.45-0.17-0.69c0.12,0.89,0.24,1.77,0.36,2.66c-0.01-0.38,0.01-0.73,0.06-1.1
				c-0.12,0.89-0.24,1.77-0.36,2.66c0.6-3.51,1.5-6.95,2-10.48c0.72-5.09,0.95-9.83-0.26-14.9c-1.22-5.09-7.28-8.61-12.3-6.98
				C683.94,197.89,680.95,203.02,682.26,208.48L682.26,208.48z"/>
		</g>
	</g>
	<g>
		<g>
			<path class="st0" d="M676.4,199.7c-2.26,10.37-3.77,20.94-4.53,31.53c-0.72,10.19-1.73,21.64,3.55,30.84
				c1.25,2.17,3.57,3.93,5.98,4.6c2.39,0.66,5.58,0.36,7.71-1.01c4.58-2.95,6.38-8.83,3.59-13.68c-0.35-0.6-0.66-1.22-0.94-1.85
				c0.34,0.8,0.67,1.59,1.01,2.39c-0.74-1.81-1.18-3.68-1.44-5.61c0.12,0.89,0.24,1.77,0.36,2.66c-0.6-4.93-0.29-9.99-0.02-14.93
				c0.29-5.34,0.8-10.67,1.5-15.98c-0.12,0.89-0.24,1.77-0.36,2.66c0.74-5.47,1.7-10.9,2.88-16.29c0.57-2.62,0.37-5.35-1.01-7.71
				c-1.21-2.07-3.59-4.05-5.98-4.6c-2.56-0.58-5.43-0.46-7.71,1.01C678.87,195.09,676.96,197.15,676.4,199.7L676.4,199.7z"/>
		</g>
	</g>
	<g>
		<g>
			<path class="st0" d="M665.35,213.62c-0.85,4.79-1.7,9.57-2.54,14.36c-0.92,5.24-1.93,10.69-1.32,16.02
				c0.49,4.27,1.33,8.28,2.93,12.27c1.61,4.04,3.47,7.93,5.49,11.78c1.89,3.6,3.82,7.18,5.41,10.93c-0.34-0.8-0.67-1.59-1.01-2.39
				c1.31,3.12,2.35,6.35,2.83,9.71c-0.12-0.89-0.24-1.77-0.36-2.66c0.25,1.97,0.3,3.95,0.11,5.93c-0.23,2.41,1.28,5.42,2.93,7.07
				c1.73,1.73,4.58,3.04,7.07,2.93c2.59-0.12,5.27-0.97,7.07-2.93c1.89-2.06,2.66-4.29,2.93-7.07c1.42-14.81-8.29-27.09-13.78-40
				c0.34,0.8,0.67,1.59,1.01,2.39c-1.33-3.19-2.4-6.48-2.89-9.91c0.12,0.89,0.24,1.77,0.36,2.66c-0.42-3.16-0.27-6.31,0.14-9.46
				c-0.12,0.89-0.24,1.77-0.36,2.66c0.87-6.35,2.16-12.66,3.28-18.97c0.48-2.71,0.42-5.26-1.01-7.71c-1.21-2.07-3.59-4.05-5.98-4.6
				c-2.56-0.58-5.43-0.46-7.71,1.01C667.87,208.98,665.79,211.09,665.35,213.62L665.35,213.62z"/>
		</g>
	</g>
	<g>
		<g>
			<path class="st0" d="M695.3,292.49c0.21-10.01-0.14-20.01-1.05-29.98c-0.25-2.7-0.95-5.09-2.93-7.07
				c-1.73-1.73-4.58-3.04-7.07-2.93c-2.59,0.12-5.27,0.97-7.07,2.93c-1.7,1.85-3.17,4.46-2.93,7.07c0.91,9.97,1.26,19.97,1.05,29.98
				c-0.11,5.23,4.68,10.24,10,10C690.82,302.24,695.18,298.09,695.3,292.49L695.3,292.49z"/>
		</g>
	</g>
	<g>
		<g>
			<path class="st0" d="M681.02,301.5c2.9,0.17,5.9-0.87,8.38-2.28c1.27-0.72,2.42-1.62,3.75-2.23c-0.8,0.34-1.59,0.67-2.39,1.01
				c0.51-0.21,1.01-0.36,1.55-0.45c-0.89,0.12-1.77,0.24-2.66,0.36c0.4-0.04,0.77-0.03,1.17,0c-0.89-0.12-1.77-0.24-2.66-0.36
				c0.92,0.12,1.81,0.37,2.72,0.53c2.23,0.4,3.42,0.51,5.5,0.23c4.01-0.54,7.58-2.68,9.56-6.3c1.63-2.97,1.48-5.95,1.38-9.16
				c-0.06-2.11,0.07-4.21,0.34-6.3c-0.12,0.89-0.24,1.77-0.36,2.66c0.59-4.12,1.81-8.1,2.61-12.17c0.52-2.64,0.94-5.35,1.04-8.04
				c0.11-2.82-0.45-5.56-0.84-8.34c0.12,0.89,0.24,1.77,0.36,2.66c-0.03-0.26-0.04-0.53-0.03-0.79c-0.12,0.89-0.24,1.77-0.36,2.66
				c0.02-0.26,0.07-0.52,0.16-0.76c-0.34,0.8-0.67,1.59-1.01,2.39c0.08-0.21,0.19-0.41,0.33-0.59c-0.52,0.67-1.04,1.35-1.56,2.02
				c0.23-0.28,0.46-0.49,0.73-0.72c-0.67,0.52-1.35,1.04-2.02,1.56c1.25-0.91,2.68-1.6,4.1-2.21c-0.8,0.34-1.59,0.67-2.39,1.01
				c0.98-0.4,1.97-0.75,2.99-1.05c2.44-0.72,4.68-2.39,5.98-4.6c1.25-2.14,1.79-5.3,1.01-7.71c-1.64-5.08-6.93-8.57-12.3-6.98
				c-3.25,0.96-6.71,2.27-9.47,4.27c-2.71,1.96-4.9,4.33-5.77,7.67c-0.76,2.93-0.1,5.67,0.31,8.58c-0.12-0.89-0.24-1.77-0.36-2.66
				c0.25,2.1,0.17,4.19-0.09,6.28c0.12-0.89,0.24-1.77,0.36-2.66c-0.58,4.18-1.83,8.22-2.64,12.35c-0.55,2.81-0.95,5.69-1.09,8.55
				c-0.1,2.11,0.23,4.23,0.11,6.33c0.12-0.89,0.24-1.77,0.36-2.66c-0.02,0.24-0.07,0.47-0.16,0.7c0.34-0.8,0.67-1.59,1.01-2.39
				c-0.08,0.21-0.19,0.41-0.33,0.58c0.52-0.67,1.04-1.35,1.56-2.02c-0.13,0.16-0.28,0.3-0.45,0.42c0.67-0.52,1.35-1.04,2.02-1.56
				c-0.17,0.12-0.35,0.22-0.54,0.29c0.8-0.34,1.59-0.67,2.39-1.01c-0.32,0.11-0.6,0.18-0.93,0.23c0.89-0.12,1.77-0.24,2.66-0.36
				c-0.44,0.04-0.86,0.03-1.3-0.02c0.89,0.12,1.77,0.24,2.66,0.36c-3.7-0.61-7.3-1.55-10.97-0.11c-1.57,0.61-3.02,1.26-4.43,2.16
				c-0.84,0.54-1.67,1.09-2.58,1.52c0.8-0.34,1.59-0.67,2.39-1.01c-0.5,0.21-0.98,0.36-1.51,0.45c0.89-0.12,1.77-0.24,2.66-0.36
				c-0.33,0.03-0.63,0.04-0.96,0.02c-2.47-0.14-5.36,1.22-7.07,2.93c-1.73,1.73-3.04,4.58-2.93,7.07
				C671.28,297.18,675.42,301.18,681.02,301.5L681.02,301.5z"/>
		</g>
	</g>
	<g>
		<g>
			<path class="st0" d="M713.55,258.2c2.97-1.09,5.04-2.27,7.43-4.35c1.71-1.49,3.09-3.43,4.29-5.34c2.11-3.38,3.55-7.27,5.03-10.94
				c2.76-6.84,4.88-13.94,6.34-21.17c0.36-1.81,0.69-3.62,0.97-5.45c0.5-3.23,1.05-6.18,0.41-9.42c-0.9-4.56-4.34-7.61-8.52-9.14
				c-1.69-0.62-3.47-1.03-5.2-1.48c-7.46-1.97-15.02-3.58-22.64-4.83c-9.45-1.56-18.98-2.67-28.54-3.22
				c-2.47-0.14-5.36,1.22-7.07,2.93c-1.73,1.73-3.04,4.58-2.93,7.07c0.25,5.68,4.4,9.67,10,10c6.26,0.36,12.51,0.96,18.73,1.79
				c-0.89-0.12-1.77-0.24-2.66-0.36c5.98,0.81,11.92,1.83,17.83,3.07c2.91,0.61,5.81,1.28,8.7,2c2.8,0.7,5.78,1.27,8.47,2.32
				c-0.8-0.34-1.59-0.67-2.39-1.01c0.22,0.09,0.42,0.21,0.61,0.34c-0.67-0.52-1.35-1.04-2.02-1.56c0.19,0.14,0.35,0.31,0.49,0.5
				c-0.52-0.67-1.04-1.35-1.56-2.02c0.06,0.1,0.12,0.2,0.17,0.3c-0.34-0.8-0.67-1.59-1.01-2.39c0.14,0.35,0.21,0.64,0.27,1.01
				c-0.12-0.89-0.24-1.77-0.36-2.66c0.04,0.62,0,1.21-0.08,1.82c0.12-0.89,0.24-1.77,0.36-2.66c-1.44,10.52-4.24,20.81-8.34,30.61
				c0.34-0.8,0.67-1.59,1.01-2.39c-1.22,2.89-2.45,5.82-4.35,8.34c0.52-0.67,1.04-1.35,1.56-2.02c-0.66,0.84-1.39,1.6-2.23,2.26
				c0.67-0.52,1.35-1.04,2.02-1.56c-0.57,0.42-1.16,0.77-1.8,1.07c0.8-0.34,1.59-0.67,2.39-1.01c-0.22,0.1-0.44,0.18-0.67,0.26
				c-2.49,0.92-4.6,2.24-5.98,4.6c-1.25,2.14-1.79,5.3-1.01,7.71c0.78,2.42,2.28,4.75,4.6,5.98
				C708.11,258.39,711.05,259.12,713.55,258.2L713.55,258.2z"/>
		</g>
	</g>
	<g>
		<g>
			<path class="st0" d="M661.08,193.34c0.49,8.32,0.99,16.64,1.48,24.96c0.16,2.66,1.01,5.15,2.93,7.07
				c1.73,1.73,4.58,3.04,7.07,2.93c2.59-0.12,5.27-0.97,7.07-2.93c1.73-1.89,3.09-4.42,2.93-7.07c-0.49-8.32-0.99-16.64-1.48-24.96
				c-0.16-2.66-1.01-5.15-2.93-7.07c-1.73-1.73-4.58-3.04-7.07-2.93c-2.59,0.12-5.27,0.97-7.07,2.93
				C662.28,188.16,660.92,190.7,661.08,193.34L661.08,193.34z"/>
		</g>
	</g>
	<g>
		<g>
			<path class="st0" d="M668.66,213.96c-0.3,1.5-0.74,2.95-1.32,4.36c0.34-0.8,0.67-1.59,1.01-2.39c-0.81,1.9-1.85,3.68-3.1,5.33
				c0.52-0.67,1.04-1.35,1.56-2.02c-1.32,1.71-2.85,3.24-4.55,4.58c0.67-0.52,1.35-1.04,2.02-1.56c-1.65,1.26-3.42,2.32-5.32,3.15
				c0.8-0.34,1.59-0.67,2.39-1.01c-1.41,0.6-2.87,1.06-4.37,1.37c-2.37,0.5-4.78,2.56-5.98,4.6c-1.25,2.14-1.79,5.3-1.01,7.71
				c0.78,2.42,2.28,4.75,4.6,5.98c2.46,1.3,4.97,1.59,7.71,1.01c6.19-1.3,12.09-4.77,16.53-9.23c4.42-4.45,7.88-10.35,9.12-16.53
				c0.53-2.66,0.4-5.31-1.01-7.71c-1.21-2.07-3.59-4.05-5.98-4.6c-2.56-0.58-5.43-0.46-7.71,1.01
				C671.15,209.34,669.16,211.42,668.66,213.96L668.66,213.96z"/>
		</g>
	</g>
	<g>
		<g>
			<path class="st0" d="M693.35,290.83c-2.55-6.34-4.3-12.96-5.23-19.72c0.12,0.89,0.24,1.77,0.36,2.66
				c-0.59-4.48-0.76-9.04-1.72-13.47c-0.92-4.27-2.91-8.33-5.51-11.82c-5.02-6.72-10.86-12.83-17.12-18.4
				c-1.99-1.77-4.35-2.93-7.07-2.93c-2.45,0-5.38,1.09-7.07,2.93c-1.75,1.91-3.05,4.41-2.93,7.07c0.11,2.56,0.95,5.31,2.93,7.07
				c5.5,4.89,10.78,10.2,15.3,16.03c-0.52-0.67-1.04-1.35-1.56-2.02c1.41,1.85,2.66,3.79,3.58,5.93c-0.34-0.8-0.67-1.59-1.01-2.39
				c0.85,2.1,1.33,4.27,1.65,6.51c-0.12-0.89-0.24-1.77-0.36-2.66c0.74,5.52,1.1,11.07,2.24,16.53c0.99,4.78,2.43,9.46,4.25,14
				c1.01,2.51,2.17,4.56,4.6,5.98c2.14,1.25,5.3,1.79,7.71,1.01c2.42-0.78,4.75-2.28,5.98-4.6
				C693.51,296.31,694.33,293.27,693.35,290.83L693.35,290.83z"/>
		</g>
	</g>
	<g>
		<g>
			<path class="st0" d="M655.86,245.83c5.23,0,10.24-4.6,10-10c-0.24-5.42-4.39-10-10-10c-5.23,0-10.24,4.6-10,10
				C646.11,241.24,650.26,245.83,655.86,245.83L655.86,245.83z"/>
		</g>
	</g>
	<g>
		<g>
			<path class="st0" d="M660.48,240.83c5.23,0,10.24-4.6,10-10c-0.24-5.42-4.39-10-10-10c-5.23,0-10.24,4.6-10,10
				C650.72,236.24,654.87,240.83,660.48,240.83L660.48,240.83z"/>
		</g>
	</g>
	<g>
		<g>
			<path class="st0" d="M688.68,267.5c-0.35,7.17,1.83,14.15,2.83,21.19c-0.12-0.89-0.24-1.77-0.36-2.66
				c0.13,0.98,0.21,1.93,0.11,2.91c0.12-0.89,0.24-1.77,0.36-2.66c-0.07,0.4-0.15,0.76-0.27,1.14c0.34-0.8,0.67-1.59,1.01-2.39
				c-0.19,0.44-0.4,0.81-0.69,1.19c0.52-0.67,1.04-1.35,1.56-2.02c-0.15,0.18-0.31,0.33-0.49,0.48c0.67-0.52,1.35-1.04,2.02-1.56
				c-0.18,0.14-0.36,0.26-0.57,0.36c0.8-0.34,1.59-0.67,2.39-1.01c-0.2,0.1-0.42,0.17-0.64,0.22c0.89-0.12,1.77-0.24,2.66-0.36
				c-0.48,0.06-0.88,0.05-1.36,0c0.89,0.12,1.77,0.24,2.66,0.36c-4.47-0.77-8.86-1.41-13.39-0.94c-2.72,0.28-5.07,0.93-7.07,2.93
				c-1.73,1.73-3.04,4.58-2.93,7.07c0.12,2.59,0.97,5.27,2.93,7.07c1.84,1.69,4.48,3.2,7.07,2.93c2.66-0.28,5.32-0.24,7.97,0.1
				c-0.89-0.12-1.77-0.24-2.66-0.36c1.93,0.28,3.93,0.89,5.88,0.89c2.54,0,5.02-0.59,7.16-1.99c4.22-2.76,6.51-7.46,6.45-12.48
				c-0.03-3.05-0.74-6.17-1.32-9.17c-0.48-2.46-0.99-4.91-1.35-7.39c0.12,0.89,0.24,1.77,0.36,2.66c-0.29-2.16-0.44-4.33-0.33-6.51
				c0.26-5.23-4.78-10.23-10-10C693.04,257.75,688.96,261.89,688.68,267.5L688.68,267.5z"/>
		</g>
	</g>
	<g>
		<g>
			<path class="st0" d="M708.74,260.83c5.23,0,10.24-4.6,10-10c-0.24-5.42-4.39-10-10-10c-5.23,0-10.24,4.6-10,10
				C698.98,256.24,703.13,260.83,708.74,260.83L708.74,260.83z"/>
		</g>
	</g>
	<g>
		<g>
			<path class="st0" d="M688.79,267.8c-0.61,2.63-1.23,5.25-1.84,7.88c-0.42,1.33-0.48,2.66-0.18,3.99
				c0.06,1.33,0.46,2.57,1.19,3.72c0.63,1.17,1.49,2.1,2.58,2.81c0.97,0.88,2.1,1.48,3.4,1.79c0.89,0.12,1.77,0.24,2.66,0.36
				c1.81-0.01,3.49-0.46,5.05-1.37c0.67-0.52,1.35-1.04,2.02-1.56c1.24-1.25,2.1-2.72,2.57-4.41c0.61-2.63,1.23-5.25,1.84-7.88
				c0.42-1.33,0.48-2.66,0.18-3.99c-0.06-1.33-0.46-2.57-1.19-3.72c-0.63-1.17-1.49-2.1-2.58-2.81c-0.97-0.88-2.1-1.48-3.4-1.79
				c-0.89-0.12-1.77-0.24-2.66-0.36c-1.81,0.01-3.49,0.46-5.05,1.37c-0.67,0.52-1.35,1.04-2.02,1.56
				C690.12,264.63,689.27,266.1,688.79,267.8L688.79,267.8z"/>
		</g>
	</g>
	<g>
		<g>
			<path class="st0" d="M701.62,284.46c0.07-0.05,0.14-0.1,0.21-0.15c-0.8,0.34-1.59,0.67-2.39,1.01c0.07-0.02,0.15-0.03,0.22-0.05
				c-1.77,0-3.54,0-5.32,0c0.08,0.01,0.16,0.02,0.23,0.03c-0.8-0.34-1.59-0.67-2.39-1.01c0.17,0.06,0.33,0.15,0.46,0.27
				c-0.67-0.52-1.35-1.04-2.02-1.56c0.15,0.13,0.29,0.28,0.41,0.45c-0.52-0.67-1.04-1.35-1.56-2.02c0.12,0.16,0.21,0.33,0.29,0.52
				c-0.34-0.8-0.67-1.59-1.01-2.39c0.82,2.06,1.38,4.18,1.69,6.38c-0.12-0.89-0.24-1.77-0.36-2.66c0.19,1.51,0.26,3.01,0.21,4.53
				c6.55-0.89,13.1-1.77,19.64-2.66c-1.06-4.66-1.91-9.36-2.54-14.09c0.12,0.89,0.24,1.77,0.36,2.66c-0.36-2.73-0.65-5.46-0.87-8.2
				c-6.55,0.89-13.1,1.77-19.64,2.66c1.69,4.18,2.85,8.54,3.46,13.02c-0.12-0.89-0.24-1.77-0.36-2.66c0.4,3.12,0.54,6.25,0.4,9.39
				c-0.23,5.23,4.76,10.23,10,10c5.62-0.25,9.75-4.39,10-10c0.37-8.45-1.03-17.21-4.21-25.06c-0.97-2.4-2.18-4.7-4.6-5.98
				c-2.02-1.07-4.1-1.49-6.38-1.19c-4.58,0.62-9.07,4.85-8.67,9.82c0.67,8.38,1.9,16.75,3.77,24.95c0.52,2.28,2.53,4.88,4.6,5.98
				c2.02,1.07,4.1,1.49,6.38,1.19c4.98-0.67,8.5-4.8,8.67-9.82c0.13-3.75-0.36-7.64-1.44-11.23c-0.81-2.71-1.85-5.46-3.88-7.51
				c-3.35-3.38-9.36-4.8-13.46-1.87c-2.17,1.55-3.87,3.33-4.6,5.98c-0.66,2.39-0.36,5.58,1.01,7.71c1.38,2.14,3.43,4.01,5.98,4.6
				C696.41,286.03,699.46,286,701.62,284.46L701.62,284.46z"/>
		</g>
	</g>
	<g>
		<g>
			<path class="st0" d="M699.04,260.04c2.12,0.38,4.23,0.75,6.35,1.13c1.71,0.3,3.45,0.65,5.18,0.79c2.39,0.19,5.03-0.45,7.11-1.64
				c4.43-2.54,6.98-7.86,9.32-12.23c4.1-7.65,7.44-15.8,9.83-24.14c1.26-4.41,2.24-8.89,2.94-13.42c0.43-2.75,0.45-5.21-1.01-7.71
				c-1.21-2.07-3.59-4.05-5.98-4.6c-2.56-0.58-5.43-0.46-7.71,1.01c-2.05,1.32-4.2,3.46-4.6,5.98c-1.39,8.92-3.87,17.63-7.37,25.96
				c0.34-0.8,0.67-1.59,1.01-2.39c-2.41,5.69-5.17,11.61-8.8,16.65c0.52-0.67,1.04-1.35,1.56-2.02c-0.23,0.29-0.46,0.55-0.74,0.8
				c0.67-0.52,1.35-1.04,2.02-1.56c-0.3,0.23-0.57,0.39-0.92,0.55c0.8-0.34,1.59-0.67,2.39-1.01c-0.14,0.04-0.28,0.08-0.42,0.11
				c0.89-0.12,1.77-0.24,2.66-0.36c-0.46,0.05-0.85,0.05-1.31,0.02c0.89,0.12,1.77,0.24,2.66,0.36c-2.97-0.42-5.92-1.03-8.88-1.56
				c-2.7-0.48-5.26-0.42-7.71,1.01c-2.07,1.21-4.05,3.59-4.6,5.98c-0.58,2.56-0.46,5.43,1.01,7.71
				C694.4,257.52,696.52,259.59,699.04,260.04L699.04,260.04z"/>
		</g>
	</g>
	<g>
		<g>
			<path class="st0" d="M720.84,206.67c0.26,4.3,0.49,8.61-0.04,12.89c0.12-0.89,0.24-1.77,0.36-2.66c-0.35,2.57-1,5.03-2,7.42
				c0.34-0.8,0.67-1.59,1.01-2.39c-2.27,5.28-5.34,10.28-8.31,15.19c-3.04,5.03-6.27,9.95-9.66,14.75
				c-1.42,2.01-1.64,5.41-1.01,7.71c0.64,2.32,2.43,4.83,4.6,5.98c2.32,1.23,5.13,1.84,7.71,1.01c2.6-0.84,4.4-2.37,5.98-4.6
				c5.52-7.81,10.59-15.93,15.16-24.33c2.48-4.56,4.86-9.35,5.68-14.52c0.88-5.54,0.86-10.88,0.53-16.46
				c-0.16-2.66-1.01-5.15-2.93-7.07c-1.73-1.73-4.58-3.04-7.07-2.93c-2.59,0.12-5.27,0.97-7.07,2.93
				C722.04,201.48,720.69,204.02,720.84,206.67L720.84,206.67z"/>
		</g>
	</g>
	<g>
		<g>
			<path class="st0" d="M726.06,255.58c3.49-7.92,6.99-15.84,10.48-23.76c1.12-2.55,1.78-4.91,1.01-7.71
				c-0.64-2.32-2.43-4.83-4.6-5.98c-2.32-1.23-5.13-1.84-7.71-1.01c-2.32,0.75-4.95,2.27-5.98,4.6
				c-3.49,7.92-6.99,15.84-10.48,23.76c-1.12,2.55-1.78,4.91-1.01,7.71c0.64,2.32,2.43,4.83,4.6,5.98c2.32,1.23,5.13,1.84,7.71,1.01
				C722.39,259.43,725.03,257.91,726.06,255.58L726.06,255.58z"/>
		</g>
	</g>
	<g>
		<g>
			<path class="st0" d="M667.8,193.86c1.85,2.31,5.01,3.76,7.79,4.54c1.91,0.53,3.9,0.86,5.86,1.16c4.83,0.73,9.68,1.2,14.52,1.84
				c-0.89-0.12-1.77-0.24-2.66-0.36c12.4,1.67,24.65,4.32,36.63,7.92c5.01,1.51,11.12-1.8,12.3-6.98c1.23-5.39-1.62-10.69-6.98-12.3
				c-7.68-2.31-15.47-4.24-23.34-5.76c-8.59-1.65-17.26-2.6-25.93-3.74c0.89,0.12,1.77,0.24,2.66,0.36c-3.03-0.41-6.3-0.74-9.15-1.9
				c0.8,0.34,1.59,0.67,2.39,1.01c-0.44-0.21-0.84-0.43-1.24-0.72c0.67,0.52,1.35,1.04,2.02,1.56c-0.28-0.24-0.51-0.48-0.74-0.77
				c-1.5-1.87-4.79-2.93-7.07-2.93c-2.45,0-5.38,1.09-7.07,2.93c-1.75,1.91-3.05,4.41-2.93,7.07c0.12,0.89,0.24,1.77,0.36,2.66
				C665.7,191.14,666.56,192.61,667.8,193.86L667.8,193.86z"/>
		</g>
	</g>
	<g>
		<g>
			<path class="st0" d="M697.1,186.6c0.21-0.08,0.42-0.14,0.63-0.18c-0.8,0.08-0.92,0.1-0.36,0.06c0.22-0.01,0.44,0,0.65,0.01
				c0.55,0.05,0.44,0.03-0.34-0.06c0.04-0.11,2.46,0.61,2.68,0.67c2.37,0.67,4.78,1.12,7.23,0.61c2.18-0.46,3.91-1.91,5.71-3.14
				c2.57-1.76,4.13-4.05,5.16-6.95c1.55-4.39,1.61-9.32,1.81-13.92c0.05-1.15,0.1-2.3,0.18-3.45c0.04-0.57,0.09-1.14,0.14-1.71
				c0.02-0.23,0.29-2.04,0.08-0.78c0.18-1.11,0.39-2.21,0.69-3.3c0.15-0.54,0.32-1.08,0.51-1.61c0.1-0.27,0.2-0.53,0.3-0.79
				c-0.23,0.54-0.22,0.55,0.02,0.03c1.12-2.36,0.73-5.51-1.79-6.84c-2.22-1.17-5.65-0.73-6.84,1.79c-2.12,4.47-2.87,9.15-3.16,14.07
				c-0.13,2.16-0.18,4.33-0.31,6.49c-0.07,1.08-0.18,2.15-0.29,3.22c-0.05,0.37-0.03,0.28,0.04-0.26c-0.04,0.28-0.09,0.57-0.14,0.85
				c-0.1,0.56-0.21,1.12-0.34,1.68c-0.12,0.51-0.25,1.02-0.41,1.52c-0.08,0.24-0.16,0.48-0.25,0.72c0.07-0.16,0.14-0.33,0.21-0.49
				c-0.02,0.32-0.53,1.09-0.76,1.3c1.25-1.19-1.18,0.67,0.12-0.19c-0.79,0.52-1.55,1.06-2.31,1.61c-0.21,0.16-0.42,0.3-0.64,0.44
				c-0.53,0.28-0.45,0.26,0.25-0.07c-0.2,0.07-0.41,0.12-0.62,0.15c0.81-0.09,0.93-0.13,0.38-0.1c-1.27-0.15,0.03,0.06,0.03,0.06
				c0-0.01-1.22-0.26-1.32-0.29c-0.9-0.23-1.78-0.52-2.68-0.74c-2.26-0.55-4.66-0.78-6.91-0.04c-2.48,0.82-4.35,3.49-3.49,6.15
				C691.76,185.58,694.44,187.47,697.1,186.6L697.1,186.6z"/>
		</g>
	</g>
	<g>
		<g>
			<path class="st0" d="M717.42,123.33c0.1,0.26,0.18,0.51,0.27,0.77c0.27,0.79,0.07-0.09,0.01-0.13c0.07,0.04,0.01,0.73,0.01,0.82
				c0,0.03-0.16,1.28-0.04,0.58c0.11-0.64-0.06,0.26-0.09,0.37c-0.05,0.27-0.11,0.55-0.17,0.82c-0.13,0.62-0.27,1.25-0.39,1.88
				c-0.55,2.71-1.03,5.43-1.44,8.17c-0.85,5.67-1.46,11.37-1.76,17.1c-0.14,2.62,2.4,5.12,5,5c2.82-0.13,4.85-2.2,5-5
				c0.14-2.76,0.35-5.52,0.63-8.27c0.14-1.38,0.31-2.75,0.48-4.12c0.05-0.36,0.04-0.32-0.02,0.12c0.02-0.16,0.04-0.32,0.07-0.48
				c0.05-0.32,0.09-0.64,0.14-0.97c0.11-0.72,0.22-1.45,0.33-2.17c0.44-2.73,0.94-5.45,1.52-8.15c0.62-2.93,1.25-6.12,0.09-9.01
				c-0.97-2.42-3.38-4.39-6.15-3.49C718.58,117.94,716.38,120.74,717.42,123.33L717.42,123.33z"/>
		</g>
	</g>
	<g>
		<g>
			<path class="st0" d="M717.43,122.52c-4.54,19.74-7.61,39.84-9.2,60.03c-0.45,5.67-0.77,11.34-0.98,17.02c-0.1,2.62,2.37,5.12,5,5
				c2.79-0.13,4.9-2.2,5-5c0.36-9.9,1.08-19.79,2.17-29.63c0.27-2.42,0.56-4.84,0.87-7.26c0.04-0.32,0.08-0.64,0.13-0.97
				c0-0.04,0.11-0.83,0.04-0.3c-0.08,0.59,0.06-0.42,0.07-0.54c0.03-0.24,0.07-0.48,0.1-0.72c0.18-1.29,0.36-2.57,0.55-3.86
				c0.73-4.9,1.55-9.79,2.46-14.66c1.03-5.51,2.18-11,3.43-16.46c0.58-2.54-0.78-5.53-3.49-6.15
				C721.04,118.45,718.06,119.8,717.43,122.52L717.43,122.52z"/>
		</g>
	</g>
	<g>
		<g>
			<path class="st0" d="M713.79,151.65c0.02,8.32,0.03,16.65,0.05,24.97c0.01,4.31,0.03,8.6,0.83,12.85
				c0.72,3.87,2.28,7.65,4.36,10.99c1.38,2.22,4.53,3.29,6.84,1.79c2.22-1.43,3.28-4.47,1.79-6.84c-0.46-0.73-0.89-1.48-1.28-2.25
				c-0.2-0.38-0.38-0.78-0.56-1.17c-0.5-1.05,0.19,0.61-0.16-0.4c-0.57-1.66-1.08-3.3-1.39-5.02c-0.04-0.24-0.2-1.46-0.1-0.57
				c-0.05-0.48-0.1-0.95-0.14-1.43c-0.08-0.96-0.12-1.92-0.15-2.88c-0.06-2.02-0.04-4.05-0.04-6.07c-0.01-8-0.03-15.99-0.04-23.99
				c0-2.62-2.3-5.12-5-5C716.08,146.77,713.78,148.85,713.79,151.65L713.79,151.65z"/>
		</g>
	</g>
	<g>
		<g>
			<path class="st0" d="M714.87,180.31c-1.93,2.79-1.04,6.75,1.24,9.03c1.56,1.56,3.68,2.4,5.62,3.35c2.21,1.09,4.64,2.71,7.18,2.62
				c1.84-0.07,3.68-0.85,4.87-2.28c0.05-0.06,0.64-0.81,0.67-0.78c0.22,0.21-1.88,0.87-1.19,0.74c0.22-0.04,0.43-0.1,0.64-0.14
				c-0.44,0.06-0.89,0.12-1.33,0.18c2.02-0.25,3.88-0.23,5.74-1.17c2.33-1.17,3.73-3.45,3.82-6.03c0.09-2.62-2.36-5.12-5-5
				c-2.79,0.12-4.9,2.2-5,5c0,0.07,0,0.14-0.01,0.21c0.06-0.44,0.12-0.89,0.18-1.33c-0.08,0.34-0.03,0.27,0.14-0.21
				c0.14-0.42,0.38-0.79,0.71-1.1c-0.51,0.55,0.92-0.59,0.41-0.33c-0.41,0.22,1.28-0.36,0.46-0.19c-0.22,0.05-0.44,0.11-0.67,0.15
				c0.44-0.06,0.89-0.12,1.33-0.18c-1.49,0.17-3.02,0.11-4.45,0.62c-1.16,0.42-2.17,0.98-3.04,1.88c-0.18,0.19-0.32,0.4-0.49,0.6
				c-0.1,0.13-0.22,0.26-0.34,0.38c1.67-0.73,2.08-1.02,1.22-0.85c0.44-0.06,0.89-0.12,1.33-0.18c-0.1,0-0.2-0.01-0.3-0.01
				c0.44,0.06,0.89,0.12,1.33,0.18c-0.11-0.02-0.53-0.17-0.61-0.14c0.11-0.05,0.99,0.47,0.31,0.13c-0.42-0.21-0.85-0.42-1.27-0.63
				c-0.9-0.45-1.81-0.89-2.71-1.34c-0.78-0.39-1.58-0.75-2.34-1.18c-0.17-0.1-0.32-0.21-0.49-0.3c-0.52-0.29,0.77,0.65,0.35,0.24
				c-0.44-0.43,0.59,0.85,0.28,0.36c-0.27-0.42,0.38,1.2,0.2,0.32c0.06,0.44,0.12,0.89,0.18,1.33c-0.03-0.17-0.03-0.34-0.02-0.52
				c-0.06,0.44-0.12,0.89-0.18,1.33c0.13-0.84-0.63,0.97-0.14,0.26c1.49-2.16,0.47-5.65-1.79-6.84
				C719.16,177.17,716.47,178.01,714.87,180.31L714.87,180.31z"/>
		</g>
	</g>
	<g>
		<g>
			<path class="st0" d="M733.42,188.7c-0.07,1.06-0.19,2.11-0.3,3.16c0.12-1.13-0.05,0.35-0.07,0.46c-0.07,0.45-0.14,0.89-0.22,1.34
				c-0.35,2.01-0.8,4-1.3,5.98c-0.99,3.9-2.2,7.73-3.41,11.57c-0.79,2.49,0.93,5.57,3.49,6.15c2.73,0.62,5.3-0.82,6.15-3.49
				c2.61-8.24,5.06-16.5,5.67-25.17c0.18-2.61-2.43-5.12-5-5C735.55,183.83,733.61,185.9,733.42,188.7L733.42,188.7z"/>
		</g>
	</g>
	<g>
		<g>
			<path class="st0" d="M704.96,204.57c2.62,0,5.12-2.3,5-5c-0.12-2.71-2.2-5-5-5c-2.62,0-5.12,2.3-5,5
				C700.08,202.28,702.16,204.57,704.96,204.57L704.96,204.57z"/>
		</g>
	</g>
	<g>
		<g>
			<path class="st0" d="M704.54,204.57c2.62,0,5.12-2.3,5-5c-0.12-2.71-2.2-5-5-5c-2.62,0-5.12,2.3-5,5
				C699.66,202.28,701.74,204.57,704.54,204.57L704.54,204.57z"/>
		</g>
	</g>
	<g>
		<g>
			<path class="st0" d="M724.12,202.65c-2.26-2.85-5.36-4.88-8.21-7.08c0.34,0.26,0.67,0.52,1.01,0.78
				c-1.67-1.29-3.29-2.66-4.6-4.34c0.26,0.34,0.52,0.67,0.78,1.01c-0.23-0.3-0.44-0.6-0.65-0.91c-0.72-1.09-1.71-1.95-2.99-2.3
				c-1.2-0.33-2.79-0.18-3.85,0.5c-1.07,0.69-2.01,1.71-2.3,2.99c-0.29,1.27-0.24,2.73,0.5,3.85c1.23,1.87,2.71,3.52,4.42,4.96
				c1.72,1.45,3.55,2.76,5.33,4.14c-0.34-0.26-0.67-0.52-1.01-0.78c1.63,1.27,3.21,2.61,4.49,4.23c0.74,0.94,2.4,1.46,3.54,1.46
				c1.23,0,2.69-0.54,3.54-1.46c0.87-0.95,1.52-2.2,1.46-3.54c-0.06-0.44-0.12-0.89-0.18-1.33
				C725.17,204.01,724.74,203.28,724.12,202.65L724.12,202.65z"/>
		</g>
	</g>
	<g>
		<g>
			<path class="st0" d="M710.78,196.86c4.95,1.28,10.06,2.04,15.17,2.31c2.62,0.14,5.12-2.4,5-5c-0.13-2.83-2.2-4.85-5-5
				c-1.85-0.1-3.7-0.27-5.53-0.51c0.44,0.06,0.89,0.12,1.33,0.18c-2.8-0.38-5.57-0.92-8.31-1.62c-2.53-0.65-5.54,0.83-6.15,3.49
				C706.69,193.32,708.07,196.16,710.78,196.86L710.78,196.86z"/>
		</g>
	</g>
	<g>
		<g>
			<path class="st0" d="M729.81,189.73c-6.57-4.62-14.05-8.02-21.82-10.02c-2.53-0.65-5.54,0.83-6.15,3.49
				c-0.59,2.61,0.78,5.45,3.49,6.15c1.88,0.48,3.73,1.04,5.55,1.69c0.8,0.28,1.59,0.58,2.37,0.9c0.22,0.09,0.45,0.18,0.67,0.28
				c-0.64-0.27-0.7-0.3-0.19-0.08c0.44,0.2,0.88,0.39,1.32,0.6c3.4,1.58,6.64,3.47,9.71,5.63c2.15,1.51,5.65,0.46,6.84-1.79
				C732.96,194,732.1,191.34,729.81,189.73L729.81,189.73z"/>
		</g>
	</g>
	<g>
		<g>
			<path class="st0" d="M682.72,193.74c2.62,0,5.12-2.3,5-5c-0.12-2.71-2.2-5-5-5c-2.62,0-5.12,2.3-5,5
				C677.84,191.45,679.92,193.74,682.72,193.74L682.72,193.74z"/>
		</g>
	</g>
	<g>
		<g>
			<path class="st0" d="M681.55,128.64c1.57,9.69,1.67,19.54,1.93,29.33c0.27,9.99,0.54,19.98,0.81,29.96c0.09,3.21,5.09,3.22,5,0
				c-0.27-10.15-0.55-20.31-0.82-30.46c-0.27-10.08-0.49-20.18-2.1-30.16c-0.22-1.33-1.87-2.08-3.08-1.75
				C681.88,125.96,681.34,127.3,681.55,128.64L681.55,128.64z"/>
		</g>
	</g>
	<g>
		<g>
			<path class="st0" d="M681.12,112.48c-0.15,20.36,0.57,40.73,2.18,61.03c0.46,5.78,0.99,11.55,1.59,17.31
				c0.14,1.34,1.05,2.5,2.5,2.5c1.24,0,2.64-1.15,2.5-2.5c-2.1-20.25-3.34-40.59-3.68-60.95c-0.1-5.79-0.12-11.59-0.08-17.38
				C686.14,109.27,681.14,109.26,681.12,112.48L681.12,112.48z"/>
		</g>
	</g>
	<g>
		<g>
			<path class="st0" d="M683.81,110.82c-0.09,18.1,1.08,36.18,3.5,54.11c0.69,5.13,1.48,10.25,2.37,15.35
				c0.23,1.33,1.86,2.08,3.08,1.75c1.41-0.39,1.98-1.74,1.75-3.08c-3.05-17.49-4.88-35.19-5.48-52.94
				c-0.17-5.06-0.24-10.13-0.21-15.2C688.82,107.6,683.82,107.6,683.81,110.82L683.81,110.82z"/>
		</g>
	</g>
	<g>
		<g>
			<path class="st0" d="M684.09,139.99c-0.42,8.85-0.45,17.9,1.89,26.51c1.15,4.22,2.93,8.24,4.89,12.14
				c0.96,1.9,1.96,3.79,2.97,5.67c0.96,1.78,2.05,3.55,3.63,4.86c1.04,0.86,2.52,1.02,3.54,0c0.89-0.89,1.05-2.67,0-3.54
				c-1.38-1.15-2.19-2.63-3.03-4.19c-0.95-1.76-1.89-3.53-2.79-5.32c-1.85-3.66-3.46-7.42-4.51-11.39
				c-2.11-8.06-1.98-16.48-1.6-24.74C689.24,136.77,684.24,136.78,684.09,139.99L684.09,139.99z"/>
		</g>
	</g>
	<g>
		<g>
			<path class="st0" d="M749.49,143.87c-2.31,4.16-3.59,8.74-5.01,13.25c-1.41,4.49-3.42,8.55-5.53,12.74
				c-2.21,4.37-3.87,8.88-4.86,13.68c-1,4.87-1.47,9.83-1.93,14.78c-0.13,1.35,1.24,2.5,2.5,2.5c1.46,0,2.37-1.15,2.5-2.5
				c0.43-4.66,0.87-9.32,1.84-13.9c0.96-4.54,2.56-8.73,4.67-12.85c2.12-4.15,4.08-8.26,5.49-12.71c1.34-4.24,2.46-8.56,4.63-12.47
				C755.37,143.58,751.05,141.05,749.49,143.87L749.49,143.87z"/>
		</g>
	</g>
	<g>
		<g>
			<path class="st0" d="M683.02,150.42c1.14,13.37,6.16,26,14.42,36.57c0.83,1.06,2.66,0.87,3.54,0c1.05-1.05,0.83-2.47,0-3.54
				c-7.37-9.44-11.93-21.11-12.95-33.04c-0.12-1.35-1.07-2.5-2.5-2.5C684.26,147.92,682.91,149.06,683.02,150.42L683.02,150.42z"/>
		</g>
	</g>
	<g>
		<g>
			<path class="st0" d="M683.16,106.39c-0.79,4.99-1.59,9.97-2.38,14.96c-0.2,1.29,0.33,2.75,1.75,3.08
				c1.2,0.27,2.86-0.37,3.08-1.75c0.79-4.99,1.59-9.97,2.38-14.96c0.2-1.29-0.33-2.75-1.75-3.08
				C685.03,104.37,683.38,105.01,683.16,106.39L683.16,106.39z"/>
		</g>
	</g>
	<g>
		<g>
			<path class="st0" d="M683.04,107.07c0.03,2.25-0.02,4.5-0.18,6.74c-0.16,2.27-0.39,4.36-0.7,6.31c-0.2,1.29,0.33,2.75,1.75,3.08
				c1.2,0.27,2.86-0.36,3.08-1.75c0.74-4.76,1.12-9.56,1.05-14.38c-0.02-1.31-1.14-2.56-2.5-2.5
				C684.2,104.63,683.02,105.66,683.04,107.07L683.04,107.07z"/>
		</g>
	</g>
	<g>
		<g>
			<path class="st0" d="M643.3,129.27c6.26,15.97,13.39,31.57,21.33,46.77c2.11,4.03,4.16,8.07,5.14,12.54
				c0.69,3.14,5.52,1.81,4.82-1.33c-0.89-4.05-2.62-7.84-4.5-11.52c-1.92-3.77-3.91-7.51-5.8-11.3
				c-3.79-7.62-7.37-15.35-10.73-23.17c-1.89-4.41-3.7-8.85-5.45-13.31c-0.49-1.26-1.68-2.13-3.08-1.75
				C643.85,126.53,642.81,128.01,643.3,129.27L643.3,129.27z"/>
		</g>
	</g>
	<g>
		<g>
			<path class="st0" d="M648.17,126.09c-0.04-0.07-0.08-0.14-0.12-0.2c0.11,0.42,0.23,0.84,0.34,1.26c0.01-0.08,0.01-0.15,0.02-0.23
				c-0.11,0.42-0.23,0.84-0.34,1.26c-0.02,0.04-0.04,0.07-0.06,0.11c-0.37,0.21-0.74,0.43-1.1,0.64c-0.05,0-0.1,0-0.15-0.01
				c-0.42-0.11-0.84-0.23-1.26-0.34c-0.07-0.03-0.26-0.56-0.09-0.14c0.1,0.23,0.22,0.45,0.32,0.68c0.2,0.46,0.4,0.92,0.59,1.37
				c0.49,1.15,0.99,2.29,1.48,3.44c0.89,2.06,1.78,4.12,2.67,6.18c1.84,4.28,3.69,8.55,5.53,12.83c3.6,8.35,7.34,16.66,10.81,25.07
				c0.7,1.69,0.88,3-0.2,4.54c-1,1.43-2.52,2.52-3.95,3.5c1.22,0.5,2.45,1,3.67,1.49c-2.47-6.81-1.3-14.12-1.49-21.19
				c-0.1-3.66-0.52-7.41-1.85-10.84c-1.37-3.51-3.52-6.56-5.34-9.83c-2.1-3.75-3.63-7.75-4.67-11.91c-0.78-3.12-5.6-1.8-4.82,1.33
				c0.94,3.77,2.3,7.43,4.02,10.92c1.64,3.31,3.82,6.31,5.44,9.62c3.16,6.45,2.11,13.93,2.11,20.86c0,4.18,0.34,8.43,1.78,12.38
				c0.51,1.4,2.24,2.48,3.67,1.49c3.48-2.4,7.52-5.71,7.24-10.41c-0.16-2.73-1.66-5.31-2.73-7.78c-1.12-2.6-2.24-5.19-3.36-7.79
				c-4.45-10.31-8.89-20.62-13.34-30.92c-0.63-1.45-1.25-2.9-1.88-4.35c-0.55-1.27-0.97-2.79-1.88-3.86
				c-1.06-1.25-2.79-1.76-4.27-0.89c-1.48,0.87-2.01,2.79-1.12,4.25C645.53,131.35,649.86,128.85,648.17,126.09L648.17,126.09z"/>
		</g>
	</g>
	<g>
		<g>
			<path class="st0" d="M649.02,126.87c-0.63-0.68,0.67,1.31,0.2,1.55c-0.24,0.12-0.47-0.01-0.49,0.08c0,0.03,0.63,0.88,0.65,0.92
				c0.21,0.38,0.37,0.78,0.54,1.17c1.03,2.51,2.06,5.03,3.09,7.54c2.03,4.95,4.05,9.9,6.08,14.85c3.29,8.03,6.26,16.51,11.36,23.62
				c2.76,3.83,6.08,7.18,10.18,9.57c2.79,1.62,5.31-2.7,2.52-4.32c-7.97-4.64-12.22-13.34-15.69-21.53
				c-4.51-10.66-8.65-21.48-13.17-32.14c-1.09-2.56-3.3-5.37-6.47-4.55c-2.99,0.78-4.54,4.38-2.34,6.77
				C647.67,132.78,651.2,129.23,649.02,126.87L649.02,126.87z"/>
		</g>
	</g>
	<g>
		<g>
			<path class="st0" d="M659.86,171.04c-1.44,4.97,1.94,9.48,4.38,13.51c2.63,4.34,5.27,8.69,7.9,13.03
				c1.67,2.75,5.99,0.24,4.32-2.52c-2.38-3.93-4.77-7.86-7.15-11.79c-1.14-1.88-2.34-3.75-3.41-5.67c-0.89-1.6-1.75-3.38-1.22-5.23
				C665.58,169.28,660.76,167.95,659.86,171.04L659.86,171.04z"/>
		</g>
	</g>
	<g>
		<g>
			<path class="st0" d="M665.76,194.42c3.31-9.81,0.5-20.21-2.39-29.75c-3.16-10.43-6.33-20.85-9.5-31.27
				c-1.39-4.59-2.35-10.78-7.52-12.56c-1.39-0.48-2.58,0.57-3.08,1.75c-1.98,4.74,0.57,9.75,2.34,14.12
				c1.93,4.76,3.8,9.55,5.6,14.37c3.6,9.63,6.94,19.36,10,29.17c1.72,5.52,3.35,11.07,4.9,16.64c0.86,3.1,5.69,1.78,4.82-1.33
				c-5.36-19.27-11.75-38.24-19.15-56.82c-1.02-2.56-2.13-5.1-3.1-7.68c-0.88-2.35-1.6-4.72-0.59-7.13
				c-1.03,0.58-2.05,1.16-3.08,1.75c1.16,0.4,1.76,1.9,2.15,2.98c0.8,2.23,1.41,4.54,2.1,6.8c1.48,4.86,2.95,9.71,4.43,14.57
				c1.45,4.78,2.9,9.56,4.35,14.33c1.38,4.53,2.78,9.08,3.61,13.75c0.89,5.01,0.92,10.13-0.72,14.99
				C659.9,196.15,664.73,197.46,665.76,194.42L665.76,194.42z"/>
		</g>
	</g>
	<g>
		<g>
			<path class="st0" d="M735.52,188.67c7.2-11.93,12.43-25.04,15.39-38.66c-1.64-0.22-3.27-0.44-4.91-0.66
				c0.72,8.38-1.38,16.5-3.51,24.52c-2.19,8.26-4,16.41-4.25,24.98c-0.44,15.26,2.2,32.32-7.94,45.21
				c-4.72,6.01-11.32,10.39-18.71,12.34c-3.11,0.82-1.79,5.64,1.33,4.82c7.11-1.88,13.67-5.78,18.73-11.11
				c5.42-5.7,8.89-12.83,10.35-20.54c1.61-8.52,1.19-17.19,1.18-25.81c-0.01-4.29,0.08-8.61,0.63-12.87
				c0.54-4.19,1.56-8.31,2.63-12.39c2.48-9.52,5.41-19.2,4.56-29.15c-0.11-1.24-0.87-2.3-2.17-2.46c-1.17-0.14-2.48,0.56-2.74,1.79
				c-2.87,13.23-7.89,25.87-14.88,37.47C729.53,188.91,733.85,191.42,735.52,188.67L735.52,188.67z"/>
		</g>
	</g>
	<g>
		<g>
			<path class="st0" d="M674.13,276.01c1.98-3.08,0.8-6.7-1.24-9.41c-2.32-3.09-5.45-5.6-8.25-8.25c-3.01-2.84-6.01-5.68-9.02-8.52
				c-2.57-2.43-5.44-4.79-7.29-7.85c-1.74-2.88-2.57-6.2-3.53-9.4c-0.86-2.87-1.74-5.75-2.81-8.55c-2.13-5.55-5-10.86-9.83-14.51
				c-2.92-2.21-6.39-3.36-9.89-4.27c-3.47-0.9-6.99-1.65-9.96-3.76c-1.1-0.78-2.78-0.2-3.42,0.9c-0.73,1.25-0.21,2.64,0.9,3.42
				c5.22,3.7,11.89,3.49,17.4,6.45c4.62,2.48,7.49,7.05,9.46,11.77c2.27,5.44,3.38,11.28,5.58,16.73
				c2.81,6.98,8.87,11.65,14.2,16.69c3.13,2.95,6.25,5.91,9.38,8.86c1.55,1.47,5.58,4.74,4.02,7.17
				C668.07,276.2,672.39,278.71,674.13,276.01L674.13,276.01z"/>
		</g>
	</g>
	<g>
		<g>
			<path class="st0" d="M615.37,203.05c0.03,0.83-0.78,0.27,0.15,0.74c0.86,0.43,1.65,1.1,2.43,1.66c1.59,1.14,3.18,2.28,4.76,3.43
				c3.36,2.44,6.71,4.89,10.05,7.37c6.56,4.87,13.07,9.83,19.52,14.86c1.06,0.83,2.5,1.04,3.54,0c0.86-0.86,1.07-2.7,0-3.54
				c-7.68-5.99-15.44-11.89-23.28-17.67c-3.87-2.85-7.76-5.68-11.66-8.48c-1.85-1.32-3.77-2.95-6.19-2.82
				c-2.33,0.13-4.41,2.05-4.32,4.45C610.49,206.25,615.49,206.27,615.37,203.05L615.37,203.05z"/>
		</g>
	</g>
	<g>
		<g>
			<path class="st0" d="M652.71,227.83c-0.92-0.24-1.51-1.12-2.2-1.72c-1.02-0.89-2.15-1.62-3.51-1.82
				c-2.88-0.42-5.94,2.24-4.91,5.27c0.89,2.62,4.87,2.25,4.91-0.66c0.02-1.58,0.7-3.1,1.95-4.11c1.44-1.16,3.45-1.45,5.21-1.78
				c4.71-0.88,9.42-1.75,14.13-2.62c1.33-0.25,2.08-1.85,1.75-3.08c-0.38-1.39-1.74-1.99-3.08-1.75c-5.35,0.99-10.81,1.75-16.1,3.02
				c-4.99,1.21-8.79,4.98-8.86,10.3c1.64-0.22,3.27-0.44,4.91-0.66c0.02,0.24-0.03,0.46-0.15,0.66c-0.05,0.19-0.18,0.3-0.38,0.33
				c-0.03,0.13-0.03-0.08-0.02,0.02c0,0.03,1.19,0.95,1.25,1c1.11,1.06,2.26,2.02,3.78,2.41
				C654.5,233.46,655.83,228.64,652.71,227.83L652.71,227.83z"/>
		</g>
	</g>
	<g>
		<g>
			<path class="st0" d="M688.78,168c2.19,4.68,4.67,9.23,7.4,13.61c0.69,1.11,2.26,1.64,3.42,0.9c1.11-0.72,1.64-2.23,0.9-3.42
				c-2.74-4.39-5.21-8.93-7.4-13.61c-0.56-1.19-2.36-1.58-3.42-0.9C688.45,165.37,688.18,166.73,688.78,168L688.78,168z"/>
		</g>
	</g>
	<g>
		<g>
			<path class="st0" d="M707.89,166.66c-0.12,2.62-0.59,5.04-1.54,7.74c-0.45,1.28-0.82,2.11-1.5,3.4
				c-0.66,1.25-1.42,2.44-2.25,3.58c-0.77,1.06-0.21,2.83,0.9,3.42c1.3,0.69,2.6,0.23,3.42-0.9c3.65-5.01,5.69-11.07,5.98-17.25
				c0.06-1.31-1.19-2.56-2.5-2.5C708.99,164.22,707.96,165.25,707.89,166.66L707.89,166.66z"/>
		</g>
	</g>
	<g>
		<g>
			<path class="st0" d="M671.57,181.04c1.67,0.25,3.35,0.51,5.02,0.75c1.73,0.25,3.48,0.48,5.21,0.01c3.33-0.91,4.78-3.96,5.74-6.98
				c0.4-1.25-0.47-2.78-1.75-3.08c-1.36-0.31-2.65,0.41-3.08,1.75c-0.16,0.52-0.36,1.02-0.53,1.54c-0.11,0.34,0.18-0.38,0.03-0.06
				c-0.05,0.11-0.11,0.23-0.16,0.35c-0.12,0.25-0.26,0.5-0.41,0.74c-0.02,0.03-0.19,0.32-0.21,0.31c0,0,0.33-0.37,0.05-0.07
				c-0.08,0.09-0.16,0.18-0.25,0.27c-0.04,0.03-0.46,0.35-0.17,0.16c0.35-0.23-0.62,0.32-0.3,0.17c0.26-0.12-0.14,0.04-0.2,0.06
				c-0.17,0.05-0.34,0.08-0.51,0.12c0.21-0.06,0.31-0.02,0.03-0.01c-0.14,0.01-0.29,0.02-0.43,0.02c-0.29,0.01-0.58-0.01-0.87-0.03
				c-0.18-0.01-0.37-0.03-0.55-0.05c-0.05-0.01-0.52-0.06-0.21-0.02c0.3,0.04-0.16-0.02-0.21-0.03c-0.16-0.02-0.32-0.05-0.49-0.07
				c-1.48-0.22-2.95-0.44-4.43-0.66c-1.29-0.19-2.75,0.32-3.08,1.75C669.55,179.16,670.19,180.83,671.57,181.04L671.57,181.04z"/>
		</g>
	</g>
	<g>
		<g>
			<path class="st0" d="M750.66,140.58c-3.48-0.31-6.18,2.35-7.76,5.17c-1.84,3.28-2.99,7.11-4.03,10.71
				c-2.18,7.51-3.34,15.28-4.16,23.04c-0.47,4.47-0.82,8.95-1.16,13.43c-0.1,1.35,1.22,2.5,2.5,2.5c1.44,0,2.4-1.15,2.5-2.5
				c0.69-9.03,1.38-18.09,3.16-26.99c0.89-4.45,2.05-8.85,3.59-13.12c0.84-2.33,2.27-7.51,5.36-7.24c1.35,0.12,2.5-1.23,2.5-2.5
				C753.16,141.63,752.01,140.7,750.66,140.58L750.66,140.58z"/>
		</g>
	</g>
	<g>
		<g>
			<path class="st0" d="M655.8,228.56c-3.69-2.39-7.42-4.77-10.75-7.66c-3.28-2.85-5.84-6.35-8.94-9.37
				c-6.08-5.92-14.03-9.31-21.94-12.03c-1.28-0.44-2.73,0.5-3.08,1.75c-0.38,1.37,0.46,2.64,1.75,3.08
				c7.54,2.59,15.08,5.84,20.68,11.7c3,3.14,5.65,6.5,9.02,9.28c3.39,2.79,7.06,5.2,10.74,7.58
				C655.99,234.63,658.49,230.3,655.8,228.56L655.8,228.56z"/>
		</g>
	</g>
	<g>
		<g>
			<path class="st0" d="M610.54,202.91c0.17-0.23,0.35-0.45,0.52-0.68c0.68-0.6,0.77-0.8,0.25-0.61c0,0,0.08-0.04,0.11-0.02
				c-0.1-0.07-0.7-0.18-0.96-0.3c-0.49-0.22-0.84-0.5-1.17-0.89c-0.51-0.6,0.48-0.13-0.13-0.09c0.03,0,0.03,0.01,0.05,0.02
				c0.83,0.2,1.65,0.26,2.49,0.54c4.01,1.36,7.58,3.87,11.12,6.12c2.01,1.27,4.01,2.55,6.02,3.82c1.87,1.19,3.89,2.28,5.63,3.66
				c1.58,1.25,2.66,3,4.05,4.44c1.41,1.46,3.03,2.74,4.72,3.86c3.77,2.51,8.06,4.18,12.32,5.64c3.05,1.04,4.36-3.79,1.33-4.82
				c-4.46-1.52-9.03-3.32-12.74-6.3c-1.99-1.6-3.39-3.64-5.16-5.45c-1.99-2.03-4.62-3.43-7.01-4.94c-4.76-3.02-9.44-6.36-14.47-8.93
				c-2.34-1.19-4.95-2.41-7.6-2.62c-2.78-0.22-5.33,1.48-5.61,4.37c-0.3,3.16,2.11,5.37,4.83,6.4c2.51,0.94,6.61,0.24,6.41-3.22
				C615.36,199.71,610.35,199.69,610.54,202.91L610.54,202.91z"/>
		</g>
	</g>
	<g>
		<g>
			<path class="st0" d="M608.81,199.61c3.53-2.05,7.73-0.75,11.02,1.15c4.07,2.35,7.79,5.43,11.55,8.24
				c7.68,5.73,15.23,11.65,22.18,18.26c2.33,2.22,5.87-1.31,3.54-3.54c-5.9-5.61-12.24-10.73-18.72-15.67
				c-3.22-2.45-6.47-4.86-9.73-7.26c-3.25-2.4-6.47-4.83-10.3-6.23c-3.91-1.43-8.41-1.39-12.06,0.73
				C603.51,196.91,606.02,201.23,608.81,199.61L608.81,199.61z"/>
		</g>
	</g>
	<g>
		<g>
			<path class="st0" d="M653.27,221.87c-7.84-11.11-18.83-19.56-31.55-24.33c-1.26-0.47-2.74,0.53-3.08,1.75
				c-0.39,1.4,0.48,2.6,1.75,3.08c11.42,4.28,21.53,12.07,28.57,22.03c0.78,1.1,2.18,1.62,3.42,0.9
				C653.46,224.65,654.05,222.98,653.27,221.87L653.27,221.87z"/>
		</g>
	</g>
	<g>
		<g>
			<path class="st0" d="M636.26,206.64c-2.63-3.56-5.53-7.28-9.71-9.06c-5.02-2.14-9.84-0.25-14.4,2.11c-1.81,0.93-1.42,3.3,0,4.32
				c13.03,9.35,26.09,19.23,36.13,31.88c0.84,1.06,2.66,0.88,3.54,0c1.05-1.05,0.84-2.47,0-3.54
				c-10.3-12.97-23.78-23.07-37.15-32.66c0,1.44,0,2.88,0,4.32c3.12-1.61,6.66-3.4,10.13-1.76c3.02,1.43,5.2,4.3,7.14,6.92
				c0.8,1.08,2.17,1.63,3.42,0.9C636.44,209.44,637.07,207.73,636.26,206.64L636.26,206.64z"/>
		</g>
	</g>
	<g>
		<g>
			<path class="st0" d="M612.81,204.03c6.03,1.19,10.07,6.22,13.39,11.02c4.59,6.64,8.99,13.42,13.48,20.14
				c2.61,3.9,5.21,7.8,7.82,11.7c1.78,2.66,6.11,0.16,4.32-2.52c-4.8-7.18-9.6-14.37-14.4-21.55c-2.29-3.43-4.54-6.89-6.89-10.28
				c-1.92-2.77-3.96-5.51-6.42-7.83c-2.8-2.64-6.15-4.74-9.97-5.49c-1.32-0.26-2.7,0.38-3.08,1.75
				C610.72,202.19,611.47,203.77,612.81,204.03L612.81,204.03z"/>
		</g>
	</g>
	<g>
		<g>
			<path class="st0" d="M669.9,301.54c1.89-4.01,4.09-7.86,6.59-11.53c0.74-1.08,0.24-2.82-0.9-3.42c-1.27-0.67-2.63-0.26-3.42,0.9
				c-2.49,3.67-4.69,7.52-6.59,11.53c-0.56,1.18-0.37,2.75,0.9,3.42C667.59,303.02,669.31,302.8,669.9,301.54L669.9,301.54z"/>
		</g>
	</g>
	<g>
		<g>
			<path class="st0" d="M672.45,305.46c4.92,0.86,9.89,1.49,14.88,1.82c4.68,0.31,9.49,0.54,14.18,0.16
				c3.67-0.29,7.73-1.27,9.81-4.61c1.24-2,1.24-4.34,0.91-6.59c-0.34-2.27-0.83-4.52-1.12-6.8c-0.73-5.6-0.94-11.27-0.69-16.91
				c0.14-3.22-4.86-3.21-5,0c-0.2,4.52-0.1,9.04,0.32,13.54c0.22,2.31,0.51,4.62,0.87,6.91c0.3,1.89,0.98,3.94,0.84,5.87
				c-0.2,2.73-3.38,3.37-5.76,3.58c-4.26,0.36-8.63,0.18-12.89-0.06c-5.03-0.28-10.04-0.86-15-1.73c-1.33-0.23-2.69,0.36-3.08,1.75
				C670.38,303.6,671.12,305.23,672.45,305.46L672.45,305.46z"/>
		</g>
	</g>
	<g>
		<g>
			<path class="st0" d="M671.92,302.2c2.92-2.39,5.83-4.78,8.75-7.16c0.47-0.38,0.73-1.19,0.73-1.77c0-0.61-0.27-1.35-0.73-1.77
				c-0.48-0.44-1.1-0.76-1.77-0.73c-0.7,0.03-1.23,0.29-1.77,0.73c-2.92,2.39-5.83,4.78-8.75,7.16c-0.47,0.38-0.73,1.19-0.73,1.77
				c0,0.61,0.27,1.35,0.73,1.77c0.48,0.44,1.1,0.76,1.77,0.73C670.85,302.9,671.38,302.64,671.92,302.2L671.92,302.2z"/>
		</g>
	</g>
	<g>
		<g>
			<path class="st0" d="M707.38,234.83c0.17-0.49,0.35-0.97,0.55-1.44c-0.08,0.2-0.17,0.4-0.25,0.6c0.76-1.78,1.73-3.46,2.91-4.99
				c-0.13,0.17-0.26,0.34-0.39,0.51c0.26-0.34,0.53-0.67,0.81-1c0.44-0.51,0.73-1.08,0.73-1.77c0-0.61-0.27-1.35-0.73-1.77
				c-0.94-0.86-2.63-1.06-3.54,0c-2.18,2.53-3.82,5.38-4.91,8.54c-0.43,1.24,0.49,2.79,1.75,3.08
				C705.7,236.89,706.92,236.15,707.38,234.83L707.38,234.83z"/>
		</g>
	</g>
	<g>
		<g>
			<path class="st0" d="M681.87,105.6c-3.1,4.07-2.45,9.44-1.64,14.15c0.95,5.5,1.43,10.96,1.44,16.55
				c0.03,11.1-1.01,22.19,0.6,33.23c0.86,5.89,2.57,11.64,5.42,16.89c1.54,2.83,5.85,0.31,4.32-2.52
				c-4.72-8.68-5.67-18.73-5.69-28.45c-0.02-11.11,1.04-22.22-0.63-33.27c-0.68-4.51-2.57-10.04,0.49-14.05
				c0.82-1.07,0.17-2.8-0.9-3.42C684,103.95,682.69,104.53,681.87,105.6L681.87,105.6z"/>
		</g>
	</g>
	<g>
		<g>
			<path class="st0" d="M675.17,236.24c3.22,0,3.22-5,0-5C671.95,231.24,671.94,236.24,675.17,236.24L675.17,236.24z"/>
		</g>
	</g>
	<g>
		<g>
			<path class="st0" d="M646.51,232.25c-1.49-4.14-4.01-7.65-6.93-10.9c-2.74-3.06-5.7-5.95-8.87-8.57
				c-6.49-5.36-13.85-9.4-22.29-10.43c-1.34-0.16-2.5,1.27-2.5,2.5c0,1.49,1.15,2.34,2.5,2.5c7.14,0.86,13.65,4.69,19.07,9.22
				c2.83,2.37,5.49,4.97,7.99,7.68c2.53,2.75,4.93,5.76,6.21,9.31c0.46,1.27,1.7,2.12,3.08,1.75
				C645.99,234.99,646.97,233.53,646.51,232.25L646.51,232.25z"/>
		</g>
	</g>
	<g>
		<g>
			<path class="st0" d="M607.22,201.26c-0.45,0.05,0.11,0.16,0.32,0.23c0.12,0.04,0.13,0.18,0.23,0.23
				c-0.35-0.18,0.01-0.25-0.02-0.02c0-0.02-0.1-0.4-0.04-0.13c0.07,0.31,0.09-0.35-0.01-0.06c-0.05,0.16,0.34-0.62,0-0.14
				c-0.23,0.31-0.11,0.02,0.2-0.06c0.29-0.08,0.62-0.08,0.92-0.05c0.81,0.08,1.63,0.41,2.37,0.74c2.78,1.22,5.42,2.84,7.88,4.61
				c4.88,3.51,9.09,7.95,12.95,12.53c8.07,9.56,14.79,20.28,23.68,29.14c4.9,4.88,10.51,9.14,16.88,11.9
				c1.24,0.54,2.68,0.37,3.42-0.9c0.62-1.06,0.35-2.88-0.9-3.42c-12.42-5.38-20.99-16.18-28.97-26.7
				c-8.22-10.84-16.47-22.4-28.43-29.4c-3.56-2.09-8.85-5.19-12.84-2.49c-3.41,2.3-2.56,9.55,2.34,8.99c1.34-0.15,2.5-1.04,2.5-2.5
				C609.72,202.53,608.57,201.1,607.22,201.26L607.22,201.26z"/>
		</g>
	</g>
	<path class="st1" d="M724.69,299.2c0.6-3.55-4.2-5.06-5.46-13.75c-0.36-2.52-0.84-8.47-0.84-15c0,0,0,0,0,0
		c2.06-0.13,3.63-0.53,4.62-0.83c23.97-7.47,29.23-61.41,29.38-81.67c0.04-5.29-0.26-9.29,0.84-15.83
		c1.4-8.28,6.04-26.51,6.71-29.17c0.91-3.55,1.75-6.8,0-8.75c-2.85-3.18-10.49-0.56-10.91-0.42c-16.93,5.99-19.62,41.86-20.56,41.67
		c-0.79-0.16,2.68-25,4.2-35.83c0.11-0.81,1.08-7.98,0.84-17.5c-0.37-14.59-2.7-16.97-4.2-17.92c-3.21-2.03-7.88-1.09-10.89,0.72
		c-3.57,2.15-5.29,5.85-7.55,16.25c-2.67,12.3-2.87,19.11-5.04,31.67c-1.68,9.74-2.83,16.39-4.22,16.36
		c-2.49-0.04-5.62-21.38-5.64-38.45c-0.01-5.43,0.32,5.55-1.07-16.14c-0.42-6.61-0.65-10.45-3.33-14.28c-0.79-1.13-4-5.72-7.58-5.3
		c-5.05,0.59-7.38,10.76-7.97,13.33c-1.05,4.57-0.93,8.21-0.84,10.42c0.87,21.02,1.3,31.54,2.53,42.74
		c0.46,4.17,0.87,7.58,0.41,7.68c-0.66,0.14-2.51-6.66-5.88-17.5c-0.97-3.13-9.03-28.68-17.63-35.83c-2.23-1.85-5.02-2.95-5.02-2.95
		c-1.79-0.71-5.47-2.15-8.13-0.9c-1.71,0.81-3.59,3.01-4.06,9.69c-0.76,10.74,3.05,19.54,5.87,26.67c0,0,10.16,25.64,12.17,46.25
		c0.3,3.11,0.06,6.38-0.42,12.92c-0.3,4.04-0.54,5.12-1.26,5.42c-2.14,0.88-5.74-6.35-11.33-12.08
		c-9.81-10.07-27.04-16.87-37.35-11.25c-0.93,0.51-6.23,3.53-7.55,9.58c-0.17,0.78-1.87,8.31,3.36,12.5
		c2.53,2.03,4.31,0.78,9.23,2.08c4.88,1.29,7.99,3.88,11.33,6.67c5.78,4.82,8.7,9.88,13.01,17.5c5.59,9.89,5.05,11.94,9.65,17.5
		c4.74,5.72,6.09,4.5,10.49,9.58c0.92,1.07,12.34,14.62,8.81,27.92c-2.07,7.8-7.53,8.96-6.71,12.08
		C659.43,315.45,722.58,311.68,724.69,299.2z"/>
</g>
<g>
	<g>
		<rect x="64.38" y="122.49" class="st2" width="492.29" height="25.07"/>
		<rect x="64.38" y="147.57" class="st2" width="492.29" height="25.07"/>
		<rect x="64.38" y="172.64" class="st2" width="492.29" height="25.07"/>
		<rect x="64.38" y="197.71" class="st2" width="492.29" height="25.07"/>
		<rect x="64.38" y="222.78" class="st2" width="492.29" height="25.07"/>
	</g>
	<path d="M101.47,210.14c0.29-0.2-0.81-1.35-1.31-3.71c-0.19-0.89-0.95-4.46,1.09-7.64c2.28-3.54,6.57-4.28,8.08-4.54
		c1.39-0.24,4.92-0.85,8.3,1.03c4.95,2.75,5.41,8.48,5.46,9.29c0.41,6.5-4.99,10.78-6.34,11.76c-4.63,3.39-9.78,3.34-11.58,3.3
		c-7.03-0.16-15.05-3.95-18.57-11.14c-4.95-10.1,2.41-19.85,3.93-21.87c1.91-2.53,2.85-2.75,8.3-7.22
		c9.64-7.91,15.81-12.97,19.23-19.4c4.75-8.92,2.93-18.1,2.4-21.25c-0.64-3.83-1.42-9.16-5.24-14.03c-1.39-1.77-2.22-2.79-3.5-2.89
		c-4.42-0.34-10.16,10.65-11.36,21.05c-0.22,1.86-0.35,4.28,2.19,18.78c1.24,7.1,2.44,13.17,5.03,25.59
		c2.77,13.31,4.15,19.96,4.59,21.25c0.26,0.77,3.02,8.95,5.03,18.78c0.32,1.56,0.88,4.44,0.22,8.05c-0.47,2.58-1.2,6.61-4.81,9.08
		c0,0-3.76,2.58-9.26,1.83c-1.09-0.15-1.19-0.36-4.53-1.13c-0.31-0.07-1.3-0.3-1.28-0.49c0.01-0.12,0.42-0.19,0.49-0.21
		c0.36-0.06,0.65-0.01,0.68,0c0.58,0.11,2.45-0.21,3.71-0.85c1.65-0.83,2.41-2.26,2.87-3.12c0.39-0.74,2.92-5.47,0.27-9.18
		c-2.64-3.7-9.02-4.46-12.67-1.7c-3.66,2.77-2.91,7.82-2.79,8.67c0.58,3.91,3.28,6.27,4.15,7.02c4.98,4.24,11.52,3.25,12.45,3.1
		c0.51-0.09,7.04-1.27,10.54-6.81c2.23-3.52,2.07-6.95,1.86-11.56c-0.04-0.87-0.15-2.61-1.91-10.27c-1.29-5.61-1.9-7.61-3.28-13.26
		c-0.7-2.88-1.36-5.82-2.68-11.71c-2.06-9.23-3.1-14.32-3.39-15.73c-0.61-2.99-0.47-2.43-0.87-4.39c-1.95-9.45-2.7-10.81-3.17-14.7
		c-0.49-4.11-0.2-7.16,0.11-10.47c0,0,0.55-5.86,3.93-14.44c0.42-1.06,1.25-3.06,3.28-4.02c0.35-0.16,1.57-0.74,2.9-0.41
		c1.91,0.48,2.8,2.54,3.28,3.71c1.99,4.86,0.31,9.87-0.16,11.14c-0.92,2.51-3.16,5.23-7.65,10.68c-1.18,1.43-2.45,2.9-4.37,4.49
		c-1.62,1.34-2.4,1.69-4.04,2.89c-0.58,0.43-2.06,1.53-5.9,5.42c-3.69,3.73-5.53,5.6-7.32,7.94c-1.49,1.96-3.36,4.44-5.03,8.1
		c-0.77,1.69-2.26,5.02-2.84,9.6c-0.43,3.35-0.96,7.54,1.04,12.12c1.72,3.93,4.46,6.22,6.5,7.89c2.02,1.65,8.58,7.02,18.41,6.91
		c2.03-0.02,8.83-0.19,14.97-4.8c1.73-1.3,5.52-4.22,7.16-9.44c0.43-1.38,2.51-7.99-1.8-13.88c-3.41-4.65-8.92-6.26-12.13-6.45
		c-0.93-0.06-2.31-0.03-3.55,0.05c-2.12,0.14-4.44,0.3-6.61,1.13c-4.38,1.68-6.48,5.47-7.05,6.5c-0.9,1.63-2.45,4.42-1.75,7.94
		C96.17,207.46,100.94,210.51,101.47,210.14z"/>
</g>
<g>
	<g>
		<rect x="68.91" y="347.11" class="st3" width="30.55" height="129.82"/>
		<rect x="99.45" y="347.11" class="st3" width="30.55" height="129.82"/>
		<rect x="130" y="347.11" class="st3" width="30.55" height="129.82"/>
		<rect x="160.54" y="347.11" class="st3" width="30.55" height="129.82"/>
		<rect x="191.09" y="347.11" class="st3" width="30.55" height="129.82"/>
		<rect x="221.64" y="347.11" class="st3" width="30.55" height="129.82"/>
		<rect x="252.18" y="347.11" class="st3" width="30.55" height="129.82"/>
		<rect x="282.73" y="347.11" class="st3" width="30.55" height="129.82"/>
		<rect x="313.27" y="347.11" class="st3" width="30.55" height="129.82"/>
		<rect x="343.82" y="347.11" class="st3" width="30.55" height="129.82"/>
		<rect x="374.36" y="347.11" class="st3" width="30.55" height="129.82"/>
		<rect x="404.91" y="347.11" class="st3" width="30.55" height="129.82"/>
		<rect x="435.45" y="347.11" class="st3" width="30.55" height="129.82"/>
		<rect x="466" y="347.11" class="st3" width="30.55" height="129.82"/>
		<rect x="496.54" y="347.11" class="st3" width="30.55" height="129.82"/>
		<rect x="527.09" y="347.11" class="st3" width="30.55" height="129.82"/>
		<rect x="557.64" y="347.11" class="st3" width="30.55" height="129.82"/>
		<rect x="588.18" y="347.11" class="st3" width="30.55" height="129.82"/>
		<rect x="618.73" y="347.11" class="st3" width="30.55" height="129.82"/>
		<rect x="649.27" y="347.11" class="st3" width="30.55" height="129.82"/>
	</g>
	<rect x="88.91" y="347.11" class="st4" width="18.91" height="77.09"/>
	<rect x="120.54" y="347.11" class="st4" width="18.91" height="77.09"/>
	<rect x="181.64" y="347.11" class="st4" width="18.91" height="77.09"/>
	<rect x="212.18" y="347.11" class="st4" width="18.91" height="77.09"/>
	<rect x="242.73" y="347.11" class="st4" width="18.91" height="77.09"/>
	<rect x="303.82" y="347.11" class="st4" width="18.91" height="77.09"/>
	<rect x="303.82" y="347.11" class="st4" width="18.91" height="77.09"/>
	<rect x="335.45" y="347.11" class="st4" width="18.91" height="77.09"/>
	<rect x="396.54" y="347.11" class="st4" width="18.91" height="77.09"/>
	<rect x="427.09" y="347.11" class="st4" width="18.91" height="77.09"/>
	<rect x="457.64" y="347.11" class="st4" width="18.91" height="77.09"/>
	<rect x="518.73" y="347.11" class="st4" width="18.91" height="77.09"/>
	<rect x="518.73" y="347.11" class="st4" width="18.91" height="77.09"/>
	<rect x="550.36" y="347.11" class="st4" width="18.91" height="77.09"/>
	<rect x="611.45" y="347.11" class="st4" width="18.91" height="77.09"/>
	<rect x="642" y="347.11" class="st4" width="18.91" height="77.09"/>
</g>
<rect x="348.91" y="428.58" class="st5" width="18.5" height="43.88"/>
<rect x="409.71" y="428.58" class="st6" width="20.73" height="43.88"/>
<rect x="419.15" y="351.65" class="st7" width="4.41" height="116.43"/>
<rect x="288.01" y="354.06" class="st8" width="10.55" height="116.94"/>
<rect x="288.01" y="430.7" class="st8" width="20.36" height="40.3"/>
<g>
	<g>
		<g>
			<path class="st9" d="M199.15,264.66c-8.17-1.44-11.34,8.37-10.16,14.81c1.25,6.78,9.1,10.49,15.42,10.04
				c6.61-0.46,12.33-4.93,14.31-11.28c1.07-3.44,0.77-6.88-1.15-9.95c-1.83-2.92-4.09-6.02-7.32-7.44
				c-6.49-2.86-14.65-0.98-19.25,4.42c-1.55,1.83,1.09,4.49,2.65,2.65c2.97-3.49,7.75-5.32,12.3-4.5c2.64,0.47,4.61,1.7,6.26,3.8
				c1.58,2.01,3.45,4.27,3.42,6.95c-0.05,4.72-3.47,9.25-7.86,10.86c-4.59,1.69-10.43,0.63-13.63-3.24
				c-1.89-2.29-1.9-5.34-1.34-8.15c0.49-2.48,2.25-5.91,5.34-5.36C200.51,268.69,201.52,265.08,199.15,264.66L199.15,264.66z"/>
		</g>
	</g>
	<g>
		<g>
			<path class="st9" d="M173.56,277.52c21.29,0.03,42.58,0.07,63.87,0.1c2.41,0,2.42-3.75,0-3.75c-21.29-0.03-42.58-0.07-63.87-0.1
				C171.15,273.77,171.15,277.52,173.56,277.52L173.56,277.52z"/>
		</g>
	</g>
</g>
<g>
	<g>
		<path class="st5" d="M317.03,237.25c-3.67-0.59-7.26,0.97-9.37,4.05c-2.04,2.98-2.68,7.63-1.86,11.11
			c1.69,7.16,10.66,10.28,17.2,9.91c7.04-0.4,13.74-4.53,16.16-11.34c1.35-3.77,0.74-7.42-1.65-10.6c-2.3-3.06-4.77-5.86-8.44-7.22
			c-7.03-2.6-15.88-0.74-21.09,4.69c-1.67,1.74,0.98,4.4,2.65,2.65c3.51-3.67,8.93-5.23,13.91-4.6c2.86,0.36,5.37,1.44,7.34,3.56
			c1.85,1.99,4.3,4.47,4.28,7.36c-0.05,5.26-4.63,9.61-9.38,11.06c-5.11,1.55-11.6,0.69-15.47-3.23c-2.31-2.34-2.41-5.53-1.66-8.59
			c0.69-2.87,3.1-5.72,6.37-5.2c1.01,0.16,2.01-0.26,2.31-1.31C318.59,238.67,318.03,237.41,317.03,237.25L317.03,237.25z"/>
	</g>
</g>
<g>
	<g>
		<path class="st10" d="M430.74,211.34c-9.28-1.81-12.22,10.16-11.14,17.06c1.21,7.73,9.69,12.45,17.01,11.94
			c7.54-0.53,13.72-5.93,15.88-13.09c1.21-4.02,0.94-8.03-1.18-11.67c-2.01-3.45-4.54-7.2-8.28-8.89
			c-7.27-3.28-16.25-0.94-21.19,5.28c-0.63,0.8-0.77,1.87,0,2.65c0.65,0.66,2.02,0.79,2.65,0c3.27-4.11,8.69-6.51,13.95-5.49
			c1.33,0.26,2.64,0.68,3.82,1.36c1.49,0.86,2.56,2.19,3.55,3.57c1.95,2.72,3.89,5.43,3.68,8.93c-0.32,5.44-4.01,10.85-9.17,12.77
			c-5.39,2.01-12.29,0.41-15.59-4.51c-2.02-3-1.88-6.96-1.1-10.37c0.63-2.73,2.69-6.6,6.12-5.93
			C432.1,215.41,433.11,211.8,430.74,211.34L430.74,211.34z"/>
	</g>
</g>
<g>
	<g>
		<path class="st9" d="M612.03,204.01c3.22,0,3.22-5,0-5C608.81,199.01,608.81,204.01,612.03,204.01L612.03,204.01z"/>
	</g>
</g>
<g>
	<g>
		<path class="st9" d="M612.45,206.1c2.62,0,5.12-2.3,5-5c-0.12-2.71-2.2-5-5-5c-2.62,0-5.12,2.3-5,5
			C607.57,203.8,609.65,206.1,612.45,206.1L612.45,206.1z"/>
	</g>
</g>
<g>
	<g>
		<path class="st5" d="M685.06,112.6c2.62,0,5.12-2.3,5-5c-0.12-2.71-2.2-5-5-5c-2.62,0-5.12,2.3-5,5
			C680.18,110.31,682.26,112.6,685.06,112.6L685.06,112.6z"/>
	</g>
</g>
<g>
	<g>
		<path class="st11" d="M748,146.72c0.8,0,0.81-1.25,0-1.25C747.19,145.47,747.19,146.72,748,146.72L748,146.72z"/>
	</g>
</g>
<g>
	<g>
		<path class="st11" d="M750.51,145.05c0.8,0,0.81-1.25,0-1.25C749.71,143.8,749.71,145.05,750.51,145.05L750.51,145.05z"/>
	</g>
</g>
<g>
	<g>
		<path class="st10" d="M748.83,149.43c2.62,0,5.12-2.3,5-5c-0.12-2.71-2.2-5-5-5c-2.62,0-5.12,2.3-5,5
			C743.96,147.14,746.03,149.43,748.83,149.43L748.83,149.43z"/>
	</g>
</g>
<path class="st12" d="M294.7,287.91"/>
<path class="st13" d="M268.07,310.82c0.19-0.64,0.36-1.47,0-1.82c-0.33-0.32-0.82,0.03-1.47-0.12c-1.01-0.23-1.7-1.47-1.92-2.31
	c-0.62-2.41,1.92-4.79,2.26-5.1c1.03-0.94,2.44-1.7,5.76-2.07c3.99-0.44,7.21-0.8,11.06,0.97c1.16,0.53,6.12,2.82,8.24,8.26
	c0.46,1.19,0.61,2.07,0.9,3.77c0.56,3.29,1.25,7.32,0.11,11.91c-1.75,7.06-6.73,11.06-8.69,11.79c-0.84,0.31-1.81,0.49-1.81,0.49
	c-1.82,0.33-3.03,0.08-3.39,0c-0.76-0.18-1.65-0.38-1.81-0.97c-0.11-0.43,0.24-0.76,0.56-1.46c0.09-0.21,0.38-0.86,0.45-2.79
	c0.22-5.76-1.77-13.52-1.24-20.53c0.07-0.96,0.28-3.11-0.9-4.25c-0.61-0.59-1.55-0.88-2.37-0.61c-1.54,0.51-1.79,2.74-1.81,2.92
	c-0.09,0.93,0.17,1.66,0.23,1.82c0.36,1.04,0.31,1.67,0.56,8.87c0.4,11.31,0.55,10.6,0.45,11.18c-0.12,0.7-0.49,2.57,0.23,4.62
	c0.3,0.87,0.7,1.47,1.02,1.94c0.48,0.72,1.95,2.74,4.06,3.77c2.96,1.44,5.99,0.33,7.56-0.24c5.1-1.86,7.85-6.21,9.03-8.14
	c3.75-6.12,3.76-12.37,3.73-14.82c-0.04-3-0.11-8.83-3.84-14.34c-4.92-7.25-12.54-8.55-14.45-8.87c-6.23-1.06-15.04,0.22-18.63,6.07
	c-0.58,0.94-2.27,3.71-1.35,6.56c0.52,1.63,1.87,3.19,3.73,3.77C266.1,311.61,267.58,311.04,268.07,310.82z"/>
<path class="st13" d="M306.44,315.74c0.81-0.73,2.23-1.99,4.4-2.31c0.42-0.06,3.26-0.42,5.64,1.58c2.49,2.1,2.78,5.36,2.94,7.05
	c0.4,4.44-1.09,10.86-5.76,13.24c-0.52,0.27-3.28,1.67-6.21,0.49c-4.08-1.65-5.02-6.94-5.19-7.9
	C301.38,322.86,303.71,318.23,306.44,315.74z"/>
<path class="st12" d="M308.52,319.06c1.41-1.04,3.64-1.49,5.12-0.27c0.82,0.67,1.16,1.66,1.42,2.41c0.64,1.85,0.45,3.52,0.34,4.44
	c-0.18,1.45-0.53,4.21-2.47,5.65c-0.27,0.2-1.5,1.12-2.99,0.77c-0.87-0.2-1.45-0.75-1.8-1.1c-1.38-1.34-1.78-3.15-1.9-3.73
	C305.73,324.81,306.05,320.88,308.52,319.06z"/>
<path class="st14" d="M326.71,324.13c0.12-0.44,0.4-1.15,1.02-1.5c0.38-0.22,0.69-0.19,1.69-0.18c0.87,0.01,1.76,0.01,2.24,0
	c1.61-0.03,1.88-0.18,2.62,0.05c0.79,0.24,1.21,0.63,1.35,0.77c0.28,0.28,0.74,0.73,0.76,1.41c0.03,0.69-0.41,1.19-0.68,1.5
	c-0.17,0.19-0.59,0.63-1.35,0.91c-0.8,0.29-1.15,0.11-2.71,0.06c-1.76-0.06-1.96,0.16-2.92-0.1c-0.7-0.19-1.37-0.38-1.78-1.05
	C326.52,325.27,326.65,324.42,326.71,324.13z"/>
<path class="st14" d="M409.6,324.42c0.12-0.44,0.4-1.15,1.02-1.5c0.38-0.22,0.69-0.19,1.69-0.18c0.87,0.01,1.76,0.01,2.24,0
	c1.61-0.03,1.88-0.18,2.62,0.05c0.79,0.24,1.21,0.63,1.35,0.77c0.28,0.28,0.74,0.73,0.76,1.41c0.03,0.69-0.41,1.19-0.68,1.5
	c-0.17,0.19-0.59,0.63-1.35,0.91c-0.8,0.29-1.15,0.11-2.71,0.06c-1.76-0.06-1.96,0.16-2.92-0.1c-0.7-0.19-1.37-0.38-1.78-1.05
	C409.41,325.56,409.54,324.71,409.6,324.42z"/>
<path class="st15" d="M432.43,303.81c0.41-0.11,1.01-0.26,1.78-0.14c1.06,0.16,1.36,0.69,1.91,0.56c0.9-0.21,1.78-1.95,1.4-2.95
	c-0.68-1.78-5.85-2.42-9.28,0.28c-2.73,2.15-3.69,5.9-3.43,8.84c0.09,0.99,0.35,3.91,2.29,5.33c1.31,0.96,2.86,0.86,5.34,0.7
	c2.22-0.14,2.42-0.55,3.94-0.42c1.01,0.08,3.26,0.27,4.45,1.82c1.74,2.28,0.58,6.69-1.27,9.26c-2.11,2.93-6.02,4.7-8.77,3.51
	c-2.01-0.87-2.9-3.1-3.94-2.66c-0.69,0.29-0.99,1.56-0.89,2.52c0.31,3.03,4.74,4.56,5.34,4.77c0.85,0.3,6.33,2.07,10.93-1.96
	c3.48-3.05,5.16-8.28,3.94-13.04c-0.2-0.8-1.36-5.36-4.83-7.01c-1.61-0.77-3.33-0.72-4.2-0.7c-2.93,0.08-3.94,1.27-5.98,0.56
	c-0.43-0.15-1.83-0.64-2.54-2.1c-0.87-1.8-0.07-3.76,0.13-4.21C429.75,304.49,431.95,303.93,432.43,303.81z"/>
<path class="st15" d="M470.82,297.35c0.52-0.48,1.33-0.5,1.91-0.28c0.43,0.16,1.46,0.74,2.16,4.07c0.61,2.93,0.39,5.25,0.25,7.01
	c-0.56,7.27,0.24,6.4-0.38,11.36c-0.19,1.49-0.6,4.26-1.14,8.98c-0.26,2.29-0.44,4,0.53,5.39c0.71,1.03,2.12,1.98,3.28,1.62
	c1.17-0.36,1.32-1.8,2.29-1.82c0.78-0.02,1.6,0.9,1.78,1.82c0.34,1.77-1.69,3.7-3.31,4.49c-1.86,0.9-4.26,0.82-6.1-0.56
	c-2-1.5-2.5-3.89-2.8-5.33c-0.52-2.49-0.14-4.36,0.13-6.31c0.34-2.43,0.35-5.22,0.38-10.8c0.03-5.71,0.69-11.42,0.38-17.11
	C470.16,299.39,470.08,298.04,470.82,297.35z"/>
<path class="st13" d="M452.39,314.88c0.81-0.73,2.23-1.99,4.4-2.31c0.42-0.06,3.26-0.42,5.64,1.58c2.49,2.1,2.78,5.36,2.94,7.05
	c0.4,4.44-1.09,10.86-5.76,13.24c-0.52,0.27-3.28,1.67-6.21,0.49c-4.08-1.65-5.02-6.94-5.19-7.9
	C447.32,322.01,449.65,317.37,452.39,314.88z"/>
<path class="st12" d="M454.46,318.2c1.41-1.04,3.64-1.49,5.12-0.27c0.82,0.67,1.16,1.66,1.42,2.41c0.64,1.85,0.45,3.52,0.34,4.44
	c-0.18,1.45-0.53,4.21-2.47,5.65c-0.27,0.2-1.5,1.12-2.99,0.77c-0.87-0.2-1.45-0.75-1.8-1.1c-1.38-1.34-1.78-3.15-1.9-3.73
	C451.68,323.95,451.99,320.03,454.46,318.2z"/>
<g>
	<path class="st16" d="M268.98,39.55c0.29-0.4,0.69-0.64,0.73-0.67c0.18-0.11,0.44-0.27,0.79-0.3c0.8-0.08,1.41,0.56,1.45,0.61
		c0.33,0.36,0.44,0.77,0.61,1.42c0.07,0.28,0.11,0.5,0.12,0.58c0.19,1.8,0.07,5.91,0.06,7.27c-0.01,0.82,0.01,1.01,0.03,2.06
		c0.14,9.22-0.75,10.29-0.27,15.64c0,0,0.51,5.82-0.3,9.09c-0.12,0.5-0.25,0.85-0.36,1.15c-0.43,1.13-0.64,1.7-1.15,1.94
		c-0.64,0.3-1.49-0.06-2-0.48c-1.07-0.91-1.05-2.58-1.03-3.27c0.15-5.26,0.88-16.49,1.03-20.67c0.17-4.92,0.26-7.38,0-8.55
		c-0.11-0.5-0.13-1.65-0.18-3.94C268.49,41.07,268.48,40.23,268.98,39.55z"/>
	<path class="st17" d="M250.68,53.97c0.15,0.06,0.61,0.25,1.03,0.06c0.61-0.28,0.86-1.26,0.67-2c-0.19-0.71-0.78-1.12-0.91-1.21
		c-1.54-1.16-2.55-7.73-0.12-13.03c3.5-7.62,12.61-9.3,15.09-9.76c2.15-0.4,7.92-1.46,13.7,1.64c4.33,2.33,6.66,5.92,7.7,7.52
		c1.89,2.92,2.65,5.52,2.85,6.24c0.43,1.58,0.59,2.83,0.73,4.3c0.43,4.51,0.69,7.21,0.55,10.91c-0.37,9.13-2.89,15.99-4.06,19.09
		c-1.22,3.24-2.54,5.92-4.55,8.61c-1.31,1.75-2.53,3.34-4.73,4.67c-1.3,0.78-4.52,2.72-7.88,1.88c-1.37-0.34-4.04-1.47-5.76-2.79
		c-0.16-0.12-0.99-0.77-2.24-1.09c-0.7-0.18-1.5-0.39-1.82-0.06c-0.69,0.72,0.95,4.07,3.39,6.18c2.67,2.31,5.76,2.69,6.67,2.79
		c7.53,0.83,13.49-5.22,14.79-6.55c3.35-3.4,4.61-6.74,6.91-12.85c3.01-7.97,3.62-14.36,3.76-16.06c0.11-1.3,0.48-6.33-0.42-12.97
		c-0.99-7.26-1.56-11.45-4.55-15.82c-4.58-6.7-11.59-9.09-14.24-9.82c-9.21-2.54-16.76,0.8-19.15,2c-2.72,1.37-7.36,3.7-9.94,9.09
		c-2.22,4.65-1.65,8.92-1.39,10.85C247.36,50.42,249.38,53.44,250.68,53.97z"/>
	<path class="st17" d="M319.59,47.85c-0.13,0.53-1.39,0.3-2.91,0.82c-1.94,0.67-3.01,2.11-4.36,4c-2.47,3.44-3.51,6.75-3.82,7.82
		c-1.26,4.31-2.64,9.02-0.45,13.64c0.53,1.12,2.44,5.16,6.27,5.73c4.01,0.6,7.1-3.04,7.73-3.82c1.78-2.23,2.09-4.57,2.55-8.09
		c0.42-3.23,0.15-5.69-0.09-7.91c-0.35-3.18-0.52-4.78-1.36-6c-2.02-2.94-6.02-3.84-6.73-4c-2.22-0.5-3.76-0.23-3.91-0.82
		c-0.18-0.7,1.81-1.83,3-2.36c1.28-0.57,3.72-1.65,6.27-0.91c3.95,1.14,5.51,5.86,6.36,8.45c0.71,2.15,0.85,3.86,1,5.73
		c0.38,4.65-0.28,8.33-0.64,10c-1,4.68-1.75,8.21-4.82,11.09c-0.87,0.82-3.28,3.01-7,3.36c-4.32,0.41-7.49-1.95-8.27-2.55
		c-4.88-3.75-5.3-10.11-5.55-13.82c-0.52-7.94,2.7-13.42,4.91-17.18c1.25-2.13,2.84-4.24,5.36-5.09c1.77-0.6,3.17-0.28,3.55-0.18
		C318.19,46.15,319.74,47.23,319.59,47.85z"/>
	<path class="st18" d="M360.41,39.76c0.09,0.1,0.73,0.83,1.55,0.73c0.77-0.1,1.21-0.89,1.27-1c0.38-0.69,0.08-1.05,0.45-1.91
		c0.17-0.39,0.39-0.9,0.82-1.09c1.02-0.46,2.84,1.11,3.82,2.64c0.73,1.13,0.96,2.19,1.09,2.82c0.71,3.52,0.63,6.54,0.55,9.09
		c-0.13,3.81-0.19,5.71-0.23,6.82c-0.19,4.6-0.28,6.89-0.4,8.36c-0.18,2.11-0.08,4.26-0.5,6.33c-0.31,1.53-0.76,3.06,0.04,4.4
		c0.14,0.23,0.67,1.11,1.55,1.18c0.88,0.07,1.54-0.7,1.64-0.82c0.55-0.65,0.53-1.32,0.73-2.91c0.19-1.5,0.17-0.56,0.45-2.73
		c1.26-9.62,1.27-16,1.27-16c0-2.39-0.08-4.08-0.18-6.18c-0.2-4.06-0.31-6.12-0.73-7.18c-0.38-0.96-1.09-2.36-1.45-4.55
		c-0.16-0.98-0.17-1.56,0-2.18c0.06-0.2,0.59-2.06,2.36-2.73c1.04-0.39,1.98-0.16,2.64,0c0.27,0.07,1.49,0.39,2.64,1.45
		c1.12,1.04,1.55,2.22,1.82,3c0.43,1.24,0.48,2.21,0.55,3.64c0.22,5.01,0.33,7.52,0.18,9.09c-0.11,1.15-0.14,2.31-0.27,3.45
		c-0.1,0.87-0.17,1.31-0.09,2c0.1,0.86,0.23,1.98,1.09,2.55c0.98,0.64,2.5,0.28,3.27-0.55c0.37-0.4,0.51-0.84,0.73-2.45
		c0.23-1.69,0.34-2.53,0.36-3.73c0.03-1.61-0.03-3.93-0.45-6.91c-0.27-1.9-0.41-2.85-0.73-4c-0.7-2.52-1.44-3.46-1.09-5.09
		c0.14-0.64,0.42-1.19,1-2.27c0.71-1.33,1.06-2,1.82-2.55c1.21-0.87,2.55-0.83,2.82-0.82c1.71,0.08,2.86,1.17,3.36,1.64
		c1.31,1.23,2.93,3.75,3.09,11.82c0.04,2.2,0.1,5.75-0.64,10.36c-0.65,4.09-1.25,8.19-1.91,12.27c0,0-0.15,0.92-0.09,3.18
		c0.03,1.18,0.11,1.53,0.36,1.82c0.64,0.75,2.05,0.76,3,0.27c1.02-0.52,1.44-1.56,1.64-2.09c1.51-4.07,1.15-8.68,1.55-14.09
		c0.13-1.76,0.17-1.24,0.36-3.55c0.64-7.44,1.02-11.91-0.64-16.82c-0.79-2.34-1.8-5.22-4.64-7.27c-0.9-0.65-3.56-2.58-6.91-1.91
		c-2.02,0.4-4.81,1.85-5.55,4.18c-0.28,0.89-0.28,1.97-0.91,2.18c-0.46,0.15-0.92-0.25-1.64-0.73c0,0-1.46-0.98-3.36-1.73
		c-0.61-0.24-2.78-1.09-4.91-0.18c-0.4,0.17-2.05,0.87-2.73,2.45c-0.4,0.94-0.32,1.84-1,2.18c-0.31,0.16-0.63,0.11-1.18,0
		c-1.64-0.33-2.42-0.63-2.91-0.73c-1.69-0.35-3.9,0.88-4.82,2.64C359.66,36.83,359.47,38.7,360.41,39.76z"/>
	<path class="st19" d="M422.54,62.49c0.34-0.39,0.28-0.77,0.14-2.86c-0.26-3.75-0.15-3.92-0.45-6.36c-0.27-2.17-0.44-2.71-0.64-3.18
		c-0.39-0.94-0.92-2.23-2.18-2.82c-1.62-0.76-3.41,0.15-4,0.45c-1.55,0.79-2.29,1.97-3.55,3.95c-1.36,2.15-2.03,4.03-2.45,5.23
		c-0.57,1.62-0.86,2.88-1.09,3.91c-0.88,3.92-1.4,6.21-0.5,7.86c0.03,0.06,0.44,0.8,0.77,1.86c0.32,1.01,0.48,1.55,0.23,1.91
		c-0.42,0.58-1.86,0.53-2.73-0.14c-0.46-0.36-0.91-1.01-1.09-3.86c-0.17-2.79,0.05-4.36,0.05-4.36c0.93-6.71,1.39-10.07,2.23-12
		c0.85-1.97,3.17-7.33,8-9.05c2-0.71,3.49-0.47,3.82-0.41c2.64,0.48,4.18,2.45,4.68,3.09c0.3,0.39,1.31,1.74,2.05,5.27
		c0.38,1.81,0.44,4.32,0.55,9.27c0.13,5.82-0.04,5.66,0.14,6.68c0.19,1.09,0.15,1.68,0.08,2.87c-0.06,1.01-0.19,1.37-0.4,1.68
		c-0.44,0.65-1.29,1.14-2.18,1.05c-0.18-0.02-0.71-0.09-1.14-0.5c-0.45-0.44-0.53-1.02-0.59-1.59c-0.14-1.26,0.27-1.83-0.09-2.23
		c-0.24-0.27-0.64-0.24-1.14-0.23c-1.06,0.02-2.12-0.19-3.18-0.23c-0.72-0.02-1.71-0.14-3.68-0.36c-2.3-0.26-2.35-0.34-3.5-0.41
		c-1.84-0.11-1.8,0.08-2.86-0.09c-1.05-0.17-2.57-0.43-3.59-1.64c-0.25-0.29-0.71-0.85-0.77-1.68c-0.01-0.09-0.09-1.37,0.77-2.05
		c0.53-0.42,1.16-0.38,2.41-0.27c1.28,0.11,1.88,0.34,3.41,0.64c0.82,0.16,1.38,0.23,2.41,0.36c1.76,0.23,2.39,0.21,5.36,0.41
		C421.4,62.91,422.06,63.03,422.54,62.49z"/>
	<path class="st20" d="M435.95,49c0.64,0.13,1.05,0.77,1.21,1.03c0.06,0.09,0.3,0.48,0.42,1.15c0.15,0.81,0.03,1.47,0,1.64
		c-1.02,5.7,0.24,9.03,0.24,9.03c0.31,0.81,0.81,1.63,1.82,3.27c0.54,0.88,0.81,1.25,1.27,1.58c1.08,0.76,2.31,0.69,2.67,0.67
		c2.39-0.15,3.92-2.13,4.24-2.55c0.99-1.28,1.24-2.57,1.7-5.09c0.42-2.31,0.52-4.26,0.61-6c0.1-1.99,0.67-3.95,0.73-5.94
		c0.01-0.4,0.03-1.17,0.55-1.58c0.65-0.5,1.87-0.28,2.55,0.36c0.51,0.49,0.63,1.14,0.67,1.39c0.64,4.01-0.06,10-0.06,10
		c-0.48,4.1-0.53,4.98-1.21,6.48c-0.65,1.44-1.48,2.57-2.06,3.27c-1.48,1.78-2.22,2.68-3.52,3.15c-0.54,0.2-1.46,0.43-1.88,1.21
		c-0.18,0.34-0.28,0.8-0.3,0.91c-0.14,0.65-0.11,1.16-0.1,1.33c0.15,2.52-0.17,2.84,0.1,8.49c0.01,0.11,0.03,0.56-0.06,1.15
		c-0.12,0.83-0.29,1.93-1.15,2.48c-0.61,0.39-1.27,0.33-1.52,0.3c-0.18-0.02-1.14-0.11-1.64-0.79c-0.48-0.64-0.31-1.51-0.24-1.88
		c0.88-4.92-0.35-8.8,0.48-11.27c0.06-0.18,0.27-0.78,0-1.09c-0.23-0.26-0.69-0.2-0.85-0.18c-1.21,0.1-2.56-1.39-3.33-2.24
		c-2.27-2.51-3.38-7.17-3.45-7.52c-1.33-5.82-0.92-11.09,0.67-12.3C434.71,49.32,435.3,48.87,435.95,49z"/>
	<path class="st21" d="M479.47,51.85c0.23,0.08,0.61,0.26,1.03,0.12c0.7-0.24,1.14-1.26,1.03-2.12c-0.15-1.11-1.21-1.74-1.45-1.88
		c-2.54-1.4-6.39,1.29-6.97,1.7c-2.37,1.66-3.52,3.73-4.48,5.52c-0.36,0.66-1.95,3.67-2.67,8.42c-0.57,3.75-1.08,7.09,0.42,10.91
		c0.6,1.52,2.13,5.41,6.24,7.33c4.81,2.25,9.5,0.14,10.3-0.24c5.5-2.6,7.19-8.49,8.18-11.94c1.43-4.96,0.83-9,0.55-10.79
		c-0.6-3.76-1.78-5.74-2.18-6.36c-0.58-0.91-2.54-3.98-5.33-4.3c-1.04-0.12-2.04,0.16-2.3,0.24c-0.71,0.21-1.69,0.5-1.88,1.21
		c-0.09,0.36,0.05,0.69,0.15,0.9c0.42,0.93,1.32,1.32,1.91,1.65c0,0,1.41,0.77,3.09,2.67c1.04,1.18,1.48,2.34,1.88,3.39
		c0.21,0.56,1.14,3.14,0.85,6.61c-0.25,3.01-1.29,5.14-1.94,6.42c-0.75,1.5-1.68,3.31-3.64,4.91c-0.96,0.78-2.14,1.75-3.88,2
		c-2.57,0.37-4.64-1.06-5.03-1.33c-5.53-3.96-2.72-15.28-2.42-16.48c0.88-3.56,2.14-5.17,3.15-6.12
		C474.44,53.93,477.45,51.15,479.47,51.85z"/>
	<path class="st22" d="M507.16,49.73c0.88-0.23,1.45,0.12,1.45,0.12c0.7,0.42,0.83,1.39,0.91,2c0.19,1.54-0.24,2.78-0.3,2.97
		c-0.05,0.15-0.4,2.26-1.09,6.48c-0.53,3.26-0.75,6.75-0.97,10.36c-0.04,0.71-0.14,2.31-0.91,4.18c-0.51,1.24-0.96,2.33-2.06,3.03
		c-1.6,1.01-3.45,0.54-5.09,0.12c-1.44-0.37-2.5-0.64-3.03-1.64c-0.5-0.94-0.47-2.42,0.42-3.21c0.69-0.61,1.6-0.56,1.76-0.55
		c1.01,0.08,1.71,0.8,1.76,0.85c0.36,0.38,0.44,0.71,0.85,0.85c0,0,0.39,0.14,0.91-0.06c1.29-0.5,1.22-8.55,1.64-13.88
		C503.95,54.38,505.5,50.16,507.16,49.73z"/>
	<path class="st22" d="M500.01,53c0.15-0.05,0.57-0.18,0.73-0.55c0.25-0.56-0.24-1.45-0.24-1.45c0,0-0.79-1.54-0.42-4.36
		c0.28-2.2,2.52-3.58,3.58-4.24c2.92-1.84,5.97-1.53,7.21-1.39c1.45,0.16,3.19,0.36,4.79,1.64c2.02,1.62,2.54,3.96,3.09,6.42
		c0.38,1.71,0.71,3.18,0.3,5.09c-0.15,0.73-0.77,3.63-3.27,5.27c-0.61,0.4-1.77,1.16-3.33,1.21c-1.2,0.04-1.91-0.37-2.61,0.12
		c-0.65,0.45-0.83,1.34-0.79,1.94c0.1,1.55,1.72,2.32,1.94,2.42c0.81,0.37,1.7,0.36,1.7,0.36c0.67-0.01,0.87-0.19,1.15-0.06
		c0.63,0.29,0.56,1.63,0.55,2.73c-0.03,1.6,0.2,3.19,0.18,4.79c-0.07,5.58-0.04,4.93-0.06,5.58c-0.06,1.49-0.17,3.57-0.97,10.79
		c-0.68,6.1-0.81,6.59-0.79,8.48c0.06,4.12,0.09,6.39,1.76,8.36c1.78,2.1,5.05,3.42,7.88,2.55c1.98-0.61,3.15-2.11,4.06-3.27
		c0.65-0.84,1.72-2.24,2-4.3c0.23-1.68-0.2-2.82-0.48-3.58c-0.37-0.99-0.68-1.18-0.91-1.21c-0.41-0.07-0.88,0.3-1.07,0.7
		c-0.18,0.4-0.02,0.68-0.02,1.18c-0.01,0.53-0.2,0.96-0.73,1.76c-1.7,2.58-2.55,3.87-3.82,4.24c-1.07,0.31-2.64,0.26-3.58-0.67
		c-0.65-0.65-0.77-1.5-0.85-3.09c-0.18-3.94,0.12-6.06,0.12-6.06c0.96-6.76,0.97-6.67,1.09-7.58c0.71-5.52,0.49-9.99,0.36-12.48
		c-0.07-1.41-0.11-4.06-0.55-5.94c-0.29-1.28-0.44-1.92-0.67-2.42c-0.32-0.72-0.59-1.02-0.48-1.39c0.19-0.69,1.39-0.8,2.12-1.03
		c2.9-0.89,4.11-5.2,4.61-6.97c0.87-3.1,0.48-5.66,0.24-7.09c-0.39-2.39-1.08-6.56-4.55-9.52c-3.65-3.11-8.11-2.94-10.67-2.85
		c-2.44,0.09-6.86,0.25-10.12,3.58c-0.84,0.86-3.46,3.82-2.97,7.45c0.28,2.09,1.52,3.9,2.73,4.55
		C498.55,52.86,499.27,53.25,500.01,53z"/>
</g>
<g>
	<path class="st13" d="M352.38,308.37c0.24,0.61,0.51,0.77,0.59,0.82c0.34,0.19,0.82,0.21,1.05,0c0.24-0.22-0.14-0.59,0.05-1.14
		c0.07-0.22,0.26-0.56,0.5-0.59c0.46-0.07,1,1.04,1.32,1.82c1.23,2.96,1.4,5.95,1.41,6.23c0.24,5.07,0.32,8,0.32,8
		c0.09,3.5,0.16,6.13,0.14,7.77c-0.01,0.76,0.03,1.52,0,2.27c-0.04,0.92-0.1,1.15,0.05,1.55c0.25,0.68,0.93,1.33,1.82,1.45
		c0.61,0.08,1.36-0.08,1.82-0.59c0.35-0.39,0.43-0.85,0.45-1.05c0.61-4.22,0.09-11.77,0.09-11.77c-0.2-2.92-0.12-3.5-0.41-5.68
		c-0.29-2.19-0.64-3.72-1.09-5.14c-0.65-2.02-0.97-3.03-1.77-3.77c-0.32-0.3-0.65-0.52-0.68-0.91c-0.07-0.85,1.31-1.83,2.59-2.05
		c1.75-0.3,3.14,0.84,3.27,0.95c1.07,0.91,1.43,2.17,1.82,5.27c0.44,3.58,0.71,5.36,0.55,7.55c0,0-0.25,3.37,0.18,6.55
		c0.02,0.12,0.08,0.55,0.32,1.05c0.09,0.19,0.86,1.79,2.27,1.86c0.78,0.04,1.38-0.4,1.64-0.59c0.21-0.16,0.66-0.5,0.91-1.09
		c0.22-0.52,0.15-0.9,0.09-1.82c-0.07-1.16,0.04-0.44-0.05-2.05c-0.17-3.06-0.3-5.28-0.86-8.05c-0.27-1.34-0.45-2.2-0.82-3.41
		c-0.65-2.14-1.09-2.7-0.91-3.82c0.25-1.59,1.45-2.54,1.64-2.68c0.41-0.31,1.33-1,2.45-0.86c1.45,0.17,2.3,1.59,2.77,2.41
		c1.14,1.96,1.19,3.86,1.23,5.91c0.11,6.79,0.09,8.36,0.09,8.36c-0.03,1.85-0.1,6.91-0.05,9.36c0.05,2.3,0.23,2.2,0.14,3.45
		c-0.03,0.37-0.05,0.54,0.05,0.77c0.61,1.45,4.64,1.55,5.23,0.36c0.1-0.2,0.03-0.29,0-1.18c-0.03-0.87,0.02-1.34,0.05-1.95
		c0.04-1.02,0.15-6.38,0-11.09c-0.19-5.73-0.28-8.6-1.32-11.5c-0.92-2.58-2.08-4.39-3.59-5.82c-1.13-1.08-2.94-2.79-5.23-2.59
		c-0.66,0.06-2.36,0.36-3.55,1.64c-0.84,0.9-1.23,2.09-2.18,2.14c-0.22,0.01-0.39-0.04-0.73-0.18c-1.49-0.61-1.95-1.1-2.73-1.45
		c-1.35-0.61-3.07-0.54-4.14,0.09c-0.54,0.32-0.95,0.68-0.95,0.68c-0.77,0.68-0.79,1.05-1.23,1.14c-0.36,0.08-0.76-0.15-1.55-0.59
		c-0.6-0.34-0.62-0.45-0.91-0.5c-0.74-0.13-1.4,0.46-1.5,0.55c-0.71,0.63-0.8,1.52-0.86,2.14C352.11,307,352.1,307.66,352.38,308.37
		z"/>
	<path class="st13" d="M385.33,323.46c0.26,0.24,0.59,0.55,1.05,0.55c0.3-0.01,0.58-0.15,0.73-0.23c0.39-0.2,0.46-0.38,0.64-0.36
		c0.31,0.03,0.49,0.65,0.55,0.86c0.54,1.96,0.59,3,0.59,3c0.07,1.54,0.11,2.3,0.05,3.32c-0.08,1.15-0.21,1.68,0.05,2.5
		c0.13,0.43,0.33,1.06,0.91,1.5c0.9,0.68,2.42,0.59,3.18-0.18c0.48-0.48,0.55-1.11,0.59-1.45c0.4-3.66-0.09-6.41-0.09-6.41
		c-0.52-2.93-0.79-4.42-1.64-5.5c-0.46-0.59-1.64-2.11-3.5-2.18c-1.33-0.05-2.3,0.67-2.59,0.91c-0.34,0.28-1.5,1.22-1.32,2.36
		C384.62,322.8,385.1,323.25,385.33,323.46z"/>
	<path class="st13" d="M387.2,310.69c0.36-0.54,1.02-0.61,1.23-0.64c0.21-0.02,1.21-0.09,1.73,0.68c0.41,0.63,0.25,1.41-0.09,1.91
		c-0.05,0.07-0.61,0.85-1.5,0.77c-0.89-0.08-1.3-0.95-1.36-1.09C387.13,312.19,386.75,311.36,387.2,310.69z"/>
</g>
<rect x="359.09" y="354.06" class="st23" width="10.06" height="118.39"/>
</svg>
