<?xml version="1.0" encoding="utf-8"?>
<!-- Generator: Adobe Illustrator 26.3.0, SVG Export Plug-In . SVG Version: 6.00 Build 0)  -->
<svg version="1.1" xmlns="http://www.w3.org/2000/svg" xmlns:xlink="http://www.w3.org/1999/xlink" x="0px" y="0px"
	 viewBox="0 0 810.71 496.06" style="enable-background:new 0 0 810.71 496.06;" xml:space="preserve">
<style type="text/css">
	.st0{fill:#EDAE5D;stroke:#EDAE5C;stroke-width:0.75;stroke-miterlimit:10;}
	.st1{fill:none;stroke:#000000;stroke-width:3;stroke-miterlimit:10;}
	.st2{fill:#EFDEDE;}
	.st3{fill:none;stroke:#CDAAA8;stroke-width:3;stroke-miterlimit:10;}
	.st4{fill:#FFFFFF;stroke:#000000;stroke-width:3;stroke-miterlimit:10;}
	.st5{stroke:#000000;stroke-width:3;stroke-miterlimit:10;}
	.st6{fill:#8FC46F;}
	.st7{fill:#EE706F;}
	.st8{fill:#EE706F;stroke:#8FC46F;stroke-width:0.25;stroke-miterlimit:10;}
	.st9{fill:#EDAE5D;stroke:#EDAE5D;stroke-miterlimit:10;}
	.st10{fill:#EDAE5D;}
	.st11{fill:#EE7070;}
	.st12{fill:#FFFFFF;}
	.st13{fill:#263680;}
	.st14{fill:#23398A;}
	.st15{fill:#35398E;}
</style>
<g id="Capa_1">
</g>
<g id="Capa_2">
</g>
<g id="Capa_3">
	<path class="st0" d="M268.21,39.98c-1.59,4.64-0.91,7.64-0.97,14.11c-0.07,7.43-0.32,10.58-0.32,10.58
		c-0.3,3.82-0.68,5.89,0.65,7.06c1.31,1.15,3.86,1.06,5.51,0c2.56-1.64,2.1-5.04,2.59-12.83c0.79-12.57,2.8-16.68-0.32-20.2
		c-0.29-0.32-2.53-2.79-4.54-2.24C269.58,36.79,268.85,38.13,268.21,39.98z"/>
	<path class="st0" d="M264,80.23c1.64,0.74,2.02,2.11,2.92,3.21c2.36,2.89,7.24,2.61,8.1,2.57c1.11-0.06,4.59-0.44,9.08-4.97
		c6.53-6.61,10.84-17.65,10.37-29.51c-0.13-3.38-0.74-14.84-8.75-24.05c-2.35-2.7-5.67-6.4-11.02-7.06
		c-1.76-0.22-6.45-1.05-9.4,2.08c-1.77,1.87-2.44,5.1-1.95,7.7c0.42,2.21,1.66,3.65,0.97,5.77c-0.14,0.44-0.49,1.52-1.3,1.76
		c-1.5,0.45-3.86-2.23-4.86-4.33c-2.17-4.52-0.28-11.02,3.57-15.07c4.62-4.87,11.8-5.9,17.18-4.33c4.4,1.28,6.91,4.1,10.7,8.34
		c5.68,6.36,8.29,12.58,8.91,14.11c5.72,14.13,2.8,26.9,2.11,29.67c-1.31,5.26-3.86,15.48-13.13,22.13
		c-2.24,1.61-9.82,7.05-17.67,4.65c-3.75-1.15-7.87-4.18-8.91-8.18c-0.1-0.39-0.94-3.71,0.49-4.65
		C262.31,79.48,263.73,80.11,264,80.23z"/>
	<path class="st0" d="M333.53,40.14c-1.08,0.52-2.26-0.67-3.73-1.12c-3.38-1.04-7.21,2.2-8.59,3.37
		c-4.92,4.16-7.18,11.48-5.35,17.64c0.54,1.82,1.55,5.38,4.54,6.57c4.27,1.7,9.3-2.74,10.37-3.69c6.57-5.81,6.37-14.75,6.32-16.68
		c-0.11-4.73-1.66-8.68-3.16-10.58c-1.73-2.19-3-3.05-3-3.05c-1.17-0.79-1.87-0.91-1.95-1.44c-0.13-1.01,2.18-2.59,4.21-2.73
		c4.12-0.27,7.48,5.4,8.27,6.73c4.15,7.01,4.38,16.9,0.32,24.86c-3.11,6.11-7.83,9.28-12.16,12.19c-1.31,0.88-2.74,1.72-4.7,2.08
		c-4.67,0.88-8.62-1.6-9.4-2.08c-6.87-4.3-8.43-14.83-6.97-22.29c0.25-1.27,2.22-10.57,10.21-15.39c1.66-1,4.93-2.92,8.91-2.24
		c2.94,0.5,6.7,2.48,6.97,5.13C334.77,38.42,334.4,39.73,333.53,40.14z"/>
	<path class="st0" d="M365.4,16.25c0.32,0.94,1.38,1.32,1.8,1.53c3.26,1.61,3.14,9.82,3.09,14.8c-0.04,4.08,0.27,8.18,0,12.25
		c-0.61,9.3-0.63,19.99-0.52,27.06c0.08,4.81,0.32,3.73,0.26,6.38c-0.07,2.95-0.37,4.32,0.52,5.87c0.76,1.33,2.44,2.9,3.61,2.55
		c1.74-0.51,1.61-5.08,1.55-15.57c0,0-0.06-10.27,0-19.91c0.03-4.79,0.12-9.58,0-16.85c-0.16-9.59-0.5-11.86-1.8-13.78
		c-0.3-0.44-1.25-1.76-1.03-3.32c0.21-1.45,1.39-2.84,2.83-3.32c2.83-0.94,5.57,1.93,5.92,2.3c2.12,2.22,2.43,5.06,2.58,6.64
		c0.99,10.73,0,20.67,0,20.67c-0.41,4.1-0.96,8.44,1.03,13.02c0.5,1.15,1.47,3.31,2.83,3.32c1.75,0.01,2.98-3.75,3.09-4.08
		c1.36-4.26-0.54-6.92-1.29-12.51c-0.62-4.62,0.58-3.46,0.26-10.46c-0.39-8.31-0.86-12.44-2.58-15.57c-0.35-0.64-1.21-2.1-0.64-3.24
		c0.62-1.24,2.7-1.64,3.77-1.48c4.71,0.7,6.31,14.87,6.92,20.29c1.63,14.44,0.58,29.31,0,34.46c-0.32,2.88-0.18,5.8-0.43,8.69
		c-0.22,2.62-0.45,4.37,0.43,6.37c0.22,0.5,1.53,3.88,3.35,3.83c1.38-0.04,2.33-2.01,2.83-3.06c1.44-2.99,1.32-5.7,1.29-8.17
		c-0.11-7.36,0.77,5.74,0.26-9.95c-0.38-11.54-0.73-15-1.03-22.72c-0.38-9.85-0.1-11.85-1.29-16.59c-1.43-5.7-3.39-8.97-4.38-10.46
		c-2.71-4.12-4.21-7.31-7.21-7.66c-2.06-0.24-4.7,0.79-5.53,2.56c-0.66,1.41,0.01,2.93-0.43,3.09c-0.53,0.19-1.29-2.15-3.19-3.45
		c-1.49-1.01-3.91-1.56-5.89-0.77c-2.92,1.18-3.49,4.77-5.12,4.55c-1-0.14-1.08-1.53-2.32-1.68c-1.38-0.16-2.57,1.43-2.75,1.68
		C365.93,13.9,365.02,15.13,365.4,16.25z"/>
	<path class="st0" d="M413.28,40.88c-0.37-0.13-0.62,0.25-1.11,0.19c-0.78-0.09-1.48-1.2-1.55-2.2c-0.1-1.44,1.1-2.43,1.4-2.68
		c0.84-0.69,1.75-0.88,2.12-0.96c5.31-1.04,7.66-1.13,10.82-1.72c1.86-0.35,3.03-0.69,4.73-0.34c0.69,0.14,2.01,0.44,3.04,1.53
		c0.2,0.21,0.67,0.76,1.3,2.78c0.34,1.09,0.81,2.62,0.97,4.88c0.18,2.55,0.27,3.82-0.53,4.93c-0.08,0.12-1.35,1.98-2.85,1.72
		c-1.1-0.19-1.68-1.41-1.84-1.72c-0.48-1-0.23-1.59-0.29-3.69c-0.06-2.22-0.1-3.34-0.77-3.83c-0.53-0.38-0.85-0.01-3.19,0.24
		c-1.71,0.18-3.4,0.53-5.12,0.57c-0.26,0.01-0.79,0.02-1.11,0.38c-0.39,0.46-0.2,1.21-0.14,1.44c0.55,2.27,0.13,4.67,0.43,6.99
		c0,0,0.14,2.51-0.1,7.18c-0.04,0.8,0.07,1.6,0.05,2.39c-0.01,0.47-0.03,0.64,0.1,0.81c0.26,0.34,0.84,0.32,2.99,0
		c1.64-0.24,1.9-0.32,2.41-0.19c1.05,0.27,1.65,1.02,1.79,1.2c0.17,0.22,0.79,1.06,0.68,2.15c-0.12,1.22-1.07,1.96-1.5,2.3
		c-0.9,0.71-2.54,1.47-4.35,1.34c-0.68-0.05-1.39-0.23-1.79,0.19c-0.31,0.32-0.26,0.83-0.24,1.01c0.37,4.02,1.01,10.99,0.24,13.83
		c-0.06,0.22-0.23,0.8,0.05,1.29c0.39,0.7,1.4,0.77,2.75,0.91c4.27,0.44,5.04,0.79,5.55,0.19c0.35-0.41,0.23-0.84,0.1-2.3
		c-0.26-2.92-0.47-5.59,0.77-7.61c0.68-1.11,1.42-1.4,1.69-1.48c0.17-0.06,1.14-0.34,1.93,0.14c0.38,0.23,0.6,0.57,1.01,1.2
		c0.18,0.27,0.31,0.48,0.43,0.77c0.31,0.74,0.26,1.43,0.24,1.68c-0.08,1.19-0.27,6.62,0.19,10.58c0.09,0.74,0.13,0.87,0.05,1.15
		c-0.64,2.16-5.66,2.36-11.45,2.58c0,0-2.68,0.1-7.73-0.81c-0.43-0.08-1.54-0.3-2.56-1.1c-0.24-0.19-0.45-0.36-0.63-0.62
		c-0.64-0.95-0.31-2.38,0.19-3.3c0.7-1.27,1.62-1.34,1.79-2.5c0.01-0.08,0.01-0.06,0-1.13c0-1.05,0-1.56,0-1.89
		c0-1.63-0.13-3.48-0.15-3.71c-0.19-2.9-0.12-28.57-0.2-32.79C413.95,42.48,413.91,41.11,413.28,40.88z"/>
	<path class="st0" d="M446.99,90.37c0.54-0.88,0.42-1.83,0.39-2.11c-0.52-4.87,3.08-29.78,1.84-43.84
		c-0.05-0.51-0.21-2.28,0.19-2.39c0.42-0.11,1.21,1.68,2.8,4.98c2.94,6.09,4.68,9.13,6.37,9c0.61-0.05,1.17-0.5,1.64-0.19
		c0.6,0.39,0.44,1.59,0.39,2.01c-0.73,5.83,0.87,9.33-0.97,18.38c-0.23,1.14-0.32,2.42-0.48,4.98c-0.13,2.04-0.1,2.79,0.39,3.54
		c0.69,1.05,2.07,1.77,3.48,1.63c2.16-0.22,3.13-2.33,3.28-2.68c0.54-1.19,0.37-2.15,0.29-3.64c-0.12-2.31,0.18-2.24,0.39-6.32
		c0.72-14.37-1.75-41.25-0.48-46.42c0.06-0.23,0.31-1.19-0.13-2.14c-0.55-1.2-2.22-2.37-3.57-1.79c-0.74,0.32-1.06,1.06-1.35,1.75
		c-0.57,1.36-0.4,2.53-0.29,3.86c0.13,1.55,0.08,3.11,0.16,4.66c0.07,1.4,0.08,3.75,0.1,8.45c0.01,1.6,0.1,2.68,0,4.85
		c-0.06,1.26-0.13,1.82-0.39,1.88c-0.48,0.13-1.29-1.56-2.19-3.38c0,0-4.09-8.29-8.27-12.79c-0.13-0.15-0.44-0.46-0.93-0.67
		c-1.3-0.55-2.7,0.17-2.8,0.22c-1.36,0.73-1.85,2.3-2.06,3.13c-1.31,5.01-0.81,13.32-0.71,15.82c0.11,2.6-0.15,6.15-0.68,13.27
		c-0.52,7.04-0.78,10.57-1.29,12.57c-0.63,2.47-0.85,4.24-1.29,7.78c0,0-0.18,1.44,0.16,4.34c0.09,0.8,0.17,1.18,0.45,1.56
		c0.79,1.11,2.62,1.45,3.99,0.93C445.66,91.52,446.48,91.19,446.99,90.37z"/>
	<path class="st0" d="M489.04,30.83c0,0-0.06,0.07-0.07,0.07c-0.01,0.01-0.25,0.27-0.28,0.31c0,0-0.61,0.68-0.7,0.78
		c-0.02,0.03-0.04,0.05-0.04,0.05s-0.03,0.04-0.06,0.07c-0.02,0.02-1.83,2.15-3.03,4.08c-0.25,0.41-0.65,1.08-2.12,4.53
		c-1.47,3.45-2.21,5.18-2.77,6.97c-0.72,2.3-1.05,4.07-1.35,5.66c-0.52,2.76-1.19,6.5-0.9,11.23c0.23,3.75,0.89,5.12,1.22,5.74
		c0.46,0.85,1.68,3.03,4.19,3.96c0,0,1.84,0.68,3.73,0.32c7.21-1.38,9.91-19.03,10.24-21.19c0.63-4.13,0.52-6.75,0.39-10.08
		c-0.19-4.61-0.32-6.95-1.74-8.55c-1.13-1.27-4.11-3.58-6.05-4.28c0,0-1.11-0.4-1.8-1.15c-0.55-0.6-0.78-1.3-0.78-1.3
		c0,0,0-0.01-0.01-0.02c-0.25-0.8-0.11-1.71-0.05-1.93c0.24-0.89,2.27-1.66,4.12-1.6c4.56,0.17,7.72,5.44,8.63,6.96
		c0.59,0.98,1.98,3.48,2.83,8.17c1.42,7.78,0.01,14.2-1.09,19.02c-0.97,4.23-2.08,7.03-3.61,10.91c-3.06,7.75-4.8,9.36-5.92,10.21
		c-0.7,0.53-3.92,2.95-7.86,2.49c-5.34-0.62-8.46-6.13-9.47-7.91c-6.63-11.73-0.24-26.43,4.44-37.2c0.95-2.18,0.84-1.09,4.89-7.27
		c0.28-0.43,0.93-1.43,2.12-1.79c0.3-0.09,1.55-0.41,2.61,0.36c0.77,0.56,1,1.38,1.06,1.64"/>
	<path class="st0" d="M507.84,36.58c0.38-0.07,0.6-0.46,0.77-0.77c0.8-1.43,0.27-2.76,0.29-3.92c0.05-3.39,4.73-5.82,5.31-6.13
		c1.01-0.53,3.15-1.64,5.7-1.24c3.78,0.59,5.91,4.1,7.53,6.8c1.99,3.29,4.93,8.16,3.28,13.11c-1.29,3.87-5.61,8.49-8.98,9.57
		c-0.39,0.12-1.55,0.46-2.03,1.44c-0.51,1.05-0.07,2.52,0.68,3.35c1.98,2.2,6.66,0.64,6.86,0.57c5.56-1.92,7.62-8.59,8.02-9.86
		c2.33-7.52-0.76-14.26-2.61-18.28c-2.27-4.94-4.07-8.87-8.6-10.82c-4.57-1.96-10.19-1.18-14.1,1.82c-3.37,2.58-6.25,7.4-5.02,11.01
		C505.42,34.63,506.84,36.77,507.84,36.58z"/>
	<path class="st0" d="M515.08,32.56c-0.89,0.26-1.38,1.02-1.64,1.44c-0.83,1.31-0.78,2.72-0.77,3.06
		c0.12,4.14,0.04,16.98-0.39,22.97c-0.17,2.37-0.5,4.9-1.16,9.95c-0.48,3.67-0.17,7.41-0.39,11.1c-0.05,0.88-0.15,2.51,0.87,3.92
		c0.86,1.18,2.52,2.23,3.77,1.82c1.34-0.45,1.78-2.44,2.12-4.59c1.12-7,0.73-12.76,0.68-17.99c-0.02-2.25,0.05-4.34,0.19-8.52
		c0.18-5.1-0.22-10.23,0.29-15.31c0.3-2.97,0.76-5.87-0.87-7.18C517.7,33.16,516.42,32.16,515.08,32.56z"/>
	<path class="st0" d="M525.42,61.27c-0.62,0.61-0.95,1.47-1.06,3.64c-0.09,1.69-0.13,2.53,0.1,3.92c0.35,2.1,0.13,6.06-0.29,13.97
		c-0.27,5.09-0.66,8.96-0.77,10.05c-0.64,6.19-0.92,6.07-1.16,9.67c-0.36,5.46-0.59,9.61,1.55,13.88c0.9,1.81,2.32,4.65,4.93,5.07
		c3.3,0.53,6.15-3.22,6.76-4.02c2.47-3.26,3.21-7.37,2.22-10.62c-0.36-1.2-1.21-3.12-2.03-3.06c-0.96,0.07-1.55,2.88-1.64,3.35
		c-0.35,1.68-0.02,2.09-0.29,3.16c-0.57,2.27-3.06,4.37-4.25,3.92c-1-0.37-1.05-2.5-0.68-9.86c0.3-5.82,0.59-9.53,0.77-12.16
		c0.77-11.22-0.08-9.73,0.58-17.99c0.25-3.08-0.43-6.19-0.26-9.28c0.06-1.16,0.24-3.56-1.01-4.29c-0.65-0.38-1.61-0.25-1.71-0.24
		C527.07,60.4,526.15,60.55,525.42,61.27z"/>
	<g>
		<rect x="85.84" y="133.26" class="st1" width="492.29" height="25.07"/>
		<rect x="85.84" y="158.33" class="st1" width="492.29" height="25.07"/>
		<rect x="85.84" y="183.4" class="st1" width="492.29" height="25.07"/>
		<rect x="85.84" y="208.48" class="st1" width="492.29" height="25.07"/>
		<rect x="85.84" y="233.55" class="st1" width="492.29" height="25.07"/>
	</g>
	<g>
		<g>
			<g>
				<path class="st2" d="M707.94,235.29c-1.08,3.41-0.73,6.99-0.63,10.5c0.11,3.66,0.11,7.32,0.01,10.97
					c-0.2,7.33-0.79,14.66-1.82,21.92c-0.19,1.34,0.33,2.69,1.75,3.08c1.17,0.32,2.88-0.4,3.08-1.75
					c1.05-7.39,1.74-14.82,1.97-22.28c0.12-3.66,0.13-7.32,0.04-10.97c-0.08-3.35-0.61-6.9,0.42-10.15
					C713.74,233.55,708.91,232.23,707.94,235.29L707.94,235.29z"/>
			</g>
		</g>
		<g>
			<g>
				<path class="st2" d="M698.3,221.6c0.14,0.61,0.26,1.22,0.35,1.83c-0.12-0.89-0.24-1.77-0.36-2.66c0.26,2.18,0.16,4.33-0.12,6.5
					c0.12-0.89,0.24-1.77,0.36-2.66c-0.73,5.2-3.03,10.79-1.66,16.01c1.58,6.05,8.11,9.27,13.96,7.88c3.81-0.9,6.42-3.35,8.67-6.38
					c2.61-3.51,3.92-7.88,5.24-12.01c1.23-3.85,2.22-7.83,3.59-11.63c-0.34,0.8-0.67,1.59-1.01,2.39c0.07-0.19,0.17-0.37,0.29-0.54
					c-0.52,0.67-1.04,1.35-1.56,2.02c0.07-0.07,0.13-0.15,0.2-0.22c-0.67,0.52-1.35,1.04-2.02,1.56c0.08-0.06,0.16-0.12,0.24-0.18
					c-0.8,0.34-1.59,0.67-2.39,1.01c0.18-0.1,0.37-0.16,0.57-0.16c-0.89,0.12-1.77,0.24-2.66,0.36c0.09,0.01,0.19,0.02,0.28,0.03
					c-0.89-0.12-1.77-0.24-2.66-0.36c0.09,0.03,0.18,0.06,0.28,0.09c-0.8-0.34-1.59-0.67-2.39-1.01c0.19,0.09,0.37,0.2,0.53,0.33
					c-0.67-0.52-1.35-1.04-2.02-1.56c0.26,0.24,0.48,0.48,0.7,0.76c-0.52-0.67-1.04-1.35-1.56-2.02c0.92,1.37,1.53,3.01,2.23,4.5
					c0.75,1.59,1.53,3.17,2.22,4.79c-0.34-0.8-0.67-1.59-1.01-2.39c0.57,1.39,1.04,2.78,1.29,4.27c-0.12-0.89-0.24-1.77-0.36-2.66
					c0.15,1.12,0.15,2.21,0,3.34c0.12-0.89,0.24-1.77,0.36-2.66c-0.19,1.22-0.54,2.37-1,3.51c0.34-0.8,0.67-1.59,1.01-2.39
					c-1.07,2.47-2.59,4.67-4.22,6.79c0.52-0.67,1.04-1.35,1.56-2.02c-0.43,0.55-0.87,1.1-1.31,1.65
					c5.24,4.04,10.47,8.08,15.71,12.12c4.44-8.88,8.88-17.77,13.32-26.65c-6.09-0.8-12.18-1.59-18.28-2.39
					c0.27,1.09,0.48,2.19,0.64,3.3c-0.12-0.89-0.24-1.77-0.36-2.66c0.32,2.49,0.34,4.99,0.02,7.48c0.12-0.89,0.24-1.77,0.36-2.66
					c-0.28,1.96-0.77,3.85-1.52,5.68c0.34-0.8,0.67-1.59,1.01-2.39c-0.63,1.46-1.4,2.82-2.35,4.09c0.52-0.67,1.04-1.35,1.56-2.02
					c-0.99,1.27-2.11,2.37-3.37,3.36c0.67-0.52,1.35-1.04,2.02-1.56c-4,3.05-8.55,5.47-12.83,8.1c-4.48,2.75-8.97,5.5-13.45,8.25
					c-2.17,1.33-3.91,3.5-4.6,5.98c-0.66,2.39-0.36,5.58,1.01,7.71c2.88,4.47,8.91,6.51,13.68,3.59c7.54-4.63,15.1-9.22,22.62-13.88
					c4.47-2.77,8.32-5.92,11.26-10.31c2.22-3.31,3.66-7.34,4.24-11.27c0.81-5.46,0.68-10.7-0.66-16.09
					c-0.96-3.84-4.51-6.65-8.31-7.16c-3.72-0.5-8.19,1.22-9.96,4.77c-4.44,8.88-8.88,17.77-13.32,26.65
					c-2.25,4.5-1.52,9.74,2.58,12.9c1.69,1.3,3.87,2.25,6.06,2.15c2.48-0.11,5.44-0.91,7.07-2.93c1.69-2.09,3.39-4.19,4.88-6.43
					c1.45-2.18,2.53-4.54,3.45-6.99c1.91-5.07,1.51-10.91-0.52-15.86c-1.06-2.58-2.24-5.09-3.43-7.6c-1.15-2.44-2.18-4.82-4.17-6.75
					c-4.48-4.35-11.61-4.62-16.16-0.22c-2.48,2.4-3.26,5.82-4.22,8.99c-1.36,4.51-2.59,9.15-4.41,13.5c0.34-0.8,0.67-1.59,1.01-2.39
					c-0.61,1.4-1.32,2.71-2.25,3.93c0.52-0.67,1.04-1.35,1.56-2.02c-0.3,0.37-0.6,0.69-0.96,0.99c0.67-0.52,1.35-1.04,2.02-1.56
					c-0.28,0.2-0.54,0.36-0.85,0.52c0.8-0.34,1.59-0.67,2.39-1.01c-0.3,0.12-0.57,0.21-0.89,0.27c0.89-0.12,1.77-0.24,2.66-0.36
					c-0.19,0.03-0.38,0.03-0.56,0c0.89,0.12,1.77,0.24,2.66,0.36c-0.09-0.02-0.17-0.05-0.26-0.07c0.8,0.34,1.59,0.67,2.39,1.01
					c-0.17-0.06-0.33-0.16-0.46-0.29c0.67,0.52,1.35,1.04,2.02,1.56c-0.06-0.07-0.13-0.15-0.19-0.22c0.52,0.67,1.04,1.35,1.56,2.02
					c-0.06-0.11-0.12-0.21-0.17-0.32c0.34,0.8,0.67,1.59,1.01,2.39c-0.03-0.12-0.07-0.23-0.1-0.35c0.12,0.89,0.24,1.77,0.36,2.66
					c-0.04-0.39-0.03-0.72,0.02-1.12c-0.12,0.89-0.24,1.77-0.36,2.66c0.52-3.09,1.3-6.13,1.74-9.23c0.66-4.69,0.87-8.97-0.23-13.65
					c-1.2-5.1-7.3-8.6-12.3-6.98C699.97,211.02,697.01,216.14,698.3,221.6L698.3,221.6z"/>
			</g>
		</g>
		<g>
			<g>
				<path class="st2" d="M693.22,213.26c-1.97,9.12-3.3,18.41-3.96,27.72c-0.65,9.19-1.47,19.37,3.25,27.69
					c2.58,4.55,9.18,6.49,13.68,3.59c4.6-2.97,6.35-8.81,3.59-13.68c-0.28-0.49-0.53-0.99-0.76-1.5c0.34,0.8,0.67,1.59,1.01,2.39
					c-0.65-1.57-1.04-3.19-1.28-4.86c0.12,0.89,0.24,1.77,0.36,2.66c-0.54-4.34-0.27-8.8-0.04-13.15c0.25-4.66,0.69-9.31,1.3-13.93
					c-0.12,0.89-0.24,1.77-0.36,2.66c0.64-4.79,1.48-9.54,2.5-14.26c0.57-2.62,0.37-5.34-1.01-7.71c-1.21-2.07-3.59-4.05-5.98-4.6
					c-2.56-0.58-5.43-0.46-7.71,1.01C695.69,208.65,693.77,210.72,693.22,213.26L693.22,213.26z"/>
			</g>
		</g>
		<g>
			<g>
				<path class="st2" d="M683.64,225.41c-0.72,4.12-1.45,8.25-2.17,12.37c-0.82,4.68-1.75,9.54-1.24,14.31
					c0.41,3.85,1.14,7.49,2.55,11.09c1.43,3.65,3.1,7.17,4.9,10.64c1.65,3.18,3.34,6.34,4.74,9.64c-0.34-0.8-0.67-1.59-1.01-2.39
					c1.12,2.7,2.01,5.48,2.43,8.38c-0.12-0.89-0.24-1.77-0.36-2.66c0.22,1.75,0.27,3.49,0.1,5.24c-0.23,2.41,1.28,5.42,2.93,7.07
					c1.73,1.73,4.58,3.04,7.07,2.93c2.59-0.12,5.27-0.97,7.07-2.93c1.89-2.06,2.67-4.29,2.93-7.07c0.67-7.06-1.69-13.83-4.54-20.15
					c-2.33-5.16-5.29-10.02-7.51-15.24c0.34,0.8,0.67,1.59,1.01,2.39c-1.2-2.86-2.15-5.81-2.59-8.9c0.12,0.89,0.24,1.77,0.36,2.66
					c-0.36-2.85-0.2-5.69,0.18-8.52c-0.12,0.89-0.24,1.77-0.36,2.66c0.77-5.42,1.84-10.81,2.79-16.2c0.48-2.71,0.43-5.25-1.01-7.71
					c-1.21-2.07-3.59-4.05-5.98-4.6c-2.56-0.58-5.43-0.46-7.71,1.01C686.17,220.77,684.08,222.88,683.64,225.41L683.64,225.41z"/>
			</g>
		</g>
		<g>
			<g>
				<path class="st2" d="M712.22,294.58c0.18-8.73-0.12-17.47-0.91-26.16c-0.25-2.7-0.95-5.09-2.93-7.07
					c-1.73-1.73-4.58-3.04-7.07-2.93c-2.59,0.12-5.27,0.97-7.07,2.93c-1.7,1.85-3.17,4.46-2.93,7.07c0.79,8.7,1.09,17.43,0.91,26.16
					c-0.11,5.23,4.68,10.24,10,10C707.73,304.33,712.1,300.18,712.22,294.58L712.22,294.58z"/>
			</g>
		</g>
		<g>
			<g>
				<path class="st2" d="M698.51,303.72c2.77,0.15,5.6-0.82,7.97-2.18c1.13-0.65,2.15-1.45,3.34-1.98c-0.8,0.34-1.59,0.67-2.39,1.01
					c0.4-0.15,0.78-0.26,1.2-0.34c-0.89,0.12-1.77,0.24-2.66,0.36c0.39-0.04,0.74-0.03,1.14,0c-0.89-0.12-1.77-0.24-2.66-0.36
					c0.75,0.12,1.49,0.31,2.24,0.45c2.7,0.5,3.86,0.52,6.54,0.06c3.31-0.57,6.56-3,8.06-5.99c0.96-1.92,1.51-3.99,1.5-6.14
					c0-0.89-0.12-1.77-0.14-2.66c-0.04-1.75,0.07-3.5,0.29-5.23c-0.12,0.89-0.24,1.77-0.36,2.66c0.51-3.57,1.55-7.03,2.25-10.56
					c0.48-2.42,0.86-4.89,0.97-7.36c0.11-2.52-0.33-5.02-0.74-7.49c0.12,0.89,0.24,1.77,0.36,2.66c-0.05-0.42-0.06-0.78-0.02-1.2
					c-0.12,0.89-0.24,1.77-0.36,2.66c0.04-0.13,0.07-0.26,0.11-0.38c-0.34,0.8-0.67,1.59-1.01,2.39c0.08-0.21,0.2-0.41,0.34-0.58
					c-0.52,0.67-1.04,1.35-1.56,2.02c0.14-0.18,0.3-0.34,0.48-0.48c-0.67,0.52-1.35,1.04-2.02,1.56c1.11-0.85,2.4-1.47,3.68-2.02
					c-0.8,0.34-1.59,0.67-2.39,1.01c0.84-0.35,1.69-0.65,2.56-0.9c2.44-0.73,4.68-2.38,5.98-4.6c1.25-2.14,1.79-5.3,1.01-7.71
					c-1.64-5.07-6.93-8.58-12.3-6.98c-2.96,0.88-6.13,2.08-8.63,3.94c-2.58,1.92-4.74,4.19-5.52,7.43
					c-0.69,2.84-0.09,5.41,0.29,8.22c-0.12-0.89-0.24-1.77-0.36-2.66c0.19,1.8,0.13,3.58-0.09,5.37c0.12-0.89,0.24-1.77,0.36-2.66
					c-0.51,3.71-1.62,7.3-2.32,10.98c-0.49,2.56-0.85,5.18-0.96,7.79c-0.08,1.83,0.28,3.73,0.07,5.55c0.12-0.89,0.24-1.77,0.36-2.66
					c-0.03,0.12-0.06,0.24-0.09,0.35c0.34-0.8,0.67-1.59,1.01-2.39c-0.07,0.22-0.19,0.42-0.34,0.6c0.52-0.67,1.04-1.35,1.56-2.02
					c-0.08,0.07-0.15,0.15-0.23,0.22c0.67-0.52,1.35-1.04,2.02-1.56c-0.17,0.14-0.35,0.25-0.55,0.33c0.8-0.34,1.59-0.67,2.39-1.01
					c-0.33,0.12-0.62,0.19-0.97,0.24c0.89-0.12,1.77-0.24,2.66-0.36c-0.35,0.02-0.67,0.01-1.02-0.03c0.89,0.12,1.77,0.24,2.66,0.36
					c-1.83-0.31-3.63-0.87-5.51-0.88c-2.13,0-3.88,0.43-5.78,1.23c-1.91,0.81-3.51,2.04-5.37,2.91c0.8-0.34,1.59-0.67,2.39-1.01
					c-0.38,0.16-0.76,0.27-1.16,0.35c0.89-0.12,1.77-0.24,2.66-0.36c-0.32,0.04-0.6,0.05-0.92,0.03c-5.23-0.28-10.23,4.8-10,10
					C688.77,299.38,692.91,303.41,698.51,303.72L698.51,303.72z"/>
			</g>
		</g>
		<g>
			<g>
				<path class="st2" d="M727.05,265.88c2.87-1.08,4.7-2.08,7.01-4.12c1.54-1.35,2.8-3.11,3.88-4.84c1.92-3.05,3.21-6.59,4.54-9.91
					c2.44-6.09,4.31-12.41,5.57-18.85c0.3-1.51,0.56-3.04,0.8-4.56c0.45-2.99,1.09-5.91,0.31-8.91c-0.86-3.29-3.02-6.22-6.08-7.76
					c-2.15-1.08-4.48-1.64-6.79-2.25c-6.48-1.72-13.03-3.12-19.64-4.22c-8.27-1.37-16.63-2.35-25-2.84
					c-2.47-0.14-5.36,1.22-7.07,2.93c-1.73,1.73-3.04,4.58-2.93,7.07c0.25,5.68,4.4,9.67,10,10c5.42,0.32,10.81,0.84,16.19,1.56
					c-0.89-0.12-1.77-0.24-2.66-0.36c5.14,0.7,10.25,1.58,15.32,2.65c4.96,1.05,10.07,2.08,14.87,3.73
					c-0.8-0.34-1.59-0.67-2.39-1.01c0.23,0.08,0.45,0.2,0.65,0.34c-0.67-0.52-1.35-1.04-2.02-1.56c0.2,0.14,0.36,0.3,0.49,0.5
					c-0.52-0.67-1.04-1.35-1.56-2.02c0.05,0.1,0.11,0.2,0.16,0.29c-0.34-0.8-0.67-1.59-1.01-2.39c0.09,0.21,0.15,0.42,0.18,0.65
					c-0.12-0.89-0.24-1.77-0.36-2.66c0.06,0.6,0.03,1.17-0.05,1.76c0.12-0.89,0.24-1.77,0.36-2.66c-1.27,9.35-3.77,18.48-7.42,27.17
					c0.34-0.8,0.67-1.59,1.01-2.39c-1.03,2.42-2.08,4.86-3.69,6.96c0.52-0.67,1.04-1.35,1.56-2.02c-0.54,0.66-1.11,1.25-1.77,1.79
					c0.67-0.52,1.35-1.04,2.02-1.56c-0.58,0.43-1.18,0.79-1.85,1.08c0.8-0.34,1.59-0.67,2.39-1.01c-0.11,0.04-0.23,0.09-0.34,0.13
					c-2.5,0.94-4.59,2.23-5.98,4.6c-1.25,2.14-1.79,5.3-1.01,7.71c0.78,2.42,2.28,4.75,4.6,5.98
					C721.6,266.07,724.56,266.82,727.05,265.88L727.05,265.88z"/>
			</g>
		</g>
		<g>
			<g>
				<path class="st2" d="M679.9,208.05c0.43,7.26,0.85,14.52,1.28,21.79c0.16,2.66,1.01,5.15,2.93,7.07
					c1.73,1.73,4.58,3.04,7.07,2.93c2.59-0.12,5.27-0.97,7.07-2.93c1.73-1.89,3.08-4.42,2.93-7.07c-0.43-7.26-0.85-14.52-1.28-21.79
					c-0.16-2.66-1.01-5.15-2.93-7.07c-1.73-1.73-4.58-3.04-7.07-2.93c-2.59,0.12-5.27,0.97-7.07,2.93
					C681.09,202.87,679.74,205.41,679.9,208.05L679.9,208.05z"/>
			</g>
		</g>
		<g>
			<g>
				<path class="st2" d="M686.51,225.7c-0.26,1.31-0.64,2.57-1.15,3.8c0.34-0.8,0.67-1.59,1.01-2.39c-0.73,1.73-1.68,3.35-2.83,4.84
					c0.52-0.67,1.04-1.35,1.56-2.02c-1.16,1.48-2.49,2.8-3.98,3.95c0.67-0.52,1.35-1.04,2.02-1.56c-1.44,1.09-2.98,1.99-4.64,2.69
					c0.8-0.34,1.59-0.67,2.39-1.01c-1.16,0.48-2.35,0.85-3.57,1.11c-2.37,0.5-4.78,2.55-5.98,4.6c-1.25,2.14-1.79,5.3-1.01,7.71
					c0.78,2.42,2.28,4.75,4.6,5.98c2.46,1.3,4.97,1.59,7.71,1.01c2.81-0.6,5.57-1.74,8.06-3.14c1.27-0.71,2.41-1.57,3.55-2.45
					c1.15-0.89,2.28-1.76,3.3-2.8c3.98-4.04,7.13-9.39,8.24-14.99c0.53-2.66,0.4-5.3-1.01-7.71c-1.21-2.07-3.59-4.05-5.98-4.6
					c-2.56-0.58-5.43-0.46-7.71,1.01C689.01,221.08,687.01,223.17,686.51,225.7L686.51,225.7z"/>
			</g>
		</g>
		<g>
			<g>
				<path class="st2" d="M710.48,292.79c-2.18-5.47-3.68-11.16-4.5-16.98c0.12,0.89,0.24,1.77,0.36,2.66
					c-0.54-4.08-0.7-8.22-1.56-12.26c-0.82-3.83-2.57-7.52-4.9-10.65c-4.43-5.96-9.54-11.39-15.07-16.34
					c-1.98-1.77-4.36-2.93-7.07-2.93c-2.45,0-5.38,1.09-7.07,2.93c-1.75,1.91-3.05,4.41-2.93,7.07c0.11,2.57,0.95,5.3,2.93,7.07
					c4.67,4.18,9.1,8.7,12.98,13.63c-0.52-0.67-1.04-1.35-1.56-2.02c1.32,1.71,2.5,3.5,3.36,5.48c-0.34-0.8-0.67-1.59-1.01-2.39
					c0.75,1.84,1.16,3.76,1.45,5.73c-0.12-0.89-0.24-1.77-0.36-2.66c0.65,4.94,0.98,9.9,1.99,14.79c0.86,4.16,2.1,8.24,3.68,12.19
					c1,2.51,2.18,4.56,4.6,5.98c2.14,1.25,5.3,1.79,7.71,1.01c2.42-0.78,4.75-2.28,5.98-4.6
					C710.65,298.26,711.45,295.24,710.48,292.79L710.48,292.79z"/>
			</g>
		</g>
		<g>
			<g>
				<path class="st2" d="M676.71,255.13c5.23,0,10.24-4.6,10-10c-0.24-5.42-4.39-10-10-10c-5.23,0-10.24,4.6-10,10
					C666.95,250.55,671.1,255.13,676.71,255.13L676.71,255.13z"/>
			</g>
		</g>
		<g>
			<g>
				<path class="st2" d="M680.71,250.76c5.23,0,10.24-4.6,10-10c-0.24-5.42-4.39-10-10-10c-5.23,0-10.24,4.6-10,10
					C670.95,246.18,675.1,250.76,680.71,250.76L680.71,250.76z"/>
			</g>
		</g>
		<g>
			<g>
				<path class="st2" d="M703.81,272.77c-0.31,6.37,1.62,12.58,2.5,18.83c-0.12-0.89-0.24-1.77-0.36-2.66
					c0.11,0.85,0.18,1.68,0.1,2.54c0.12-0.89,0.24-1.77,0.36-2.66c-0.07,0.45-0.18,0.85-0.35,1.27c0.34-0.8,0.67-1.59,1.01-2.39
					c-0.14,0.28-0.29,0.51-0.48,0.76c0.52-0.67,1.04-1.35,1.56-2.02c-0.13,0.15-0.27,0.29-0.42,0.42c0.67-0.52,1.35-1.04,2.02-1.56
					c-0.15,0.12-0.32,0.23-0.49,0.32c0.8-0.34,1.59-0.67,2.39-1.01c-0.18,0.09-0.36,0.15-0.55,0.19c0.89-0.12,1.77-0.24,2.66-0.36
					c-0.42,0.05-0.76,0.04-1.18,0c0.89,0.12,1.77,0.24,2.66,0.36c-3.99-0.7-7.91-1.29-11.96-0.87c-2.72,0.28-5.07,0.93-7.07,2.93
					c-1.73,1.73-3.04,4.58-2.93,7.07c0.12,2.59,0.97,5.27,2.93,7.07c1.84,1.69,4.48,3.2,7.07,2.93c2.31-0.24,4.61-0.21,6.91,0.09
					c-0.89-0.12-1.77-0.24-2.66-0.36c1.79,0.26,3.64,0.82,5.45,0.82c2.43,0,4.83-0.57,6.88-1.91c4.06-2.66,6.3-7.16,6.25-11.99
					c-0.03-2.77-0.66-5.61-1.19-8.34c-0.41-2.15-0.86-4.29-1.17-6.45c0.12,0.89,0.24,1.77,0.36,2.66c-0.25-1.89-0.38-3.78-0.29-5.68
					c0.12-2.48-1.2-5.34-2.93-7.07c-1.73-1.73-4.58-3.04-7.07-2.93C708.18,263.02,704.09,267.16,703.81,272.77L703.81,272.77z"/>
			</g>
		</g>
		<g>
			<g>
				<path class="st2" d="M722.53,268.22c5.23,0,10.24-4.6,10-10c-0.24-5.42-4.39-10-10-10c-5.23,0-10.24,4.6-10,10
					C712.77,263.64,716.92,268.22,722.53,268.22L722.53,268.22z"/>
			</g>
		</g>
		<g>
			<g>
				<path class="st2" d="M703.96,272.69c-0.53,2.29-1.06,4.58-1.6,6.88c-0.42,1.33-0.48,2.66-0.18,3.99
					c0.06,1.33,0.46,2.57,1.19,3.72c0.63,1.17,1.49,2.1,2.58,2.81c0.97,0.88,2.1,1.48,3.4,1.79c0.89,0.12,1.77,0.24,2.66,0.36
					c1.81-0.01,3.49-0.46,5.05-1.37c0.67-0.52,1.35-1.04,2.02-1.56c1.24-1.25,2.1-2.72,2.57-4.41c0.53-2.29,1.06-4.58,1.6-6.88
					c0.42-1.33,0.48-2.66,0.18-3.99c-0.06-1.33-0.46-2.57-1.19-3.72c-0.63-1.17-1.49-2.1-2.58-2.81c-0.97-0.88-2.1-1.48-3.4-1.79
					c-0.89-0.12-1.77-0.24-2.66-0.36c-1.81,0.01-3.49,0.46-5.05,1.37c-0.67,0.52-1.35,1.04-2.02,1.56
					C705.29,269.52,704.43,270.99,703.96,272.69L703.96,272.69z"/>
			</g>
		</g>
		<g>
			<g>
				<path class="st2" d="M717.04,288.67c0.06-0.04,0.12-0.09,0.18-0.13c-0.8,0.34-1.59,0.67-2.39,1.01
					c0.06-0.01,0.13-0.03,0.19-0.04c-1.77,0-3.54,0-5.32,0c0.07,0.01,0.13,0.02,0.2,0.03c-0.8-0.34-1.59-0.67-2.39-1.01
					c0.15,0.05,0.28,0.13,0.4,0.23c-0.67-0.52-1.35-1.04-2.02-1.56c0.13,0.12,0.25,0.24,0.35,0.39c-0.52-0.67-1.04-1.35-1.56-2.02
					c0.1,0.14,0.19,0.29,0.25,0.45c-0.34-0.8-0.67-1.59-1.01-2.39c0.71,1.8,1.2,3.65,1.47,5.56c-0.12-0.89-0.24-1.77-0.36-2.66
					c0.16,1.32,0.23,2.63,0.18,3.96c6.55-0.89,13.1-1.77,19.64-2.66c-0.89-3.94-1.61-7.92-2.16-11.92c0.12,0.89,0.24,1.77,0.36,2.66
					c-0.33-2.5-0.6-5.01-0.8-7.53c-6.55,0.89-13.1,1.77-19.64,2.66c1.47,3.65,2.47,7.46,3,11.36c-0.12-0.89-0.24-1.77-0.36-2.66
					c0.35,2.72,0.46,5.45,0.34,8.19c-0.11,2.49,1.19,5.33,2.93,7.07c1.73,1.73,4.58,3.04,7.07,2.93c5.61-0.25,9.75-4.39,10-10
					c0.33-7.48-0.9-15.26-3.7-22.21c-0.31-1.3-0.91-2.43-1.79-3.4c-0.71-1.09-1.64-1.95-2.81-2.58c-2.02-1.07-4.1-1.49-6.38-1.19
					c-2.1,0.28-4.27,1.14-5.74,2.75c-1.71,1.87-3.14,4.45-2.93,7.07c0.59,7.43,1.67,14.84,3.31,22.11c0.52,2.28,2.53,4.88,4.6,5.98
					c2.02,1.07,4.1,1.49,6.38,1.19c4.98-0.67,8.5-4.8,8.67-9.82c0.11-3.38-0.33-6.89-1.29-10.14c-0.76-2.58-1.78-5.17-3.7-7.11
					c-3.29-3.32-9.26-4.73-13.28-1.83c-2.17,1.56-3.86,3.32-4.6,5.98c-0.66,2.39-0.36,5.58,1.01,7.71c1.38,2.14,3.43,4.01,5.98,4.6
					C711.81,290.24,714.88,290.21,717.04,288.67L717.04,288.67z"/>
			</g>
		</g>
		<g>
			<g>
				<path class="st2" d="M713.77,267.49c2.44,0.44,4.87,0.9,7.31,1.3c2.58,0.42,4.65,0.69,7.2-0.06c3.2-0.94,5.45-3.04,7.33-5.68
					c2.55-3.57,4.56-7.66,6.39-11.64c4.11-8.96,7.19-18.28,8.7-28.03c0.43-2.75,0.45-5.21-1.01-7.71c-1.21-2.07-3.59-4.05-5.98-4.6
					c-2.56-0.58-5.43-0.46-7.71,1.01c-2.04,1.32-4.21,3.46-4.6,5.98c-1.23,7.91-3.43,15.63-6.53,23c0.34-0.8,0.67-1.59,1.01-2.39
					c-1.07,2.52-2.24,5-3.52,7.42c-1.23,2.32-2.47,4.74-4.03,6.86c0.52-0.67,1.04-1.35,1.56-2.02c-0.24,0.28-0.46,0.51-0.75,0.75
					c0.67-0.52,1.35-1.04,2.02-1.56c-0.19,0.14-0.39,0.25-0.61,0.33c0.8-0.34,1.59-0.67,2.39-1.01c-0.12,0.03-0.24,0.07-0.37,0.1
					c0.89-0.12,1.77-0.24,2.66-0.36c-0.4,0.05-0.74,0.05-1.14,0.01c0.89,0.12,1.77,0.24,2.66,0.36c-2.57-0.36-5.13-0.9-7.69-1.36
					c-2.7-0.48-5.26-0.42-7.71,1.01c-2.07,1.21-4.05,3.59-4.6,5.98c-0.58,2.56-0.46,5.43,1.01,7.71
					C709.13,264.97,711.24,267.04,713.77,267.49L713.77,267.49z"/>
			</g>
		</g>
		<g>
			<g>
				<path class="st2" d="M731.68,219.68c0.23,3.84,0.43,7.69-0.07,11.52c0.12-0.89,0.24-1.77,0.36-2.66
					c-0.31,2.14-0.86,4.18-1.69,6.19c0.34-0.8,0.67-1.59,1.01-2.39c-1.98,4.63-4.66,9.03-7.25,13.34
					c-2.62,4.37-5.41,8.64-8.33,12.81c-1.42,2.02-1.64,5.41-1.01,7.71c0.64,2.32,2.43,4.83,4.6,5.98c2.32,1.23,5.13,1.84,7.71,1.01
					c2.59-0.84,4.41-2.36,5.98-4.6c4.77-6.8,9.16-13.87,13.11-21.18c2.23-4.12,4.35-8.43,5.1-13.1c0.79-4.92,0.79-9.68,0.49-14.63
					c-0.16-2.66-1.01-5.15-2.93-7.07c-1.73-1.73-4.58-3.04-7.07-2.93c-2.59,0.12-5.27,0.97-7.07,2.93
					C732.88,214.5,731.53,217.03,731.68,219.68L731.68,219.68z"/>
			</g>
		</g>
		<g>
			<g>
				<path class="st2" d="M738.69,263.01c3.03-6.91,6.05-13.82,9.08-20.73c0.73-1.15,1.13-2.39,1.19-3.72
					c0.3-1.33,0.24-2.66-0.18-3.99c-0.64-2.32-2.43-4.83-4.6-5.98c-2.32-1.23-5.13-1.84-7.71-1.01c-2.31,0.75-4.96,2.27-5.98,4.6
					c-3.03,6.91-6.05,13.82-9.08,20.73c-0.73,1.15-1.13,2.39-1.19,3.72c-0.3,1.33-0.24,2.66,0.18,3.99c0.64,2.32,2.43,4.83,4.6,5.98
					c2.32,1.23,5.13,1.84,7.71,1.01C735.02,266.86,737.67,265.34,738.69,263.01L738.69,263.01z"/>
			</g>
		</g>
		<g>
			<g>
				<path class="st2" d="M686.11,209.41c2.94,3.63,8.03,4.62,12.4,5.29c4.27,0.65,8.57,1.07,12.85,1.64
					c-0.89-0.12-1.77-0.24-2.66-0.36c10.78,1.46,21.43,3.77,31.85,6.93c5.01,1.52,11.12-1.81,12.3-6.98
					c1.23-5.4-1.62-10.68-6.98-12.3c-6.66-2.02-13.42-3.7-20.25-5.03c-7.55-1.46-15.18-2.3-22.8-3.31c0.89,0.12,1.77,0.24,2.66,0.36
					c-2.62-0.36-5.43-0.66-7.9-1.65c0.8,0.34,1.59,0.67,2.39,1.01c-0.34-0.16-0.65-0.33-0.97-0.54c0.67,0.52,1.35,1.04,2.02,1.56
					c-0.3-0.24-0.53-0.47-0.78-0.77c-1.51-1.87-4.77-2.93-7.07-2.93c-2.45,0-5.38,1.09-7.07,2.93c-1.75,1.91-3.05,4.41-2.93,7.07
					c0.12,0.89,0.24,1.77,0.36,2.66C684.01,206.69,684.87,208.16,686.11,209.41L686.11,209.41z"/>
			</g>
		</g>
		<g>
			<g>
				<path class="st2" d="M712.62,202.78c0.21-0.08,0.42-0.14,0.64-0.18c-0.79,0.09-0.91,0.12-0.35,0.09c0.17,0,0.33,0.01,0.5,0.03
					c0.39,0.04,0.22,0.01-0.49-0.06c0.05-0.11,2.12,0.54,2.36,0.61c2.14,0.6,4.4,1,6.59,0.45c1.06-0.27,2.08-0.74,2.96-1.38
					c0.4-0.3,0.79-0.6,1.17-0.9c-0.48,0.37-0.49,0.38-0.01,0.05c0.37-0.22,0.72-0.46,1.07-0.71c2.3-1.64,3.71-3.8,4.6-6.46
					c1.29-3.85,1.36-8.13,1.53-12.16c0.04-0.99,0.09-1.99,0.15-2.98c0.03-0.49,0.07-0.98,0.12-1.48c0.03-0.3,0.01-1.75,0.05-0.55
					c-0.03-0.9,0.36-2,0.59-2.85c0.11-0.4,0.23-0.8,0.37-1.19c0.09-0.26,0.19-0.52,0.29-0.78c-0.24,0.55-0.24,0.56,0,0.04
					c1.11-2.36,0.74-5.5-1.79-6.84c-2.22-1.17-5.66-0.73-6.84,1.79c-1.84,3.92-2.54,7.98-2.81,12.28c-0.12,1.85-0.16,3.7-0.27,5.55
					c-0.05,0.92-0.12,1.85-0.22,2.76c-0.02,0.21-0.05,0.42-0.07,0.63c0.09-0.63,0.09-0.65,0-0.07c-0.08,0.42-0.15,0.83-0.23,1.25
					c-0.13,0.61-0.22,1.84-0.64,2.3c0.27-0.6,0.28-0.65,0.04-0.14c-0.09,0.17-0.18,0.33-0.28,0.49c-0.2,0.3-0.12,0.22,0.22-0.25
					c-0.17,0.19-0.35,0.37-0.54,0.53c0.77-0.71-0.25,0.1-0.39,0.19c-0.59,0.4-1.12,0.85-1.69,1.27c0.48-0.36,0.49-0.38,0.03-0.06
					c-0.45,0.24-0.47,0.26-0.06,0.07c0.4-0.16,0.39-0.17-0.02-0.05c0.81-0.08,0.93-0.11,0.38-0.08c-0.11,0-0.22-0.01-0.32-0.01
					c-0.55-0.05-0.43-0.03,0.34,0.05c-0.21-0.12-0.76-0.17-1-0.23c-0.79-0.2-1.57-0.46-2.36-0.65c-2.06-0.49-4.23-0.69-6.27-0.02
					c-2.48,0.81-4.35,3.5-3.49,6.15C707.28,201.77,709.96,203.65,712.62,202.78L712.62,202.78z"/>
			</g>
		</g>
		<g>
			<g>
				<path class="st2" d="M729.41,147.13c0.11,0.25,0.2,0.51,0.26,0.78c-0.06-0.66-0.07-0.7-0.03-0.11c0,0.28,0,0.56-0.03,0.83
					c0.1-0.63,0.1-0.65,0.01-0.07c-0.2,1.04-0.43,2.08-0.64,3.12c-0.45,2.28-0.85,4.56-1.19,6.86c-0.73,4.96-1.27,9.93-1.52,14.94
					c-0.13,2.62,2.4,5.12,5,5c2.82-0.13,4.86-2.2,5-5c0.12-2.4,0.3-4.79,0.54-7.18c0.13-1.27,0.28-2.54,0.44-3.82
					c0.08-0.6,0.08-0.63,0.01-0.1c0.04-0.32,0.09-0.63,0.14-0.95c0.08-0.55,0.17-1.11,0.25-1.66c0.38-2.37,0.81-4.73,1.31-7.08
					c0.57-2.69,1.12-5.57,0.09-8.22c-0.95-2.43-3.39-4.38-6.15-3.49C730.55,141.74,728.39,144.52,729.41,147.13L729.41,147.13z"/>
			</g>
		</g>
		<g>
			<g>
				<path class="st2" d="M729.42,146.08c-3.94,17.3-6.62,34.89-8,52.58c-0.39,4.94-0.66,9.89-0.85,14.84c-0.1,2.62,2.37,5.12,5,5
					c2.79-0.12,4.9-2.2,5-5c0.31-8.6,0.93-17.19,1.87-25.75c0.23-2.1,0.48-4.2,0.75-6.29c0.07-0.56,0.15-1.13,0.22-1.69
					c0.08-0.59,0,0.02-0.02,0.12c0.03-0.24,0.07-0.48,0.1-0.72c0.16-1.13,0.32-2.25,0.48-3.38c0.63-4.26,1.34-8.5,2.12-12.74
					c0.89-4.79,1.88-9.56,2.96-14.31c0.58-2.54-0.78-5.53-3.49-6.15C733.03,142.01,730.04,143.35,729.42,146.08L729.42,146.08z"/>
			</g>
		</g>
		<g>
			<g>
				<path class="st2" d="M726.24,171.67c0.01,7.29,0.03,14.59,0.04,21.88c0.01,3.86,0.04,7.7,0.78,11.51
					c0.65,3.35,2.01,6.63,3.81,9.53c1.37,2.22,4.53,3.28,6.84,1.79c2.23-1.44,3.27-4.46,1.79-6.84c-0.41-0.67-0.81-1.35-1.16-2.06
					c-0.16-0.32-0.31-0.65-0.46-0.97c0.3,0.64,0.09,0.21-0.07-0.2c-0.54-1.44-0.89-2.9-1.2-4.4c-0.03-0.16-0.05-0.32-0.08-0.48
					c0.06,0.45,0.06,0.49,0.02,0.13c-0.03-0.4-0.08-0.8-0.11-1.21c-0.07-0.89-0.11-1.78-0.13-2.67c-0.04-1.71-0.03-3.43-0.03-5.15
					c-0.01-6.96-0.03-13.92-0.04-20.89c0-2.62-2.3-5.12-5-5C728.53,166.79,726.23,168.87,726.24,171.67L726.24,171.67z"/>
			</g>
		</g>
		<g>
			<g>
				<path class="st2" d="M727.27,196.36c-1.82,2.64-0.99,6.22,1.01,8.47c1.27,1.42,3.09,2.17,4.76,3c1.65,0.82,3.44,1.99,5.24,2.37
					c1.67,0.36,3.48,0.21,4.95-0.72c0.57-0.36,1.12-0.81,1.54-1.34c0.22-0.27,0.42-0.52,0.69-0.74c-0.34,0.26-0.67,0.52-1.01,0.78
					c0.12-0.09,0.25-0.16,0.39-0.22c-0.4,0.17-0.8,0.34-1.19,0.5c0.29-0.11,0.57-0.18,0.87-0.23c-0.44,0.06-0.89,0.12-1.33,0.18
					c1.87-0.24,3.58-0.23,5.31-1.11c2.23-1.13,3.55-3.34,3.64-5.82c0.09-2.62-2.36-5.12-5-5c-2.79,0.12-4.9,2.2-5,5
					c0,0.06,0,0.12-0.01,0.19c0.06-0.44,0.12-0.89,0.18-1.33c-0.01,0.12-0.04,0.23-0.09,0.34c0.17-0.4,0.34-0.8,0.5-1.19
					c-0.05,0.11-0.1,0.21-0.17,0.3c0.26-0.34,0.52-0.67,0.78-1.01c-0.12,0.15-0.24,0.26-0.39,0.38c0.34-0.26,0.67-0.52,1.01-0.78
					c-0.16,0.11-0.32,0.2-0.5,0.29c0.4-0.17,0.8-0.34,1.19-0.5c-0.31,0.13-0.62,0.22-0.95,0.27c0.44-0.06,0.89-0.12,1.33-0.18
					c-1.31,0.15-2.67,0.09-3.93,0.52c-1.16,0.4-2.07,0.9-2.95,1.77c-0.35,0.34-0.58,0.76-0.96,1.07c0.34-0.26,0.67-0.52,1.01-0.78
					c-0.06,0.04-0.12,0.08-0.19,0.11c0.4-0.17,0.8-0.34,1.19-0.5c-0.14,0.07-0.29,0.11-0.45,0.12c0.44-0.06,0.89-0.12,1.33-0.18
					c-0.16,0.01-0.31,0-0.47-0.02c0.44,0.06,0.89,0.12,1.33,0.18c-0.25-0.06-0.46-0.13-0.7-0.22c0.4,0.17,0.8,0.34,1.19,0.5
					c-1.18-0.53-2.33-1.14-3.48-1.72c-1.06-0.53-2.21-1-3.16-1.72c0.34,0.26,0.67,0.52,1.01,0.78c-0.19-0.17-0.36-0.33-0.52-0.53
					c0.26,0.34,0.52,0.67,0.78,1.01c-0.14-0.2-0.24-0.38-0.33-0.6c0.17,0.4,0.34,0.8,0.5,1.19c-0.05-0.14-0.09-0.29-0.12-0.45
					c0.06,0.44,0.12,0.89,0.18,1.33c-0.02-0.15-0.03-0.3-0.02-0.45c-0.06,0.44-0.12,0.89-0.18,1.33c0.01-0.15,0.04-0.29,0.1-0.43
					c-0.17,0.4-0.34,0.8-0.5,1.19c0.05-0.14,0.13-0.27,0.22-0.38c0.7-1.02,0.82-2.69,0.5-3.85c-0.32-1.16-1.22-2.42-2.3-2.99
					C731.56,193.22,728.85,194.05,727.27,196.36L727.27,196.36z"/>
			</g>
		</g>
		<g>
			<g>
				<path class="st2" d="M743.25,204c-0.06,0.89-0.06,1.88-0.26,2.76c0.28-1.26,0,0.01-0.04,0.24c-0.06,0.39-0.12,0.78-0.19,1.17
					c-0.31,1.75-0.69,3.49-1.13,5.22c-0.86,3.4-1.91,6.75-2.96,10.09c-0.78,2.5,0.92,5.57,3.49,6.15c2.72,0.62,5.31-0.82,6.15-3.49
					c2.28-7.25,4.41-14.51,4.93-22.13c0.18-2.61-2.43-5.12-5-5C745.38,199.13,743.44,201.2,743.25,204L743.25,204z"/>
			</g>
		</g>
		<g>
			<g>
				<path class="st2" d="M719.26,218.49c2.62,0,5.12-2.3,5-5c-0.12-2.71-2.2-5-5-5c-2.62,0-5.12,2.3-5,5
					C714.38,216.2,716.45,218.49,719.26,218.49L719.26,218.49z"/>
			</g>
		</g>
		<g>
			<g>
				<path class="st2" d="M718.89,218.49c2.62,0,5.12-2.3,5-5c-0.12-2.71-2.2-5-5-5c-2.62,0-5.12,2.3-5,5
					C714.01,216.2,716.09,218.49,718.89,218.49L718.89,218.49z"/>
			</g>
		</g>
		<g>
			<g>
				<path class="st2" d="M736.33,215.73c-1.93-2.46-4.6-4.23-7.05-6.12c0.34,0.26,0.67,0.52,1.01,0.78
					c-1.52-1.18-3.01-2.42-4.19-3.95c0.26,0.34,0.52,0.67,0.78,1.01c-0.19-0.26-0.38-0.52-0.55-0.79c-0.71-1.09-1.71-1.95-2.99-2.3
					c-1.2-0.33-2.79-0.18-3.85,0.5c-1.07,0.69-2.01,1.71-2.3,2.99c-0.29,1.27-0.24,2.73,0.5,3.85c1.07,1.63,2.35,3.1,3.83,4.38
					c1.49,1.28,3.09,2.43,4.65,3.63c-0.34-0.26-0.67-0.52-1.01-0.78c1.49,1.15,2.93,2.37,4.1,3.86c0.74,0.94,2.41,1.46,3.54,1.46
					c1.23,0,2.69-0.54,3.54-1.46c0.87-0.95,1.52-2.2,1.46-3.54c-0.06-0.44-0.12-0.89-0.18-1.33
					C737.38,217.09,736.95,216.35,736.33,215.73L736.33,215.73z"/>
			</g>
		</g>
		<g>
			<g>
				<path class="st2" d="M724.12,211.74c4.35,1.13,8.84,1.8,13.32,2.04c1.24,0.07,2.68-0.61,3.54-1.46
					c0.87-0.87,1.52-2.29,1.46-3.54c-0.13-2.83-2.2-4.85-5-5c-1.6-0.09-3.2-0.24-4.79-0.45c0.44,0.06,0.89,0.12,1.33,0.18
					c-2.43-0.33-4.83-0.8-7.2-1.42c-1.27-0.33-2.72-0.16-3.85,0.5c-1.04,0.61-2.03,1.8-2.3,2.99
					C720.03,208.2,721.41,211.03,724.12,211.74L724.12,211.74z"/>
			</g>
		</g>
		<g>
			<g>
				<path class="st2" d="M741.12,204.35c-5.73-4.06-12.28-7.05-19.07-8.81c-2.53-0.65-5.54,0.83-6.15,3.49
					c-0.59,2.61,0.78,5.45,3.49,6.15c1.63,0.42,3.23,0.91,4.81,1.48c0.69,0.25,1.37,0.52,2.06,0.79c0.5,0.2,0.39,0.16-0.32-0.14
					c0.19,0.08,0.39,0.17,0.58,0.25c0.38,0.17,0.77,0.34,1.15,0.52c2.95,1.38,5.76,3.03,8.41,4.91c1,0.71,2.71,0.82,3.85,0.5
					c1.16-0.32,2.42-1.22,2.99-2.3C744.27,208.62,743.41,205.97,741.12,204.35L741.12,204.35z"/>
			</g>
		</g>
		<g>
			<g>
				<path class="st2" d="M699.98,209.04c2.62,0,5.12-2.3,5-5c-0.12-2.71-2.2-5-5-5c-2.62,0-5.12,2.3-5,5
					C695.1,206.75,697.18,209.04,699.98,209.04L699.98,209.04z"/>
			</g>
		</g>
		<g>
			<g>
				<path class="st2" d="M698.65,151.67c1.35,8.4,1.43,16.95,1.66,25.44c0.23,8.74,0.47,17.47,0.7,26.21c0.09,3.21,5.09,3.22,5,0
					c-0.24-8.9-0.48-17.81-0.72-26.71c-0.24-8.79-0.44-17.58-1.83-26.27c-0.21-1.33-1.88-2.08-3.08-1.75
					C698.98,148.99,698.44,150.34,698.65,151.67L698.65,151.67z"/>
			</g>
		</g>
		<g>
			<g>
				<path class="st2" d="M698.26,137.49c-0.13,17.78,0.5,35.56,1.89,53.29c0.4,5.03,0.85,10.05,1.37,15.07
					c0.14,1.34,1.05,2.5,2.5,2.5c1.24,0,2.64-1.15,2.5-2.5c-1.82-17.69-2.89-35.45-3.19-53.23c-0.09-5.04-0.11-10.09-0.07-15.13
					C703.28,134.27,698.28,134.27,698.26,137.49L698.26,137.49z"/>
			</g>
		</g>
		<g>
			<g>
				<path class="st2" d="M700.59,136.04c-0.1,20.34,1.63,40.66,5.1,60.71c0.23,1.33,1.86,2.08,3.08,1.75
					c1.41-0.39,1.98-1.74,1.75-3.08c-3.39-19.6-5.02-39.49-4.92-59.38C705.61,132.82,700.61,132.82,700.59,136.04L700.59,136.04z"/>
			</g>
		</g>
		<g>
			<g>
				<path class="st2" d="M700.84,161.49c-0.36,7.75-0.39,15.66,1.65,23.21c1.01,3.74,2.58,7.31,4.32,10.77
					c1.54,3.08,3.03,6.9,5.73,9.17c1.03,0.87,2.52,1.01,3.54,0c0.89-0.89,1.04-2.66,0-3.54c-1.18-0.99-1.86-2.25-2.57-3.59
					c-0.81-1.51-1.61-3.03-2.38-4.56c-1.62-3.22-3.03-6.52-3.93-10.02c-1.8-6.98-1.68-14.28-1.35-21.43
					C705.99,158.28,700.99,158.28,700.84,161.49L700.84,161.49z"/>
			</g>
		</g>
		<g>
			<g>
				<path class="st2" d="M757.55,164.71c-2.03,3.69-3.15,7.74-4.4,11.73c-1.23,3.95-3.02,7.51-4.85,11.2
					c-1.9,3.81-3.31,7.75-4.15,11.93c-0.85,4.23-1.25,8.54-1.65,12.83c-0.12,1.35,1.24,2.5,2.5,2.5c1.46,0,2.38-1.15,2.5-2.5
					c0.37-4,0.74-8,1.56-11.94c0.82-3.92,2.16-7.54,3.97-11.11c1.84-3.64,3.58-7.25,4.81-11.15c1.18-3.72,2.14-7.52,4.03-10.96
					C763.42,164.42,759.1,161.89,757.55,164.71L757.55,164.71z"/>
			</g>
		</g>
		<g>
			<g>
				<path class="st2" d="M699.91,170.59c1.01,11.76,5.37,22.82,12.59,32.14c0.83,1.07,2.67,0.87,3.54,0c1.05-1.05,0.83-2.46,0-3.54
					c-6.34-8.18-10.25-18.3-11.13-28.61c-0.11-1.35-1.07-2.5-2.5-2.5C701.15,168.09,699.8,169.24,699.91,170.59L699.91,170.59z"/>
			</g>
		</g>
		<g>
			<g>
				<path class="st2" d="M700.04,132.09c-0.69,4.35-1.38,8.7-2.06,13.05c-0.2,1.29,0.33,2.75,1.75,3.08
					c1.2,0.27,2.86-0.36,3.08-1.75c0.69-4.35,1.38-8.7,2.06-13.05c0.2-1.29-0.33-2.75-1.75-3.08
					C701.91,130.07,700.26,130.71,700.04,132.09L700.04,132.09z"/>
			</g>
		</g>
		<g>
			<g>
				<path class="st2" d="M699.93,132.76c0.03,1.96-0.02,3.93-0.15,5.89c-0.06,0.94-0.15,1.88-0.25,2.82
					c-0.05,0.47-0.11,0.94-0.17,1.4c-0.04,0.3-0.04,0.31,0,0.04c-0.02,0.12-0.03,0.23-0.05,0.35c-0.04,0.27-0.08,0.54-0.12,0.82
					c-0.2,1.29,0.33,2.75,1.75,3.08c1.19,0.27,2.86-0.36,3.08-1.75c0.65-4.19,0.98-8.4,0.92-12.64c-0.02-1.31-1.14-2.56-2.5-2.5
					C701.09,130.32,699.91,131.36,699.93,132.76L699.93,132.76z"/>
			</g>
		</g>
		<g>
			<g>
				<path class="st2" d="M665.5,152.23c3.51,9.01,7.32,17.91,11.45,26.66c2.05,4.35,4.19,8.66,6.39,12.93
					c2.03,3.93,4.14,7.81,5.1,12.17c0.69,3.14,5.51,1.81,4.82-1.33c-0.98-4.45-3.09-8.53-5.18-12.54
					c-2.21-4.26-4.35-8.55-6.41-12.88c-4.1-8.64-7.89-17.42-11.36-26.33c-0.49-1.26-1.68-2.13-3.08-1.75
					C666.05,149.48,665.01,150.96,665.5,152.23L665.5,152.23z"/>
			</g>
		</g>
		<g>
			<g>
				<path class="st2" d="M670.33,149.2c-0.04-0.07-0.08-0.14-0.11-0.22c0.08,0.64,0.17,1.28,0.25,1.93
					c0.02-0.08,0.04-0.16,0.05-0.24c-0.21,0.37-0.43,0.74-0.64,1.1c-0.03,0.01-0.06,0.03-0.08,0.04c-0.42,0.11-0.84,0.23-1.26,0.34
					c0.09,0,0.18,0,0.28-0.01c-0.42-0.11-0.84-0.23-1.26-0.34c-0.31-0.46-0.36-0.5-0.13-0.11c0.11,0.24,0.22,0.48,0.32,0.72
					c0.26,0.61,0.52,1.21,0.78,1.82c0.52,1.21,1.04,2.43,1.56,3.64c0.97,2.28,1.95,4.55,2.92,6.83c2.01,4.7,4.03,9.41,6.04,14.11
					c2.01,4.7,4.03,9.41,6.04,14.11c0.62,1.44,1.78,3.26,1.07,4.84c-0.7,1.57-2.36,2.7-3.72,3.65c1.22,0.5,2.45,1,3.67,1.49
					c-2.75-7.66-0.44-16.02-1.8-23.92c-0.72-4.15-2.78-7.63-4.9-11.2c-2.2-3.71-3.83-7.62-4.87-11.81c-0.78-3.12-5.6-1.8-4.82,1.33
					c1.06,4.28,2.72,8.42,4.93,12.24c2.03,3.51,4.13,6.7,4.84,10.76c0.66,3.81,0.32,7.78,0.26,11.62c-0.06,4.14,0.13,8.37,1.54,12.3
					c0.5,1.4,2.25,2.48,3.67,1.49c3.13-2.18,6.67-5.14,6.44-9.36c-0.14-2.49-1.51-4.86-2.48-7.11c-0.97-2.28-1.95-4.55-2.92-6.83
					c-3.93-9.18-7.86-18.36-11.79-27.53c-0.52-1.21-1.04-2.43-1.56-3.64c-0.47-1.1-0.83-2.32-1.7-3.17
					c-2.53-2.47-6.57,0.5-4.92,3.63C667.51,154.57,671.83,152.05,670.33,149.2L670.33,149.2z"/>
			</g>
		</g>
		<g>
			<g>
				<path class="st2" d="M671.02,149.82c0.07,0.08,0.29,1.67,0.24,1.74c-0.17,0.2-0.49,0.1-0.62,0.2c-0.75,0.6-0.19-0.12-0.23,0.01
					c-0.03,0.1,0.45,0.75,0.51,0.88c0.2,0.41,0.36,0.83,0.53,1.25c0.87,2.13,1.73,4.26,2.6,6.39c1.73,4.26,3.46,8.53,5.2,12.79
					c2.84,6.99,5.41,14.35,9.82,20.54c2.42,3.39,5.33,6.34,8.93,8.45c2.78,1.63,5.3-2.69,2.52-4.32
					c-6.92-4.07-10.58-11.73-13.55-18.88c-1.93-4.64-3.79-9.32-5.69-13.98c-1.97-4.85-3.72-9.89-5.97-14.62
					c-1.06-2.23-3.3-4.09-5.88-3.28c-2.76,0.86-3.88,4.17-1.94,6.35C669.62,155.77,673.15,152.22,671.02,149.82L671.02,149.82z"/>
			</g>
		</g>
		<g>
			<g>
				<path class="st2" d="M679.85,188.51c-1.27,4.43,1.66,8.43,3.83,12.03c2.28,3.79,4.57,7.58,6.85,11.37
					c1.66,2.75,5.98,0.24,4.32-2.52c-2.07-3.43-4.13-6.86-6.2-10.29c-0.99-1.64-2.03-3.27-2.96-4.95c-0.73-1.32-1.46-2.79-1.02-4.32
					C685.56,186.74,680.74,185.42,679.85,188.51L679.85,188.51z"/>
			</g>
		</g>
		<g>
			<g>
				<path class="st2" d="M685.61,209.08c2.88-8.61,0.46-17.72-2.06-26.1c-2.73-9.08-5.47-18.15-8.21-27.23
					c-1.26-4.18-2.11-9.63-6.78-11.28c-1.38-0.49-2.59,0.57-3.08,1.75c-1.71,4.17,0.43,8.52,1.98,12.37
					c1.67,4.15,3.29,8.32,4.85,12.51c3.12,8.38,6,16.86,8.65,25.4c1.51,4.88,2.95,9.79,4.31,14.72c0.86,3.1,5.68,1.78,4.82-1.33
					c-4.64-16.78-10.16-33.32-16.57-49.51c-0.87-2.19-1.8-4.36-2.64-6.57c-0.78-2.06-1.46-4.13-0.59-6.26
					c-1.03,0.58-2.05,1.16-3.08,1.75c0.93,0.33,1.39,1.68,1.68,2.54c0.68,1.96,1.22,3.97,1.82,5.96c1.26,4.19,2.52,8.37,3.79,12.56
					c1.26,4.19,2.52,8.37,3.79,12.56c1.18,3.93,2.39,7.86,3.1,11.91c0.76,4.33,0.78,8.74-0.62,12.94
					C679.76,210.81,684.59,212.12,685.61,209.08L685.61,209.08z"/>
			</g>
		</g>
		<g>
			<g>
				<path class="st2" d="M746.02,204.14c6.26-10.45,10.8-21.91,13.37-33.82c-1.64-0.22-3.27-0.44-4.91-0.66
					c0.62,7.34-1.21,14.44-3.07,21.47c-1.87,7.1-3.42,14.13-3.65,21.5c-0.41,13.33,1.96,28.24-6.84,39.53
					c-4.02,5.16-9.69,8.93-16.01,10.61c-3.11,0.83-1.79,5.65,1.33,4.82c13.11-3.49,22.86-14.45,25.4-27.68
					c1.43-7.45,1.08-15.04,1.07-22.58c-0.01-3.72,0.06-7.45,0.51-11.15c0.46-3.75,1.37-7.44,2.32-11.09
					c2.15-8.31,4.67-16.76,3.94-25.45c-0.1-1.24-0.87-2.3-2.17-2.46c-1.17-0.14-2.48,0.56-2.74,1.79
					c-2.48,11.52-6.81,22.51-12.86,32.62C740.05,204.38,744.37,206.9,746.02,204.14L746.02,204.14z"/>
			</g>
		</g>
		<g>
			<g>
				<path class="st2" d="M692.82,280.36c3.8-6.06-4.18-11.9-7.95-15.49c-2.64-2.51-5.27-5.02-7.91-7.52
					c-2.19-2.08-4.67-4.11-6.3-6.69c-1.63-2.58-2.37-5.58-3.24-8.48c-0.73-2.44-1.46-4.88-2.36-7.26
					c-1.87-4.95-4.39-9.72-8.68-12.97c-2.5-1.9-5.44-2.94-8.45-3.73c-3.07-0.81-6.19-1.45-8.82-3.32c-1.1-0.78-2.78-0.2-3.42,0.9
					c-0.73,1.25-0.21,2.64,0.9,3.42c4.49,3.19,10.19,3.04,14.95,5.55c4.01,2.12,6.47,6.06,8.17,10.14
					c1.96,4.69,2.91,9.72,4.77,14.44c1.21,3.08,2.96,5.66,5.28,8.01c2.23,2.27,4.6,4.41,6.9,6.6c2.76,2.62,5.51,5.24,8.27,7.86
					c1.23,1.17,4.82,4.01,3.57,6.01C686.79,280.57,691.12,283.08,692.82,280.36L692.82,280.36z"/>
			</g>
		</g>
		<g>
			<g>
				<path class="st2" d="M641.95,216.52c0.03,1.09-1.11,0.48-0.17,1.04c0.72,0.42,1.38,0.95,2.06,1.44c1.45,1.05,2.9,2.1,4.35,3.15
					c2.83,2.06,5.64,4.14,8.44,6.24c5.63,4.21,11.21,8.49,16.73,12.83c1.06,0.83,2.5,1.03,3.54,0c0.87-0.87,1.07-2.7,0-3.54
					c-6.76-5.31-13.58-10.53-20.48-15.66c-3.4-2.52-6.81-5.02-10.25-7.49c-1.64-1.19-3.36-2.47-5.51-2.17
					c-2.08,0.29-3.76,2-3.71,4.16C637.04,219.73,642.04,219.75,641.95,216.52L641.95,216.52z"/>
			</g>
		</g>
		<g>
			<g>
				<path class="st2" d="M674.07,237.84c-0.33-0.09-0.38-0.13-0.67-0.38c-0.38-0.32-0.72-0.71-1.09-1.04
					c-0.94-0.82-1.97-1.49-3.23-1.68c-2.73-0.4-5.58,2.14-4.62,4.99c0.89,2.62,4.87,2.25,4.91-0.66c0.02-1.24,0.52-2.49,1.59-3.36
					c1.12-0.91,2.9-1.2,4.37-1.47c4.08-0.77,8.16-1.52,12.24-2.28c1.33-0.25,2.08-1.85,1.75-3.08c-0.38-1.39-1.74-1.99-3.08-1.75
					c-4.63,0.86-9.37,1.52-13.95,2.64c-4.48,1.09-7.86,4.53-7.92,9.3c1.64-0.22,3.27-0.44,4.91-0.66c0.08,0.24-0.11,0.92-0.35,1.11
					c0.6-0.46-0.64,0.35-0.62,0.13c0-0.02,0.98,0.79,1.02,0.83c1,0.97,2.05,1.83,3.42,2.19
					C675.85,243.48,677.18,238.66,674.07,237.84L674.07,237.84z"/>
			</g>
		</g>
		<g>
			<g>
				<path class="st2" d="M704.94,186.1c1.9,4.08,4.04,8.05,6.41,11.88c0.69,1.11,2.27,1.64,3.42,0.9c1.11-0.72,1.63-2.23,0.9-3.42
					c-2.37-3.83-4.51-7.8-6.41-11.88c-0.55-1.19-2.36-1.58-3.42-0.9C704.61,183.47,704.35,184.83,704.94,186.1L704.94,186.1z"/>
			</g>
		</g>
		<g>
			<g>
				<path class="st2" d="M721.46,184.76c-0.03,0.64-0.08,1.27-0.15,1.9c-0.04,0.3-0.04,0.31-0.01,0.04
					c-0.02,0.16-0.05,0.31-0.07,0.47c-0.04,0.23-0.08,0.47-0.13,0.7c-0.24,1.21-0.56,2.4-0.97,3.56c-0.09,0.26-0.19,0.52-0.29,0.78
					c-0.06,0.15-0.12,0.3-0.18,0.44c0.1-0.23,0.09-0.21-0.03,0.06c-0.25,0.54-0.5,1.08-0.78,1.61c-0.57,1.09-1.23,2.13-1.95,3.13
					c-0.77,1.06-0.22,2.83,0.9,3.42c1.3,0.68,2.6,0.24,3.42-0.9c3.2-4.42,4.97-9.77,5.23-15.22c0.06-1.31-1.19-2.56-2.5-2.5
					C722.55,182.33,721.53,183.36,721.46,184.76L721.46,184.76z"/>
			</g>
		</g>
		<g>
			<g>
				<path class="st2" d="M690.23,197.63c1.45,0.22,2.9,0.44,4.35,0.66c1.56,0.23,3.13,0.43,4.69,0.01c3.01-0.83,4.34-3.57,5.21-6.31
					c0.39-1.25-0.46-2.78-1.75-3.08c-1.36-0.31-2.65,0.41-3.08,1.75c-0.14,0.45-0.29,0.9-0.46,1.34c-0.03,0.07-0.17,0.44-0.03,0.09
					c0.13-0.34-0.01,0.01-0.05,0.08c-0.11,0.22-0.22,0.44-0.36,0.65c-0.04,0.07-0.16,0.19-0.18,0.27c0.02-0.1,0.33-0.38,0.09-0.13
					c-0.07,0.08-0.14,0.16-0.22,0.23c-0.03,0.03-0.43,0.37-0.11,0.12c0.29-0.23-0.01-0.01-0.08,0.03c-0.07,0.04-0.42,0.18-0.11,0.08
					c0.38-0.13-0.58,0.14-0.58,0.14c0.02-0.06,0.53-0.04,0.11-0.02c-0.12,0.01-0.25,0.01-0.37,0.02c-0.25,0-0.5,0-0.76-0.02
					c-0.16-0.01-0.32-0.03-0.47-0.04c-0.07-0.01-0.5-0.06-0.14-0.01c0.36,0.05-0.07-0.01-0.14-0.02c-0.14-0.02-0.28-0.04-0.42-0.06
					c-1.28-0.19-2.56-0.39-3.84-0.58c-0.69-0.1-1.3-0.11-1.93,0.25c-0.52,0.3-1.01,0.9-1.15,1.49
					C688.22,195.74,688.85,197.42,690.23,197.63L690.23,197.63z"/>
			</g>
		</g>
		<g>
			<g>
				<path class="st2" d="M758.85,161.69c-4.1-0.34-6.62,3.48-8,6.79c-1.69,4.07-2.94,8.32-3.88,12.62
					c-1.91,8.74-2.6,17.69-3.28,26.59c-0.1,1.35,1.22,2.5,2.5,2.5c1.44,0,2.4-1.15,2.5-2.5c0.6-7.85,1.19-15.73,2.73-23.47
					c0.77-3.87,1.77-7.7,3.1-11.42c0.69-1.94,1.91-6.31,4.33-6.11c1.35,0.11,2.5-1.23,2.5-2.5
					C761.35,162.74,760.2,161.8,758.85,161.69L758.85,161.69z"/>
			</g>
		</g>
		<g>
			<g>
				<path class="st2" d="M676.82,238.51c-3.11-2.03-6.26-4.04-9.07-6.48c-2.92-2.53-5.17-5.64-7.92-8.33
					c-5.31-5.2-12.24-8.19-19.16-10.58c-1.28-0.44-2.73,0.5-3.08,1.75c-0.38,1.37,0.47,2.63,1.75,3.08
					c6.56,2.27,13.08,5.13,17.91,10.27c2.58,2.75,4.89,5.66,7.82,8.07c2.92,2.4,6.07,4.49,9.23,6.55
					C677,244.59,679.51,240.26,676.82,238.51L676.82,238.51z"/>
			</g>
		</g>
		<g>
			<g>
				<path class="st2" d="M637.1,216.4c0.12-0.91,0.5-1.4,1.14-1.47c-0.33,0-0.38,0-0.16-0.02c-0.37-0.15-0.76-0.23-1.08-0.48
					c-0.1-0.08-0.35-0.37-0.34-0.37c0.14,0.01-0.4,0.51-0.41,0.44c-0.02-0.14,2.28,0.51,2.41,0.55c1.02,0.37,2,0.84,2.96,1.35
					c4.33,2.31,8.4,5.2,12.54,7.85c2,1.28,3.97,2.41,5.5,4.26c1.47,1.77,2.97,3.33,4.82,4.71c3.55,2.65,7.73,4.32,11.89,5.75
					c1.28,0.44,2.73-0.5,3.08-1.75c0.38-1.37-0.46-2.63-1.75-3.08c-3.96-1.36-8.06-2.98-11.28-5.74c-1.7-1.45-2.88-3.35-4.51-4.84
					c-1.9-1.75-4.26-3.02-6.43-4.41c-4.08-2.61-8.11-5.55-12.48-7.66c-2.02-0.97-4.4-2.1-6.7-2.02c-2.59,0.09-4.75,2.07-4.61,4.76
					c0.15,2.79,2.37,4.68,4.91,5.44c2.37,0.71,5.65-0.34,5.53-3.28C641.96,213.2,636.96,213.18,637.1,216.4L637.1,216.4z"/>
			</g>
		</g>
		<g>
			<g>
				<path class="st2" d="M636.11,213.8c3.14-1.82,6.81-0.46,9.66,1.27c3.39,2.06,6.52,4.64,9.69,7.02
					c6.59,4.95,13.06,10.08,19.03,15.79c2.32,2.23,5.87-1.31,3.54-3.54c-6.61-6.33-13.85-11.94-21.17-17.42
					c-6.41-4.79-14.83-12.33-23.27-7.44C630.8,211.09,633.32,215.42,636.11,213.8L636.11,213.8z"/>
			</g>
		</g>
		<g>
			<g>
				<path class="st2" d="M674.75,232.79c-6.84-9.75-16.41-17.17-27.54-21.38c-1.26-0.48-2.74,0.53-3.08,1.75
					c-0.39,1.4,0.48,2.6,1.75,3.08c9.83,3.72,18.52,10.48,24.55,19.08c0.77,1.1,2.19,1.62,3.42,0.9
					C674.94,235.57,675.53,233.9,674.75,232.79L674.75,232.79z"/>
			</g>
		</g>
		<g>
			<g>
				<path class="st2" d="M660.02,219.5c-2.3-3.14-4.84-6.41-8.51-8.01c-4.48-1.95-8.77-0.29-12.85,1.82c-1.81,0.94-1.42,3.29,0,4.32
					c11.28,8.15,22.57,16.77,31.24,27.77c0.84,1.06,2.66,0.88,3.54,0c1.05-1.05,0.84-2.47,0-3.54
					c-8.93-11.33-20.64-20.16-32.26-28.55c0,1.44,0,2.88,0,4.32c2.6-1.35,5.55-2.88,8.46-1.53c2.57,1.19,4.42,3.7,6.05,5.92
					c0.8,1.09,2.17,1.63,3.42,0.9C660.19,222.29,660.82,220.59,660.02,219.5L660.02,219.5z"/>
			</g>
		</g>
		<g>
			<g>
				<path class="st2" d="M639.31,217.69c6.96,1.39,10.84,8.59,14.43,14.01c5.14,7.75,10.28,15.5,15.42,23.24
					c1.77,2.67,6.1,0.17,4.32-2.52c-5.42-8.16-10.83-16.33-16.25-24.49c-4.11-6.19-8.74-13.49-16.6-15.06
					c-1.32-0.26-2.7,0.38-3.08,1.75C637.23,215.84,637.98,217.42,639.31,217.69L639.31,217.69z"/>
			</g>
		</g>
		<g>
			<g>
				<path class="st2" d="M689.16,302.64c1.64-3.5,3.55-6.86,5.71-10.06c0.73-1.09,0.24-2.82-0.9-3.42c-1.26-0.67-2.64-0.26-3.42,0.9
					c-2.16,3.2-4.07,6.57-5.71,10.06c-0.29,0.62-0.44,1.24-0.25,1.93c0.16,0.58,0.61,1.21,1.15,1.49
					C686.85,304.12,688.57,303.9,689.16,302.64L689.16,302.64z"/>
			</g>
		</g>
		<g>
			<g>
				<path class="st2" d="M691,306.21c4.33,0.76,8.7,1.32,13.08,1.61c4.08,0.27,8.3,0.48,12.38,0.12c3.23-0.29,6.8-1.21,8.59-4.18
					c2.16-3.59,0.3-8.26-0.18-12.08c-0.6-4.81-0.77-9.66-0.56-14.5c0.14-3.22-4.86-3.21-5,0c-0.22,5-0.01,10.01,0.63,14.98
					c0.3,2.34,0.89,4.67,1.11,7.01c0.14,1.52-0.26,2.47-1.61,3.09c-1.48,0.67-3.21,0.74-4.8,0.78c-2.45,0.07-4.91,0.05-7.36-0.04
					c-5.01-0.19-10-0.72-14.94-1.6c-1.33-0.23-2.69,0.36-3.08,1.75C688.92,304.34,689.66,305.97,691,306.21L691,306.21z"/>
			</g>
		</g>
		<g>
			<g>
				<path class="st2" d="M690.86,303.28c2.53-2.08,5.05-4.17,7.58-6.25c0.47-0.38,0.73-1.19,0.73-1.77c0-0.61-0.27-1.35-0.73-1.77
					c-0.48-0.44-1.1-0.76-1.77-0.73c-0.7,0.03-1.23,0.29-1.77,0.73c-2.53,2.08-5.05,4.17-7.58,6.25c-0.47,0.38-0.73,1.19-0.73,1.77
					c0,0.61,0.27,1.35,0.73,1.77c0.48,0.44,1.1,0.76,1.77,0.73C689.79,303.98,690.32,303.72,690.86,303.28L690.86,303.28z"/>
			</g>
		</g>
		<g>
			<g>
				<path class="st2" d="M721.67,244.34c0.16-0.46,0.33-0.91,0.52-1.36c-0.08,0.2-0.17,0.4-0.25,0.6c0.66-1.55,1.52-3.01,2.54-4.34
					c-0.13,0.17-0.26,0.34-0.39,0.51c0.21-0.27,0.42-0.53,0.64-0.78c0.44-0.51,0.73-1.07,0.73-1.77c0-0.61-0.27-1.35-0.73-1.77
					c-0.48-0.44-1.1-0.76-1.77-0.73c-0.63,0.03-1.34,0.23-1.77,0.73c-1.93,2.26-3.38,4.78-4.34,7.59c-0.2,0.59-0.06,1.4,0.25,1.93
					c0.3,0.52,0.9,1.01,1.49,1.15C719.99,246.4,721.22,245.67,721.67,244.34L721.67,244.34z"/>
			</g>
		</g>
		<g>
			<g>
				<path class="st2" d="M698.95,131.32c-2.71,3.61-2.18,8.32-1.47,12.49c0.82,4.84,1.25,9.63,1.25,14.54
					c0.02,9.71-0.87,19.41,0.55,29.08c0.75,5.15,2.25,10.15,4.72,14.74c1.53,2.83,5.84,0.31,4.32-2.52
					c-4.05-7.54-4.87-16.23-4.88-24.65c-0.02-9.66,0.88-19.32-0.53-28.94c-0.57-3.9-2.26-8.73,0.36-12.21
					c0.81-1.08,0.17-2.79-0.9-3.42C701.1,129.68,699.77,130.24,698.95,131.32L698.95,131.32z"/>
			</g>
		</g>
		<g>
			<g>
				<path class="st2" d="M693.44,245.81c3.22,0,3.22-5,0-5C690.22,240.81,690.21,245.81,693.44,245.81L693.44,245.81z"/>
			</g>
		</g>
		<g>
			<g>
				<path class="st2" d="M668.92,241.92c-1.32-3.67-3.54-6.79-6.12-9.69c-2.41-2.7-5.01-5.26-7.8-7.56
					c-5.66-4.67-12.05-8.17-19.41-9.07c-1.34-0.16-2.5,1.27-2.5,2.5c0,1.49,1.15,2.33,2.5,2.5c6.05,0.74,11.59,4.02,16.19,7.87
					c2.45,2.06,4.74,4.31,6.91,6.66c2.2,2.4,4.3,5.02,5.41,8.12c0.46,1.27,1.7,2.12,3.08,1.75
					C668.4,244.66,669.38,243.2,668.92,241.92L668.92,241.92z"/>
			</g>
		</g>
		<g>
			<g>
				<path class="st2" d="M634.56,214.64c-0.68,0.07,0.34,0.25,0.58,0.34c-0.06-0.02,0.64,0.57,0.15,0.08
					c0.01,0.06,0.02,0.12,0.03,0.17c0.01-0.31,0.01-0.33-0.01-0.08c-0.03,0.04-0.06,0.09-0.08,0.13c0.23-0.35,0.14-0.3-0.27,0.16
					c-0.16-0.19,1.36-0.1,1.43-0.08c0.77,0.18,1.47,0.51,2.18,0.85c2.34,1.14,4.57,2.53,6.65,4.09c4.15,3.12,7.74,7.02,11.05,11.02
					c6.85,8.27,12.62,17.47,20.26,25.08c4.21,4.19,9.03,7.85,14.5,10.24c1.24,0.54,2.68,0.36,3.42-0.9c0.62-1.06,0.35-2.88-0.9-3.42
					c-10.77-4.71-18.16-14.12-25.05-23.28c-7.19-9.55-14.43-19.76-25-25.86c-3.2-1.85-7.75-4.39-11.26-1.9
					c-3.13,2.22-2.21,8.81,2.31,8.35c1.34-0.14,2.5-1.05,2.5-2.5C637.06,215.9,635.91,214.5,634.56,214.64L634.56,214.64z"/>
			</g>
		</g>
		<path class="st3" d="M736.35,300.44c0.52-3.1-3.64-4.42-4.73-12c-0.32-2.2-0.73-7.39-0.73-13.09c0,0,0,0,0,0
			c1.78-0.11,3.15-0.46,4-0.73c20.77-6.52,25.33-53.59,25.45-71.27c0.03-4.61-0.23-8.11,0.73-13.82c1.21-7.23,5.23-23.13,5.82-25.45
			c0.78-3.1,1.52-5.93,0-7.64c-2.47-2.78-9.09-0.49-9.45-0.36c-14.67,5.22-17,36.53-17.82,36.36c-0.68-0.14,2.33-21.82,3.64-31.27
			c0.1-0.71,0.94-6.97,0.73-15.27c-0.32-12.73-2.34-14.81-3.64-15.64c-2.79-1.77-6.83-0.96-9.43,0.63
			c-3.09,1.88-4.59,5.11-6.55,14.18c-2.32,10.73-2.49,16.68-4.36,27.64c-1.46,8.5-2.45,14.3-3.66,14.28
			c-2.15-0.04-4.87-18.66-4.89-33.55c-0.01-4.74,0.28,4.84-0.93-14.08c-0.37-5.77-0.57-9.12-2.89-12.46
			c-0.68-0.99-3.47-4.99-6.57-4.63c-4.38,0.51-6.39,9.39-6.91,11.64c-0.91,3.99-0.81,7.16-0.73,9.09
			c0.75,18.35,1.12,27.52,2.19,37.3c0.4,3.64,0.76,6.62,0.35,6.7c-0.58,0.12-2.18-5.81-5.09-15.27
			c-0.84-2.73-7.82-25.03-15.27-31.27c-1.93-1.62-4.35-2.57-4.35-2.57c-1.56-0.62-4.74-1.88-7.04-0.79
			c-1.48,0.7-3.11,2.63-3.52,8.45c-0.66,9.37,2.64,17.05,5.09,23.27c0,0,8.8,22.38,10.55,40.36c0.26,2.72,0.05,5.57-0.36,11.27
			c-0.26,3.53-0.47,4.47-1.09,4.73c-1.86,0.76-4.97-5.54-9.82-10.55c-8.5-8.79-23.43-14.72-32.36-9.82
			c-0.81,0.44-5.4,3.08-6.55,8.36c-0.15,0.68-1.62,7.25,2.91,10.91c2.19,1.77,3.74,0.68,8,1.82c4.23,1.12,6.92,3.39,9.82,5.82
			c5.01,4.2,7.54,8.62,11.27,15.27c4.84,8.63,4.38,10.42,8.36,15.27c4.1,4.99,5.28,3.93,9.09,8.36c0.8,0.93,10.69,12.76,7.64,24.36
			c-1.79,6.8-6.53,7.82-5.82,10.55C679.8,314.61,734.52,311.32,736.35,300.44z"/>
	</g>
	<path d="M122.93,220.91c0.29-0.2-0.81-1.35-1.31-3.71c-0.19-0.89-0.95-4.46,1.09-7.64c2.28-3.54,6.57-4.28,8.08-4.54
		c1.39-0.24,4.92-0.85,8.3,1.03c4.95,2.75,5.41,8.48,5.46,9.29c0.41,6.5-4.99,10.78-6.34,11.76c-4.63,3.39-9.78,3.34-11.58,3.3
		c-7.03-0.16-15.05-3.95-18.57-11.14c-4.95-10.1,2.41-19.85,3.93-21.87c1.91-2.53,2.85-2.75,8.3-7.22
		c9.64-7.91,15.81-12.97,19.23-19.4c4.75-8.92,2.93-18.1,2.4-21.25c-0.64-3.83-1.42-9.16-5.24-14.03c-1.39-1.77-2.22-2.79-3.5-2.89
		c-4.42-0.34-10.16,10.65-11.36,21.05c-0.22,1.86-0.35,4.28,2.19,18.78c1.24,7.1,2.44,13.17,5.03,25.59
		c2.77,13.31,4.15,19.96,4.59,21.25c0.26,0.77,3.02,8.95,5.03,18.78c0.32,1.56,0.88,4.44,0.22,8.05c-0.47,2.58-1.2,6.61-4.81,9.08
		c0,0-3.76,2.58-9.26,1.83c-1.09-0.15-1.19-0.36-4.53-1.13c-0.31-0.07-1.3-0.3-1.28-0.49c0.01-0.12,0.42-0.19,0.49-0.21
		c0.36-0.06,0.65-0.01,0.68,0c0.58,0.11,2.45-0.21,3.71-0.85c1.65-0.83,2.41-2.26,2.87-3.12c0.39-0.74,2.92-5.47,0.27-9.18
		c-2.64-3.7-9.02-4.46-12.67-1.7c-3.66,2.77-2.91,7.82-2.79,8.67c0.58,3.91,3.28,6.27,4.15,7.02c4.98,4.24,11.52,3.25,12.45,3.1
		c0.51-0.09,7.04-1.27,10.54-6.81c2.23-3.52,2.07-6.95,1.86-11.56c-0.04-0.87-0.15-2.61-1.91-10.27c-1.29-5.61-1.9-7.61-3.28-13.26
		c-0.7-2.88-1.36-5.82-2.68-11.71c-2.06-9.23-3.1-14.32-3.39-15.73c-0.61-2.99-0.47-2.43-0.87-4.39c-1.95-9.45-2.7-10.81-3.17-14.7
		c-0.49-4.11-0.2-7.16,0.11-10.47c0,0,0.55-5.86,3.93-14.44c0.42-1.06,1.25-3.06,3.28-4.02c0.35-0.16,1.57-0.74,2.9-0.41
		c1.91,0.48,2.8,2.54,3.28,3.71c1.99,4.86,0.31,9.87-0.16,11.14c-0.92,2.51-3.16,5.23-7.65,10.68c-1.18,1.43-2.45,2.9-4.37,4.49
		c-1.62,1.34-2.4,1.69-4.04,2.89c-0.58,0.43-2.06,1.53-5.9,5.42c-3.69,3.73-5.53,5.6-7.32,7.94c-1.49,1.96-3.36,4.44-5.03,8.1
		c-0.77,1.69-2.26,5.02-2.84,9.6c-0.43,3.35-0.96,7.54,1.04,12.12c1.72,3.93,4.46,6.22,6.5,7.89c2.02,1.65,8.58,7.02,18.41,6.91
		c2.03-0.02,8.83-0.19,14.97-4.8c1.73-1.3,5.52-4.22,7.16-9.44c0.43-1.38,2.51-7.99-1.8-13.88c-3.41-4.65-8.92-6.26-12.13-6.45
		c-0.93-0.06-2.31-0.03-3.55,0.05c-2.12,0.14-4.44,0.3-6.61,1.13c-4.38,1.68-6.48,5.47-7.05,6.5c-0.9,1.63-2.45,4.42-1.75,7.94
		C117.63,218.22,122.4,221.27,122.93,220.91z"/>
	<g>
		<g>
			<g>
				<rect x="90.37" y="357.88" class="st4" width="30.55" height="129.82"/>
				<rect x="120.91" y="357.88" class="st4" width="30.55" height="129.82"/>
				<rect x="151.46" y="357.88" class="st4" width="30.55" height="129.82"/>
				<rect x="182" y="357.88" class="st4" width="30.55" height="129.82"/>
				<rect x="212.55" y="357.88" class="st4" width="30.55" height="129.82"/>
				<rect x="243.09" y="357.88" class="st4" width="30.55" height="129.82"/>
				<rect x="273.64" y="357.88" class="st4" width="30.55" height="129.82"/>
				<rect x="304.19" y="357.88" class="st4" width="30.55" height="129.82"/>
				<rect x="334.73" y="357.88" class="st4" width="30.55" height="129.82"/>
				<rect x="365.28" y="357.88" class="st4" width="30.55" height="129.82"/>
				<rect x="395.82" y="357.88" class="st4" width="30.55" height="129.82"/>
				<rect x="426.37" y="357.88" class="st4" width="30.55" height="129.82"/>
				<rect x="456.91" y="357.88" class="st4" width="30.55" height="129.82"/>
				<rect x="487.46" y="357.88" class="st4" width="30.55" height="129.82"/>
				<rect x="518" y="357.88" class="st4" width="30.55" height="129.82"/>
				<rect x="548.55" y="357.88" class="st4" width="30.55" height="129.82"/>
				<rect x="579.09" y="357.88" class="st4" width="30.55" height="129.82"/>
				<rect x="609.64" y="357.88" class="st4" width="30.55" height="129.82"/>
				<rect x="640.19" y="357.88" class="st4" width="30.55" height="129.82"/>
				<rect x="670.73" y="357.88" class="st4" width="30.55" height="129.82"/>
			</g>
			<rect x="110.37" y="357.88" class="st5" width="18.91" height="77.09"/>
			<rect x="142" y="357.88" class="st5" width="18.91" height="77.09"/>
			<rect x="203.09" y="357.88" class="st5" width="18.91" height="77.09"/>
			<rect x="233.64" y="357.88" class="st5" width="18.91" height="77.09"/>
			<rect x="264.19" y="357.88" class="st5" width="18.91" height="77.09"/>
			<rect x="325.28" y="357.88" class="st5" width="18.91" height="77.09"/>
			<rect x="325.28" y="357.88" class="st5" width="18.91" height="77.09"/>
			<rect x="356.91" y="357.88" class="st5" width="18.91" height="77.09"/>
			<rect x="418" y="357.88" class="st5" width="18.91" height="77.09"/>
			<rect x="448.55" y="357.88" class="st5" width="18.91" height="77.09"/>
			<rect x="479.09" y="357.88" class="st5" width="18.91" height="77.09"/>
			<rect x="540.19" y="357.88" class="st5" width="18.91" height="77.09"/>
			<rect x="540.19" y="357.88" class="st5" width="18.91" height="77.09"/>
			<rect x="571.82" y="357.88" class="st5" width="18.91" height="77.09"/>
			<rect x="632.91" y="357.88" class="st5" width="18.91" height="77.09"/>
			<rect x="663.46" y="357.88" class="st5" width="18.91" height="77.09"/>
		</g>
		<rect x="360.62" y="362.42" class="st6" width="10.91" height="68.44"/>
		<rect x="431.17" y="439.34" class="st7" width="20.73" height="43.88"/>
		<rect x="440.61" y="362.42" class="st8" width="4.41" height="116.43"/>
		<rect x="309.47" y="364.83" class="st9" width="10.55" height="116.94"/>
		<rect x="309.47" y="441.46" class="st9" width="20.36" height="40.3"/>
	</g>
	<g>
		<g>
			<g>
				<path class="st10" d="M220.61,275.43c-8.17-1.44-11.34,8.37-10.16,14.81c1.25,6.78,9.1,10.49,15.42,10.04
					c6.61-0.46,12.33-4.93,14.31-11.28c1.07-3.44,0.77-6.88-1.15-9.95c-1.83-2.92-4.09-6.02-7.32-7.44
					c-6.49-2.86-14.65-0.98-19.25,4.42c-1.55,1.83,1.09,4.49,2.65,2.65c2.97-3.49,7.75-5.32,12.3-4.5c2.64,0.47,4.61,1.7,6.26,3.8
					c1.58,2.01,3.45,4.27,3.42,6.95c-0.05,4.72-3.47,9.25-7.86,10.86c-4.59,1.69-10.43,0.63-13.63-3.24
					c-1.89-2.29-1.9-5.34-1.34-8.15c0.49-2.48,2.25-5.91,5.34-5.36C221.97,279.46,222.98,275.85,220.61,275.43L220.61,275.43z"/>
			</g>
		</g>
		<g>
			<g>
				<path class="st10" d="M195.02,288.29c21.29,0.03,42.58,0.07,63.87,0.1c2.41,0,2.42-3.75,0-3.75
					c-21.29-0.03-42.58-0.07-63.87-0.1C192.61,284.54,192.61,288.29,195.02,288.29L195.02,288.29z"/>
			</g>
		</g>
	</g>
	<g>
		<g>
			<path class="st6" d="M340.45,262.19c-3.67-0.59-7.26,0.97-9.37,4.05c-2.04,2.98-2.68,7.63-1.86,11.11
				c1.69,7.16,10.66,10.28,17.2,9.91c7.04-0.4,13.74-4.53,16.16-11.34c1.35-3.77,0.74-7.42-1.65-10.6c-2.3-3.06-4.77-5.86-8.44-7.22
				c-7.03-2.6-15.88-0.74-21.09,4.69c-1.67,1.74,0.98,4.4,2.65,2.65c3.51-3.67,8.93-5.23,13.91-4.6c2.86,0.36,5.37,1.44,7.34,3.56
				c1.85,1.99,4.3,4.47,4.28,7.36c-0.05,5.26-4.63,9.61-9.38,11.06c-5.11,1.55-11.6,0.69-15.47-3.23c-2.31-2.34-2.41-5.53-1.66-8.59
				c0.69-2.87,3.1-5.72,6.37-5.2c1.01,0.16,2.01-0.26,2.31-1.31C342.02,263.61,341.45,262.35,340.45,262.19L340.45,262.19z"/>
		</g>
	</g>
	<g>
		<g>
			<path class="st11" d="M452.2,222.11c-9.28-1.81-12.22,10.16-11.14,17.06c1.21,7.73,9.69,12.45,17.01,11.94
				c7.54-0.53,13.72-5.93,15.88-13.09c1.21-4.02,0.94-8.03-1.18-11.67c-2.01-3.45-4.54-7.2-8.28-8.89
				c-7.27-3.28-16.25-0.94-21.19,5.28c-0.63,0.8-0.77,1.87,0,2.65c0.65,0.66,2.02,0.79,2.65,0c3.27-4.11,8.69-6.51,13.95-5.49
				c1.33,0.26,2.64,0.68,3.82,1.36c1.49,0.86,2.56,2.19,3.55,3.57c1.95,2.72,3.89,5.43,3.68,8.93c-0.32,5.44-4.01,10.85-9.17,12.77
				c-5.39,2.01-12.29,0.41-15.59-4.51c-2.02-3-1.88-6.96-1.1-10.37c0.63-2.73,2.69-6.6,6.12-5.93
				C453.56,226.18,454.57,222.57,452.2,222.11L452.2,222.11z"/>
		</g>
	</g>
	<g>
		<g>
			<path class="st10" d="M638.73,217.68c3.22,0,3.22-5,0-5C635.51,212.68,635.5,217.68,638.73,217.68L638.73,217.68z"/>
		</g>
	</g>
	<g>
		<g>
			<path class="st10" d="M639.09,219.82c2.62,0,5.12-2.3,5-5c-0.12-2.71-2.2-5-5-5c-2.62,0-5.12,2.3-5,5
				C634.21,217.53,636.29,219.82,639.09,219.82L639.09,219.82z"/>
		</g>
	</g>
	<g>
		<g>
			<path class="st6" d="M701.27,140.18c2.62,0,5.12-2.3,5-5c-0.12-2.71-2.2-5-5-5c-2.62,0-5.12,2.3-5,5
				C696.39,137.89,698.47,140.18,701.27,140.18L701.27,140.18z"/>
		</g>
	</g>
	<g>
		<g>
			<path class="st6" d="M704.02,138.54c3.22,0,3.22-5,0-5C700.81,133.54,700.8,138.54,704.02,138.54L704.02,138.54z"/>
		</g>
	</g>
	<g>
		<g>
			<path class="st6" d="M703.09,136.66c0.8,0,0.81-1.25,0-1.25C702.29,135.41,702.28,136.66,703.09,136.66L703.09,136.66z"/>
		</g>
	</g>
	<g>
		<g>
			<path class="st6" d="M701.27,136.66c0.8,0,0.81-1.25,0-1.25C700.47,135.41,700.47,136.66,701.27,136.66L701.27,136.66z"/>
		</g>
	</g>
	<g>
		<path class="st7" d="M699.39,135.18"/>
		<g>
			<path class="st6" d="M699.39,135.81c0.8,0,0.81-1.25,0-1.25C698.58,134.56,698.58,135.81,699.39,135.81L699.39,135.81z"/>
		</g>
	</g>
	<g>
		<g>
			<path class="st6" d="M756.55,167.44c0.8,0,0.81-1.25,0-1.25C755.74,166.19,755.74,167.44,756.55,167.44L756.55,167.44z"/>
		</g>
	</g>
	<g>
		<g>
			<path class="st6" d="M758.73,165.99c0.8,0,0.81-1.25,0-1.25C757.92,164.74,757.92,165.99,758.73,165.99L758.73,165.99z"/>
		</g>
	</g>
	<g>
		<g>
			<path class="st11" d="M757.27,170.36c2.62,0,5.12-2.3,5-5c-0.12-2.71-2.2-5-5-5c-2.62,0-5.12,2.3-5,5
				C752.39,168.07,754.47,170.36,757.27,170.36L757.27,170.36z"/>
		</g>
	</g>
	<g>
		<path class="st12" d="M316.16,298.68"/>
		<path class="st13" d="M289.52,321.59c0.19-0.64,0.36-1.47,0-1.82c-0.33-0.32-0.82,0.03-1.47-0.12c-1.01-0.23-1.7-1.47-1.92-2.31
			c-0.62-2.41,1.92-4.79,2.26-5.1c1.03-0.94,2.44-1.7,5.76-2.07c3.99-0.44,7.21-0.8,11.06,0.97c1.16,0.53,6.12,2.82,8.24,8.26
			c0.46,1.19,0.61,2.07,0.9,3.77c0.56,3.29,1.25,7.32,0.11,11.91c-1.75,7.06-6.73,11.06-8.69,11.79c-0.84,0.31-1.81,0.49-1.81,0.49
			c-1.82,0.33-3.03,0.08-3.39,0c-0.76-0.18-1.65-0.38-1.81-0.97c-0.11-0.43,0.24-0.76,0.56-1.46c0.09-0.21,0.38-0.86,0.45-2.79
			c0.22-5.76-1.77-13.52-1.24-20.53c0.07-0.96,0.28-3.11-0.9-4.25c-0.61-0.59-1.55-0.88-2.37-0.61c-1.54,0.51-1.79,2.74-1.81,2.92
			c-0.09,0.93,0.17,1.66,0.23,1.82c0.36,1.04,0.31,1.67,0.56,8.87c0.4,11.31,0.55,10.6,0.45,11.18c-0.12,0.7-0.49,2.57,0.23,4.62
			c0.3,0.87,0.7,1.47,1.02,1.94c0.48,0.72,1.95,2.74,4.06,3.77c2.96,1.44,5.99,0.33,7.56-0.24c5.1-1.86,7.85-6.21,9.03-8.14
			c3.75-6.12,3.76-12.37,3.73-14.82c-0.04-3-0.11-8.83-3.84-14.34c-4.92-7.25-12.54-8.55-14.45-8.87
			c-6.23-1.06-15.04,0.22-18.63,6.07c-0.58,0.94-2.27,3.71-1.35,6.56c0.52,1.63,1.87,3.19,3.73,3.77
			C287.56,322.38,289.04,321.8,289.52,321.59z"/>
		<path class="st13" d="M327.9,326.5c0.81-0.73,2.23-1.99,4.4-2.31c0.42-0.06,3.26-0.42,5.64,1.58c2.49,2.1,2.78,5.36,2.94,7.05
			c0.4,4.44-1.09,10.86-5.76,13.24c-0.52,0.27-3.28,1.67-6.21,0.49c-4.08-1.65-5.02-6.94-5.19-7.9
			C322.84,333.63,325.17,328.99,327.9,326.5z"/>
		<path class="st12" d="M329.98,329.83c1.41-1.04,3.64-1.49,5.12-0.27c0.82,0.67,1.16,1.66,1.42,2.41c0.64,1.85,0.45,3.52,0.34,4.44
			c-0.18,1.45-0.53,4.21-2.47,5.65c-0.27,0.2-1.5,1.12-2.99,0.77c-0.87-0.2-1.45-0.75-1.8-1.1c-1.38-1.34-1.78-3.15-1.9-3.73
			C327.19,335.57,327.51,331.65,329.98,329.83z"/>
		<path class="st14" d="M348.17,334.89c0.12-0.44,0.4-1.15,1.02-1.5c0.38-0.22,0.69-0.19,1.69-0.18c0.87,0.01,1.76,0.01,2.24,0
			c1.61-0.03,1.88-0.18,2.62,0.05c0.79,0.24,1.21,0.63,1.35,0.77c0.28,0.28,0.74,0.73,0.76,1.41c0.03,0.69-0.41,1.19-0.68,1.5
			c-0.17,0.19-0.59,0.63-1.35,0.91c-0.8,0.29-1.15,0.11-2.71,0.06c-1.76-0.06-1.96,0.16-2.92-0.1c-0.7-0.19-1.37-0.38-1.78-1.05
			C347.98,336.04,348.11,335.19,348.17,334.89z"/>
		<g>
			<path class="st14" d="M372.95,314.12c0.27-0.2,1.2-0.87,2.03-0.55c0.85,0.33,1.17,1.55,1.35,2.37c0.89,3.96,0.48,7.2,0.55,12.07
				c0.03,2.06,0.08,3.78,0.08,3.78c0.09,2.71,0.2,4.31-0.3,6.38c-0.41,1.68-0.84,2.14-1.19,2.37c-0.86,0.59-2.13,0.48-2.88-0.18
				c-1.07-0.94-0.9-2.88-0.85-3.64C372.42,327.6,369.3,316.77,372.95,314.12z"/>
			<path class="st14" d="M368.25,320.41c0.82,0.07,1.33,0.12,1.65-0.23c0.5-0.53,0.36-1.75-0.17-2.14
				c-0.33-0.25-0.68-0.05-1.19-0.05c-1.2,0.02-2.12-1-2.62-1.55c-1.38-1.51-1.74-3.98-1.23-5.92c0.86-3.28,4.09-4.57,5.55-5.15
				c2.78-1.11,5.21-0.73,6.56-0.5c2.03,0.34,5.78,0.98,8,4.37c1.53,2.33,2.47,6.17,0.97,8.25c-0.69,0.96-2.25,2.02-3.89,2.37
				c-0.89,0.19-1.76,0.16-2.58,0.91c-0.19,0.18-0.88,0.8-0.89,1.64c-0.02,1.39,1.81,2.34,1.95,2.41c2.46,1.24,5.75-0.48,7.58-2.19
				c0.46-0.43,3.02-2.89,3.34-6.83c0.52-6.3-5.14-10.7-6.44-11.71c-4.73-3.68-9.8-3.46-11.35-3.37c-2.25,0.13-8.96,0.52-11.81,5.92
				c-1.3,2.46-2.07,6.46-0.3,9.48c0,0,1.52,2.59,5.55,4.01C367.47,320.33,368.03,320.39,368.25,320.41z"/>
			<path class="st14" d="M384.13,322.1c0.57-0.29,1.38-0.31,1.98-0.05c0.25,0.11,0.74,0.4,1.21,1.82c0.47,1.41,0.44,2.46,0.44,2.46
				c-0.08,3.48,0.38,2.68,0.17,7.02c-0.11,2.22,0.16,4.46-0.22,6.65c-0.01,0.07-0.24,1.42,0.5,2.73c0.2,0.36,0.41,0.59,0.72,0.73
				c0.82,0.37,1.91-0.12,2.37-0.32c0.12-0.05,2.76-1.27,3.08-3.14c0.04-0.23,0.07-0.59,0.39-0.77c0.42-0.25,1.18-0.1,1.54,0.14
				c1.21,0.8,0.51,4.31-2.04,6.38c-0.5,0.4-2.31,1.84-5.12,1.82c-0.36,0-3.17-0.05-5.01-1.82c-1.04-1-1.33-2.14-1.54-3.96
				c-0.38-3.35,0.02-4.66,0.06-7.75c0.01-0.99,0.02-5.85,0.33-9.66C383.03,323.79,383.14,322.6,384.13,322.1z"/>
		</g>
		<g>
			<path class="st14" d="M403.43,333.26c0.32-0.41,0.84-0.15,1.86-0.27c1.95-0.23,3.3-1.55,4.15-2.37c1.23-1.2,2.36-2.3,2.2-3.64
				c-0.21-1.74-2.4-2.61-2.71-2.73c-2.3-0.92-4.89,0.04-6.52,1.55c-1.51,1.4-2.03,3.11-2.37,4.28c-0.37,1.28-1.83,6.29,1.1,9.75
				c2.2,2.6,5.38,2.56,6.01,2.55c0.32,0,3.61-0.05,4.15-1.73c0.19-0.61,0.03-1.43-0.42-1.82c-0.5-0.44-1.12-0.13-2.03-0.09
				c-1.73,0.08-3.34-0.85-4.23-1.82C403.6,335.8,402.89,333.97,403.43,333.26z"/>
			<path class="st12" d="M404.11,329.53c0.4,0.59,1.45,0.36,1.86,0.27c1.45-0.31,3.14-1.53,2.96-2.55
				c-0.13-0.71-1.12-1.09-1.69-1.18c-1.27-0.2-2.38,0.71-2.88,1.64C404.26,327.9,403.71,328.93,404.11,329.53z"/>
		</g>
		<path class="st14" d="M415.48,309.32c0.17-0.24,0.55-0.62,1.4-0.81c0.52-0.12,0.95-0.1,2.33-0.1c1.19,0.01,2.42,0,3.09,0
			c2.22-0.02,2.58-0.1,3.61,0.02c1.09,0.13,1.67,0.34,1.86,0.42c0.38,0.15,1.01,0.39,1.05,0.76c0.04,0.37-0.56,0.64-0.93,0.81
			c-0.23,0.1-0.81,0.34-1.86,0.49c-1.1,0.16-1.58,0.06-3.73,0.03c-2.42-0.03-2.7,0.08-4.01-0.05c-0.96-0.1-1.88-0.2-2.45-0.56
			C415.21,309.93,415.4,309.48,415.48,309.32z"/>
		<path class="st14" d="M415.48,313.6c0.17-0.24,0.55-0.62,1.4-0.81c0.52-0.12,0.95-0.1,2.33-0.1c1.19,0.01,2.42,0,3.09,0
			c2.22-0.02,2.58-0.1,3.61,0.02c1.09,0.13,1.67,0.34,1.86,0.42c0.38,0.15,1.01,0.39,1.05,0.76c0.04,0.37-0.56,0.64-0.93,0.81
			c-0.23,0.1-0.81,0.34-1.86,0.49c-1.1,0.16-1.58,0.06-3.73,0.03c-2.42-0.03-2.7,0.08-4.01-0.05c-0.96-0.1-1.88-0.2-2.45-0.56
			C415.21,314.22,415.4,313.76,415.48,313.6z"/>
		<path class="st14" d="M418.74,319.04c-0.21-0.2-0.53-0.64-0.64-1.56c-0.07-0.56-0.03-1.02,0.08-2.51c0.09-1.28,0.19-2.6,0.23-3.31
			c0.15-2.38,0.1-2.78,0.29-3.87c0.2-1.16,0.44-1.76,0.53-1.97c0.17-0.4,0.44-1.06,0.78-1.07c0.35-0.01,0.55,0.65,0.68,1.06
			c0.08,0.25,0.25,0.89,0.31,2.04c0.06,1.19-0.07,1.7-0.25,4.01c-0.21,2.6-0.12,2.9-0.35,4.3c-0.17,1.02-0.33,2-0.71,2.58
			C419.29,319.37,418.88,319.14,418.74,319.04z"/>
		<path class="st14" d="M415.48,313.6c0.17-0.24,0.55-0.62,1.4-0.81c0.52-0.12,0.95-0.1,2.33-0.1c1.19,0.01,2.42,0,3.09,0
			c2.22-0.02,2.58-0.1,3.61,0.02c1.09,0.13,1.67,0.34,1.86,0.42c0.38,0.15,1.01,0.39,1.05,0.76c0.04,0.37-0.56,0.64-0.93,0.81
			c-0.23,0.1-0.81,0.34-1.86,0.49c-1.1,0.16-1.58,0.06-3.73,0.03c-2.42-0.03-2.7,0.08-4.01-0.05c-0.96-0.1-1.88-0.2-2.45-0.56
			C415.21,314.22,415.4,313.76,415.48,313.6z"/>
		<path class="st14" d="M422.34,319.04c-0.21-0.2-0.53-0.64-0.64-1.56c-0.07-0.56-0.03-1.02,0.08-2.51c0.09-1.28,0.19-2.6,0.23-3.31
			c0.15-2.38,0.1-2.78,0.29-3.87c0.2-1.16,0.44-1.76,0.53-1.97c0.17-0.4,0.44-1.06,0.78-1.07c0.35-0.01,0.55,0.65,0.68,1.06
			c0.08,0.25,0.25,0.89,0.31,2.04c0.06,1.19-0.07,1.7-0.25,4.01c-0.21,2.6-0.12,2.9-0.35,4.3c-0.17,1.02-0.33,2-0.71,2.58
			C422.89,319.37,422.48,319.14,422.34,319.04z"/>
		<path class="st14" d="M431.06,335.18c0.12-0.44,0.4-1.15,1.02-1.5c0.38-0.22,0.69-0.19,1.69-0.18c0.87,0.01,1.76,0.01,2.24,0
			c1.61-0.03,1.88-0.18,2.62,0.05c0.79,0.24,1.21,0.63,1.35,0.77c0.28,0.28,0.74,0.73,0.76,1.41c0.03,0.69-0.41,1.19-0.68,1.5
			c-0.17,0.19-0.59,0.63-1.35,0.91c-0.8,0.29-1.15,0.11-2.71,0.06c-1.76-0.06-1.96,0.16-2.92-0.1c-0.7-0.19-1.37-0.38-1.78-1.05
			C430.87,336.33,431,335.48,431.06,335.18z"/>
		<path class="st15" d="M453.89,314.57c0.41-0.11,1.01-0.26,1.78-0.14c1.06,0.16,1.36,0.69,1.91,0.56c0.9-0.21,1.78-1.95,1.4-2.95
			c-0.68-1.78-5.85-2.42-9.28,0.28c-2.73,2.15-3.69,5.9-3.43,8.84c0.09,0.99,0.35,3.91,2.29,5.33c1.31,0.96,2.86,0.86,5.34,0.7
			c2.22-0.14,2.42-0.55,3.94-0.42c1.01,0.08,3.26,0.27,4.45,1.82c1.74,2.28,0.58,6.69-1.27,9.26c-2.11,2.93-6.02,4.7-8.77,3.51
			c-2.01-0.87-2.9-3.1-3.94-2.66c-0.69,0.29-0.99,1.56-0.89,2.52c0.31,3.03,4.74,4.56,5.34,4.77c0.85,0.3,6.33,2.07,10.93-1.96
			c3.48-3.05,5.16-8.28,3.94-13.04c-0.2-0.8-1.36-5.36-4.83-7.01c-1.61-0.77-3.33-0.72-4.2-0.7c-2.93,0.08-3.94,1.27-5.98,0.56
			c-0.43-0.15-1.83-0.64-2.54-2.1c-0.87-1.8-0.07-3.76,0.13-4.21C451.21,315.26,453.41,314.69,453.89,314.57z"/>
		<path class="st15" d="M492.28,308.12c0.52-0.48,1.33-0.5,1.91-0.28c0.43,0.16,1.46,0.74,2.16,4.07c0.61,2.93,0.39,5.25,0.25,7.01
			c-0.56,7.27,0.24,6.4-0.38,11.36c-0.19,1.49-0.6,4.26-1.14,8.98c-0.26,2.29-0.44,4,0.53,5.39c0.71,1.03,2.12,1.98,3.28,1.62
			c1.17-0.36,1.32-1.8,2.29-1.82c0.78-0.02,1.6,0.9,1.78,1.82c0.34,1.77-1.69,3.7-3.31,4.49c-1.86,0.9-4.26,0.82-6.1-0.56
			c-2-1.5-2.5-3.89-2.8-5.33c-0.52-2.49-0.14-4.36,0.13-6.31c0.34-2.43,0.35-5.22,0.38-10.8c0.03-5.71,0.69-11.42,0.38-17.11
			C491.62,310.16,491.54,308.8,492.28,308.12z"/>
		<path class="st13" d="M473.85,325.64c0.81-0.73,2.23-1.99,4.4-2.31c0.42-0.06,3.26-0.42,5.64,1.58c2.49,2.1,2.78,5.36,2.94,7.05
			c0.4,4.44-1.09,10.86-5.76,13.24c-0.52,0.27-3.28,1.67-6.21,0.49c-4.08-1.65-5.02-6.94-5.19-7.9
			C468.78,332.77,471.11,328.14,473.85,325.64z"/>
		<path class="st12" d="M475.92,328.97c1.41-1.04,3.64-1.49,5.12-0.27c0.82,0.67,1.16,1.66,1.42,2.41c0.64,1.85,0.45,3.52,0.34,4.44
			c-0.18,1.45-0.53,4.21-2.47,5.65c-0.27,0.2-1.5,1.12-2.99,0.77c-0.87-0.2-1.45-0.75-1.8-1.1c-1.38-1.34-1.78-3.15-1.9-3.73
			C473.14,334.72,473.45,330.79,475.92,328.97z"/>
	</g>
</g>
</svg>
