<?xml version="1.0" encoding="UTF-8"?>
<!DOCTYPE svg PUBLIC "-//W3C//DTD SVG 1.1//EN" "http://www.w3.org/Graphics/SVG/1.1/DTD/svg11.dtd">
<svg xmlns="http://www.w3.org/2000/svg" version="1.1" width="921px" height="623px" style="shape-rendering:geometricPrecision; text-rendering:geometricPrecision; image-rendering:optimizeQuality; fill-rule:evenodd; clip-rule:evenodd" xmlns:xlink="http://www.w3.org/1999/xlink">
<g><path style="opacity:1" fill="#010101" d="M -0.5,-0.5 C 306.5,-0.5 613.5,-0.5 920.5,-0.5C 920.5,98.5 920.5,197.5 920.5,296.5C 918.833,296.5 917.167,296.5 915.5,296.5C 915.5,353.5 915.5,410.5 915.5,467.5C 909.833,467.5 904.167,467.5 898.5,467.5C 898.5,512.167 898.5,556.833 898.5,601.5C 905.833,601.5 913.167,601.5 920.5,601.5C 920.5,601.833 920.5,602.167 920.5,602.5C 767.167,602.5 613.833,602.5 460.5,602.5C 460.667,500.499 460.5,398.499 460,296.5C 459.5,398.833 459.333,501.166 459.5,603.5C 306.167,603.5 152.833,603.5 -0.5,603.5C -0.5,603.167 -0.5,602.833 -0.5,602.5C 7.16667,602.5 14.8333,602.5 22.5,602.5C 22.5,558.167 22.5,513.833 22.5,469.5C 17.1667,469.5 11.8333,469.5 6.5,469.5C 6.5,411.833 6.5,354.167 6.5,296.5C 4.16667,296.5 1.83333,296.5 -0.5,296.5C -0.5,197.5 -0.5,98.5 -0.5,-0.5 Z"/></g>
<g><path style="opacity:1" fill="#f6f6f6" d="M 279.5,60.5 C 286.877,59.6893 293.877,60.856 300.5,64C 309.578,72.8724 309.578,81.8724 300.5,91C 285.935,102.02 269.601,106.187 251.5,103.5C 246.16,114.199 243.993,125.532 245,137.5C 247.591,154.882 257.425,161.382 274.5,157C 286.994,151.502 292.16,142.002 290,128.5C 286.025,122.105 281.025,121.105 275,125.5C 272.027,131.051 270.693,137.051 271,143.5C 269.274,144.576 267.441,144.743 265.5,144C 258.463,137.671 257.629,130.504 263,122.5C 271.977,114.628 281.81,113.461 292.5,119C 300.023,125.93 302.523,134.43 300,144.5C 294.337,165.834 280.504,176.001 258.5,175C 240.993,170.494 230.826,159.327 228,141.5C 226.197,127.349 228.697,114.016 235.5,101.5C 229.439,98.6343 223.439,95.4676 217.5,92C 211.134,86.5673 208.968,79.734 211,71.5C 212.075,66.9162 214.908,64.9162 219.5,65.5C 220.448,78.6336 227.282,87.3003 240,91.5C 249.812,76.7022 262.979,66.3688 279.5,60.5 Z"/></g>
<g><path style="opacity:1" fill="#040404" d="M 267.5,95.5 C 263.298,95.8168 259.298,95.4834 255.5,94.5C 260.564,83.9342 268.231,75.7676 278.5,70C 283.076,68.5236 287.743,68.1902 292.5,69C 297.224,71.4353 298.724,75.2686 297,80.5C 289.65,90.1328 279.817,95.1328 267.5,95.5 Z"/></g>
<g><path style="opacity:1" fill="#f7f7f7" d="M 552.5,126.5 C 550.912,128.527 550.412,130.861 551,133.5C 551.847,131.807 552.68,130.14 553.5,128.5C 558.735,117.389 567.401,112.222 579.5,113C 581.464,114.451 582.797,116.284 583.5,118.5C 582.836,123.473 582.503,128.473 582.5,133.5C 580.817,139.698 580.151,146.031 580.5,152.5C 583.325,152.919 585.491,151.919 587,149.5C 591.786,141.594 595.786,133.26 599,124.5C 603.202,116.952 609.535,112.619 618,111.5C 621.544,111.404 624.711,112.404 627.5,114.5C 630.051,103.679 633.884,93.3459 639,83.5C 643.276,78.765 648.442,77.0984 654.5,78.5C 654.833,79.1667 655.167,79.8333 655.5,80.5C 650.721,94.2766 646.554,108.277 643,122.5C 641.122,132.22 641.122,141.886 643,151.5C 645.592,152.982 647.925,152.648 650,150.5C 655.339,140.464 660.673,130.464 666,120.5C 671.778,114.13 678.945,111.297 687.5,112C 689.18,112.347 690.18,113.347 690.5,115C 686.863,118.594 683.029,122.094 679,125.5C 673.047,133.607 672.047,142.274 676,151.5C 683.623,152.889 687.289,149.555 687,141.5C 684.202,138.097 682.369,134.264 681.5,130C 682.209,121.478 686.543,118.811 694.5,122C 697.741,125.894 699.075,130.394 698.5,135.5C 700.308,135.509 701.975,135.009 703.5,134C 706.553,130.613 709.22,126.947 711.5,123C 714.918,122.351 716.251,123.851 715.5,127.5C 714.07,137.929 708.07,143.596 697.5,144.5C 696.348,152.636 692.681,159.469 686.5,165C 673.533,170.513 663.866,167.013 657.5,154.5C 654.308,159.858 649.975,164.025 644.5,167C 635.919,168.959 630.086,165.792 627,157.5C 620.254,168.158 611.421,170.325 600.5,164C 597.469,161.441 595.302,158.274 594,154.5C 590.454,159.713 585.954,163.88 580.5,167C 571.915,169.126 566.415,165.959 564,157.5C 563.051,147.685 563.884,138.019 566.5,128.5C 566.167,127.5 565.833,126.5 565.5,125.5C 555.951,136.957 550.784,150.29 550,165.5C 545.036,168.229 540.703,167.229 537,162.5C 534.867,158.768 533.534,154.768 533,150.5C 523.864,166.001 511.03,170.501 494.5,164C 491.281,160.448 488.448,156.615 486,152.5C 482.122,158.045 477.289,162.545 471.5,166C 457.23,170.115 447.397,165.282 442,151.5C 435.948,161.188 427.281,166.521 416,167.5C 405.732,166.57 401.565,161.07 403.5,151C 406.706,151.801 410.039,152.135 413.5,152C 420.759,143.573 419.759,136.073 410.5,129.5C 406.848,141.641 400.515,152.141 391.5,161C 384.464,166.676 376.464,168.676 367.5,167C 360.608,164.276 355.942,159.442 353.5,152.5C 350.727,156.777 347.393,160.61 343.5,164C 338.193,167.664 332.526,168.33 326.5,166C 323.894,164.062 322.061,161.562 321,158.5C 320.333,153.167 320.333,147.833 321,142.5C 321.619,139.968 322.619,137.635 324,135.5C 324.667,134.167 324.667,132.833 324,131.5C 320.919,128.707 317.419,126.54 313.5,125C 307.356,119.557 307.023,113.89 312.5,108C 316.582,106.707 319.749,107.874 322,111.5C 322.711,114.734 323.545,117.901 324.5,121C 328.762,122.532 333.095,123.865 337.5,125C 342.143,127.072 343.643,130.572 342,135.5C 340.587,138.661 338.92,141.661 337,144.5C 336.503,147.146 336.336,149.813 336.5,152.5C 340.273,153.178 343.106,151.844 345,148.5C 350.114,140.607 354.447,132.274 358,123.5C 364.112,114.361 372.612,110.527 383.5,112C 391.23,114.959 394.063,120.459 392,128.5C 387.066,135.554 380.233,139.388 371.5,140C 369.613,152.795 374.613,156.129 386.5,150C 394.139,143.367 399.806,135.367 403.5,126C 396.48,120.528 395.814,114.528 401.5,108C 405.582,106.707 408.749,107.874 411,111.5C 411.833,114.5 412.667,117.5 413.5,120.5C 420.811,124.41 427.311,129.41 433,135.5C 434.608,138.382 435.941,141.382 437,144.5C 440.59,137.652 443.923,130.652 447,123.5C 453.68,114.574 462.513,110.741 473.5,112C 481.833,115.39 483.499,120.724 478.5,128C 477.167,128.667 475.833,128.667 474.5,128C 473.736,125.931 473.236,123.764 473,121.5C 471.062,119.022 468.895,118.855 466.5,121C 459.76,127.777 457.26,135.944 459,145.5C 461.744,152.546 466.577,154.38 473.5,151C 477.036,147.799 480.203,144.299 483,140.5C 485.665,130.996 490.499,122.829 497.5,116C 506.803,109.583 515.636,110.083 524,117.5C 526.901,124.439 525.401,130.272 519.5,135C 514.484,137.754 509.15,139.587 503.5,140.5C 501.765,150.265 505.765,154.098 515.5,152C 522.333,147.833 527.833,142.333 532,135.5C 534.035,128.713 537.201,122.547 541.5,117C 553.11,111.449 556.777,114.616 552.5,126.5 Z"/></g>
<g><path style="opacity:1" fill="#777777" d="M 255.5,94.5 C 259.298,95.4834 263.298,95.8168 267.5,95.5C 263.317,96.8111 258.984,96.8111 254.5,95.5C 254.624,94.8933 254.957,94.56 255.5,94.5 Z"/></g>
<g><path style="opacity:1" fill="#0e0e0e" d="M 378.5,119.5 C 383.549,120.311 384.715,122.978 382,127.5C 379.005,130.11 375.505,131.443 371.5,131.5C 372.189,126.492 374.522,122.492 378.5,119.5 Z"/></g>
<g><path style="opacity:1" fill="#111111" d="M 511.5,119.5 C 516.549,120.311 517.715,122.978 515,127.5C 512.005,130.11 508.505,131.443 504.5,131.5C 504.796,126.233 507.129,122.233 511.5,119.5 Z"/></g>
<g><path style="opacity:1" fill="#080808" d="M 619.5,120.5 C 621.903,120.393 623.736,121.393 625,123.5C 626.531,133.567 624.364,142.734 618.5,151C 614.687,153.596 612.187,152.763 611,148.5C 609.966,141.203 610.966,134.203 614,127.5C 615.666,125.004 617.5,122.671 619.5,120.5 Z"/></g>
<g><path style="opacity:1" fill="#b2b2b2" d="M 583.5,118.5 C 584.826,123.579 584.493,128.579 582.5,133.5C 582.503,128.473 582.836,123.473 583.5,118.5 Z"/></g>
<g><path style="opacity:1" fill="#737373" d="M 552.5,126.5 C 552.328,127.492 552.662,128.158 553.5,128.5C 552.68,130.14 551.847,131.807 551,133.5C 550.412,130.861 550.912,128.527 552.5,126.5 Z"/></g>
<g><path style="opacity:1" fill="#fdfdfd" d="M -0.5,296.5 C 1.83333,296.5 4.16667,296.5 6.5,296.5C 6.5,354.167 6.5,411.833 6.5,469.5C 11.8333,469.5 17.1667,469.5 22.5,469.5C 22.5,513.833 22.5,558.167 22.5,602.5C 14.8333,602.5 7.16667,602.5 -0.5,602.5C -0.5,500.5 -0.5,398.5 -0.5,296.5 Z"/></g>
<g><path style="opacity:1" fill="#848484" d="M 46.5,296.5 C 46.5,353.5 46.5,410.5 46.5,467.5C 45.5,467.5 44.5,467.5 43.5,467.5C 45.1585,410.547 46.1585,353.547 46.5,296.5 Z"/></g>
<g><path style="opacity:1" fill="#fefefe" d="M 46.5,296.5 C 57.1667,296.5 67.8333,296.5 78.5,296.5C 78.5,353.833 78.5,411.167 78.5,468.5C 84.1667,468.5 89.8333,468.5 95.5,468.5C 95.5,513.167 95.5,557.833 95.5,602.5C 72.5,602.5 49.5,602.5 26.5,602.5C 26.5,558.167 26.5,513.833 26.5,469.5C 32.5982,470.117 38.2649,469.45 43.5,467.5C 44.5,467.5 45.5,467.5 46.5,467.5C 46.5,410.5 46.5,353.5 46.5,296.5 Z"/></g>
<g><path style="opacity:1" fill="#c7c7c7" d="M 118.5,296.5 C 118.833,352.837 118.5,409.171 117.5,465.5C 116.824,466.602 116.158,467.602 115.5,468.5C 117.135,411.086 118.135,353.752 118.5,296.5 Z"/></g>
<g><path style="opacity:1" fill="#fefefe" d="M 118.5,296.5 C 134.833,296.5 151.167,296.5 167.5,296.5C 167.5,398.5 167.5,500.5 167.5,602.5C 144.833,602.5 122.167,602.5 99.5,602.5C 99.5,557.833 99.5,513.167 99.5,468.5C 104.833,468.5 110.167,468.5 115.5,468.5C 116.158,467.602 116.824,466.602 117.5,465.5C 118.5,409.171 118.833,352.837 118.5,296.5 Z"/></g>
<g><path style="opacity:1" fill="#cfcfcf" d="M 172.5,296.5 C 172.5,398.167 172.5,499.833 172.5,601.5C 194.833,601.5 217.167,601.5 239.5,601.5C 239.5,557.167 239.5,512.833 239.5,468.5C 240.499,512.997 240.832,557.664 240.5,602.5C 217.5,602.5 194.5,602.5 171.5,602.5C 171.167,500.332 171.501,398.332 172.5,296.5 Z"/></g>
<g><path style="opacity:1" fill="#fefefe" d="M 172.5,296.5 C 189.5,296.5 206.5,296.5 223.5,296.5C 223.5,353.833 223.5,411.167 223.5,468.5C 228.833,468.5 234.167,468.5 239.5,468.5C 239.5,512.833 239.5,557.167 239.5,601.5C 217.167,601.5 194.833,601.5 172.5,601.5C 172.5,499.833 172.5,398.167 172.5,296.5 Z"/></g>
<g><path style="opacity:1" fill="#fdfdfd" d="M 262.5,296.5 C 273.167,296.5 283.833,296.5 294.5,296.5C 294.5,354.167 294.5,411.833 294.5,469.5C 300.167,469.5 305.833,469.5 311.5,469.5C 311.5,513.833 311.5,558.167 311.5,602.5C 288.833,602.5 266.167,602.5 243.5,602.5C 243.5,557.833 243.5,513.167 243.5,468.5C 249.167,468.5 254.833,468.5 260.5,468.5C 262.475,411.277 263.142,353.944 262.5,296.5 Z"/></g>
<g><path style="opacity:1" fill="#fdfdfd" d="M 333.5,296.5 C 345.167,296.5 356.833,296.5 368.5,296.5C 368.5,353.833 368.5,411.167 368.5,468.5C 374.167,468.5 379.833,468.5 385.5,468.5C 385.5,513.167 385.5,557.833 385.5,602.5C 362.167,602.5 338.833,602.5 315.5,602.5C 315.5,558.167 315.5,513.833 315.5,469.5C 321.167,469.5 326.833,469.5 332.5,469.5C 333.488,411.863 333.821,354.196 333.5,296.5 Z"/></g>
<g><path style="opacity:1" fill="#fdfdfd" d="M 407.5,296.5 C 424.5,296.5 441.5,296.5 458.5,296.5C 458.5,398.5 458.5,500.5 458.5,602.5C 435.5,602.5 412.5,602.5 389.5,602.5C 389.5,557.833 389.5,513.167 389.5,468.5C 395.395,469.054 401.062,468.388 406.5,466.5C 407.5,409.837 407.833,353.171 407.5,296.5 Z"/></g>
<g><path style="opacity:1" fill="#fefefe" d="M 462.5,296.5 C 479.833,296.5 497.167,296.5 514.5,296.5C 514.179,353.529 514.512,410.529 515.5,467.5C 520.305,468.487 525.305,468.821 530.5,468.5C 530.5,512.5 530.5,556.5 530.5,600.5C 507.833,600.5 485.167,600.5 462.5,600.5C 462.5,499.167 462.5,397.833 462.5,296.5 Z"/></g>
<g><path style="opacity:1" fill="#fefefe" d="M 535.5,601.5 C 535.5,557.167 535.5,512.833 535.5,468.5C 541.358,468.822 547.025,468.489 552.5,467.5C 553.484,410.523 553.817,353.523 553.5,296.5C 564.833,296.5 576.167,296.5 587.5,296.5C 587.5,353.5 587.5,410.5 587.5,467.5C 593.167,467.5 598.833,467.5 604.5,467.5C 604.5,512.167 604.5,556.833 604.5,601.5C 581.5,601.5 558.5,601.5 535.5,601.5 Z"/></g>
<g><path style="opacity:1" fill="#fefefe" d="M 627.5,296.5 C 643.833,296.5 660.167,296.5 676.5,296.5C 676.5,398.167 676.5,499.833 676.5,601.5C 653.833,601.5 631.167,601.5 608.5,601.5C 608.5,556.833 608.5,512.167 608.5,467.5C 613.833,467.5 619.167,467.5 624.5,467.5C 624.5,466.167 624.5,464.833 624.5,463.5C 625.5,463.5 626.5,463.5 627.5,463.5C 627.5,407.833 627.5,352.167 627.5,296.5 Z"/></g>
<g><path style="opacity:1" fill="#fdfdfd" d="M 748.5,467.5 C 748.5,511.833 748.5,556.167 748.5,600.5C 725.833,600.5 703.167,600.5 680.5,600.5C 680.5,499.167 680.5,397.833 680.5,296.5C 697.833,296.5 715.167,296.5 732.5,296.5C 732.5,353.5 732.5,410.5 732.5,467.5C 737.833,467.5 743.167,467.5 748.5,467.5 Z"/></g>
<g><path style="opacity:1" fill="#a4a4a4" d="M 772.5,296.5 C 772.5,353.833 772.5,411.167 772.5,468.5C 766.167,468.5 759.833,468.5 753.5,468.5C 753.167,468.5 752.833,468.5 752.5,468.5C 758.645,467.51 764.978,467.177 771.5,467.5C 771.168,410.331 771.501,353.331 772.5,296.5 Z"/></g>
<g><path style="opacity:1" fill="#fefffe" d="M 772.5,296.5 C 782.833,296.5 793.167,296.5 803.5,296.5C 803.333,353.834 803.5,411.168 804,468.5C 809.407,469.473 814.907,469.807 820.5,469.5C 820.5,513.167 820.5,556.833 820.5,600.5C 798.167,600.5 775.833,600.5 753.5,600.5C 753.5,556.5 753.5,512.5 753.5,468.5C 759.833,468.5 766.167,468.5 772.5,468.5C 772.5,411.167 772.5,353.833 772.5,296.5 Z"/></g>
<g><path style="opacity:1" fill="#8c8c8c" d="M 843.5,296.5 C 843.5,354.167 843.5,411.833 843.5,469.5C 837.167,469.5 830.833,469.5 824.5,469.5C 830.31,468.51 836.31,468.177 842.5,468.5C 842.168,410.998 842.501,353.664 843.5,296.5 Z"/></g>
<g><path style="opacity:1" fill="#fefefe" d="M 843.5,296.5 C 854.5,296.5 865.5,296.5 876.5,296.5C 876.5,353.833 876.5,411.167 876.5,468.5C 882.167,468.5 887.833,468.5 893.5,468.5C 893.5,512.5 893.5,556.5 893.5,600.5C 870.5,600.5 847.5,600.5 824.5,600.5C 824.5,556.833 824.5,513.167 824.5,469.5C 830.833,469.5 837.167,469.5 843.5,469.5C 843.5,411.833 843.5,354.167 843.5,296.5 Z"/></g>
<g><path style="opacity:1" fill="#484848" d="M 876.5,296.5 C 877.499,353.331 877.832,410.331 877.5,467.5C 883.358,467.178 889.025,467.511 894.5,468.5C 894.167,468.5 893.833,468.5 893.5,468.5C 887.833,468.5 882.167,468.5 876.5,468.5C 876.5,411.167 876.5,353.833 876.5,296.5 Z"/></g>
<g><path style="opacity:1" fill="#fefefe" d="M 920.5,296.5 C 920.5,398.167 920.5,499.833 920.5,601.5C 913.167,601.5 905.833,601.5 898.5,601.5C 898.5,556.833 898.5,512.167 898.5,467.5C 904.167,467.5 909.833,467.5 915.5,467.5C 915.5,410.5 915.5,353.5 915.5,296.5C 917.167,296.5 918.833,296.5 920.5,296.5 Z"/></g>
<g><path style="opacity:1" fill="#b2b2b2" d="M 462.5,296.5 C 462.5,397.833 462.5,499.167 462.5,600.5C 485.167,600.5 507.833,600.5 530.5,600.5C 530.5,556.5 530.5,512.5 530.5,468.5C 525.305,468.821 520.305,468.487 515.5,467.5C 520.833,467.5 526.167,467.5 531.5,467.5C 531.5,512.167 531.5,556.833 531.5,601.5C 508.167,601.5 484.833,601.5 461.5,601.5C 461.167,499.665 461.501,397.999 462.5,296.5 Z"/></g>
<g><path style="opacity:1" fill="#525252" d="M 552.5,467.5 C 547.025,468.489 541.358,468.822 535.5,468.5C 535.5,512.833 535.5,557.167 535.5,601.5C 534.501,557.003 534.168,512.336 534.5,467.5C 540.5,467.5 546.5,467.5 552.5,467.5 Z"/></g>
<g><path style="opacity:1" fill="#c5c5c5" d="M 752.5,468.5 C 752.833,468.5 753.167,468.5 753.5,468.5C 753.5,512.5 753.5,556.5 753.5,600.5C 775.833,600.5 798.167,600.5 820.5,600.5C 798.006,601.497 775.339,601.831 752.5,601.5C 752.5,557.167 752.5,512.833 752.5,468.5 Z"/></g>
<g><path style="opacity:1" fill="#d1d1d1" d="M 893.5,468.5 C 893.833,468.5 894.167,468.5 894.5,468.5C 894.5,512.833 894.5,557.167 894.5,601.5C 870.994,601.831 847.661,601.498 824.5,600.5C 847.5,600.5 870.5,600.5 893.5,600.5C 893.5,556.5 893.5,512.5 893.5,468.5 Z"/></g>
<g><path style="opacity:1" fill="#a2a2a2" d="M 748.5,467.5 C 749.499,511.997 749.832,556.664 749.5,601.5C 726.327,601.831 703.327,601.498 680.5,600.5C 703.167,600.5 725.833,600.5 748.5,600.5C 748.5,556.167 748.5,511.833 748.5,467.5 Z"/></g>
<g><path style="opacity:1" fill="#8d8d8d" d="M 920.5,602.5 C 920.5,602.833 920.5,603.167 920.5,603.5C 613.5,603.835 306.5,604.168 -0.5,604.5C -0.5,604.167 -0.5,603.833 -0.5,603.5C 152.833,603.5 306.167,603.5 459.5,603.5C 459.333,501.166 459.5,398.833 460,296.5C 460.5,398.499 460.667,500.499 460.5,602.5C 613.833,602.5 767.167,602.5 920.5,602.5 Z"/></g>
<g><path style="opacity:1" fill="#fefffe" d="M 920.5,603.5 C 920.5,609.833 920.5,616.167 920.5,622.5C 613.5,622.5 306.5,622.5 -0.5,622.5C -0.5,616.5 -0.5,610.5 -0.5,604.5C 306.5,604.168 613.5,603.835 920.5,603.5 Z"/></g>
</svg>
