<?xml version="1.0" encoding="UTF-8"?>
<!DOCTYPE svg PUBLIC "-//W3C//DTD SVG 1.1//EN" "http://www.w3.org/Graphics/SVG/1.1/DTD/svg11.dtd">
<svg xmlns="http://www.w3.org/2000/svg" version="1.1" width="582px" height="217px" style="shape-rendering:geometricPrecision; text-rendering:geometricPrecision; image-rendering:optimizeQuality; fill-rule:evenodd; clip-rule:evenodd" xmlns:xlink="http://www.w3.org/1999/xlink">
<g><path style="opacity:1" fill="#292929" d="M -0.5,-0.5 C 193.5,-0.5 387.5,-0.5 581.5,-0.5C 581.5,0.166667 581.5,0.833333 581.5,1.5C 580.5,1.5 579.5,1.5 578.5,1.5C 578.667,66.5009 578.5,131.501 578,196.5C 577.833,131.332 577.333,66.332 576.5,1.5C 567.5,1.5 558.5,1.5 549.5,1.5C 549.667,48.8345 549.5,96.1678 549,143.5C 548.292,144.381 547.458,145.047 546.5,145.5C 544.369,144.686 542.036,144.186 539.5,144C 542.146,143.503 544.813,143.336 547.5,143.5C 547.5,96.1667 547.5,48.8333 547.5,1.5C 540.833,1.5 534.167,1.5 527.5,1.5C 527.333,190.832 526.833,190.832 526,1.5C 525.5,48.8322 525.333,96.1655 525.5,143.5C 524.501,96.3363 524.168,49.0029 524.5,1.5C 519.167,1.5 513.833,1.5 508.5,1.5C 508.832,49.0029 508.499,96.3363 507.5,143.5C 507.5,96.1667 507.5,48.8333 507.5,1.5C 500.167,1.5 492.833,1.5 485.5,1.5C 485.333,48.5012 485.5,95.5012 486,142.5C 488.405,143.274 490.905,143.774 493.5,144C 490.964,144.186 488.631,144.686 486.5,145.5C 485.542,145.047 484.708,144.381 484,143.5C 483.5,96.1678 483.333,48.8345 483.5,1.5C 478.167,1.5 472.833,1.5 467.5,1.5C 467.667,48.8345 467.5,96.1678 467,143.5C 466.617,144.056 466.117,144.389 465.5,144.5C 462.813,144.664 460.146,144.497 457.5,144C 460.095,143.774 462.595,143.274 465,142.5C 465.5,95.5012 465.667,48.5012 465.5,1.5C 458.833,1.5 452.167,1.5 445.5,1.5C 445.333,190.832 444.833,190.832 444,1.5C 443.5,48.8322 443.333,96.1655 443.5,143.5C 442.501,96.3363 442.168,49.0029 442.5,1.5C 433.833,1.5 425.167,1.5 416.5,1.5C 416.5,66.5 416.5,131.5 416.5,196.5C 415.667,131.668 415.167,66.668 415,1.5C 414.667,61.8333 414.333,122.167 414,182.5C 413.833,121.999 413.333,61.6653 412.5,1.5C 403.5,1.5 394.5,1.5 385.5,1.5C 385.832,48.6696 385.499,95.6696 384.5,142.5C 384.5,95.5 384.5,48.5 384.5,1.5C 376.833,1.5 369.167,1.5 361.5,1.5C 361.5,48.5 361.5,95.5 361.5,142.5C 360.501,95.6696 360.168,48.6696 360.5,1.5C 355.167,1.5 349.833,1.5 344.5,1.5C 344.667,48.8345 344.5,96.1678 344,143.5C 343.617,144.056 343.117,144.389 342.5,144.5C 331.833,144.167 331.833,143.833 342.5,143.5C 342.5,96.1667 342.5,48.8333 342.5,1.5C 335.833,1.5 329.167,1.5 322.5,1.5C 322.667,48.8345 322.5,96.1678 322,143.5C 321.833,95.9982 321.333,48.6649 320.5,1.5C 311.5,1.5 302.5,1.5 293.5,1.5C 293.333,61.8343 293.5,122.168 294,182.5C 305.085,183.487 316.252,183.821 327.5,183.5C 317.341,184.33 307.008,184.83 296.5,185C 307.167,185.333 317.833,185.667 328.5,186C 317.167,186.667 305.833,186.667 294.5,186C 293.333,184.833 292.167,183.667 291,182.5C 290.825,187.019 290.325,191.353 289.5,195.5C 289.5,130.833 289.5,66.1667 289.5,1.5C 280.5,1.5 271.5,1.5 262.5,1.5C 262.832,49.0029 262.499,96.3363 261.5,143.5C 260.761,143.631 260.094,143.464 259.5,143C 260.497,95.9053 260.83,48.7386 260.5,1.5C 253.833,1.5 247.167,1.5 240.5,1.5C 240.333,190.832 239.833,190.832 239,1.5C 238.5,48.8322 238.333,96.1655 238.5,143.5C 237.501,96.3363 237.168,49.0029 237.5,1.5C 232.167,1.5 226.833,1.5 221.5,1.5C 221.667,48.8345 221.5,96.1678 221,143.5C 220.617,144.056 220.117,144.389 219.5,144.5C 208.833,144.167 208.833,143.833 219.5,143.5C 219.5,96.1667 219.5,48.8333 219.5,1.5C 212.833,1.5 206.167,1.5 199.5,1.5C 199.667,48.8345 199.5,96.1678 199,143.5C 198.833,95.9982 198.333,48.6649 197.5,1.5C 191.833,1.5 186.167,1.5 180.5,1.5C 180.832,49.0029 180.499,96.3363 179.5,143.5C 179.5,96.1667 179.5,48.8333 179.5,1.5C 171.833,1.5 164.167,1.5 156.5,1.5C 156.5,48.8333 156.5,96.1667 156.5,143.5C 155.501,96.3363 155.168,49.0029 155.5,1.5C 146.833,1.5 138.167,1.5 129.5,1.5C 129.5,66.5 129.5,131.5 129.5,196.5C 128.667,131.668 128.167,66.668 128,1.5C 127.667,66.5 127.333,131.5 127,196.5C 126.833,131.332 126.333,66.332 125.5,1.5C 116.5,1.5 107.5,1.5 98.5,1.5C 98.6667,48.8345 98.5,96.1678 98,143.5C 97.2917,144.381 96.4584,145.047 95.5,145.5C 93.369,144.686 91.0356,144.186 88.5,144C 91.146,143.503 93.8127,143.336 96.5,143.5C 96.5,96.1667 96.5,48.8333 96.5,1.5C 89.8333,1.5 83.1667,1.5 76.5,1.5C 76.6667,48.5012 76.5,95.5012 76,142.5C 75.8327,95.3316 75.3327,48.3316 74.5,1.5C 68.8333,1.5 63.1667,1.5 57.5,1.5C 49.5,1.5 41.5,1.5 33.5,1.5C 33.5,48.8333 33.5,96.1667 33.5,143.5C 32.5012,96.3363 32.1679,49.0029 32.5,1.5C 23.8333,1.5 15.1667,1.5 6.5,1.5C 6.5,66.5 6.5,131.5 6.5,196.5C 5.50086,131.669 5.16753,66.6688 5.5,1.5C 3.5,1.5 1.5,1.5 -0.5,1.5C -0.5,0.833333 -0.5,0.166667 -0.5,-0.5 Z"/></g>
<g><path style="opacity:1" fill="#010101" d="M -0.5,1.5 C 1.5,1.5 3.5,1.5 5.5,1.5C 5.16753,66.6688 5.50086,131.669 6.5,196.5C 6.9528,197.458 7.61947,198.292 8.5,199C 19.9095,199.81 31.2428,199.643 42.5,198.5C 44.1172,197.962 45.7839,197.629 47.5,197.5C 48.2891,197.783 48.9558,198.283 49.5,199C 60.5,199.667 71.5,199.667 82.5,199C 83.056,198.617 83.3893,198.117 83.5,197.5C 84.4967,180.341 84.83,163.008 84.5,145.5C 81.8333,145.5 79.1667,145.5 76.5,145.5C 75.8826,145.389 75.3826,145.056 75,144.5C 74.5,96.8345 74.3333,49.1678 74.5,1.5C 75.3327,48.3316 75.8327,95.3316 76,142.5C 76.5,95.5012 76.6667,48.5012 76.5,1.5C 83.1667,1.5 89.8333,1.5 96.5,1.5C 96.5,48.8333 96.5,96.1667 96.5,143.5C 93.8127,143.336 91.146,143.503 88.5,144C 91.0356,144.186 93.369,144.686 95.5,145.5C 92.8333,145.5 90.1667,145.5 87.5,145.5C 87.1701,162.675 87.5034,179.675 88.5,196.5C 88.9528,197.458 89.6195,198.292 90.5,199C 101.167,199.667 111.833,199.667 122.5,199C 123.667,198.5 124.5,197.667 125,196.5C 125.5,131.501 125.667,66.5009 125.5,1.5C 126.333,66.332 126.833,131.332 127,196.5C 127.333,131.5 127.667,66.5 128,1.5C 128.167,66.668 128.667,131.668 129.5,196.5C 129.953,197.458 130.619,198.292 131.5,199C 142.5,199.667 153.5,199.667 164.5,199C 165.056,198.617 165.389,198.117 165.5,197.5C 166.497,180.341 166.83,163.008 166.5,145.5C 163.833,145.5 161.167,145.5 158.5,145.5C 157.5,145.167 156.833,144.5 156.5,143.5C 156.5,96.1667 156.5,48.8333 156.5,1.5C 164.167,1.5 171.833,1.5 179.5,1.5C 179.5,48.8333 179.5,96.1667 179.5,143.5C 179.167,144.5 178.5,145.167 177.5,145.5C 174.833,145.5 172.167,145.5 169.5,145.5C 169.17,162.675 169.503,179.675 170.5,196.5C 170.953,197.458 171.619,198.292 172.5,199C 183.167,199.667 193.833,199.667 204.5,199C 205.416,198.722 206.082,198.222 206.5,197.5C 207.497,180.341 207.83,163.008 207.5,145.5C 204.833,145.5 202.167,145.5 199.5,145.5C 198.883,145.389 198.383,145.056 198,144.5C 197.5,96.8345 197.333,49.1678 197.5,1.5C 198.333,48.6649 198.833,95.9982 199,143.5C 199.5,96.1678 199.667,48.8345 199.5,1.5C 206.167,1.5 212.833,1.5 219.5,1.5C 219.5,48.8333 219.5,96.1667 219.5,143.5C 208.833,143.833 208.833,144.167 219.5,144.5C 219.5,145.167 219.167,145.5 218.5,145.5C 215.833,145.5 213.167,145.5 210.5,145.5C 210.172,157.678 210.505,169.678 211.5,181.5C 211.953,182.458 212.619,183.292 213.5,184C 224.515,184.832 235.515,184.666 246.5,183.5C 246.863,182.817 247.196,182.15 247.5,181.5C 248.495,169.678 248.828,157.678 248.5,145.5C 245.833,145.5 243.167,145.5 240.5,145.5C 239.5,145.167 238.833,144.5 238.5,143.5C 238.333,96.1655 238.5,48.8322 239,1.5C 239.833,190.832 240.333,190.832 240.5,1.5C 247.167,1.5 253.833,1.5 260.5,1.5C 260.83,48.7386 260.497,95.9053 259.5,143C 260.094,143.464 260.761,143.631 261.5,143.5C 261.389,144.117 261.056,144.617 260.5,145C 257.854,145.497 255.187,145.664 252.5,145.5C 252.333,162.837 252.5,180.17 253,197.5C 253.5,198 254,198.5 254.5,199C 265.5,199.667 276.5,199.667 287.5,199C 288.823,198.184 289.489,197.017 289.5,195.5C 290.325,191.353 290.825,187.019 291,182.5C 292.167,183.667 293.333,184.833 294.5,186C 305.833,186.667 317.167,186.667 328.5,186C 317.833,185.667 307.167,185.333 296.5,185C 307.008,184.83 317.341,184.33 327.5,183.5C 328.5,183.167 329.167,182.5 329.5,181.5C 330.495,169.678 330.828,157.678 330.5,145.5C 327.833,145.5 325.167,145.5 322.5,145.5C 321.883,145.389 321.383,145.056 321,144.5C 320.5,96.8345 320.333,49.1678 320.5,1.5C 321.333,48.6649 321.833,95.9982 322,143.5C 322.5,96.1678 322.667,48.8345 322.5,1.5C 329.167,1.5 335.833,1.5 342.5,1.5C 342.5,48.8333 342.5,96.1667 342.5,143.5C 331.833,143.833 331.833,144.167 342.5,144.5C 342.5,145.167 342.167,145.5 341.5,145.5C 338.833,145.5 336.167,145.5 333.5,145.5C 333.17,162.675 333.503,179.675 334.5,196.5C 334.953,197.458 335.619,198.292 336.5,199C 347.515,199.832 358.515,199.666 369.5,198.5C 369.863,197.817 370.196,197.15 370.5,196.5C 371.497,179.675 371.83,162.675 371.5,145.5C 368.833,145.5 366.167,145.5 363.5,145.5C 362.094,145.027 361.427,144.027 361.5,142.5C 361.5,95.5 361.5,48.5 361.5,1.5C 369.167,1.5 376.833,1.5 384.5,1.5C 384.5,48.5 384.5,95.5 384.5,142.5C 384.586,143.496 384.252,144.329 383.5,145C 380.574,145.218 377.74,145.718 375,146.5C 374.333,158.167 374.333,169.833 375,181.5C 375.833,182.333 376.667,183.167 377.5,184C 383,184.167 388.5,184.333 394,184.5C 400.007,184.455 405.84,183.788 411.5,182.5C 412.5,122.17 412.833,61.837 412.5,1.5C 413.333,61.6653 413.833,121.999 414,182.5C 414.333,122.167 414.667,61.8333 415,1.5C 415.167,66.668 415.667,131.668 416.5,196.5C 416.953,197.458 417.619,198.292 418.5,199C 429.161,199.5 439.828,199.667 450.5,199.5C 452.308,200.317 453.808,199.65 455,197.5C 456.333,198.167 457.333,199.167 458,200.5C 458.383,199.944 458.883,199.611 459.5,199.5C 470.172,199.667 480.839,199.5 491.5,199C 492.381,198.292 493.047,197.458 493.5,196.5C 494.497,179.675 494.83,162.675 494.5,145.5C 491.833,145.5 489.167,145.5 486.5,145.5C 488.631,144.686 490.964,144.186 493.5,144C 490.905,143.774 488.405,143.274 486,142.5C 485.5,95.5012 485.333,48.5012 485.5,1.5C 492.833,1.5 500.167,1.5 507.5,1.5C 507.5,48.8333 507.5,96.1667 507.5,143.5C 507.167,144.5 506.5,145.167 505.5,145.5C 502.833,145.5 500.167,145.5 497.5,145.5C 497.17,162.675 497.503,179.675 498.5,196.5C 498.953,197.458 499.619,198.292 500.5,199C 511.167,199.667 521.833,199.667 532.5,199C 533.416,198.722 534.082,198.222 534.5,197.5C 535.497,180.341 535.83,163.008 535.5,145.5C 532.833,145.5 530.167,145.5 527.5,145.5C 526.5,145.167 525.833,144.5 525.5,143.5C 525.333,96.1655 525.5,48.8322 526,1.5C 526.833,190.832 527.333,190.832 527.5,1.5C 534.167,1.5 540.833,1.5 547.5,1.5C 547.5,48.8333 547.5,96.1667 547.5,143.5C 544.813,143.336 542.146,143.503 539.5,144C 542.036,144.186 544.369,144.686 546.5,145.5C 543.833,145.5 541.167,145.5 538.5,145.5C 538.17,162.675 538.503,179.675 539.5,196.5C 539.953,197.458 540.619,198.292 541.5,199C 552.167,199.667 562.833,199.667 573.5,199C 574.333,198.167 575.167,197.333 576,196.5C 576.5,131.501 576.667,66.5009 576.5,1.5C 577.333,66.332 577.833,131.332 578,196.5C 578.5,131.501 578.667,66.5009 578.5,1.5C 579.5,1.5 580.5,1.5 581.5,1.5C 581.5,73.1667 581.5,144.833 581.5,216.5C 387.5,216.5 193.5,216.5 -0.5,216.5C -0.5,144.833 -0.5,73.1667 -0.5,1.5 Z"/></g>
<g><path style="opacity:1" fill="#fdfdfd" d="M 33.5,143.5 C 33.8333,144.5 34.5,145.167 35.5,145.5C 37.6074,146.468 39.9407,146.802 42.5,146.5C 42.5,163.5 42.5,180.5 42.5,197.5C 42.5,197.833 42.5,198.167 42.5,198.5C 31.2428,199.643 19.9095,199.81 8.5,199C 7.61947,198.292 6.9528,197.458 6.5,196.5C 6.5,131.5 6.5,66.5 6.5,1.5C 15.1667,1.5 23.8333,1.5 32.5,1.5C 32.1679,49.0029 32.5012,96.3363 33.5,143.5 Z"/></g>
<g><path style="opacity:1" fill="#010101" d="M 57.5,1.5 C 57.6667,48.5012 57.5,95.5012 57,142.5C 56.6232,143.942 55.7899,144.942 54.5,145.5C 51.8333,145.5 49.1667,145.5 46.5,145.5C 46.5,162.5 46.5,179.5 46.5,196.5C 45.6685,180.005 45.1685,163.338 45,146.5C 44.6174,145.944 44.1174,145.611 43.5,145.5C 40.8333,145.5 38.1667,145.5 35.5,145.5C 34.5,145.167 33.8333,144.5 33.5,143.5C 33.5,96.1667 33.5,48.8333 33.5,1.5C 41.5,1.5 49.5,1.5 57.5,1.5 Z"/></g>
<g><path style="opacity:1" fill="#f8f8f8" d="M 57.5,1.5 C 63.1667,1.5 68.8333,1.5 74.5,1.5C 74.3333,49.1678 74.5,96.8345 75,144.5C 75.3826,145.056 75.8826,145.389 76.5,145.5C 78.6074,146.468 80.9407,146.802 83.5,146.5C 83.5,163.5 83.5,180.5 83.5,197.5C 83.3893,198.117 83.056,198.617 82.5,199C 71.5,199.667 60.5,199.667 49.5,199C 48.9558,198.283 48.2891,197.783 47.5,197.5C 47.5,197.167 47.5,196.833 47.5,196.5C 47.5,179.833 47.5,163.167 47.5,146.5C 50.0593,146.802 52.3926,146.468 54.5,145.5C 55.7899,144.942 56.6232,143.942 57,142.5C 57.5,95.5012 57.6667,48.5012 57.5,1.5 Z"/></g>
<g><path style="opacity:1" fill="#fbfbfb" d="M 125.5,1.5 C 125.667,66.5009 125.5,131.501 125,196.5C 124.5,197.667 123.667,198.5 122.5,199C 111.833,199.667 101.167,199.667 90.5,199C 89.6195,198.292 88.9528,197.458 88.5,196.5C 88.5,179.833 88.5,163.167 88.5,146.5C 91.0593,146.802 93.3926,146.468 95.5,145.5C 96.4584,145.047 97.2917,144.381 98,143.5C 98.5,96.1678 98.6667,48.8345 98.5,1.5C 107.5,1.5 116.5,1.5 125.5,1.5 Z"/></g>
<g><path style="opacity:1" fill="#fdfdfd" d="M 156.5,143.5 C 156.833,144.5 157.5,145.167 158.5,145.5C 160.607,146.468 162.941,146.802 165.5,146.5C 165.5,163.5 165.5,180.5 165.5,197.5C 165.389,198.117 165.056,198.617 164.5,199C 153.5,199.667 142.5,199.667 131.5,199C 130.619,198.292 129.953,197.458 129.5,196.5C 129.5,131.5 129.5,66.5 129.5,1.5C 138.167,1.5 146.833,1.5 155.5,1.5C 155.168,49.0029 155.501,96.3363 156.5,143.5 Z"/></g>
<g><path style="opacity:1" fill="#f8f8f8" d="M 197.5,1.5 C 197.333,49.1678 197.5,96.8345 198,144.5C 198.383,145.056 198.883,145.389 199.5,145.5C 201.607,146.468 203.941,146.802 206.5,146.5C 206.5,163.5 206.5,180.5 206.5,197.5C 206.082,198.222 205.416,198.722 204.5,199C 193.833,199.667 183.167,199.667 172.5,199C 171.619,198.292 170.953,197.458 170.5,196.5C 170.5,179.833 170.5,163.167 170.5,146.5C 173.059,146.802 175.393,146.468 177.5,145.5C 178.5,145.167 179.167,144.5 179.5,143.5C 180.499,96.3363 180.832,49.0029 180.5,1.5C 186.167,1.5 191.833,1.5 197.5,1.5 Z"/></g>
<g><path style="opacity:1" fill="#fafafa" d="M 238.5,143.5 C 238.833,144.5 239.5,145.167 240.5,145.5C 242.607,146.468 244.941,146.802 247.5,146.5C 247.5,158.167 247.5,169.833 247.5,181.5C 247.196,182.15 246.863,182.817 246.5,183.5C 235.515,184.666 224.515,184.832 213.5,184C 212.619,183.292 211.953,182.458 211.5,181.5C 211.5,169.833 211.5,158.167 211.5,146.5C 214.059,146.802 216.393,146.468 218.5,145.5C 219.167,145.5 219.5,145.167 219.5,144.5C 220.117,144.389 220.617,144.056 221,143.5C 221.5,96.1678 221.667,48.8345 221.5,1.5C 226.833,1.5 232.167,1.5 237.5,1.5C 237.168,49.0029 237.501,96.3363 238.5,143.5 Z"/></g>
<g><path style="opacity:1" fill="#fbfbfb" d="M 289.5,195.5 C 289.489,197.017 288.823,198.184 287.5,199C 276.5,199.667 265.5,199.667 254.5,199C 254,198.5 253.5,198 253,197.5C 252.5,180.17 252.333,162.837 252.5,145.5C 255.187,145.664 257.854,145.497 260.5,145C 261.056,144.617 261.389,144.117 261.5,143.5C 262.499,96.3363 262.832,49.0029 262.5,1.5C 271.5,1.5 280.5,1.5 289.5,1.5C 289.5,66.1667 289.5,130.833 289.5,195.5 Z"/></g>
<g><path style="opacity:1" fill="#fbfbfb" d="M 320.5,1.5 C 320.333,49.1678 320.5,96.8345 321,144.5C 321.383,145.056 321.883,145.389 322.5,145.5C 324.607,146.468 326.941,146.802 329.5,146.5C 329.5,158.167 329.5,169.833 329.5,181.5C 329.167,182.5 328.5,183.167 327.5,183.5C 316.252,183.821 305.085,183.487 294,182.5C 293.5,122.168 293.333,61.8343 293.5,1.5C 302.5,1.5 311.5,1.5 320.5,1.5 Z"/></g>
<g><path style="opacity:1" fill="#fcfcfc" d="M 361.5,142.5 C 361.427,144.027 362.094,145.027 363.5,145.5C 365.607,146.468 367.941,146.802 370.5,146.5C 370.5,163.167 370.5,179.833 370.5,196.5C 370.196,197.15 369.863,197.817 369.5,198.5C 358.515,199.666 347.515,199.832 336.5,199C 335.619,198.292 334.953,197.458 334.5,196.5C 334.5,179.833 334.5,163.167 334.5,146.5C 337.059,146.802 339.393,146.468 341.5,145.5C 342.167,145.5 342.5,145.167 342.5,144.5C 343.117,144.389 343.617,144.056 344,143.5C 344.5,96.1678 344.667,48.8345 344.5,1.5C 349.833,1.5 355.167,1.5 360.5,1.5C 360.168,48.6696 360.501,95.6696 361.5,142.5 Z"/></g>
<g><path style="opacity:1" fill="#f9f9f9" d="M 412.5,1.5 C 412.833,61.837 412.5,122.17 411.5,182.5C 405.84,183.788 400.007,184.455 394,184.5C 388.5,184.333 383,184.167 377.5,184C 376.667,183.167 375.833,182.333 375,181.5C 374.333,169.833 374.333,158.167 375,146.5C 377.74,145.718 380.574,145.218 383.5,145C 384.252,144.329 384.586,143.496 384.5,142.5C 385.499,95.6696 385.832,48.6696 385.5,1.5C 394.5,1.5 403.5,1.5 412.5,1.5 Z"/></g>
<g><path style="opacity:1" fill="#fdfdfd" d="M 443.5,143.5 C 443.833,144.5 444.5,145.167 445.5,145.5C 447.607,146.468 449.941,146.802 452.5,146.5C 452.5,163.167 452.5,179.833 452.5,196.5C 452.218,197.778 451.551,198.778 450.5,199.5C 439.828,199.667 429.161,199.5 418.5,199C 417.619,198.292 416.953,197.458 416.5,196.5C 416.5,131.5 416.5,66.5 416.5,1.5C 425.167,1.5 433.833,1.5 442.5,1.5C 442.168,49.0029 442.501,96.3363 443.5,143.5 Z"/></g>
<g><path style="opacity:1" fill="#000000" d="M 465.5,144.5 C 465.5,145.167 465.167,145.5 464.5,145.5C 461.833,145.5 459.167,145.5 456.5,145.5C 456.5,162.5 456.5,179.5 456.5,196.5C 455.668,180.005 455.168,163.338 455,146.5C 454.832,163.338 454.332,180.005 453.5,196.5C 453.5,179.5 453.5,162.5 453.5,145.5C 450.833,145.5 448.167,145.5 445.5,145.5C 444.5,145.167 443.833,144.5 443.5,143.5C 443.333,96.1655 443.5,48.8322 444,1.5C 444.833,190.832 445.333,190.832 445.5,1.5C 452.167,1.5 458.833,1.5 465.5,1.5C 465.667,48.5012 465.5,95.5012 465,142.5C 462.595,143.274 460.095,143.774 457.5,144C 460.146,144.497 462.813,144.664 465.5,144.5 Z"/></g>
<g><path style="opacity:1" fill="#fcfcfc" d="M 486.5,145.5 C 488.607,146.468 490.941,146.802 493.5,146.5C 493.5,163.167 493.5,179.833 493.5,196.5C 493.047,197.458 492.381,198.292 491.5,199C 480.839,199.5 470.172,199.667 459.5,199.5C 458.833,198.5 458.167,197.5 457.5,196.5C 457.5,179.833 457.5,163.167 457.5,146.5C 460.059,146.802 462.393,146.468 464.5,145.5C 465.167,145.5 465.5,145.167 465.5,144.5C 466.117,144.389 466.617,144.056 467,143.5C 467.5,96.1678 467.667,48.8345 467.5,1.5C 472.833,1.5 478.167,1.5 483.5,1.5C 483.333,48.8345 483.5,96.1678 484,143.5C 484.708,144.381 485.542,145.047 486.5,145.5 Z"/></g>
<g><path style="opacity:1" fill="#fcfcfc" d="M 525.5,143.5 C 525.833,144.5 526.5,145.167 527.5,145.5C 529.607,146.468 531.941,146.802 534.5,146.5C 534.5,163.5 534.5,180.5 534.5,197.5C 534.082,198.222 533.416,198.722 532.5,199C 521.833,199.667 511.167,199.667 500.5,199C 499.619,198.292 498.953,197.458 498.5,196.5C 498.5,179.833 498.5,163.167 498.5,146.5C 501.059,146.802 503.393,146.468 505.5,145.5C 506.5,145.167 507.167,144.5 507.5,143.5C 508.499,96.3363 508.832,49.0029 508.5,1.5C 513.833,1.5 519.167,1.5 524.5,1.5C 524.168,49.0029 524.501,96.3363 525.5,143.5 Z"/></g>
<g><path style="opacity:1" fill="#fafafa" d="M 576.5,1.5 C 576.667,66.5009 576.5,131.501 576,196.5C 575.167,197.333 574.333,198.167 573.5,199C 562.833,199.667 552.167,199.667 541.5,199C 540.619,198.292 539.953,197.458 539.5,196.5C 539.5,179.833 539.5,163.167 539.5,146.5C 542.059,146.802 544.393,146.468 546.5,145.5C 547.458,145.047 548.292,144.381 549,143.5C 549.5,96.1678 549.667,48.8345 549.5,1.5C 558.5,1.5 567.5,1.5 576.5,1.5 Z"/></g>
<g><path style="opacity:1" fill="#666666" d="M 95.5,145.5 C 93.3926,146.468 91.0593,146.802 88.5,146.5C 88.5,163.167 88.5,179.833 88.5,196.5C 87.5034,179.675 87.1701,162.675 87.5,145.5C 90.1667,145.5 92.8333,145.5 95.5,145.5 Z"/></g>
<g><path style="opacity:1" fill="#bbbbbb" d="M 158.5,145.5 C 161.167,145.5 163.833,145.5 166.5,145.5C 166.83,163.008 166.497,180.341 165.5,197.5C 165.5,180.5 165.5,163.5 165.5,146.5C 162.941,146.802 160.607,146.468 158.5,145.5 Z"/></g>
<g><path style="opacity:1" fill="#7d7d7d" d="M 177.5,145.5 C 175.393,146.468 173.059,146.802 170.5,146.5C 170.5,163.167 170.5,179.833 170.5,196.5C 169.503,179.675 169.17,162.675 169.5,145.5C 172.167,145.5 174.833,145.5 177.5,145.5 Z"/></g>
<g><path style="opacity:1" fill="#5e5e5e" d="M 218.5,145.5 C 216.393,146.468 214.059,146.802 211.5,146.5C 211.5,158.167 211.5,169.833 211.5,181.5C 210.505,169.678 210.172,157.678 210.5,145.5C 213.167,145.5 215.833,145.5 218.5,145.5 Z"/></g>
<g><path style="opacity:1" fill="#b9b9b9" d="M 240.5,145.5 C 243.167,145.5 245.833,145.5 248.5,145.5C 248.828,157.678 248.495,169.678 247.5,181.5C 247.5,169.833 247.5,158.167 247.5,146.5C 244.941,146.802 242.607,146.468 240.5,145.5 Z"/></g>
<g><path style="opacity:1" fill="#c4c4c4" d="M 322.5,145.5 C 325.167,145.5 327.833,145.5 330.5,145.5C 330.828,157.678 330.495,169.678 329.5,181.5C 329.5,169.833 329.5,158.167 329.5,146.5C 326.941,146.802 324.607,146.468 322.5,145.5 Z"/></g>
<g><path style="opacity:1" fill="#b5b5b5" d="M 363.5,145.5 C 366.167,145.5 368.833,145.5 371.5,145.5C 371.83,162.675 371.497,179.675 370.5,196.5C 370.5,179.833 370.5,163.167 370.5,146.5C 367.941,146.802 365.607,146.468 363.5,145.5 Z"/></g>
<g><path style="opacity:1" fill="#6e6e6e" d="M 464.5,145.5 C 462.393,146.468 460.059,146.802 457.5,146.5C 457.5,163.167 457.5,179.833 457.5,196.5C 457.167,196.5 456.833,196.5 456.5,196.5C 456.5,179.5 456.5,162.5 456.5,145.5C 459.167,145.5 461.833,145.5 464.5,145.5 Z"/></g>
<g><path style="opacity:1" fill="#a5a5a5" d="M 486.5,145.5 C 489.167,145.5 491.833,145.5 494.5,145.5C 494.83,162.675 494.497,179.675 493.5,196.5C 493.5,179.833 493.5,163.167 493.5,146.5C 490.941,146.802 488.607,146.468 486.5,145.5 Z"/></g>
<g><path style="opacity:1" fill="#707070" d="M 546.5,145.5 C 544.393,146.468 542.059,146.802 539.5,146.5C 539.5,163.167 539.5,179.833 539.5,196.5C 538.503,179.675 538.17,162.675 538.5,145.5C 541.167,145.5 543.833,145.5 546.5,145.5 Z"/></g>
<g><path style="opacity:1" fill="#bbbbbb" d="M 35.5,145.5 C 38.1667,145.5 40.8333,145.5 43.5,145.5C 43.83,163.008 43.4967,180.341 42.5,197.5C 42.5,180.5 42.5,163.5 42.5,146.5C 39.9407,146.802 37.6074,146.468 35.5,145.5 Z"/></g>
<g><path style="opacity:1" fill="#1f1f1f" d="M 43.5,145.5 C 44.1174,145.611 44.6174,145.944 45,146.5C 45.1685,163.338 45.6685,180.005 46.5,196.5C 46.8333,196.5 47.1667,196.5 47.5,196.5C 47.5,196.833 47.5,197.167 47.5,197.5C 45.7839,197.629 44.1172,197.962 42.5,198.5C 42.5,198.167 42.5,197.833 42.5,197.5C 43.4967,180.341 43.83,163.008 43.5,145.5 Z"/></g>
<g><path style="opacity:1" fill="#737373" d="M 54.5,145.5 C 52.3926,146.468 50.0593,146.802 47.5,146.5C 47.5,163.167 47.5,179.833 47.5,196.5C 47.1667,196.5 46.8333,196.5 46.5,196.5C 46.5,179.5 46.5,162.5 46.5,145.5C 49.1667,145.5 51.8333,145.5 54.5,145.5 Z"/></g>
<g><path style="opacity:1" fill="#c6c6c6" d="M 76.5,145.5 C 79.1667,145.5 81.8333,145.5 84.5,145.5C 84.83,163.008 84.4967,180.341 83.5,197.5C 83.5,180.5 83.5,163.5 83.5,146.5C 80.9407,146.802 78.6074,146.468 76.5,145.5 Z"/></g>
<g><path style="opacity:1" fill="#cacaca" d="M 199.5,145.5 C 202.167,145.5 204.833,145.5 207.5,145.5C 207.83,163.008 207.497,180.341 206.5,197.5C 206.5,180.5 206.5,163.5 206.5,146.5C 203.941,146.802 201.607,146.468 199.5,145.5 Z"/></g>
<g><path style="opacity:1" fill="#8d8d8d" d="M 505.5,145.5 C 503.393,146.468 501.059,146.802 498.5,146.5C 498.5,163.167 498.5,179.833 498.5,196.5C 497.503,179.675 497.17,162.675 497.5,145.5C 500.167,145.5 502.833,145.5 505.5,145.5 Z"/></g>
<g><path style="opacity:1" fill="#5e5e5e" d="M 341.5,145.5 C 339.393,146.468 337.059,146.802 334.5,146.5C 334.5,163.167 334.5,179.833 334.5,196.5C 333.503,179.675 333.17,162.675 333.5,145.5C 336.167,145.5 338.833,145.5 341.5,145.5 Z"/></g>
<g><path style="opacity:1" fill="#bfbfbf" d="M 445.5,145.5 C 448.167,145.5 450.833,145.5 453.5,145.5C 453.5,162.5 453.5,179.5 453.5,196.5C 453.167,196.5 452.833,196.5 452.5,196.5C 452.5,179.833 452.5,163.167 452.5,146.5C 449.941,146.802 447.607,146.468 445.5,145.5 Z"/></g>
<g><path style="opacity:1" fill="#232323" d="M 456.5,196.5 C 456.833,196.5 457.167,196.5 457.5,196.5C 458.167,197.5 458.833,198.5 459.5,199.5C 458.883,199.611 458.383,199.944 458,200.5C 457.333,199.167 456.333,198.167 455,197.5C 453.808,199.65 452.308,200.317 450.5,199.5C 451.551,198.778 452.218,197.778 452.5,196.5C 452.833,196.5 453.167,196.5 453.5,196.5C 454.332,180.005 454.832,163.338 455,146.5C 455.168,163.338 455.668,180.005 456.5,196.5 Z"/></g>
<g><path style="opacity:1" fill="#b1b1b1" d="M 527.5,145.5 C 530.167,145.5 532.833,145.5 535.5,145.5C 535.83,163.008 535.497,180.341 534.5,197.5C 534.5,180.5 534.5,163.5 534.5,146.5C 531.941,146.802 529.607,146.468 527.5,145.5 Z"/></g>
</svg>
