<?xml version="1.0" standalone="no"?>
<!DOCTYPE svg PUBLIC "-//W3C//DTD SVG 20010904//EN"
 "http://www.w3.org/TR/2001/REC-SVG-20010904/DTD/svg10.dtd">
<svg version="1.0" xmlns="http://www.w3.org/2000/svg"
 width="625.000000pt" height="687.000000pt" viewBox="0 0 625.000000 687.000000"
 preserveAspectRatio="xMidYMid meet">

<g transform="translate(0.000000,687.000000) scale(0.100000,-0.100000)"
fill="#000000" stroke="none">
<path d="M2875 6466 c-310 -52 -566 -181 -756 -384 -235 -248 -372 -611 -384
-1012 -11 -383 122 -715 388 -967 225 -212 500 -330 819 -348 105 -7 138 2
138 35 0 28 -25 36 -120 38 -443 11 -845 270 -1036 667 -123 255 -148 514 -83
853 113 587 495 966 1054 1047 436 62 940 -115 1161 -408 155 -206 215 -467
215 -927 1 -289 -21 -421 -91 -560 -76 -151 -242 -306 -430 -400 -213 -107
-438 -149 -689 -129 -101 9 -125 8 -132 -3 -13 -21 -10 -45 6 -52 34 -12 147
-21 263 -19 462 7 875 233 1047 573 76 150 96 273 94 580 -2 266 -12 394 -43
550 -56 276 -164 462 -351 603 -163 122 -377 215 -580 252 -120 22 -386 28
-490 11z"/>
<path d="M2839 3244 c-281 -24 -649 -92 -809 -149 -377 -137 -676 -466 -984
-1085 -185 -373 -300 -724 -361 -1105 -27 -170 -51 -435 -42 -459 6 -16 52
-23 61 -8 2 4 7 50 11 102 49 710 303 1404 730 1997 83 116 266 303 351 361
217 146 461 211 989 267 146 15 449 22 516 11 19 -3 57 -8 84 -10 280 -29 652
-164 892 -323 256 -171 421 -375 518 -643 84 -234 165 -686 190 -1070 4 -52 8
-113 10 -135 2 -22 4 -153 4 -292 1 -247 1 -252 22 -258 13 -5 27 -1 36 8 13
13 16 52 15 249 -3 676 -115 1355 -279 1682 -170 340 -524 610 -1003 764 -307
99 -589 127 -951 96z"/>
</g>
</svg>
