<?xml version="1.0" encoding="utf-8"?>
<!-- Generator: Adobe Illustrator 26.3.0, SVG Export Plug-In . SVG Version: 6.00 Build 0)  -->
<svg version="1.1" xmlns="http://www.w3.org/2000/svg" xmlns:xlink="http://www.w3.org/1999/xlink" x="0px" y="0px"
	 viewBox="0 0 810.71 496.06" style="enable-background:new 0 0 810.71 496.06;" xml:space="preserve">
<style type="text/css">
	.st0{fill:none;stroke:#000000;stroke-width:3;stroke-miterlimit:10;}
	.st1{fill:#EFDEDE;}
	.st2{fill:none;stroke:#CDAAA8;stroke-width:3;stroke-miterlimit:10;}
	.st3{fill:#FFFFFF;stroke:#000000;stroke-width:3;stroke-miterlimit:10;}
	.st4{stroke:#000000;stroke-width:3;stroke-miterlimit:10;}
	.st5{fill:#35398E;}
	.st6{fill:#FFFFFF;}
	.st7{fill:#E7D93E;}
	.st8{fill:#848484;}
	.st9{fill:#E83F42;}
	.st10{fill:#E74246;}
	.st11{fill:#E6D93F;}
	.st12{fill:#E83E42;}
</style>
<g id="Capa_1">
	<g>
		<g>
			<rect x="57.54" y="146.79" class="st0" width="492.29" height="25.07"/>
			<rect x="57.54" y="171.86" class="st0" width="492.29" height="25.07"/>
			<rect x="57.54" y="196.94" class="st0" width="492.29" height="25.07"/>
			<rect x="57.54" y="222.01" class="st0" width="492.29" height="25.07"/>
			<rect x="57.54" y="247.08" class="st0" width="492.29" height="25.07"/>
		</g>
		<path d="M94.63,234.44c0.29-0.2-0.81-1.35-1.31-3.71c-0.19-0.89-0.95-4.46,1.09-7.64c2.28-3.54,6.57-4.28,8.08-4.54
			c1.39-0.24,4.92-0.85,8.3,1.03c4.95,2.75,5.41,8.48,5.46,9.29c0.41,6.5-4.99,10.78-6.34,11.76c-4.63,3.39-9.78,3.34-11.58,3.3
			c-7.03-0.16-15.05-3.95-18.57-11.14c-4.95-10.1,2.41-19.85,3.93-21.87c1.91-2.53,2.85-2.75,8.3-7.22
			c9.64-7.91,15.81-12.97,19.23-19.4c4.75-8.92,2.93-18.1,2.4-21.25c-0.64-3.83-1.42-9.16-5.24-14.03c-1.39-1.77-2.22-2.79-3.5-2.89
			c-4.42-0.34-10.16,10.65-11.36,21.05c-0.22,1.86-0.35,4.28,2.19,18.78c1.24,7.1,2.44,13.17,5.03,25.59
			c2.77,13.31,4.15,19.96,4.59,21.25c0.26,0.77,3.02,8.95,5.03,18.78c0.32,1.56,0.88,4.44,0.22,8.05c-0.47,2.58-1.2,6.61-4.81,9.08
			c0,0-3.76,2.58-9.26,1.83c-1.09-0.15-1.19-0.36-4.53-1.13c-0.31-0.07-1.3-0.3-1.28-0.49c0.01-0.12,0.42-0.19,0.49-0.21
			c0.36-0.06,0.65-0.01,0.68,0c0.58,0.11,2.45-0.21,3.71-0.85c1.65-0.83,2.41-2.26,2.87-3.12c0.39-0.74,2.92-5.47,0.27-9.18
			c-2.64-3.7-9.02-4.46-12.67-1.7c-3.66,2.77-2.91,7.82-2.79,8.67c0.58,3.91,3.28,6.27,4.15,7.02c4.98,4.24,11.52,3.25,12.45,3.1
			c0.51-0.09,7.04-1.27,10.54-6.81c2.23-3.52,2.07-6.95,1.86-11.56c-0.04-0.87-0.15-2.61-1.91-10.27c-1.29-5.61-1.9-7.61-3.28-13.26
			c-0.7-2.88-1.36-5.82-2.68-11.71c-2.06-9.23-3.1-14.32-3.39-15.73c-0.61-2.99-0.47-2.43-0.87-4.39c-1.95-9.45-2.7-10.81-3.17-14.7
			c-0.49-4.11-0.2-7.16,0.11-10.47c0,0,0.55-5.86,3.93-14.44c0.42-1.06,1.25-3.06,3.28-4.02c0.35-0.16,1.57-0.74,2.9-0.41
			c1.91,0.48,2.8,2.54,3.28,3.71c1.99,4.86,0.31,9.87-0.16,11.14c-0.92,2.51-3.16,5.23-7.65,10.68c-1.18,1.43-2.45,2.9-4.37,4.49
			c-1.62,1.34-2.4,1.69-4.04,2.89c-0.58,0.43-2.06,1.53-5.9,5.42c-3.69,3.73-5.53,5.6-7.32,7.94c-1.49,1.96-3.36,4.44-5.03,8.1
			c-0.77,1.69-2.26,5.02-2.84,9.6c-0.43,3.35-0.96,7.54,1.04,12.12c1.72,3.93,4.46,6.22,6.5,7.89c2.02,1.65,8.58,7.02,18.41,6.91
			c2.03-0.02,8.83-0.19,14.97-4.8c1.73-1.3,5.52-4.22,7.16-9.44c0.43-1.38,2.51-7.99-1.8-13.88c-3.41-4.65-8.92-6.26-12.13-6.45
			c-0.93-0.06-2.31-0.03-3.55,0.05c-2.12,0.14-4.44,0.3-6.61,1.13c-4.38,1.68-6.48,5.47-7.05,6.5c-0.9,1.63-2.45,4.42-1.75,7.94
			C89.34,231.75,94.1,234.81,94.63,234.44z"/>
	</g>
	<g>
		<g>
			<g>
				<path class="st1" d="M693.32,227.84c-1.08,3.41-0.73,6.99-0.63,10.5c0.11,3.66,0.11,7.32,0.01,10.97
					c-0.2,7.33-0.79,14.66-1.82,21.92c-0.19,1.34,0.33,2.69,1.75,3.08c1.17,0.32,2.88-0.4,3.08-1.75
					c1.05-7.39,1.74-14.82,1.97-22.28c0.12-3.66,0.13-7.32,0.04-10.97c-0.08-3.35-0.61-6.9,0.42-10.15
					C699.12,226.09,694.29,224.78,693.32,227.84L693.32,227.84z"/>
			</g>
		</g>
		<g>
			<g>
				<path class="st1" d="M683.67,214.15c0.14,0.61,0.26,1.22,0.35,1.83c-0.12-0.89-0.24-1.77-0.36-2.66
					c0.26,2.18,0.16,4.33-0.12,6.5c0.12-0.89,0.24-1.77,0.36-2.66c-0.73,5.2-3.03,10.79-1.66,16.01c1.58,6.05,8.11,9.27,13.96,7.88
					c3.81-0.9,6.42-3.35,8.67-6.38c2.61-3.51,3.92-7.88,5.24-12.01c1.23-3.85,2.22-7.83,3.59-11.63c-0.34,0.8-0.67,1.59-1.01,2.39
					c0.07-0.19,0.17-0.37,0.29-0.54c-0.52,0.67-1.04,1.35-1.56,2.02c0.07-0.07,0.13-0.15,0.2-0.22c-0.67,0.52-1.35,1.04-2.02,1.56
					c0.08-0.06,0.16-0.12,0.24-0.18c-0.8,0.34-1.59,0.67-2.39,1.01c0.18-0.1,0.37-0.16,0.57-0.16c-0.89,0.12-1.77,0.24-2.66,0.36
					c0.09,0.01,0.19,0.02,0.28,0.03c-0.89-0.12-1.77-0.24-2.66-0.36c0.09,0.03,0.18,0.06,0.28,0.09c-0.8-0.34-1.59-0.67-2.39-1.01
					c0.19,0.09,0.37,0.2,0.53,0.33c-0.67-0.52-1.35-1.04-2.02-1.56c0.26,0.24,0.48,0.48,0.7,0.76c-0.52-0.67-1.04-1.35-1.56-2.02
					c0.92,1.37,1.53,3.01,2.23,4.5c0.75,1.59,1.53,3.17,2.22,4.79c-0.34-0.8-0.67-1.59-1.01-2.39c0.57,1.39,1.04,2.78,1.29,4.27
					c-0.12-0.89-0.24-1.77-0.36-2.66c0.15,1.12,0.15,2.21,0,3.34c0.12-0.89,0.24-1.77,0.36-2.66c-0.19,1.22-0.54,2.37-1,3.51
					c0.34-0.8,0.67-1.59,1.01-2.39c-1.07,2.47-2.59,4.67-4.22,6.79c0.52-0.67,1.04-1.35,1.56-2.02c-0.43,0.55-0.87,1.1-1.31,1.65
					c5.24,4.04,10.47,8.08,15.71,12.12c4.44-8.88,8.88-17.77,13.32-26.65c-6.09-0.8-12.18-1.59-18.28-2.39
					c0.27,1.09,0.48,2.19,0.64,3.3c-0.12-0.89-0.24-1.77-0.36-2.66c0.32,2.49,0.34,4.99,0.02,7.48c0.12-0.89,0.24-1.77,0.36-2.66
					c-0.28,1.96-0.77,3.85-1.52,5.68c0.34-0.8,0.67-1.59,1.01-2.39c-0.63,1.46-1.4,2.82-2.35,4.09c0.52-0.67,1.04-1.35,1.56-2.02
					c-0.99,1.27-2.11,2.37-3.37,3.36c0.67-0.52,1.35-1.04,2.02-1.56c-4,3.05-8.55,5.47-12.83,8.1c-4.48,2.75-8.97,5.5-13.45,8.25
					c-2.17,1.33-3.91,3.5-4.6,5.98c-0.66,2.39-0.36,5.58,1.01,7.71c2.88,4.47,8.91,6.51,13.68,3.59c7.54-4.63,15.1-9.22,22.62-13.88
					c4.47-2.77,8.32-5.92,11.26-10.31c2.22-3.31,3.66-7.34,4.24-11.27c0.81-5.46,0.68-10.7-0.66-16.09
					c-0.96-3.84-4.51-6.65-8.31-7.16c-3.72-0.5-8.19,1.22-9.96,4.77c-4.44,8.88-8.88,17.77-13.32,26.65
					c-2.25,4.5-1.52,9.74,2.58,12.9c1.69,1.3,3.87,2.25,6.06,2.15c2.48-0.11,5.44-0.91,7.07-2.93c1.69-2.09,3.39-4.19,4.88-6.43
					c1.45-2.18,2.53-4.54,3.45-6.99c1.91-5.07,1.51-10.91-0.52-15.86c-1.06-2.58-2.24-5.09-3.43-7.6c-1.15-2.44-2.18-4.82-4.17-6.75
					c-4.48-4.35-11.61-4.62-16.16-0.22c-2.48,2.4-3.26,5.82-4.22,8.99c-1.36,4.51-2.59,9.15-4.41,13.5c0.34-0.8,0.67-1.59,1.01-2.39
					c-0.61,1.4-1.32,2.71-2.25,3.93c0.52-0.67,1.04-1.35,1.56-2.02c-0.3,0.37-0.6,0.69-0.96,0.99c0.67-0.52,1.35-1.04,2.02-1.56
					c-0.28,0.2-0.54,0.36-0.85,0.52c0.8-0.34,1.59-0.67,2.39-1.01c-0.3,0.12-0.57,0.21-0.89,0.27c0.89-0.12,1.77-0.24,2.66-0.36
					c-0.19,0.03-0.38,0.03-0.56,0c0.89,0.12,1.77,0.24,2.66,0.36c-0.09-0.02-0.17-0.05-0.26-0.07c0.8,0.34,1.59,0.67,2.39,1.01
					c-0.17-0.06-0.33-0.16-0.46-0.29c0.67,0.52,1.35,1.04,2.02,1.56c-0.06-0.07-0.13-0.15-0.19-0.22c0.52,0.67,1.04,1.35,1.56,2.02
					c-0.06-0.11-0.12-0.21-0.17-0.32c0.34,0.8,0.67,1.59,1.01,2.39c-0.03-0.12-0.07-0.23-0.1-0.35c0.12,0.89,0.24,1.77,0.36,2.66
					c-0.04-0.39-0.03-0.72,0.02-1.12c-0.12,0.89-0.24,1.77-0.36,2.66c0.52-3.09,1.3-6.13,1.74-9.23c0.66-4.69,0.87-8.97-0.23-13.65
					c-1.2-5.1-7.3-8.6-12.3-6.98C685.34,203.56,682.39,208.69,683.67,214.15L683.67,214.15z"/>
			</g>
		</g>
		<g>
			<g>
				<path class="st1" d="M678.6,205.81c-1.97,9.12-3.3,18.41-3.96,27.72c-0.65,9.19-1.47,19.37,3.25,27.69
					c2.58,4.55,9.18,6.49,13.68,3.59c4.6-2.97,6.35-8.81,3.59-13.68c-0.28-0.49-0.53-0.99-0.76-1.5c0.34,0.8,0.67,1.59,1.01,2.39
					c-0.65-1.57-1.04-3.19-1.28-4.86c0.12,0.89,0.24,1.77,0.36,2.66c-0.54-4.34-0.27-8.8-0.04-13.15c0.25-4.66,0.69-9.31,1.3-13.93
					c-0.12,0.89-0.24,1.77-0.36,2.66c0.64-4.79,1.48-9.54,2.5-14.26c0.57-2.62,0.37-5.34-1.01-7.71c-1.21-2.07-3.59-4.05-5.98-4.6
					c-2.56-0.58-5.43-0.46-7.71,1.01C681.07,201.2,679.15,203.26,678.6,205.81L678.6,205.81z"/>
			</g>
		</g>
		<g>
			<g>
				<path class="st1" d="M669.02,217.95c-0.72,4.12-1.45,8.25-2.17,12.37c-0.82,4.68-1.75,9.54-1.24,14.31
					c0.41,3.85,1.14,7.49,2.55,11.09c1.43,3.65,3.1,7.17,4.9,10.64c1.65,3.18,3.34,6.34,4.74,9.64c-0.34-0.8-0.67-1.59-1.01-2.39
					c1.12,2.7,2.01,5.48,2.43,8.38c-0.12-0.89-0.24-1.77-0.36-2.66c0.22,1.75,0.27,3.49,0.1,5.24c-0.23,2.41,1.28,5.42,2.93,7.07
					c1.73,1.73,4.58,3.04,7.07,2.93c2.59-0.12,5.27-0.97,7.07-2.93c1.89-2.06,2.67-4.29,2.93-7.07c0.67-7.06-1.69-13.83-4.54-20.15
					c-2.33-5.16-5.29-10.02-7.51-15.24c0.34,0.8,0.67,1.59,1.01,2.39c-1.2-2.86-2.15-5.81-2.59-8.9c0.12,0.89,0.24,1.77,0.36,2.66
					c-0.36-2.85-0.2-5.69,0.18-8.52c-0.12,0.89-0.24,1.77-0.36,2.66c0.77-5.42,1.84-10.81,2.79-16.2c0.48-2.71,0.43-5.25-1.01-7.71
					c-1.21-2.07-3.59-4.05-5.98-4.6c-2.56-0.58-5.43-0.46-7.71,1.01C671.55,213.31,669.46,215.43,669.02,217.95L669.02,217.95z"/>
			</g>
		</g>
		<g>
			<g>
				<path class="st1" d="M697.6,287.12c0.18-8.73-0.12-17.47-0.91-26.16c-0.25-2.7-0.95-5.09-2.93-7.07
					c-1.73-1.73-4.58-3.04-7.07-2.93c-2.59,0.12-5.27,0.97-7.07,2.93c-1.7,1.85-3.17,4.46-2.93,7.07c0.79,8.7,1.09,17.43,0.91,26.16
					c-0.11,5.23,4.68,10.24,10,10C693.11,296.87,697.48,292.73,697.6,287.12L697.6,287.12z"/>
			</g>
		</g>
		<g>
			<g>
				<path class="st1" d="M683.89,296.26c2.77,0.15,5.6-0.82,7.97-2.18c1.13-0.65,2.15-1.45,3.34-1.98c-0.8,0.34-1.59,0.67-2.39,1.01
					c0.4-0.15,0.78-0.26,1.2-0.34c-0.89,0.12-1.77,0.24-2.66,0.36c0.39-0.04,0.74-0.03,1.14,0c-0.89-0.12-1.77-0.24-2.66-0.36
					c0.75,0.12,1.49,0.31,2.24,0.45c2.7,0.5,3.86,0.52,6.54,0.06c3.32-0.57,6.56-3,8.06-5.99c0.96-1.92,1.51-3.99,1.5-6.14
					c-0.01-0.89-0.12-1.77-0.14-2.66c-0.04-1.75,0.07-3.5,0.29-5.23c-0.12,0.89-0.24,1.77-0.36,2.66c0.51-3.57,1.55-7.03,2.25-10.56
					c0.48-2.42,0.86-4.89,0.97-7.36c0.11-2.52-0.33-5.02-0.74-7.49c0.12,0.89,0.24,1.77,0.36,2.66c-0.05-0.42-0.06-0.78-0.02-1.2
					c-0.12,0.89-0.24,1.77-0.36,2.66c0.04-0.13,0.07-0.26,0.11-0.38c-0.34,0.8-0.67,1.59-1.01,2.39c0.08-0.21,0.2-0.41,0.34-0.58
					c-0.52,0.67-1.04,1.35-1.56,2.02c0.14-0.18,0.3-0.34,0.48-0.48c-0.67,0.52-1.35,1.04-2.02,1.56c1.11-0.85,2.4-1.47,3.68-2.02
					c-0.8,0.34-1.59,0.67-2.39,1.01c0.84-0.35,1.69-0.65,2.56-0.9c2.44-0.73,4.68-2.38,5.98-4.6c1.25-2.14,1.79-5.3,1.01-7.71
					c-1.64-5.07-6.93-8.58-12.3-6.98c-2.96,0.88-6.13,2.08-8.63,3.94c-2.58,1.92-4.74,4.19-5.52,7.43
					c-0.69,2.84-0.09,5.41,0.29,8.22c-0.12-0.89-0.24-1.77-0.36-2.66c0.19,1.8,0.13,3.58-0.09,5.37c0.12-0.89,0.24-1.77,0.36-2.66
					c-0.51,3.71-1.62,7.3-2.32,10.98c-0.49,2.56-0.85,5.18-0.96,7.79c-0.08,1.83,0.28,3.73,0.07,5.55c0.12-0.89,0.24-1.77,0.36-2.66
					c-0.03,0.12-0.06,0.24-0.09,0.35c0.34-0.8,0.67-1.59,1.01-2.39c-0.07,0.22-0.19,0.42-0.34,0.6c0.52-0.67,1.04-1.35,1.56-2.02
					c-0.08,0.07-0.15,0.15-0.23,0.22c0.67-0.52,1.35-1.04,2.02-1.56c-0.17,0.14-0.35,0.25-0.55,0.33c0.8-0.34,1.59-0.67,2.39-1.01
					c-0.33,0.12-0.62,0.19-0.97,0.24c0.89-0.12,1.77-0.24,2.66-0.36c-0.35,0.02-0.67,0.01-1.02-0.03c0.89,0.12,1.77,0.24,2.66,0.36
					c-1.83-0.31-3.63-0.87-5.51-0.88c-2.13,0-3.88,0.43-5.78,1.23c-1.91,0.81-3.51,2.04-5.37,2.91c0.8-0.34,1.59-0.67,2.39-1.01
					c-0.38,0.16-0.76,0.27-1.16,0.35c0.89-0.12,1.77-0.24,2.66-0.36c-0.32,0.04-0.6,0.05-0.92,0.03c-5.23-0.28-10.23,4.8-10,10
					C674.15,291.92,678.29,295.96,683.89,296.26L683.89,296.26z"/>
			</g>
		</g>
		<g>
			<g>
				<path class="st1" d="M712.43,258.43c2.87-1.08,4.7-2.08,7.01-4.12c1.54-1.35,2.8-3.11,3.88-4.84c1.92-3.05,3.21-6.59,4.54-9.91
					c2.44-6.09,4.31-12.41,5.57-18.85c0.3-1.51,0.56-3.04,0.8-4.56c0.45-2.99,1.09-5.91,0.31-8.91c-0.86-3.29-3.02-6.22-6.08-7.76
					c-2.15-1.08-4.48-1.64-6.79-2.25c-6.48-1.72-13.03-3.12-19.64-4.22c-8.27-1.37-16.63-2.35-25-2.84
					c-2.47-0.14-5.36,1.22-7.07,2.93c-1.73,1.73-3.04,4.58-2.93,7.07c0.25,5.68,4.4,9.67,10,10c5.42,0.32,10.81,0.84,16.19,1.56
					c-0.89-0.12-1.77-0.24-2.66-0.36c5.14,0.7,10.25,1.58,15.32,2.65c4.96,1.05,10.07,2.08,14.87,3.73
					c-0.8-0.34-1.59-0.67-2.39-1.01c0.23,0.08,0.45,0.2,0.65,0.34c-0.67-0.52-1.35-1.04-2.02-1.56c0.2,0.14,0.36,0.3,0.49,0.5
					c-0.52-0.67-1.04-1.35-1.56-2.02c0.05,0.1,0.11,0.2,0.16,0.29c-0.34-0.8-0.67-1.59-1.01-2.39c0.09,0.21,0.15,0.42,0.18,0.65
					c-0.12-0.89-0.24-1.77-0.36-2.66c0.06,0.6,0.03,1.17-0.05,1.76c0.12-0.89,0.24-1.77,0.36-2.66c-1.27,9.35-3.77,18.48-7.42,27.17
					c0.34-0.8,0.67-1.59,1.01-2.39c-1.03,2.42-2.08,4.86-3.69,6.96c0.52-0.67,1.04-1.35,1.56-2.02c-0.54,0.66-1.11,1.25-1.77,1.79
					c0.67-0.52,1.35-1.04,2.02-1.56c-0.58,0.43-1.18,0.79-1.85,1.08c0.8-0.34,1.59-0.67,2.39-1.01c-0.11,0.04-0.23,0.09-0.34,0.13
					c-2.5,0.94-4.59,2.23-5.98,4.6c-1.25,2.14-1.79,5.3-1.01,7.71c0.78,2.42,2.28,4.75,4.6,5.98
					C706.98,258.61,709.94,259.36,712.43,258.43L712.43,258.43z"/>
			</g>
		</g>
		<g>
			<g>
				<path class="st1" d="M665.27,200.6c0.43,7.26,0.85,14.52,1.28,21.79c0.16,2.66,1.01,5.15,2.93,7.07
					c1.73,1.73,4.58,3.04,7.07,2.93c2.59-0.12,5.27-0.97,7.07-2.93c1.73-1.89,3.08-4.42,2.93-7.07c-0.43-7.26-0.85-14.52-1.28-21.79
					c-0.16-2.66-1.01-5.15-2.93-7.07c-1.73-1.73-4.58-3.04-7.07-2.93c-2.59,0.12-5.27,0.97-7.07,2.93
					C666.47,195.42,665.12,197.95,665.27,200.6L665.27,200.6z"/>
			</g>
		</g>
		<g>
			<g>
				<path class="st1" d="M671.89,218.25c-0.26,1.31-0.64,2.57-1.15,3.8c0.34-0.8,0.67-1.59,1.01-2.39
					c-0.73,1.73-1.68,3.35-2.83,4.84c0.52-0.67,1.04-1.35,1.56-2.02c-1.16,1.48-2.49,2.8-3.98,3.95c0.67-0.52,1.35-1.04,2.02-1.56
					c-1.44,1.09-2.98,1.99-4.64,2.69c0.8-0.34,1.59-0.67,2.39-1.01c-1.16,0.48-2.35,0.85-3.57,1.11c-2.37,0.5-4.78,2.55-5.98,4.6
					c-1.25,2.14-1.79,5.3-1.01,7.71c0.78,2.42,2.28,4.75,4.6,5.98c2.46,1.3,4.97,1.59,7.71,1.01c2.81-0.6,5.57-1.74,8.06-3.14
					c1.27-0.71,2.41-1.57,3.55-2.45c1.15-0.89,2.28-1.76,3.3-2.8c3.98-4.04,7.13-9.39,8.24-14.99c0.53-2.66,0.4-5.3-1.01-7.71
					c-1.21-2.07-3.59-4.05-5.98-4.6c-2.56-0.58-5.43-0.46-7.71,1.01C674.38,213.63,672.39,215.71,671.89,218.25L671.89,218.25z"/>
			</g>
		</g>
		<g>
			<g>
				<path class="st1" d="M695.86,285.33c-2.18-5.47-3.68-11.16-4.5-16.98c0.12,0.89,0.24,1.77,0.36,2.66
					c-0.54-4.08-0.7-8.22-1.56-12.26c-0.82-3.82-2.57-7.52-4.9-10.65c-4.43-5.96-9.54-11.39-15.07-16.34
					c-1.98-1.77-4.36-2.93-7.07-2.93c-2.45,0-5.38,1.09-7.07,2.93c-1.75,1.91-3.05,4.41-2.93,7.07c0.11,2.57,0.95,5.3,2.93,7.07
					c4.67,4.18,9.1,8.7,12.98,13.63c-0.52-0.67-1.04-1.35-1.56-2.02c1.32,1.71,2.5,3.5,3.36,5.48c-0.34-0.8-0.67-1.59-1.01-2.39
					c0.75,1.84,1.16,3.76,1.45,5.73c-0.12-0.89-0.24-1.77-0.36-2.66c0.65,4.94,0.98,9.9,1.99,14.79c0.86,4.16,2.1,8.24,3.68,12.19
					c1,2.51,2.18,4.56,4.6,5.98c2.14,1.25,5.3,1.79,7.71,1.01c2.42-0.78,4.75-2.28,5.98-4.6
					C696.03,290.81,696.83,287.78,695.86,285.33L695.86,285.33z"/>
			</g>
		</g>
		<g>
			<g>
				<path class="st1" d="M662.09,247.67c5.23,0,10.24-4.6,10-10c-0.24-5.42-4.39-10-10-10c-5.23,0-10.24,4.6-10,10
					C652.33,243.09,656.48,247.67,662.09,247.67L662.09,247.67z"/>
			</g>
		</g>
		<g>
			<g>
				<path class="st1" d="M666.09,243.31c5.23,0,10.24-4.6,10-10c-0.24-5.42-4.39-10-10-10c-5.23,0-10.24,4.6-10,10
					C656.33,238.73,660.48,243.31,666.09,243.31L666.09,243.31z"/>
			</g>
		</g>
		<g>
			<g>
				<path class="st1" d="M689.19,265.32c-0.31,6.37,1.62,12.58,2.5,18.83c-0.12-0.89-0.24-1.77-0.36-2.66
					c0.11,0.85,0.18,1.68,0.1,2.54c0.12-0.89,0.24-1.77,0.36-2.66c-0.07,0.45-0.18,0.85-0.35,1.27c0.34-0.8,0.67-1.59,1.01-2.39
					c-0.14,0.28-0.29,0.51-0.48,0.76c0.52-0.67,1.04-1.35,1.56-2.02c-0.13,0.15-0.27,0.29-0.42,0.42c0.67-0.52,1.35-1.04,2.02-1.56
					c-0.15,0.12-0.32,0.23-0.49,0.32c0.8-0.34,1.59-0.67,2.39-1.01c-0.18,0.09-0.36,0.15-0.55,0.19c0.89-0.12,1.77-0.24,2.66-0.36
					c-0.42,0.05-0.76,0.04-1.18,0c0.89,0.12,1.77,0.24,2.66,0.36c-3.99-0.7-7.91-1.29-11.96-0.87c-2.72,0.28-5.07,0.93-7.07,2.93
					c-1.73,1.73-3.04,4.58-2.93,7.07c0.12,2.59,0.97,5.27,2.93,7.07c1.84,1.69,4.48,3.2,7.07,2.93c2.31-0.24,4.61-0.21,6.91,0.09
					c-0.89-0.12-1.77-0.24-2.66-0.36c1.79,0.26,3.64,0.82,5.45,0.82c2.43,0,4.83-0.57,6.88-1.91c4.06-2.66,6.3-7.16,6.25-11.99
					c-0.03-2.77-0.66-5.61-1.19-8.34c-0.41-2.15-0.86-4.29-1.17-6.45c0.12,0.89,0.24,1.77,0.36,2.66c-0.25-1.89-0.38-3.78-0.29-5.68
					c0.12-2.48-1.2-5.34-2.93-7.07c-1.73-1.73-4.58-3.04-7.07-2.93C693.55,255.57,689.47,259.71,689.19,265.32L689.19,265.32z"/>
			</g>
		</g>
		<g>
			<g>
				<path class="st1" d="M707.91,260.76c5.23,0,10.24-4.6,10-10c-0.24-5.42-4.39-10-10-10c-5.23,0-10.24,4.6-10,10
					C698.15,256.18,702.3,260.76,707.91,260.76L707.91,260.76z"/>
			</g>
		</g>
		<g>
			<g>
				<path class="st1" d="M689.33,265.23c-0.53,2.29-1.06,4.58-1.6,6.88c-0.42,1.33-0.48,2.66-0.18,3.99
					c0.06,1.33,0.46,2.57,1.19,3.72c0.63,1.17,1.49,2.1,2.58,2.81c0.97,0.88,2.1,1.48,3.4,1.79c0.89,0.12,1.77,0.24,2.66,0.36
					c1.81-0.01,3.49-0.46,5.05-1.37c0.67-0.52,1.35-1.04,2.02-1.56c1.24-1.25,2.1-2.72,2.57-4.41c0.53-2.29,1.06-4.58,1.6-6.88
					c0.42-1.33,0.48-2.66,0.18-3.99c-0.06-1.33-0.46-2.57-1.19-3.72c-0.63-1.17-1.49-2.1-2.58-2.81c-0.97-0.88-2.1-1.48-3.4-1.79
					c-0.89-0.12-1.77-0.24-2.66-0.36c-1.81,0.01-3.49,0.46-5.05,1.37c-0.67,0.52-1.35,1.04-2.02,1.56
					C690.67,262.07,689.81,263.54,689.33,265.23L689.33,265.23z"/>
			</g>
		</g>
		<g>
			<g>
				<path class="st1" d="M702.42,281.21c0.06-0.04,0.12-0.09,0.18-0.13c-0.8,0.34-1.59,0.67-2.39,1.01
					c0.06-0.01,0.13-0.03,0.19-0.04c-1.77,0-3.54,0-5.32,0c0.07,0.01,0.13,0.02,0.2,0.03c-0.8-0.34-1.59-0.67-2.39-1.01
					c0.15,0.05,0.28,0.13,0.4,0.23c-0.67-0.52-1.35-1.04-2.02-1.56c0.13,0.12,0.25,0.24,0.35,0.39c-0.52-0.67-1.04-1.35-1.56-2.02
					c0.1,0.14,0.19,0.29,0.25,0.45c-0.34-0.8-0.67-1.59-1.01-2.39c0.71,1.8,1.2,3.65,1.47,5.56c-0.12-0.89-0.24-1.77-0.36-2.66
					c0.16,1.32,0.23,2.63,0.18,3.96c6.55-0.89,13.1-1.77,19.64-2.66c-0.89-3.94-1.61-7.92-2.16-11.92c0.12,0.89,0.24,1.77,0.36,2.66
					c-0.33-2.5-0.6-5.01-0.8-7.53c-6.55,0.89-13.1,1.77-19.64,2.66c1.47,3.65,2.47,7.46,3,11.36c-0.12-0.89-0.24-1.77-0.36-2.66
					c0.35,2.72,0.46,5.45,0.34,8.19c-0.11,2.49,1.19,5.33,2.93,7.07c1.73,1.73,4.58,3.04,7.07,2.93c5.61-0.25,9.75-4.39,10-10
					c0.33-7.48-0.9-15.26-3.7-22.21c-0.31-1.3-0.91-2.43-1.79-3.4c-0.71-1.09-1.64-1.95-2.81-2.58c-2.02-1.07-4.1-1.49-6.38-1.19
					c-2.1,0.28-4.27,1.14-5.74,2.75c-1.71,1.87-3.14,4.45-2.93,7.07c0.59,7.43,1.67,14.84,3.31,22.11c0.52,2.28,2.53,4.88,4.6,5.98
					c2.02,1.07,4.1,1.49,6.38,1.19c4.98-0.67,8.5-4.8,8.67-9.82c0.11-3.38-0.33-6.89-1.29-10.14c-0.76-2.58-1.78-5.17-3.7-7.11
					c-3.29-3.32-9.26-4.73-13.28-1.83c-2.17,1.56-3.86,3.32-4.6,5.98c-0.66,2.39-0.36,5.58,1.01,7.71c1.38,2.14,3.43,4.01,5.98,4.6
					C697.19,282.78,700.26,282.76,702.42,281.21L702.42,281.21z"/>
			</g>
		</g>
		<g>
			<g>
				<path class="st1" d="M699.15,260.03c2.44,0.44,4.87,0.9,7.31,1.3c2.58,0.42,4.65,0.69,7.2-0.06c3.2-0.94,5.45-3.04,7.33-5.68
					c2.55-3.57,4.56-7.66,6.39-11.64c4.11-8.96,7.19-18.28,8.7-28.03c0.43-2.75,0.45-5.21-1.01-7.71c-1.21-2.07-3.59-4.05-5.98-4.6
					c-2.56-0.58-5.43-0.46-7.71,1.01c-2.04,1.32-4.21,3.46-4.6,5.98c-1.23,7.91-3.43,15.63-6.53,23c0.34-0.8,0.67-1.59,1.01-2.39
					c-1.07,2.52-2.24,5-3.52,7.42c-1.23,2.32-2.47,4.74-4.03,6.86c0.52-0.67,1.04-1.35,1.56-2.02c-0.24,0.28-0.46,0.51-0.75,0.75
					c0.67-0.52,1.35-1.04,2.02-1.56c-0.19,0.14-0.39,0.25-0.61,0.33c0.8-0.34,1.59-0.67,2.39-1.01c-0.12,0.03-0.24,0.07-0.37,0.1
					c0.89-0.12,1.77-0.24,2.66-0.36c-0.4,0.05-0.74,0.05-1.14,0.01c0.89,0.12,1.77,0.24,2.66,0.36c-2.57-0.36-5.13-0.9-7.69-1.36
					c-2.7-0.48-5.26-0.42-7.71,1.01c-2.07,1.21-4.05,3.59-4.6,5.98c-0.58,2.56-0.46,5.43,1.01,7.71
					C694.51,257.51,696.62,259.58,699.15,260.03L699.15,260.03z"/>
			</g>
		</g>
		<g>
			<g>
				<path class="st1" d="M717.06,212.23c0.23,3.84,0.43,7.69-0.07,11.52c0.12-0.89,0.24-1.77,0.36-2.66
					c-0.31,2.14-0.86,4.18-1.69,6.19c0.34-0.8,0.67-1.59,1.01-2.39c-1.98,4.63-4.66,9.03-7.25,13.34
					c-2.62,4.37-5.41,8.64-8.33,12.81c-1.42,2.02-1.64,5.41-1.01,7.71c0.64,2.32,2.43,4.83,4.6,5.98c2.32,1.23,5.13,1.84,7.71,1.01
					c2.59-0.84,4.41-2.36,5.98-4.6c4.77-6.8,9.16-13.87,13.11-21.18c2.23-4.12,4.35-8.43,5.1-13.1c0.79-4.92,0.79-9.68,0.49-14.63
					c-0.16-2.66-1.01-5.15-2.93-7.07c-1.73-1.73-4.58-3.04-7.07-2.93c-2.59,0.12-5.27,0.97-7.07,2.93
					C718.26,207.04,716.9,209.58,717.06,212.23L717.06,212.23z"/>
			</g>
		</g>
		<g>
			<g>
				<path class="st1" d="M724.06,255.56c3.03-6.91,6.05-13.82,9.08-20.73c0.73-1.15,1.13-2.39,1.19-3.72
					c0.3-1.33,0.24-2.66-0.18-3.99c-0.64-2.32-2.43-4.83-4.6-5.98c-2.32-1.23-5.13-1.84-7.71-1.01c-2.31,0.75-4.96,2.27-5.98,4.6
					c-3.03,6.91-6.05,13.82-9.08,20.73c-0.73,1.15-1.13,2.39-1.19,3.72c-0.3,1.33-0.24,2.66,0.18,3.99c0.64,2.32,2.43,4.83,4.6,5.98
					c2.32,1.23,5.13,1.84,7.71,1.01C720.4,259.41,723.05,257.88,724.06,255.56L724.06,255.56z"/>
			</g>
		</g>
		<g>
			<g>
				<path class="st1" d="M671.49,201.95c2.94,3.63,8.03,4.62,12.4,5.29c4.27,0.65,8.57,1.07,12.85,1.64
					c-0.89-0.12-1.77-0.24-2.66-0.36c10.78,1.46,21.43,3.77,31.85,6.93c5.01,1.52,11.12-1.81,12.3-6.98
					c1.23-5.4-1.62-10.68-6.98-12.3c-6.66-2.02-13.42-3.7-20.25-5.03c-7.55-1.46-15.18-2.3-22.8-3.31c0.89,0.12,1.77,0.24,2.66,0.36
					c-2.62-0.36-5.43-0.66-7.9-1.65c0.8,0.34,1.59,0.67,2.39,1.01c-0.34-0.16-0.65-0.33-0.97-0.54c0.67,0.52,1.35,1.04,2.02,1.56
					c-0.3-0.24-0.53-0.47-0.78-0.77c-1.51-1.87-4.77-2.93-7.07-2.93c-2.45,0-5.38,1.09-7.07,2.93c-1.75,1.91-3.05,4.41-2.93,7.07
					c0.12,0.89,0.24,1.77,0.36,2.66C669.39,199.23,670.25,200.7,671.49,201.95L671.49,201.95z"/>
			</g>
		</g>
		<g>
			<g>
				<path class="st1" d="M698,195.33c0.21-0.08,0.42-0.14,0.64-0.18c-0.79,0.09-0.91,0.12-0.35,0.09c0.17,0,0.33,0.01,0.5,0.03
					c0.39,0.04,0.22,0.01-0.49-0.06c0.05-0.11,2.12,0.54,2.36,0.61c2.14,0.6,4.4,1,6.59,0.45c1.06-0.27,2.08-0.74,2.96-1.38
					c0.4-0.3,0.79-0.6,1.17-0.9c-0.48,0.37-0.49,0.38-0.01,0.05c0.37-0.22,0.72-0.46,1.07-0.71c2.3-1.64,3.71-3.8,4.6-6.46
					c1.29-3.85,1.36-8.13,1.53-12.16c0.04-0.99,0.09-1.99,0.15-2.98c0.03-0.49,0.07-0.98,0.12-1.48c0.03-0.3,0.01-1.75,0.05-0.55
					c-0.03-0.9,0.36-2,0.59-2.85c0.11-0.4,0.23-0.8,0.37-1.19c0.09-0.26,0.19-0.52,0.29-0.78c-0.24,0.55-0.24,0.56,0,0.04
					c1.11-2.36,0.74-5.5-1.79-6.84c-2.22-1.17-5.66-0.73-6.84,1.79c-1.84,3.92-2.54,7.98-2.81,12.28c-0.12,1.85-0.16,3.7-0.27,5.55
					c-0.05,0.92-0.12,1.85-0.22,2.76c-0.02,0.21-0.05,0.42-0.07,0.63c0.09-0.63,0.09-0.65,0-0.07c-0.08,0.42-0.15,0.83-0.23,1.25
					c-0.13,0.61-0.22,1.84-0.64,2.3c0.27-0.6,0.28-0.65,0.04-0.14c-0.09,0.17-0.18,0.33-0.28,0.49c-0.2,0.3-0.12,0.22,0.22-0.25
					c-0.17,0.19-0.35,0.37-0.54,0.53c0.77-0.71-0.25,0.1-0.39,0.19c-0.59,0.4-1.12,0.85-1.69,1.27c0.48-0.36,0.49-0.38,0.03-0.06
					c-0.45,0.24-0.47,0.26-0.06,0.07c0.4-0.16,0.39-0.17-0.02-0.05c0.81-0.08,0.93-0.11,0.38-0.08c-0.11,0-0.22-0.01-0.32-0.01
					c-0.55-0.05-0.43-0.03,0.34,0.05c-0.21-0.12-0.76-0.17-1-0.23c-0.79-0.2-1.57-0.46-2.36-0.65c-2.06-0.49-4.23-0.69-6.27-0.02
					c-2.48,0.81-4.35,3.5-3.49,6.15C692.66,194.32,695.34,196.19,698,195.33L698,195.33z"/>
			</g>
		</g>
		<g>
			<g>
				<path class="st1" d="M714.79,139.67c0.11,0.25,0.2,0.51,0.26,0.78c-0.06-0.66-0.07-0.7-0.03-0.11c0,0.28,0,0.56-0.03,0.83
					c0.1-0.63,0.1-0.65,0.01-0.07c-0.2,1.04-0.43,2.08-0.64,3.12c-0.45,2.28-0.85,4.56-1.19,6.86c-0.73,4.96-1.27,9.93-1.52,14.94
					c-0.13,2.62,2.4,5.12,5,5c2.82-0.13,4.86-2.2,5-5c0.12-2.4,0.3-4.79,0.54-7.18c0.13-1.27,0.28-2.54,0.44-3.82
					c0.08-0.6,0.08-0.63,0.01-0.1c0.04-0.32,0.09-0.63,0.14-0.95c0.08-0.55,0.17-1.11,0.25-1.66c0.38-2.37,0.81-4.73,1.31-7.08
					c0.57-2.69,1.12-5.57,0.09-8.22c-0.95-2.43-3.39-4.38-6.15-3.49C715.92,134.28,713.77,137.06,714.79,139.67L714.79,139.67z"/>
			</g>
		</g>
		<g>
			<g>
				<path class="st1" d="M714.8,138.63c-3.94,17.3-6.62,34.89-8,52.58c-0.39,4.94-0.66,9.89-0.85,14.84c-0.1,2.62,2.37,5.12,5,5
					c2.79-0.12,4.9-2.2,5-5c0.31-8.6,0.93-17.19,1.87-25.75c0.23-2.1,0.48-4.2,0.75-6.29c0.07-0.56,0.15-1.13,0.22-1.69
					c0.08-0.59,0,0.02-0.02,0.12c0.03-0.24,0.07-0.48,0.1-0.72c0.16-1.13,0.32-2.25,0.48-3.38c0.63-4.26,1.34-8.5,2.12-12.74
					c0.89-4.79,1.88-9.56,2.96-14.31c0.58-2.54-0.78-5.53-3.49-6.15C718.4,134.55,715.42,135.9,714.8,138.63L714.8,138.63z"/>
			</g>
		</g>
		<g>
			<g>
				<path class="st1" d="M711.62,164.22c0.01,7.29,0.03,14.59,0.04,21.88c0.01,3.86,0.04,7.7,0.78,11.51
					c0.65,3.35,2.01,6.63,3.81,9.53c1.37,2.22,4.53,3.28,6.84,1.79c2.23-1.44,3.27-4.46,1.79-6.84c-0.41-0.67-0.81-1.35-1.16-2.06
					c-0.16-0.32-0.31-0.65-0.46-0.97c0.3,0.64,0.09,0.21-0.07-0.2c-0.54-1.44-0.89-2.9-1.2-4.4c-0.03-0.16-0.05-0.32-0.08-0.48
					c0.06,0.45,0.06,0.49,0.02,0.13c-0.03-0.4-0.08-0.8-0.11-1.21c-0.07-0.89-0.11-1.78-0.13-2.67c-0.04-1.71-0.03-3.43-0.03-5.15
					c-0.01-6.96-0.03-13.92-0.04-20.89c0-2.62-2.3-5.12-5-5C713.91,159.34,711.61,161.41,711.62,164.22L711.62,164.22z"/>
			</g>
		</g>
		<g>
			<g>
				<path class="st1" d="M712.64,188.9c-1.82,2.64-0.99,6.22,1.01,8.47c1.27,1.42,3.09,2.17,4.76,3c1.65,0.82,3.44,1.99,5.24,2.37
					c1.67,0.36,3.48,0.21,4.95-0.72c0.57-0.36,1.12-0.81,1.54-1.34c0.22-0.27,0.42-0.52,0.69-0.74c-0.34,0.26-0.67,0.52-1.01,0.78
					c0.12-0.09,0.25-0.16,0.39-0.22c-0.4,0.17-0.8,0.34-1.19,0.5c0.29-0.11,0.57-0.18,0.87-0.23c-0.44,0.06-0.89,0.12-1.33,0.18
					c1.87-0.24,3.58-0.23,5.31-1.11c2.23-1.13,3.55-3.34,3.64-5.82c0.09-2.62-2.36-5.12-5-5c-2.79,0.12-4.9,2.2-5,5
					c0,0.06,0,0.12-0.01,0.19c0.06-0.44,0.12-0.89,0.18-1.33c-0.01,0.12-0.04,0.23-0.09,0.34c0.17-0.4,0.34-0.8,0.5-1.19
					c-0.05,0.11-0.1,0.21-0.17,0.3c0.26-0.34,0.52-0.67,0.78-1.01c-0.12,0.15-0.24,0.26-0.39,0.38c0.34-0.26,0.67-0.52,1.01-0.78
					c-0.16,0.11-0.32,0.2-0.5,0.29c0.4-0.17,0.8-0.34,1.19-0.5c-0.31,0.13-0.62,0.22-0.95,0.27c0.44-0.06,0.89-0.12,1.33-0.18
					c-1.31,0.15-2.67,0.09-3.93,0.52c-1.16,0.4-2.07,0.9-2.95,1.77c-0.35,0.34-0.58,0.76-0.96,1.07c0.34-0.26,0.67-0.52,1.01-0.78
					c-0.06,0.04-0.12,0.08-0.19,0.11c0.4-0.17,0.8-0.34,1.19-0.5c-0.14,0.07-0.29,0.11-0.45,0.12c0.44-0.06,0.89-0.12,1.33-0.18
					c-0.16,0.01-0.31,0-0.47-0.02c0.44,0.06,0.89,0.12,1.33,0.18c-0.25-0.06-0.46-0.13-0.7-0.22c0.4,0.17,0.8,0.34,1.19,0.5
					c-1.18-0.53-2.33-1.14-3.48-1.72c-1.06-0.53-2.21-1-3.16-1.72c0.34,0.26,0.67,0.52,1.01,0.78c-0.19-0.17-0.36-0.33-0.52-0.53
					c0.26,0.34,0.52,0.67,0.78,1.01c-0.14-0.2-0.24-0.38-0.33-0.6c0.17,0.4,0.34,0.8,0.5,1.19c-0.05-0.14-0.09-0.29-0.12-0.45
					c0.06,0.44,0.12,0.89,0.18,1.33c-0.02-0.15-0.03-0.3-0.02-0.45c-0.06,0.44-0.12,0.89-0.18,1.33c0.01-0.15,0.04-0.29,0.1-0.43
					c-0.17,0.4-0.34,0.8-0.5,1.19c0.05-0.14,0.13-0.27,0.22-0.38c0.7-1.02,0.82-2.69,0.5-3.85c-0.32-1.16-1.22-2.42-2.3-2.99
					C716.94,185.77,714.23,186.6,712.64,188.9L712.64,188.9z"/>
			</g>
		</g>
		<g>
			<g>
				<path class="st1" d="M728.62,196.55c-0.06,0.89-0.06,1.88-0.26,2.76c0.28-1.26,0,0.01-0.04,0.24c-0.06,0.39-0.12,0.78-0.19,1.17
					c-0.31,1.75-0.69,3.49-1.13,5.22c-0.86,3.4-1.91,6.75-2.96,10.09c-0.78,2.5,0.92,5.57,3.49,6.15c2.72,0.62,5.31-0.82,6.15-3.49
					c2.28-7.25,4.41-14.51,4.93-22.13c0.18-2.61-2.43-5.12-5-5C730.76,191.68,728.82,193.75,728.62,196.55L728.62,196.55z"/>
			</g>
		</g>
		<g>
			<g>
				<path class="st1" d="M704.63,211.04c2.62,0,5.12-2.3,5-5c-0.12-2.71-2.2-5-5-5c-2.62,0-5.12,2.3-5,5
					C699.76,208.75,701.83,211.04,704.63,211.04L704.63,211.04z"/>
			</g>
		</g>
		<g>
			<g>
				<path class="st1" d="M704.27,211.04c2.62,0,5.12-2.3,5-5c-0.12-2.71-2.2-5-5-5c-2.62,0-5.12,2.3-5,5
					C699.39,208.75,701.47,211.04,704.27,211.04L704.27,211.04z"/>
			</g>
		</g>
		<g>
			<g>
				<path class="st1" d="M721.71,208.28c-1.93-2.46-4.6-4.23-7.05-6.12c0.34,0.26,0.67,0.52,1.01,0.78
					c-1.52-1.18-3.01-2.42-4.19-3.95c0.26,0.34,0.52,0.67,0.78,1.01c-0.19-0.26-0.38-0.52-0.55-0.79c-0.71-1.09-1.71-1.95-2.99-2.3
					c-1.2-0.33-2.79-0.18-3.85,0.5c-1.07,0.69-2.01,1.71-2.3,2.99c-0.29,1.27-0.24,2.73,0.5,3.85c1.07,1.63,2.35,3.1,3.83,4.38
					c1.49,1.28,3.09,2.43,4.65,3.63c-0.34-0.26-0.67-0.52-1.01-0.78c1.49,1.15,2.93,2.37,4.1,3.86c0.74,0.94,2.41,1.46,3.54,1.46
					c1.23,0,2.69-0.54,3.54-1.46c0.87-0.95,1.52-2.2,1.46-3.54c-0.06-0.44-0.12-0.89-0.18-1.33
					C722.76,209.63,722.33,208.9,721.71,208.28L721.71,208.28z"/>
			</g>
		</g>
		<g>
			<g>
				<path class="st1" d="M709.49,204.28c4.35,1.13,8.84,1.8,13.32,2.04c1.24,0.07,2.68-0.61,3.54-1.46
					c0.87-0.87,1.52-2.29,1.46-3.54c-0.13-2.83-2.2-4.85-5-5c-1.6-0.09-3.2-0.24-4.79-0.45c0.44,0.06,0.89,0.12,1.33,0.18
					c-2.43-0.33-4.83-0.8-7.2-1.42c-1.27-0.33-2.72-0.16-3.85,0.5c-1.04,0.61-2.03,1.8-2.3,2.99
					C705.41,200.74,706.79,203.58,709.49,204.28L709.49,204.28z"/>
			</g>
		</g>
		<g>
			<g>
				<path class="st1" d="M726.5,196.9c-5.73-4.06-12.28-7.05-19.07-8.81c-2.53-0.65-5.54,0.83-6.15,3.49
					c-0.59,2.61,0.78,5.45,3.49,6.15c1.63,0.42,3.23,0.91,4.81,1.48c0.69,0.25,1.37,0.52,2.06,0.79c0.5,0.2,0.39,0.16-0.32-0.14
					c0.19,0.08,0.39,0.17,0.58,0.25c0.38,0.17,0.77,0.34,1.15,0.52c2.95,1.38,5.76,3.03,8.41,4.91c1,0.71,2.71,0.82,3.85,0.5
					c1.16-0.32,2.42-1.22,2.99-2.3C729.65,201.16,728.78,198.52,726.5,196.9L726.5,196.9z"/>
			</g>
		</g>
		<g>
			<g>
				<path class="st1" d="M685.36,201.58c2.62,0,5.12-2.3,5-5c-0.12-2.71-2.2-5-5-5c-2.62,0-5.12,2.3-5,5
					C680.48,199.29,682.56,201.58,685.36,201.58L685.36,201.58z"/>
			</g>
		</g>
		<g>
			<g>
				<path class="st1" d="M684.03,144.22c1.35,8.4,1.43,16.95,1.66,25.44c0.23,8.74,0.47,17.47,0.7,26.21c0.09,3.21,5.09,3.22,5,0
					c-0.24-8.9-0.48-17.81-0.72-26.71c-0.24-8.79-0.44-17.58-1.83-26.27c-0.21-1.33-1.88-2.08-3.08-1.75
					C684.35,141.54,683.81,142.88,684.03,144.22L684.03,144.22z"/>
			</g>
		</g>
		<g>
			<g>
				<path class="st1" d="M683.64,130.03c-0.13,17.78,0.5,35.56,1.89,53.29c0.4,5.03,0.85,10.05,1.37,15.07
					c0.14,1.34,1.05,2.5,2.5,2.5c1.24,0,2.64-1.15,2.5-2.5c-1.82-17.69-2.89-35.45-3.19-53.23c-0.09-5.04-0.11-10.09-0.07-15.13
					C688.66,126.82,683.66,126.81,683.64,130.03L683.64,130.03z"/>
			</g>
		</g>
		<g>
			<g>
				<path class="st1" d="M685.97,128.58c-0.1,20.34,1.63,40.66,5.1,60.71c0.23,1.33,1.86,2.08,3.08,1.75
					c1.41-0.39,1.98-1.74,1.75-3.08c-3.39-19.6-5.02-39.49-4.92-59.38C690.98,125.37,685.98,125.36,685.97,128.58L685.97,128.58z"/>
			</g>
		</g>
		<g>
			<g>
				<path class="st1" d="M686.22,154.04c-0.36,7.75-0.39,15.66,1.65,23.21c1.01,3.74,2.58,7.31,4.32,10.77
					c1.54,3.08,3.03,6.9,5.73,9.17c1.03,0.87,2.52,1.01,3.54,0c0.89-0.89,1.04-2.66,0-3.54c-1.18-0.99-1.86-2.25-2.57-3.59
					c-0.81-1.51-1.61-3.03-2.38-4.56c-1.62-3.22-3.03-6.52-3.93-10.02c-1.8-6.98-1.68-14.28-1.35-21.43
					C691.37,150.82,686.37,150.83,686.22,154.04L686.22,154.04z"/>
			</g>
		</g>
		<g>
			<g>
				<path class="st1" d="M742.93,157.26c-2.03,3.69-3.15,7.74-4.4,11.73c-1.23,3.95-3.02,7.51-4.85,11.2
					c-1.9,3.81-3.31,7.75-4.15,11.93c-0.85,4.23-1.25,8.54-1.65,12.83c-0.12,1.35,1.24,2.5,2.5,2.5c1.46,0,2.38-1.15,2.5-2.5
					c0.37-4,0.74-8,1.56-11.94c0.82-3.92,2.16-7.54,3.97-11.11c1.84-3.64,3.58-7.25,4.81-11.15c1.18-3.72,2.14-7.52,4.03-10.96
					C748.8,156.96,744.48,154.44,742.93,157.26L742.93,157.26z"/>
			</g>
		</g>
		<g>
			<g>
				<path class="st1" d="M685.29,163.14c1.01,11.76,5.37,22.82,12.59,32.14c0.83,1.07,2.67,0.87,3.54,0c1.05-1.05,0.83-2.46,0-3.54
					c-6.34-8.18-10.25-18.3-11.13-28.61c-0.11-1.35-1.07-2.5-2.5-2.5C686.53,160.64,685.17,161.78,685.29,163.14L685.29,163.14z"/>
			</g>
		</g>
		<g>
			<g>
				<path class="st1" d="M685.42,124.63c-0.69,4.35-1.38,8.7-2.06,13.05c-0.2,1.29,0.33,2.75,1.75,3.08
					c1.2,0.27,2.86-0.36,3.08-1.75c0.69-4.35,1.38-8.7,2.06-13.05c0.2-1.29-0.33-2.75-1.75-3.08
					C687.29,122.61,685.63,123.25,685.42,124.63L685.42,124.63z"/>
			</g>
		</g>
		<g>
			<g>
				<path class="st1" d="M685.3,125.31c0.03,1.96-0.02,3.93-0.15,5.89c-0.06,0.94-0.15,1.88-0.25,2.82
					c-0.05,0.47-0.11,0.94-0.17,1.4c-0.04,0.3-0.04,0.31,0,0.04c-0.02,0.12-0.03,0.23-0.05,0.35c-0.04,0.27-0.08,0.54-0.12,0.82
					c-0.2,1.29,0.33,2.75,1.75,3.08c1.19,0.27,2.86-0.36,3.08-1.75c0.65-4.19,0.98-8.4,0.92-12.64c-0.02-1.31-1.14-2.56-2.5-2.5
					C686.47,122.87,685.28,123.9,685.3,125.31L685.3,125.31z"/>
			</g>
		</g>
		<g>
			<g>
				<path class="st1" d="M650.88,144.77c3.51,9.01,7.32,17.91,11.45,26.66c2.05,4.35,4.19,8.66,6.39,12.93
					c2.03,3.93,4.14,7.81,5.1,12.17c0.69,3.14,5.51,1.81,4.82-1.33c-0.98-4.45-3.09-8.53-5.18-12.54
					c-2.21-4.26-4.35-8.55-6.41-12.88c-4.1-8.64-7.89-17.42-11.36-26.33c-0.49-1.26-1.68-2.13-3.08-1.75
					C651.43,142.03,650.39,143.51,650.88,144.77L650.88,144.77z"/>
			</g>
		</g>
		<g>
			<g>
				<path class="st1" d="M655.71,141.75c-0.04-0.07-0.08-0.14-0.11-0.22c0.08,0.64,0.17,1.28,0.25,1.93
					c0.02-0.08,0.04-0.16,0.05-0.24c-0.21,0.37-0.43,0.74-0.64,1.1c-0.03,0.01-0.06,0.03-0.08,0.04c-0.42,0.11-0.84,0.23-1.26,0.34
					c0.09,0,0.18,0,0.28-0.01c-0.42-0.11-0.84-0.23-1.26-0.34c-0.31-0.46-0.36-0.5-0.13-0.11c0.11,0.24,0.22,0.48,0.32,0.72
					c0.26,0.61,0.52,1.21,0.78,1.82c0.52,1.21,1.04,2.43,1.56,3.64c0.97,2.28,1.95,4.55,2.92,6.83c2.01,4.7,4.03,9.41,6.04,14.11
					s4.03,9.41,6.04,14.11c0.62,1.44,1.78,3.26,1.07,4.84c-0.7,1.57-2.36,2.7-3.72,3.65c1.22,0.5,2.45,1,3.67,1.49
					c-2.75-7.66-0.44-16.02-1.8-23.92c-0.72-4.15-2.78-7.63-4.9-11.2c-2.2-3.71-3.83-7.62-4.87-11.81c-0.78-3.12-5.6-1.8-4.82,1.33
					c1.06,4.28,2.72,8.42,4.93,12.24c2.03,3.51,4.13,6.7,4.84,10.76c0.66,3.81,0.32,7.78,0.26,11.62c-0.06,4.14,0.13,8.37,1.54,12.3
					c0.5,1.4,2.25,2.48,3.67,1.49c3.13-2.18,6.67-5.14,6.44-9.36c-0.14-2.49-1.51-4.86-2.48-7.11c-0.97-2.28-1.95-4.55-2.92-6.83
					c-3.93-9.18-7.86-18.36-11.79-27.53c-0.52-1.21-1.04-2.43-1.56-3.64c-0.47-1.1-0.83-2.32-1.7-3.17
					c-2.53-2.47-6.57,0.5-4.92,3.63C652.89,147.12,657.21,144.6,655.71,141.75L655.71,141.75z"/>
			</g>
		</g>
		<g>
			<g>
				<path class="st1" d="M656.4,142.37c0.07,0.08,0.29,1.67,0.24,1.74c-0.17,0.2-0.49,0.1-0.62,0.2c-0.75,0.6-0.19-0.12-0.23,0.01
					c-0.03,0.1,0.45,0.75,0.51,0.88c0.2,0.41,0.36,0.83,0.53,1.25c0.87,2.13,1.73,4.26,2.6,6.39c1.73,4.26,3.46,8.53,5.2,12.79
					c2.84,6.99,5.41,14.35,9.82,20.54c2.42,3.39,5.33,6.34,8.93,8.45c2.78,1.63,5.3-2.69,2.52-4.32
					c-6.92-4.07-10.58-11.73-13.55-18.88c-1.93-4.64-3.79-9.32-5.69-13.98c-1.97-4.85-3.72-9.89-5.97-14.62
					c-1.06-2.23-3.3-4.09-5.88-3.28c-2.76,0.86-3.88,4.17-1.94,6.35C655,148.31,658.53,144.77,656.4,142.37L656.4,142.37z"/>
			</g>
		</g>
		<g>
			<g>
				<path class="st1" d="M665.23,181.05c-1.27,4.43,1.66,8.43,3.83,12.03c2.28,3.79,4.57,7.58,6.85,11.37
					c1.66,2.75,5.98,0.24,4.32-2.52c-2.07-3.43-4.13-6.86-6.2-10.29c-0.99-1.64-2.03-3.27-2.96-4.95c-0.73-1.32-1.46-2.79-1.02-4.32
					C670.94,179.28,666.12,177.96,665.23,181.05L665.23,181.05z"/>
			</g>
		</g>
		<g>
			<g>
				<path class="st1" d="M670.98,201.63c2.88-8.61,0.46-17.72-2.06-26.1c-2.73-9.08-5.47-18.15-8.21-27.23
					c-1.26-4.18-2.11-9.63-6.78-11.28c-1.38-0.49-2.59,0.57-3.08,1.75c-1.71,4.17,0.43,8.52,1.98,12.37
					c1.67,4.15,3.29,8.32,4.85,12.51c3.12,8.38,6,16.86,8.65,25.4c1.51,4.88,2.95,9.79,4.31,14.72c0.86,3.1,5.68,1.78,4.82-1.33
					c-4.64-16.78-10.16-33.32-16.57-49.51c-0.87-2.19-1.8-4.36-2.64-6.57c-0.78-2.06-1.46-4.13-0.59-6.26
					c-1.03,0.58-2.05,1.16-3.08,1.75c0.93,0.33,1.39,1.68,1.68,2.54c0.68,1.96,1.22,3.97,1.82,5.96c1.26,4.19,2.52,8.37,3.79,12.56
					c1.26,4.19,2.52,8.37,3.79,12.56c1.18,3.93,2.39,7.86,3.1,11.91c0.76,4.33,0.78,8.74-0.62,12.94
					C665.14,203.36,669.97,204.67,670.98,201.63L670.98,201.63z"/>
			</g>
		</g>
		<g>
			<g>
				<path class="st1" d="M731.4,196.68c6.26-10.45,10.8-21.91,13.37-33.82c-1.64-0.22-3.27-0.44-4.91-0.66
					c0.62,7.34-1.21,14.44-3.07,21.47c-1.87,7.1-3.42,14.13-3.65,21.5c-0.41,13.33,1.96,28.24-6.84,39.53
					c-4.02,5.16-9.69,8.93-16.01,10.61c-3.11,0.83-1.79,5.65,1.33,4.82c13.11-3.49,22.86-14.45,25.4-27.68
					c1.43-7.45,1.08-15.04,1.07-22.58c-0.01-3.72,0.06-7.45,0.51-11.15c0.46-3.75,1.37-7.44,2.32-11.09
					c2.15-8.31,4.67-16.76,3.94-25.45c-0.1-1.24-0.87-2.3-2.17-2.46c-1.17-0.14-2.48,0.56-2.74,1.79
					c-2.48,11.52-6.81,22.51-12.86,32.62C725.42,196.92,729.75,199.44,731.4,196.68L731.4,196.68z"/>
			</g>
		</g>
		<g>
			<g>
				<path class="st1" d="M678.2,272.9c3.8-6.06-4.18-11.9-7.95-15.49c-2.64-2.51-5.27-5.02-7.91-7.52c-2.19-2.08-4.67-4.11-6.3-6.69
					c-1.63-2.58-2.37-5.58-3.24-8.48c-0.73-2.44-1.46-4.88-2.36-7.26c-1.87-4.95-4.39-9.72-8.68-12.97c-2.5-1.9-5.44-2.94-8.45-3.73
					c-3.07-0.81-6.19-1.45-8.82-3.32c-1.1-0.78-2.78-0.2-3.42,0.9c-0.73,1.25-0.21,2.64,0.9,3.42c4.49,3.19,10.19,3.04,14.95,5.55
					c4.01,2.12,6.47,6.06,8.17,10.14c1.96,4.69,2.91,9.72,4.77,14.44c1.21,3.08,2.96,5.66,5.28,8.01c2.23,2.27,4.6,4.41,6.9,6.6
					c2.76,2.62,5.51,5.24,8.27,7.86c1.23,1.17,4.82,4.01,3.57,6.01C672.17,273.11,676.49,275.62,678.2,272.9L678.2,272.9z"/>
			</g>
		</g>
		<g>
			<g>
				<path class="st1" d="M627.33,209.07c0.03,1.09-1.11,0.48-0.17,1.04c0.72,0.42,1.38,0.95,2.06,1.44c1.45,1.05,2.9,2.1,4.35,3.15
					c2.83,2.06,5.64,4.14,8.44,6.24c5.63,4.21,11.21,8.49,16.73,12.83c1.06,0.83,2.5,1.03,3.54,0c0.87-0.87,1.07-2.7,0-3.54
					c-6.76-5.31-13.58-10.53-20.48-15.66c-3.4-2.52-6.81-5.02-10.25-7.49c-1.64-1.19-3.36-2.47-5.51-2.17
					c-2.08,0.29-3.76,2-3.71,4.16C622.42,212.28,627.42,212.29,627.33,209.07L627.33,209.07z"/>
			</g>
		</g>
		<g>
			<g>
				<path class="st1" d="M659.45,230.39c-0.33-0.09-0.38-0.13-0.67-0.38c-0.38-0.32-0.72-0.71-1.09-1.04
					c-0.94-0.82-1.97-1.49-3.23-1.68c-2.73-0.4-5.58,2.14-4.62,4.99c0.89,2.62,4.87,2.25,4.91-0.66c0.02-1.24,0.52-2.49,1.59-3.36
					c1.12-0.91,2.9-1.2,4.37-1.47c4.08-0.77,8.16-1.52,12.24-2.28c1.33-0.25,2.08-1.85,1.75-3.08c-0.38-1.39-1.74-1.99-3.08-1.75
					c-4.63,0.86-9.37,1.52-13.95,2.64c-4.48,1.09-7.86,4.53-7.92,9.3c1.64-0.22,3.27-0.44,4.91-0.66c0.08,0.24-0.11,0.92-0.35,1.11
					c0.6-0.46-0.64,0.35-0.62,0.13c0-0.02,0.98,0.79,1.02,0.83c1,0.97,2.05,1.83,3.42,2.19
					C661.23,236.03,662.56,231.21,659.45,230.39L659.45,230.39z"/>
			</g>
		</g>
		<g>
			<g>
				<path class="st1" d="M690.32,178.64c1.9,4.08,4.04,8.05,6.41,11.88c0.69,1.11,2.27,1.64,3.42,0.9c1.11-0.72,1.63-2.23,0.9-3.42
					c-2.37-3.83-4.51-7.8-6.41-11.88c-0.55-1.19-2.36-1.58-3.42-0.9C689.99,176.01,689.73,177.37,690.32,178.64L690.32,178.64z"/>
			</g>
		</g>
		<g>
			<g>
				<path class="st1" d="M706.84,177.31c-0.03,0.64-0.08,1.27-0.15,1.9c-0.04,0.3-0.04,0.31,0,0.04c-0.02,0.16-0.05,0.31-0.07,0.47
					c-0.04,0.23-0.08,0.47-0.13,0.7c-0.24,1.21-0.56,2.4-0.97,3.56c-0.09,0.26-0.19,0.52-0.29,0.78c-0.06,0.15-0.12,0.3-0.18,0.44
					c0.1-0.23,0.09-0.21-0.03,0.06c-0.25,0.54-0.5,1.08-0.78,1.61c-0.57,1.09-1.23,2.13-1.95,3.13c-0.77,1.06-0.22,2.83,0.9,3.42
					c1.3,0.68,2.6,0.24,3.42-0.9c3.2-4.42,4.97-9.77,5.23-15.22c0.06-1.31-1.19-2.56-2.5-2.5
					C707.93,174.87,706.91,175.91,706.84,177.31L706.84,177.31z"/>
			</g>
		</g>
		<g>
			<g>
				<path class="st1" d="M675.61,190.17c1.45,0.22,2.9,0.44,4.35,0.66c1.56,0.23,3.13,0.43,4.69,0.01c3.01-0.83,4.34-3.57,5.21-6.31
					c0.39-1.25-0.46-2.78-1.75-3.08c-1.36-0.31-2.65,0.41-3.08,1.75c-0.14,0.45-0.29,0.9-0.46,1.34c-0.03,0.07-0.17,0.44-0.03,0.09
					c0.13-0.34-0.01,0.01-0.05,0.08c-0.11,0.22-0.22,0.44-0.36,0.65c-0.04,0.07-0.16,0.19-0.18,0.27c0.02-0.1,0.33-0.38,0.09-0.13
					c-0.07,0.08-0.14,0.16-0.22,0.23c-0.03,0.03-0.43,0.37-0.11,0.12c0.29-0.23-0.01-0.01-0.08,0.03c-0.07,0.04-0.42,0.18-0.11,0.08
					c0.38-0.13-0.58,0.14-0.58,0.14c0.02-0.06,0.53-0.04,0.11-0.02c-0.12,0.01-0.25,0.01-0.37,0.02c-0.25,0-0.5,0-0.76-0.02
					c-0.16-0.01-0.32-0.03-0.47-0.04c-0.07-0.01-0.5-0.06-0.14-0.01c0.36,0.05-0.07-0.01-0.14-0.02c-0.14-0.02-0.28-0.04-0.42-0.06
					c-1.28-0.19-2.56-0.39-3.84-0.58c-0.69-0.1-1.3-0.11-1.93,0.25c-0.52,0.3-1.01,0.9-1.15,1.49
					C673.59,188.29,674.23,189.96,675.61,190.17L675.61,190.17z"/>
			</g>
		</g>
		<g>
			<g>
				<path class="st1" d="M744.23,154.23c-4.1-0.34-6.62,3.48-8,6.79c-1.69,4.07-2.94,8.32-3.88,12.62
					c-1.91,8.74-2.6,17.69-3.28,26.59c-0.1,1.35,1.22,2.5,2.5,2.5c1.44,0,2.4-1.15,2.5-2.5c0.6-7.85,1.19-15.73,2.73-23.47
					c0.77-3.87,1.77-7.7,3.1-11.42c0.69-1.94,1.91-6.31,4.33-6.11c1.35,0.11,2.5-1.23,2.5-2.5
					C746.73,155.29,745.58,154.35,744.23,154.23L744.23,154.23z"/>
			</g>
		</g>
		<g>
			<g>
				<path class="st1" d="M662.2,231.06c-3.11-2.03-6.26-4.04-9.07-6.48c-2.92-2.53-5.17-5.64-7.92-8.33
					c-5.31-5.2-12.24-8.19-19.16-10.58c-1.28-0.44-2.73,0.5-3.08,1.75c-0.38,1.37,0.47,2.63,1.75,3.08
					c6.56,2.27,13.08,5.13,17.91,10.27c2.58,2.75,4.89,5.66,7.82,8.07c2.92,2.4,6.07,4.49,9.23,6.55
					C662.38,237.14,664.89,232.81,662.2,231.06L662.2,231.06z"/>
			</g>
		</g>
		<g>
			<g>
				<path class="st1" d="M622.48,208.95c0.12-0.91,0.5-1.4,1.14-1.47c-0.33,0-0.38,0-0.16-0.02c-0.37-0.15-0.76-0.23-1.08-0.48
					c-0.1-0.08-0.35-0.37-0.34-0.37c0.14,0.01-0.4,0.51-0.41,0.44c-0.02-0.14,2.28,0.51,2.41,0.55c1.02,0.37,2,0.84,2.96,1.35
					c4.33,2.31,8.4,5.2,12.54,7.85c2,1.28,3.97,2.41,5.5,4.26c1.47,1.77,2.97,3.33,4.82,4.71c3.55,2.65,7.73,4.32,11.89,5.75
					c1.28,0.44,2.73-0.5,3.08-1.75c0.38-1.37-0.46-2.63-1.75-3.08c-3.96-1.36-8.06-2.98-11.28-5.74c-1.7-1.45-2.88-3.35-4.51-4.84
					c-1.9-1.75-4.26-3.02-6.43-4.41c-4.08-2.61-8.11-5.55-12.48-7.66c-2.02-0.97-4.4-2.1-6.7-2.02c-2.59,0.09-4.75,2.07-4.61,4.76
					c0.15,2.79,2.37,4.68,4.91,5.44c2.37,0.71,5.65-0.34,5.53-3.28C627.34,205.74,622.34,205.73,622.48,208.95L622.48,208.95z"/>
			</g>
		</g>
		<g>
			<g>
				<path class="st1" d="M621.49,206.34c3.14-1.82,6.81-0.46,9.66,1.27c3.39,2.06,6.52,4.64,9.69,7.02
					c6.59,4.95,13.06,10.08,19.03,15.79c2.32,2.23,5.87-1.31,3.54-3.54c-6.61-6.33-13.85-11.94-21.17-17.42
					c-6.41-4.79-14.83-12.33-23.27-7.44C616.18,203.64,618.69,207.96,621.49,206.34L621.49,206.34z"/>
			</g>
		</g>
		<g>
			<g>
				<path class="st1" d="M660.13,225.33c-6.84-9.75-16.41-17.17-27.54-21.38c-1.26-0.48-2.74,0.53-3.08,1.75
					c-0.39,1.4,0.48,2.6,1.75,3.08c9.83,3.72,18.52,10.48,24.55,19.08c0.77,1.1,2.19,1.62,3.42,0.9
					C660.32,228.11,660.91,226.44,660.13,225.33L660.13,225.33z"/>
			</g>
		</g>
		<g>
			<g>
				<path class="st1" d="M645.39,212.04c-2.3-3.14-4.84-6.41-8.51-8.01c-4.48-1.95-8.77-0.29-12.85,1.82
					c-1.81,0.94-1.42,3.29,0,4.32c11.28,8.15,22.57,16.77,31.24,27.77c0.84,1.06,2.66,0.88,3.54,0c1.05-1.05,0.84-2.47,0-3.54
					c-8.93-11.33-20.64-20.16-32.26-28.55c0,1.44,0,2.88,0,4.32c2.6-1.35,5.55-2.88,8.46-1.53c2.57,1.19,4.42,3.7,6.05,5.92
					c0.8,1.09,2.17,1.63,3.42,0.9C645.57,214.84,646.2,213.14,645.39,212.04L645.39,212.04z"/>
			</g>
		</g>
		<g>
			<g>
				<path class="st1" d="M624.69,210.23c6.96,1.39,10.84,8.59,14.43,14.01c5.14,7.75,10.28,15.5,15.42,23.24
					c1.77,2.67,6.1,0.17,4.32-2.52c-5.42-8.16-10.83-16.33-16.25-24.49c-4.11-6.19-8.74-13.49-16.6-15.06
					c-1.32-0.26-2.7,0.38-3.08,1.75C622.6,208.39,623.36,209.97,624.69,210.23L624.69,210.23z"/>
			</g>
		</g>
		<g>
			<g>
				<path class="st1" d="M674.54,295.18c1.64-3.5,3.55-6.86,5.71-10.06c0.73-1.09,0.24-2.82-0.9-3.42c-1.26-0.67-2.64-0.26-3.42,0.9
					c-2.16,3.2-4.07,6.57-5.71,10.06c-0.29,0.62-0.44,1.24-0.25,1.93c0.16,0.58,0.61,1.21,1.15,1.49
					C672.23,296.66,673.95,296.45,674.54,295.18L674.54,295.18z"/>
			</g>
		</g>
		<g>
			<g>
				<path class="st1" d="M676.38,298.75c4.33,0.76,8.7,1.32,13.08,1.61c4.08,0.27,8.3,0.48,12.38,0.12c3.23-0.29,6.8-1.21,8.59-4.18
					c2.16-3.59,0.3-8.26-0.18-12.08c-0.6-4.81-0.77-9.66-0.56-14.5c0.14-3.22-4.86-3.21-5,0c-0.22,5-0.01,10.01,0.63,14.98
					c0.3,2.34,0.89,4.67,1.11,7.01c0.14,1.52-0.26,2.47-1.61,3.09c-1.48,0.67-3.21,0.74-4.8,0.78c-2.45,0.07-4.91,0.05-7.36-0.04
					c-5.01-0.19-10-0.72-14.94-1.6c-1.33-0.23-2.69,0.36-3.08,1.75C674.3,296.89,675.04,298.52,676.38,298.75L676.38,298.75z"/>
			</g>
		</g>
		<g>
			<g>
				<path class="st1" d="M676.23,295.82c2.53-2.08,5.05-4.17,7.58-6.25c0.47-0.38,0.73-1.19,0.73-1.77c0-0.61-0.27-1.35-0.73-1.77
					c-0.48-0.44-1.1-0.76-1.77-0.73c-0.7,0.03-1.23,0.29-1.77,0.73c-2.53,2.08-5.05,4.17-7.58,6.25c-0.47,0.38-0.73,1.19-0.73,1.77
					c0,0.61,0.27,1.35,0.73,1.77c0.48,0.44,1.1,0.76,1.77,0.73C675.16,296.52,675.7,296.27,676.23,295.82L676.23,295.82z"/>
			</g>
		</g>
		<g>
			<g>
				<path class="st1" d="M707.05,236.89c0.16-0.46,0.33-0.91,0.52-1.36c-0.08,0.2-0.17,0.4-0.25,0.6c0.66-1.55,1.52-3.01,2.54-4.34
					c-0.13,0.17-0.26,0.34-0.39,0.51c0.21-0.27,0.42-0.53,0.64-0.78c0.44-0.51,0.73-1.07,0.73-1.77c0-0.61-0.27-1.35-0.73-1.77
					c-0.48-0.44-1.1-0.76-1.77-0.73c-0.63,0.03-1.34,0.23-1.77,0.73c-1.93,2.26-3.38,4.78-4.34,7.59c-0.2,0.59-0.06,1.4,0.25,1.93
					c0.3,0.52,0.9,1.01,1.49,1.15C705.36,238.95,706.6,238.21,707.05,236.89L707.05,236.89z"/>
			</g>
		</g>
		<g>
			<g>
				<path class="st1" d="M684.33,123.87c-2.71,3.61-2.18,8.32-1.47,12.49c0.82,4.84,1.25,9.63,1.25,14.54
					c0.02,9.71-0.87,19.41,0.55,29.08c0.75,5.15,2.25,10.15,4.72,14.74c1.53,2.83,5.84,0.31,4.32-2.52
					c-4.05-7.54-4.87-16.23-4.88-24.65c-0.02-9.66,0.88-19.32-0.53-28.94c-0.57-3.9-2.26-8.73,0.36-12.21
					c0.81-1.08,0.17-2.79-0.9-3.42C686.47,122.22,685.15,122.79,684.33,123.87L684.33,123.87z"/>
			</g>
		</g>
		<g>
			<g>
				<path class="st1" d="M678.82,238.36c3.22,0,3.22-5,0-5C675.6,233.36,675.59,238.36,678.82,238.36L678.82,238.36z"/>
			</g>
		</g>
		<g>
			<g>
				<path class="st1" d="M654.3,234.47c-1.32-3.67-3.54-6.79-6.12-9.69c-2.41-2.7-5.01-5.26-7.8-7.56
					c-5.66-4.67-12.05-8.17-19.41-9.07c-1.34-0.16-2.5,1.27-2.5,2.5c0,1.49,1.15,2.33,2.5,2.5c6.05,0.74,11.59,4.02,16.19,7.87
					c2.45,2.06,4.74,4.31,6.91,6.66c2.2,2.4,4.3,5.02,5.41,8.12c0.46,1.27,1.7,2.12,3.08,1.75
					C653.78,237.21,654.76,235.75,654.3,234.47L654.3,234.47z"/>
			</g>
		</g>
		<g>
			<g>
				<path class="st1" d="M619.94,207.19c-0.68,0.07,0.34,0.25,0.58,0.34c-0.06-0.02,0.64,0.57,0.15,0.08
					c0.01,0.06,0.02,0.12,0.03,0.17c0.01-0.31,0.01-0.33-0.01-0.08c-0.03,0.04-0.06,0.09-0.08,0.13c0.23-0.35,0.14-0.3-0.27,0.16
					c-0.16-0.19,1.36-0.1,1.43-0.08c0.77,0.18,1.47,0.51,2.18,0.85c2.34,1.14,4.57,2.53,6.65,4.09c4.15,3.12,7.74,7.02,11.05,11.02
					c6.85,8.27,12.62,17.47,20.26,25.08c4.21,4.19,9.03,7.85,14.5,10.24c1.24,0.54,2.68,0.36,3.42-0.9c0.62-1.06,0.35-2.88-0.9-3.42
					c-10.77-4.71-18.16-14.12-25.05-23.28c-7.19-9.55-14.43-19.76-25-25.86c-3.2-1.85-7.75-4.39-11.26-1.9
					c-3.13,2.22-2.21,8.81,2.31,8.35c1.34-0.14,2.5-1.05,2.5-2.5C622.44,208.44,621.29,207.05,619.94,207.19L619.94,207.19z"/>
			</g>
		</g>
		<path class="st2" d="M721.72,292.98c0.52-3.1-3.64-4.42-4.73-12c-0.32-2.2-0.73-7.39-0.73-13.09c0,0,0,0,0,0
			c1.78-0.11,3.15-0.46,4-0.73c20.77-6.52,25.33-53.59,25.45-71.27c0.03-4.61-0.23-8.11,0.73-13.82c1.21-7.23,5.23-23.13,5.82-25.45
			c0.78-3.1,1.52-5.93,0-7.64c-2.47-2.78-9.09-0.49-9.45-0.36c-14.67,5.22-17,36.53-17.82,36.36c-0.68-0.14,2.33-21.82,3.64-31.27
			c0.1-0.71,0.94-6.97,0.73-15.27c-0.32-12.73-2.34-14.81-3.64-15.64c-2.79-1.77-6.83-0.96-9.43,0.63
			c-3.09,1.88-4.59,5.11-6.55,14.18c-2.32,10.73-2.49,16.68-4.36,27.64c-1.46,8.5-2.45,14.3-3.66,14.28
			c-2.15-0.04-4.87-18.66-4.89-33.55c-0.01-4.74,0.28,4.84-0.93-14.08c-0.37-5.77-0.57-9.12-2.89-12.46
			c-0.68-0.99-3.47-4.99-6.57-4.63c-4.38,0.51-6.39,9.39-6.91,11.64c-0.91,3.99-0.81,7.16-0.73,9.09
			c0.75,18.35,1.12,27.52,2.19,37.3c0.4,3.64,0.76,6.62,0.35,6.7c-0.58,0.12-2.18-5.81-5.09-15.27
			c-0.84-2.73-7.82-25.03-15.27-31.27c-1.93-1.62-4.35-2.57-4.35-2.57c-1.56-0.62-4.74-1.88-7.04-0.79
			c-1.48,0.7-3.11,2.63-3.52,8.45c-0.66,9.37,2.64,17.05,5.09,23.27c0,0,8.8,22.38,10.55,40.36c0.26,2.72,0.05,5.57-0.36,11.27
			c-0.26,3.53-0.47,4.47-1.09,4.73c-1.86,0.76-4.97-5.54-9.82-10.55c-8.5-8.79-23.43-14.72-32.36-9.82
			c-0.81,0.44-5.4,3.08-6.55,8.36c-0.15,0.68-1.62,7.25,2.91,10.91c2.19,1.77,3.74,0.68,8,1.82c4.23,1.12,6.92,3.39,9.82,5.82
			c5.01,4.2,7.54,8.62,11.27,15.27c4.84,8.63,4.38,10.42,8.36,15.27c4.1,4.99,5.28,3.93,9.09,8.36c0.8,0.93,10.69,12.76,7.64,24.36
			c-1.79,6.8-6.53,7.82-5.82,10.55C665.18,307.16,719.9,303.87,721.72,292.98z"/>
	</g>
	<g>
		<g>
			<rect x="89.87" y="343.87" class="st3" width="30.55" height="129.82"/>
			<rect x="120.41" y="343.87" class="st3" width="30.55" height="129.82"/>
			<rect x="150.96" y="343.87" class="st3" width="30.55" height="129.82"/>
			<rect x="181.5" y="343.87" class="st3" width="30.55" height="129.82"/>
			<rect x="212.05" y="343.87" class="st3" width="30.55" height="129.82"/>
			<rect x="242.59" y="343.87" class="st3" width="30.55" height="129.82"/>
			<rect x="273.14" y="343.87" class="st3" width="30.55" height="129.82"/>
			<rect x="303.68" y="343.87" class="st3" width="30.55" height="129.82"/>
			<rect x="334.23" y="343.87" class="st3" width="30.55" height="129.82"/>
			<rect x="364.78" y="343.87" class="st3" width="30.55" height="129.82"/>
			<rect x="395.32" y="343.87" class="st3" width="30.55" height="129.82"/>
			<rect x="425.87" y="343.87" class="st3" width="30.55" height="129.82"/>
			<rect x="456.41" y="343.87" class="st3" width="30.55" height="129.82"/>
			<rect x="486.96" y="343.87" class="st3" width="30.55" height="129.82"/>
			<rect x="517.5" y="343.87" class="st3" width="30.55" height="129.82"/>
			<rect x="548.05" y="343.87" class="st3" width="30.55" height="129.82"/>
			<rect x="578.59" y="343.87" class="st3" width="30.55" height="129.82"/>
			<rect x="609.14" y="343.87" class="st3" width="30.55" height="129.82"/>
			<rect x="639.68" y="343.87" class="st3" width="30.55" height="129.82"/>
			<rect x="670.23" y="343.87" class="st3" width="30.55" height="129.82"/>
		</g>
		<rect x="109.87" y="343.87" class="st4" width="18.91" height="77.09"/>
		<rect x="141.5" y="343.87" class="st4" width="18.91" height="77.09"/>
		<rect x="202.59" y="343.87" class="st4" width="18.91" height="77.09"/>
		<rect x="233.14" y="343.87" class="st4" width="18.91" height="77.09"/>
		<rect x="263.68" y="343.87" class="st4" width="18.91" height="77.09"/>
		<rect x="324.78" y="343.87" class="st4" width="18.91" height="77.09"/>
		<rect x="324.78" y="343.87" class="st4" width="18.91" height="77.09"/>
		<rect x="356.41" y="343.87" class="st4" width="18.91" height="77.09"/>
		<rect x="417.5" y="343.87" class="st4" width="18.91" height="77.09"/>
		<rect x="448.05" y="343.87" class="st4" width="18.91" height="77.09"/>
		<rect x="478.59" y="343.87" class="st4" width="18.91" height="77.09"/>
		<rect x="539.68" y="343.87" class="st4" width="18.91" height="77.09"/>
		<rect x="539.68" y="343.87" class="st4" width="18.91" height="77.09"/>
		<rect x="571.32" y="343.87" class="st4" width="18.91" height="77.09"/>
		<rect x="632.41" y="343.87" class="st4" width="18.91" height="77.09"/>
		<rect x="662.96" y="343.87" class="st4" width="18.91" height="77.09"/>
	</g>
	<path class="st5" d="M362.14,319.07c0.1-0.34,0.31-0.88,0.79-1.16c0.29-0.17,0.53-0.15,1.31-0.14c0.67,0.01,1.36,0.01,1.74,0
		c1.25-0.02,1.45-0.14,2.03,0.04c0.61,0.19,0.94,0.49,1.05,0.6c0.22,0.21,0.57,0.57,0.59,1.09c0.02,0.53-0.31,0.91-0.52,1.16
		c-0.13,0.15-0.45,0.49-1.05,0.7c-0.62,0.22-0.89,0.08-2.1,0.04c-1.36-0.04-1.52,0.12-2.26-0.08c-0.54-0.14-1.06-0.29-1.38-0.81
		C361.99,319.95,362.09,319.3,362.14,319.07z"/>
	<path class="st5" d="M452.69,317.96c0.1-0.34,0.31-0.88,0.79-1.16c0.29-0.17,0.53-0.15,1.31-0.14c0.67,0.01,1.36,0.01,1.74,0
		c1.25-0.02,1.45-0.14,2.03,0.04c0.61,0.19,0.94,0.49,1.05,0.6c0.22,0.21,0.57,0.57,0.59,1.09c0.02,0.53-0.31,0.91-0.52,1.16
		c-0.13,0.15-0.45,0.49-1.05,0.7c-0.62,0.22-0.89,0.08-2.1,0.04c-1.36-0.04-1.52,0.12-2.26-0.08c-0.54-0.14-1.06-0.29-1.38-0.81
		C452.54,318.84,452.64,318.19,452.69,317.96z"/>
	<rect x="338.5" y="425.78" class="st6" width="21.82" height="44.36"/>
	<rect x="369.09" y="424.78" class="st7" width="21.82" height="44.36"/>
	<rect x="380.91" y="349.32" class="st7" width="10" height="118.91"/>
	<rect x="491.32" y="424.78" class="st8" width="21.82" height="44.36"/>
	<rect x="503.64" y="346.5" class="st8" width="9.5" height="118.39"/>
	<rect x="430.16" y="425.78" class="st9" width="21.27" height="42.36"/>
	<rect x="440" y="348.44" class="st10" width="5.09" height="82.77"/>
	<path class="st11" d="M351.41,32.1c0.35,0.94,1.53,1.33,2,1.54c3.63,1.62,3.48,9.86,3.43,14.87c-0.04,4.1,0.3,8.21,0,12.3
		c-0.68,9.34-0.7,20.08-0.57,27.17c0.09,4.83,0.36,3.74,0.29,6.41c-0.08,2.97-0.41,4.34,0.57,5.9c0.84,1.34,2.71,2.91,4.01,2.56
		c1.94-0.52,1.78-5.1,1.72-15.64c0,0-0.07-10.31,0-19.99c0.03-4.81,0.14-9.62,0-16.92c-0.18-9.63-0.55-11.91-2-13.84
		c-0.33-0.45-1.39-1.76-1.14-3.33c0.23-1.46,1.54-2.85,3.15-3.33c3.14-0.95,6.19,1.94,6.58,2.31c2.36,2.23,2.7,5.08,2.86,6.66
		c1.1,10.77,0,20.76,0,20.76c-0.45,4.12-1.06,8.48,1.14,13.07c0.56,1.16,1.63,3.32,3.15,3.33c1.94,0.01,3.31-3.76,3.43-4.1
		c1.51-4.27-0.59-6.95-1.43-12.56c-0.69-4.64,0.65-3.47,0.29-10.51c-0.43-8.34-0.96-12.5-2.86-15.64c-0.39-0.64-1.35-2.11-0.72-3.25
		c0.69-1.25,3-1.65,4.19-1.49c5.24,0.7,7.01,14.93,7.69,20.38c1.81,14.5,0.64,29.44,0,34.61c-0.36,2.9-0.21,5.83-0.47,8.73
		c-0.24,2.63-0.5,4.39,0.47,6.39c0.24,0.5,1.69,3.9,3.72,3.85c1.53-0.04,2.59-2.02,3.15-3.08c1.6-3,1.47-5.72,1.43-8.2
		c-0.12-7.4,0.85,5.77,0.29-10c-0.42-11.59-0.81-15.06-1.14-22.81c-0.42-9.89-0.11-11.9-1.43-16.66c-1.59-5.73-3.77-9.01-4.87-10.51
		c-3.01-4.14-4.68-7.34-8.01-7.69c-2.29-0.24-5.23,0.79-6.14,2.57c-0.73,1.42,0.01,2.95-0.48,3.1c-0.59,0.19-1.43-2.16-3.54-3.46
		c-1.65-1.01-4.35-1.57-6.55-0.77c-3.25,1.18-3.88,4.79-5.69,4.57c-1.11-0.14-1.2-1.54-2.58-1.68c-1.54-0.16-2.85,1.43-3.06,1.68
		C352,29.74,350.98,30.98,351.41,32.1z"/>
	<path class="st11" d="M404.61,56.84c-0.41-0.13-0.69,0.25-1.23,0.19c-0.87-0.09-1.64-1.2-1.72-2.21c-0.11-1.45,1.23-2.44,1.56-2.69
		c0.93-0.7,1.95-0.89,2.36-0.96c5.9-1.04,8.51-1.14,12.02-1.73c2.06-0.35,3.37-0.69,5.26-0.34c0.77,0.15,2.24,0.44,3.38,1.54
		c0.22,0.21,0.75,0.76,1.45,2.79c0.38,1.09,0.9,2.63,1.07,4.9c0.2,2.56,0.3,3.84-0.59,4.95c-0.09,0.12-1.5,1.99-3.17,1.73
		c-1.22-0.19-1.87-1.41-2.04-1.73c-0.54-1.01-0.26-1.59-0.32-3.7c-0.07-2.23-0.11-3.36-0.86-3.85c-0.59-0.38-0.95-0.01-3.54,0.24
		c-1.9,0.18-3.78,0.53-5.69,0.58c-0.29,0.01-0.88,0.02-1.23,0.38c-0.44,0.46-0.22,1.21-0.16,1.44c0.61,2.28,0.15,4.69,0.48,7.02
		c0,0,0.16,2.52-0.11,7.21c-0.05,0.8,0.08,1.6,0.05,2.4c-0.02,0.47-0.04,0.65,0.11,0.82c0.29,0.34,0.94,0.32,3.33,0
		c1.83-0.25,2.11-0.32,2.68-0.19c1.17,0.27,1.84,1.03,1.99,1.2c0.19,0.22,0.88,1.06,0.75,2.16c-0.14,1.22-1.19,1.97-1.66,2.31
		c-1,0.71-2.82,1.48-4.83,1.35c-0.75-0.05-1.54-0.23-1.99,0.19c-0.34,0.32-0.29,0.83-0.27,1.01c0.41,4.04,1.12,11.03,0.27,13.89
		c-0.07,0.22-0.25,0.8,0.05,1.3c0.43,0.7,1.56,0.77,3.06,0.91c4.74,0.44,5.6,0.8,6.17,0.19c0.39-0.41,0.25-0.84,0.11-2.31
		c-0.29-2.93-0.52-5.62,0.86-7.64c0.76-1.11,1.58-1.4,1.88-1.49c0.19-0.06,1.27-0.35,2.15,0.14c0.42,0.23,0.67,0.58,1.13,1.2
		c0.2,0.27,0.35,0.48,0.48,0.77c0.34,0.75,0.29,1.43,0.27,1.68c-0.09,1.19-0.3,6.65,0.21,10.62c0.1,0.74,0.15,0.87,0.05,1.15
		c-0.72,2.17-6.29,2.37-12.72,2.6c0,0-2.98,0.1-8.59-0.82c-0.48-0.08-1.71-0.3-2.84-1.11c-0.26-0.19-0.5-0.36-0.7-0.62
		c-0.72-0.96-0.35-2.39,0.21-3.32c0.78-1.27,1.8-1.35,1.99-2.51c0.01-0.08,0.01-0.06,0-1.14c0-1.05,0-1.57,0-1.9
		c0-1.63-0.15-3.5-0.16-3.73c-0.21-2.92-0.14-28.69-0.23-32.93C405.35,58.45,405.3,57.07,404.61,56.84z"/>
	<path class="st11" d="M442.06,106.54c0.6-0.88,0.46-1.84,0.43-2.11c-0.57-4.89,3.42-29.91,2.04-44.03
		c-0.05-0.52-0.23-2.29,0.21-2.4c0.47-0.12,1.35,1.69,3.11,5c3.27,6.12,5.2,9.17,7.08,9.04c0.68-0.05,1.3-0.5,1.82-0.19
		c0.66,0.39,0.49,1.6,0.43,2.02c-0.81,5.85,0.97,9.37-1.07,18.46c-0.26,1.15-0.35,2.43-0.54,5c-0.15,2.04-0.11,2.81,0.43,3.56
		c0.76,1.05,2.3,1.78,3.86,1.63c2.41-0.22,3.47-2.34,3.65-2.69c0.6-1.2,0.41-2.16,0.32-3.65c-0.13-2.32,0.2-2.25,0.43-6.34
		c0.8-14.43-1.94-41.43-0.54-46.62c0.06-0.23,0.34-1.2-0.14-2.15c-0.62-1.2-2.47-2.38-3.97-1.79c-0.82,0.32-1.18,1.07-1.5,1.76
		c-0.63,1.36-0.44,2.54-0.32,3.88c0.14,1.56,0.09,3.12,0.18,4.68c0.08,1.41,0.09,3.77,0.11,8.49c0.01,1.61,0.11,2.69,0,4.87
		c-0.07,1.26-0.15,1.82-0.43,1.89c-0.53,0.13-1.44-1.57-2.43-3.4c0,0-4.54-8.33-9.19-12.85c-0.15-0.15-0.49-0.46-1.04-0.67
		c-1.45-0.56-3,0.17-3.11,0.22c-1.52,0.73-2.05,2.31-2.29,3.14c-1.45,5.03-0.9,13.37-0.79,15.89c0.12,2.61-0.17,6.18-0.75,13.33
		c-0.58,7.07-0.86,10.61-1.43,12.62c-0.7,2.48-0.94,4.26-1.43,7.82c0,0-0.2,1.44,0.18,4.36c0.1,0.8,0.19,1.18,0.5,1.57
		c0.88,1.11,2.91,1.45,4.44,0.93C440.59,107.69,441.5,107.37,442.06,106.54z"/>
	<path class="st11" d="M488.78,46.75c0,0-0.07,0.07-0.07,0.07c-0.01,0.01-0.28,0.27-0.31,0.31c0,0-0.68,0.68-0.78,0.78
		c-0.02,0.03-0.05,0.05-0.05,0.05c0,0-0.04,0.04-0.07,0.07c-0.02,0.02-2.03,2.16-3.37,4.1c-0.28,0.41-0.73,1.09-2.36,4.55
		c-1.64,3.47-2.45,5.2-3.08,7c-0.8,2.31-1.17,4.09-1.5,5.68c-0.57,2.77-1.33,6.53-1,11.28c0.26,3.77,0.99,5.15,1.36,5.77
		c0.51,0.85,1.86,3.04,4.65,3.97c0,0,2.04,0.68,4.15,0.32c8.01-1.38,11.01-19.12,11.38-21.28c0.7-4.15,0.58-6.78,0.43-10.13
		c-0.21-4.63-0.35-6.98-1.93-8.59c-1.26-1.28-4.57-3.6-6.73-4.29c0,0-1.23-0.4-2-1.15c-0.61-0.6-0.87-1.31-0.87-1.31
		c0,0,0-0.01-0.01-0.02c-0.28-0.8-0.12-1.72-0.05-1.94c0.27-0.89,2.52-1.67,4.58-1.6c5.06,0.17,8.58,5.46,9.59,6.99
		c0.65,0.98,2.2,3.5,3.15,8.2c1.58,7.82,0.01,14.26-1.22,19.1c-1.08,4.25-2.31,7.06-4.01,10.96c-3.4,7.79-5.33,9.4-6.58,10.25
		c-0.78,0.53-4.36,2.96-8.73,2.5c-5.94-0.62-9.4-6.16-10.52-7.95c-7.37-11.78-0.27-26.54,4.94-37.36c1.05-2.19,0.94-1.1,5.44-7.31
		c0.31-0.43,1.04-1.44,2.36-1.79c0.34-0.09,1.72-0.41,2.9,0.36c0.86,0.57,1.11,1.38,1.18,1.65"/>
	<path class="st11" d="M509.68,52.52c0.42-0.07,0.67-0.46,0.86-0.77c0.89-1.43,0.3-2.77,0.32-3.94c0.05-3.4,5.25-5.85,5.9-6.15
		c1.12-0.53,3.5-1.65,6.33-1.25c4.21,0.59,6.56,4.12,8.37,6.83c2.21,3.3,5.48,8.2,3.65,13.17c-1.43,3.88-6.24,8.52-9.98,9.61
		c-0.43,0.12-1.72,0.46-2.25,1.44c-0.57,1.06-0.08,2.53,0.75,3.36c2.19,2.21,7.4,0.65,7.62,0.58c6.18-1.93,8.47-8.62,8.91-9.9
		c2.59-7.56-0.85-14.32-2.9-18.36c-2.52-4.96-4.52-8.91-9.55-10.86c-5.07-1.97-11.33-1.18-15.67,1.83
		c-3.74,2.59-6.94,7.43-5.58,11.05C506.99,50.56,508.56,52.71,509.68,52.52z"/>
	<path class="st11" d="M517.73,48.48c-0.99,0.27-1.53,1.02-1.82,1.44c-0.92,1.32-0.87,2.73-0.86,3.08
		c0.13,4.16,0.05,17.05-0.43,23.07c-0.19,2.38-0.56,4.92-1.29,10c-0.53,3.69-0.19,7.44-0.43,11.15c-0.06,0.88-0.17,2.52,0.97,3.94
		c0.95,1.19,2.8,2.24,4.19,1.83c1.49-0.45,1.98-2.45,2.36-4.61c1.24-7.03,0.81-12.82,0.75-18.07c-0.03-2.26,0.05-4.36,0.21-8.56
		c0.2-5.12-0.25-10.28,0.32-15.38c0.33-2.98,0.85-5.89-0.97-7.21C520.63,49.08,519.21,48.08,517.73,48.48z"/>
	<path class="st11" d="M529.21,77.32c-0.69,0.62-1.05,1.48-1.18,3.65c-0.1,1.7-0.15,2.54,0.11,3.94c0.38,2.11,0.15,6.09-0.32,14.03
		c-0.3,5.11-0.73,8.99-0.86,10.09c-0.71,6.22-1.02,6.1-1.29,9.71c-0.4,5.48-0.65,9.66,1.72,13.94c1,1.82,2.58,4.67,5.47,5.09
		c3.67,0.54,6.84-3.24,7.51-4.04c2.75-3.27,3.57-7.4,2.47-10.67c-0.4-1.2-1.34-3.14-2.25-3.08c-1.07,0.07-1.72,2.89-1.82,3.36
		c-0.39,1.69-0.02,2.1-0.32,3.17c-0.64,2.28-3.4,4.39-4.72,3.94c-1.11-0.37-1.17-2.51-0.75-9.9c0.33-5.84,0.66-9.57,0.86-12.21
		c0.85-11.27-0.09-9.77,0.64-18.07c0.27-3.1-0.48-6.21-0.29-9.32c0.07-1.16,0.26-3.58-1.12-4.31c-0.73-0.39-1.79-0.25-1.9-0.24
		C531.05,76.45,530.03,76.59,529.21,77.32z"/>
	<g>
		<path class="st11" d="M230.74,31.77c0.5,1.01,1.71,1.79,2.6,1.51c0.62-0.2,0.68-0.79,1.87-2.88c1.19-2.07,1.6-2.32,1.87-2.42
			c1.09-0.42,2.32,0.46,2.74,0.76c4.53,3.22,3.03,25.58,3.03,25.58c-1.12,18.86-0.07,15.93-0.87,32.09c0,0-0.51,10.32,0,18.77
			c0.09,1.44,0.3,2.3,0.29,4.39c-0.01,0.99-0.06,1.37,0.14,1.97c0.39,1.17,1.6,2.66,3.17,2.57c1.55-0.08,2.54-1.64,2.88-2.72
			c0.35-1.13,0.01-1.84-0.29-4.09c0,0-0.02-0.17-0.29-4.39c-0.49-7.83,0.87-35.87,0.87-35.87c0.67-13.77,0.71-16.69,0.29-19.37
			c-0.51-3.25-0.74-6.55-0.87-9.84c-0.05-1.17-0.07-1.77,0-2.12c0.74-3.84,5.66-7.14,8.8-5.9c0.91,0.36,1.47,1.02,2.16,1.97
			c1.99,2.74,3.91,5.4,5.05,10.44c0.72,3.19,0.63,6.46,0.43,12.87c-0.07,2.18-0.11,2.08-0.58,10.14c-0.6,10.29-0.42,8.7-0.58,10.44
			c-0.19,2.12-0.6,6.32-0.58,11.81c0.01,2.73,0.13,4.36,1.3,5.45c1.32,1.23,3.66,1.49,5.05,0.45c1.3-0.97,1.28-2.73,1.59-7.87
			c0.45-7.61,0.21,1.03,0.58-8.02c0.37-9.09,0.55-13.71,0.43-17.25c-0.06-1.93-0.16-4.88-0.58-8.78c-0.65-6.16-0.98-9.24-1.87-11.57
			c-1.16-3.03-2.48-4.67-1.73-6.59c0.59-1.54,2.16-2.35,2.88-2.72c1.52-0.79,3.37-1.07,4.76-0.76c6.01,1.37,7.74,15.12,7.93,16.8
			c0.31,2.64-0.11,1.72,0.14,8.32c0.27,6.97,0.69,7.99,0.7,13.02c0,2.15,0,5.64-0.56,10.14c-0.41,3.3-0.62,3.18-1.44,8.63
			c-0.08,0.51-0.68,4.6-0.94,10c-0.23,4.62,0.03,5.51,0.65,6.19c1.64,1.78,5.38,1.59,7.07-0.3c0.97-1.09,0.9-2.35,0.87-6.05
			c0,0-0.04-4.53,0.14-12.11c0.09-3.92,0.41-4.81,0.72-8.93c0.56-7.36,0.19-13-0.14-18.16c-0.51-7.89-0.85-12.68-2.74-18.92
			c-1.86-6.15-3.78-8.93-5.91-10.9c-1.46-1.35-4.11-3.79-7.5-3.63c-4.15,0.19-8.5,4.23-8.51,4.24l0,0c0,0-0.64,1.72-1.3,1.82
			c-0.69,0.1-1.12-1.58-2.02-2.72c-2.07-2.65-7.25-3.19-10.67-1.36c-3.29,1.76-4.09,5.26-5.62,4.84c-0.85-0.23-0.81-1.34-2.16-3.63
			c-1.11-1.87-2.21-3.73-3.89-4.39c-3-1.17-6.98,1.79-8.65,4.84C231,28.39,229.99,30.24,230.74,31.77z"/>
		<path class="st11" d="M303.26,67.53c0.6,0.66,1.97,0.21,2.27,0.11c1.27-0.42,2-1.43,2.27-1.82c1.01-1.45,0.58-2.26,1.51-3.29
			c0.61-0.68,1.74-1.38,2.49-1.14c1.57,0.52,1.45,5.28,1.3,9.31c-0.28,7.64-0.57,15.34-3.79,25.88c-1.28,4.19-2.51,7.16-1.84,11.35
			c0.24,1.47,0.92,5.72,4.22,7.61c2.21,1.27,4.51,0.85,5.41,0.68c0.28-0.05,4.41-0.82,6.71-4.54c0.39-0.64,1.84-2.98,0.97-4.31
			c-0.34-0.52-1.01-0.86-1.62-0.79c-0.91,0.09-1.27,1.03-2.16,2.04c-1.29,1.45-3.46,2.78-4.43,2.27c-1.19-0.62-0.71-4.01-0.54-5.11
			c1.39-9.27,3.46-20.36,4-23.5c1.4-8.11,1.4-14.23-0.65-19.98c-0.98-2.75-2.12-4.55-3.89-5.22c-3.07-1.17-6.59,1.57-8.65,3.18
			c-0.93,0.72-2.27,1.93-3.14,3.86C303.39,64.81,302.53,66.73,303.26,67.53z"/>
		<path class="st11" d="M321.59,39.61c0.03-0.26,0.1-0.88,0.54-1.36c0.71-0.76,2.13-0.91,2.92-0.34c1.04,0.75,0.85,2.65,0.65,4.43
			c-0.43,3.74-0.8,7-3.57,9.19c-1.94,1.54-5.19,2.67-7.89,1.36c-4.25-2.05-4.5-9.01-3.35-13.17c0.36-1.29,1.85-6.71,6.06-7.49
			c2.95-0.55,6.11,1.39,7.25,3.86c0.22,0.48,1.07,2.32,0.22,3.63c-0.36,0.55-1.11,1.17-1.84,1.02c-1.24-0.25-1.1-2.44-2.49-3.06
			c-1.35-0.61-3.08,0.77-3.24,0.91c-2.52,2.07-3.35,7.01-1.41,8.63c0.93,0.77,2.63,0.9,3.68,0.11
			C320.86,46,321.35,41.67,321.59,39.61z"/>
	</g>
	<path class="st5" d="M388.53,298.34c0.41-0.11,1.01-0.26,1.78-0.14c1.06,0.16,1.36,0.69,1.91,0.56c0.9-0.21,1.78-1.95,1.4-2.95
		c-0.68-1.78-5.85-2.42-9.28,0.28c-2.73,2.15-3.69,5.9-3.43,8.84c0.09,0.99,0.35,3.91,2.29,5.33c1.31,0.96,2.86,0.86,5.34,0.7
		c2.22-0.14,2.42-0.55,3.94-0.42c1.01,0.08,3.26,0.27,4.45,1.82c1.74,2.28,0.58,6.69-1.27,9.26c-2.11,2.93-6.02,4.7-8.77,3.51
		c-2.01-0.87-2.9-3.1-3.94-2.66c-0.69,0.29-0.99,1.56-0.89,2.52c0.31,3.03,4.74,4.56,5.34,4.77c0.85,0.3,6.33,2.07,10.93-1.96
		c3.48-3.05,5.16-8.28,3.94-13.04c-0.2-0.8-1.36-5.36-4.83-7.01c-1.61-0.77-3.33-0.72-4.2-0.7c-2.93,0.08-3.94,1.27-5.98,0.56
		c-0.43-0.15-1.83-0.64-2.54-2.1c-0.87-1.8-0.07-3.76,0.13-4.21C385.86,299.02,388.06,298.46,388.53,298.34z"/>
	<path class="st5" d="M426.93,291.89c0.52-0.48,1.33-0.5,1.91-0.28c0.43,0.16,1.46,0.74,2.16,4.07c0.61,2.93,0.39,5.25,0.25,7.01
		c-0.56,7.27,0.24,6.4-0.38,11.36c-0.19,1.49-0.6,4.26-1.14,8.98c-0.26,2.29-0.44,4,0.53,5.39c0.71,1.03,2.12,1.98,3.28,1.62
		c1.17-0.36,1.32-1.8,2.29-1.82c0.78-0.02,1.6,0.9,1.78,1.82c0.34,1.77-1.69,3.7-3.31,4.49c-1.86,0.9-4.26,0.82-6.1-0.56
		c-2-1.5-2.5-3.89-2.8-5.33c-0.52-2.49-0.14-4.36,0.13-6.31c0.34-2.43,0.35-5.22,0.38-10.8c0.03-5.71,0.69-11.42,0.38-17.11
		C426.27,293.92,426.18,292.57,426.93,291.89z"/>
	<path class="st5" d="M408.49,309.41c0.81-0.73,2.23-1.99,4.4-2.31c0.42-0.06,3.26-0.42,5.64,1.58c2.49,2.1,2.78,5.36,2.94,7.05
		c0.4,4.44-1.09,10.86-5.76,13.24c-0.52,0.27-3.28,1.67-6.21,0.49c-4.08-1.65-5.02-6.94-5.19-7.9
		C403.42,316.54,405.76,311.9,408.49,309.41z"/>
	<path class="st6" d="M410.57,312.73c1.41-1.04,3.64-1.49,5.12-0.27c0.82,0.67,1.16,1.66,1.42,2.41c0.64,1.85,0.45,3.52,0.34,4.44
		c-0.18,1.45-0.53,4.21-2.47,5.65c-0.27,0.2-1.5,1.12-2.99,0.77c-0.87-0.2-1.45-0.75-1.8-1.1c-1.38-1.34-1.78-3.15-1.9-3.73
		C407.78,318.48,408.1,314.56,410.57,312.73z"/>
	<path class="st5" d="M291.69,298.92c0.13,0.19,1.01,1.51,2.11,1.37c0.6-0.08,1.18-0.59,1.41-1.21c0.42-1.13-0.59-1.84-0.42-3.19
		c0.15-1.26,1.26-2.52,2.26-2.58c1.68-0.1,3.02,3.28,3.52,4.55c1.55,3.93,1.36,6.84,1.27,14.72c-0.16,13.83,0.34,11.92,0,13.81
		c-0.39,2.13-1.09,4.87,0.14,7.59c0.21,0.45,1.37,3.01,3.24,3.04c1.5,0.02,2.54-1.59,2.68-1.82c1-1.59,0.77-3.49,0.7-4.1
		c-0.99-8.85-0.53-17.83-1.27-26.71c-0.13-1.52-0.16-2.22-0.42-3.34c-0.6-2.58-1.45-3.41-1.41-5.46c0.02-0.82,0.04-2.06,0.85-2.73
		c0.89-0.75,2.34-0.48,3.24,0.15c1.3,0.91,1.57,2.66,1.83,4.7c0.72,5.69,0.85,9.56,0.85,9.56c0.11,3.44,0.53,6.87,0.56,10.32
		c0.03,2.57-0.04,4.06,0.99,5.01c1.21,1.11,3.49,1.04,4.65-0.15c0.95-0.98,0.89-2.45,0.85-4.25c-0.23-9.01,0.24-9.13-0.45-14.91
		c-0.46-3.87-0.81-4.91-1.52-5.88c-0.8-1.1-1.81-1.75-1.69-2.73c0.13-1.02,1.39-1.61,1.83-1.82c1.97-0.92,4.74-0.63,6.48,1.06
		c1.44,1.41,1.72,3.34,1.97,5.46c1.05,8.87,1.58,13.31,0.99,18.06c-0.41,3.32-0.34,6.69-0.7,10.02c-0.08,0.76-0.28,2.51,0.56,4.25
		c0.24,0.48,1.14,2.34,2.82,2.58c2.11,0.31,3.66-2.19,3.81-2.43c1.1-1.83,0.91-3.89,0.85-4.7c-0.78-9.34,1.31-10.25-0.42-20.64
		c-0.87-5.24-1.31-7.86-2.82-10.47c-0.34-0.58-4.88-8.99-9.73-8.35c-3.05,0.41-4.65,1.97-4.65,1.97c-0.74,0.72-1.17,1.51-1.97,1.52
		c-0.83,0.01-1.19-0.82-2.26-1.67c0,0-1.66-1.33-3.83-1.5c-1.81-0.14-4.42,0.55-5.33,2.41c-0.41,0.84-0.29,1.52-0.7,1.67
		c-0.73,0.26-1.39-1.68-2.96-2.58c-1.88-1.07-4.8-0.48-6.63,1.37C290.75,293.12,290.38,296.95,291.69,298.92z"/>
	<g>
		<path class="st5" d="M341.15,313.56c0.63,0.7,2,0.41,2.67,0c0.18-0.11,0.64-0.53,0.93-1.12c0,0,0,0,0,0
			c0.12-0.32,0.13-0.6,0.23-0.61c0.14-0.01,0.38,0.81,0.41,0.91c0.76,2.68,0.61,4.8,0.61,4.8s-0.26,3.86-0.5,11.18
			c-0.01,0.22-0.02,0.8,0.23,1.48c0.12,0.34,0.76,1.92,2.34,2.32c0.91,0.23,2.47,0.16,2.98-0.89c0.3-0.63,0.28-1.55-0.18-1.91
			c-0.3-0.23-0.59-0.07-0.86-0.2c-0.9-0.45-0.24-3.47-0.09-4.16c0.76-3.61,0.68-6.42,0.59-9.5c-0.01-0.46-0.14-3.83-1.66-6.41
			c-0.37-0.63-0.86-1.27-1.66-1.55c-0.83-0.28-1.58-0.03-2.32,0.23c-0.59,0.21-3.22,1.13-3.86,3.43
			C340.89,311.94,340.61,312.96,341.15,313.56z"/>
		<path class="st5" d="M349.09,298.05c-0.46,1.07,0.15,1.69-0.09,2.64c-0.2,0.8-0.95,1.68-1.86,1.73c-0.99,0.05-1.78-0.91-2.05-1.7
			c-0.07-0.2-0.39-1.15,0.18-2c0.46-0.68,1.26-0.95,1.88-0.91c0.4,0.03,0.7,0.19,1.27,0.48c0.86,0.45,1.03,0.75,1.26,0.67
			c0.41-0.14,0.61-1.35,0.18-2.23c-0.61-1.25-2.47-1.79-3.91-1.45c-2.62,0.61-3.31,3.99-3.36,4.27c-0.11,0.58-0.52,2.75,0.95,4.36
			c0.16,0.18,1.16,1.24,2.77,1.36c2.09,0.16,3.8-1.38,4.5-2.91c0.05-0.1,0.91-2.06,0.05-3.73c-0.23-0.44-0.79-1.28-1.27-1.18
			C349.32,297.51,349.18,297.83,349.09,298.05z"/>
	</g>
	<path class="st5" d="M479.85,296c0.41-0.11,1.01-0.26,1.78-0.14c1.06,0.16,1.36,0.69,1.91,0.56c0.9-0.21,1.78-1.95,1.4-2.95
		c-0.68-1.78-5.85-2.42-9.28,0.28c-2.73,2.15-3.69,5.9-3.43,8.84c0.09,0.99,0.35,3.91,2.29,5.33c1.31,0.96,2.86,0.86,5.34,0.7
		c2.22-0.14,2.42-0.55,3.94-0.42c1.01,0.08,3.26,0.27,4.45,1.82c1.74,2.28,0.58,6.69-1.27,9.26c-2.11,2.93-6.02,4.7-8.77,3.51
		c-2.01-0.87-2.9-3.1-3.94-2.66c-0.69,0.29-0.99,1.56-0.89,2.52c0.31,3.03,4.74,4.56,5.34,4.77c0.85,0.3,6.33,2.07,10.93-1.96
		c3.48-3.05,5.16-8.28,3.94-13.04c-0.2-0.8-1.36-5.36-4.83-7.01c-1.61-0.77-3.33-0.72-4.2-0.7c-2.93,0.08-3.94,1.27-5.98,0.56
		c-0.43-0.15-1.83-0.64-2.54-2.1c-0.87-1.8-0.07-3.76,0.13-4.21C477.18,296.68,479.38,296.12,479.85,296z"/>
	<g>
		<path class="st5" d="M495.39,308.97c0.63,0.7,2,0.41,2.67,0c0.18-0.11,0.64-0.53,0.93-1.12c0,0,0,0,0,0
			c0.12-0.32,0.13-0.6,0.23-0.61c0.14-0.01,0.38,0.81,0.41,0.91c0.76,2.68,0.61,4.8,0.61,4.8s-0.26,3.86-0.5,11.18
			c-0.01,0.22-0.02,0.8,0.23,1.48c0.12,0.34,0.76,1.92,2.34,2.32c0.91,0.23,2.47,0.16,2.98-0.89c0.3-0.63,0.28-1.55-0.18-1.91
			c-0.3-0.23-0.59-0.07-0.86-0.2c-0.9-0.45-0.24-3.47-0.09-4.16c0.76-3.61,0.68-6.42,0.59-9.5c-0.01-0.46-0.14-3.83-1.66-6.41
			c-0.37-0.63-0.86-1.27-1.66-1.55c-0.83-0.28-1.58-0.03-2.32,0.23c-0.59,0.21-3.22,1.13-3.86,3.43
			C495.13,307.35,494.85,308.37,495.39,308.97z"/>
		<path class="st5" d="M503.33,293.46c-0.46,1.07,0.15,1.69-0.09,2.64c-0.2,0.8-0.95,1.68-1.86,1.73c-0.99,0.05-1.78-0.91-2.05-1.7
			c-0.07-0.2-0.39-1.15,0.18-2c0.46-0.68,1.26-0.95,1.88-0.91c0.4,0.03,0.7,0.19,1.27,0.48c0.86,0.45,1.03,0.75,1.26,0.67
			c0.41-0.14,0.61-1.35,0.18-2.23c-0.61-1.25-2.47-1.79-3.91-1.45c-2.62,0.61-3.31,3.99-3.36,4.27c-0.11,0.58-0.52,2.75,0.95,4.36
			c0.16,0.18,1.16,1.24,2.77,1.36c2.09,0.16,3.8-1.38,4.5-2.91c0.05-0.1,0.91-2.06,0.05-3.73c-0.23-0.44-0.79-1.28-1.27-1.18
			C503.57,292.92,503.42,293.24,503.33,293.46z"/>
	</g>
	<g>
		<g>
			<path class="st7" d="M623.82,206.41c3.22,0,3.22-5,0-5C620.6,201.41,620.6,206.41,623.82,206.41L623.82,206.41z"/>
		</g>
	</g>
	<g>
		<g>
			<path class="st7" d="M623.82,208.91c2.62,0,5.12-2.3,5-5c-0.12-2.71-2.2-5-5-5c-2.62,0-5.12,2.3-5,5
				C618.94,206.62,621.02,208.91,623.82,208.91L623.82,208.91z"/>
		</g>
	</g>
	<g>
		<g>
			<path class="st12" d="M688.18,135.82c2.62,0,5.12-2.3,5-5c-0.12-2.71-2.2-5-5-5c-2.62,0-5.12,2.3-5,5
				C683.3,133.53,685.38,135.82,688.18,135.82L688.18,135.82z"/>
		</g>
	</g>
	<g>
		<g>
			<path class="st8" d="M743.82,161.68c3.22,0,3.22-5,0-5C740.6,156.68,740.6,161.68,743.82,161.68L743.82,161.68z"/>
		</g>
	</g>
	<g>
		<g>
			<path class="st8" d="M742.73,164.18c2.62,0,5.12-2.3,5-5c-0.12-2.71-2.2-5-5-5c-2.62,0-5.12,2.3-5,5
				C737.85,161.89,739.92,164.18,742.73,164.18L742.73,164.18z"/>
		</g>
	</g>
</g>
<g id="Capa_2">
	<path class="st7" d="M197.15,264.67c-1.23,0.59-1.98,0.05-3.09,0.36c-2.15,0.6-3.05,3.69-3.45,5.09
		c-0.34,1.17-2.05,7.06,1.45,11.45c3.78,4.74,11.34,4.86,16.36,2c4.05-2.3,7.23-6.99,6.91-12.36c-0.38-6.31-5.36-9.76-6-10.18
		c-0.33-0.22-6.17-4-11.09-1.82c-2.56,1.13-6.25,4.49-8.36,5.09c-0.43,0.12-1.54,0.44-2.31-0.14c-0.13-0.1-0.21-0.19-0.24-0.22
		c-0.69-0.85,1.12-3.92,2.18-5.27c3.03-3.84,9.77-5.97,16-4.73c6.4,1.28,10.03,5.68,10.73,6.55c0.48,0.61,6.08,7.89,3.27,16.91
		c-2.19,7.04-8.51,11.91-15.45,12.73c-0.85,0.1-11.15,1.13-16.55-6.91c-3.76-5.61-2.97-12.39-0.73-16.73
		c0.55-1.07,2.99-5.77,7.27-6.36c2-0.28,4.75,0.3,5.09,1.64C199.4,262.75,198.32,264.1,197.15,264.67z"/>
	<path class="st9" d="M312.63,238.99c-1.23,0.59-1.98,0.05-3.09,0.36c-2.15,0.6-3.05,3.69-3.45,5.09
		c-0.34,1.17-2.05,7.06,1.45,11.45c3.78,4.74,11.34,4.86,16.36,2c4.05-2.3,7.23-6.99,6.91-12.36c-0.38-6.31-5.36-9.76-6-10.18
		c-0.33-0.22-6.17-4-11.09-1.82c-2.56,1.13-6.25,4.49-8.36,5.09c-0.43,0.12-1.54,0.44-2.31-0.14c-0.13-0.1-0.21-0.19-0.24-0.22
		c-0.69-0.85,1.12-3.92,2.18-5.27c3.03-3.84,9.77-5.97,16-4.73c6.4,1.28,10.03,5.68,10.73,6.55c0.48,0.61,6.08,7.89,3.27,16.91
		c-2.19,7.04-8.51,11.91-15.45,12.73c-0.85,0.1-11.15,1.13-16.55-6.91c-3.76-5.61-2.97-12.39-0.73-16.73
		c0.55-1.07,2.99-5.77,7.27-6.36c2-0.28,4.75,0.3,5.09,1.64C314.89,237.08,313.8,238.43,312.63,238.99z"/>
	<path class="st8" d="M421.51,213.68c-1.23,0.59-1.98,0.05-3.09,0.36c-2.15,0.6-3.05,3.69-3.45,5.09
		c-0.34,1.17-2.05,7.06,1.45,11.45c3.78,4.74,11.34,4.86,16.36,2c4.05-2.3,7.23-6.99,6.91-12.36c-0.38-6.31-5.36-9.76-6-10.18
		c-0.33-0.22-6.17-4-11.09-1.82c-2.56,1.13-6.25,4.49-8.36,5.09c-0.43,0.12-1.54,0.44-2.31-0.14c-0.13-0.1-0.21-0.19-0.24-0.22
		c-0.69-0.85,1.12-3.92,2.18-5.27c3.03-3.84,9.77-5.97,16-4.73c6.4,1.28,10.03,5.68,10.73,6.55c0.48,0.61,6.08,7.89,3.27,16.91
		c-2.19,7.04-8.51,11.91-15.45,12.73c-0.85,0.1-11.15,1.13-16.55-6.91c-3.76-5.61-2.97-12.39-0.73-16.73
		c0.55-1.07,2.99-5.77,7.27-6.36c2-0.28,4.75,0.3,5.09,1.64C423.77,211.76,422.68,213.11,421.51,213.68z"/>
</g>
</svg>
