<?xml version="1.0" standalone="no"?>
<!DOCTYPE svg PUBLIC "-//W3C//DTD SVG 20010904//EN"
 "http://www.w3.org/TR/2001/REC-SVG-20010904/DTD/svg10.dtd">
<svg version="1.0" xmlns="http://www.w3.org/2000/svg"
 width="347.000000pt" height="256.000000pt" viewBox="0 0 347.000000 256.000000"
 preserveAspectRatio="xMidYMid meet">

<g transform="translate(0.000000,256.000000) scale(0.100000,-0.100000)"
fill="#000000" stroke="none">
<path d="M1300 2293 c-183 -29 -388 -65 -399 -68 -10 -4 -10 -9 -2 -19 9 -11
24 -10 87 1 42 8 78 13 80 10 3 -2 11 -44 20 -93 11 -62 12 -90 5 -92 -22 -7
-41 -34 -41 -58 0 -19 5 -24 25 -24 44 0 49 32 27 159 -10 61 -16 114 -12 116
4 3 32 7 62 11 l55 6 6 -53 c11 -88 9 -119 -8 -119 -20 0 -40 -39 -26 -53 7
-7 18 -5 37 8 28 18 29 29 8 181 l-6 40 53 12 c28 7 54 10 57 7 3 -3 7 -29 10
-58 4 -49 2 -55 -22 -70 -14 -10 -26 -26 -26 -37 0 -16 7 -20 34 -20 41 0 45
12 34 85 -4 28 -9 69 -10 93 0 23 -6 41 -12 41 -6 -1 -22 -4 -36 -6z"/>
<path d="M1816 2204 c-3 -42 -6 -99 -6 -125 0 -39 -3 -47 -15 -43 -24 10 -65
-23 -65 -51 0 -53 88 -55 91 -2 2 36 5 99 7 157 l3 55 29 -33 c17 -18 30 -39
30 -47 0 -8 4 -15 9 -15 5 0 12 -12 14 -27 2 -17 5 -9 6 20 1 50 -15 93 -45
118 -9 8 -25 26 -34 42 l-17 27 -7 -76z"/>
<path d="M2816 2192 c-10 -123 -16 -151 -30 -146 -17 7 -38 -21 -34 -43 2 -11
12 -18 28 -18 18 0 25 7 31 30 11 44 26 256 18 261 -4 2 -10 -36 -13 -84z"/>
<path d="M2113 2245 c3 -16 9 -69 12 -117 6 -84 6 -86 -16 -90 -12 -2 -31 -15
-42 -30 -17 -23 -19 -32 -9 -52 6 -14 23 -28 38 -32 38 -10 68 27 59 71 -3 16
-11 82 -17 145 -5 63 -14 120 -20 125 -7 7 -8 0 -5 -20z"/>
<path d="M2376 2191 c-24 -14 -25 -18 -19 -94 4 -72 3 -80 -16 -93 -27 -19
-29 -64 -3 -64 34 0 44 39 35 124 l-10 78 49 30 c26 16 48 31 48 32 0 9 -63 0
-84 -13z m44 4 c0 -2 -10 -9 -22 -15 -22 -11 -22 -10 -4 4 21 17 26 19 26 11z"/>
<path d="M893 2189 c3 -8 11 -50 17 -92 7 -42 17 -74 21 -71 5 3 9 -1 9 -8 0
-7 3 -23 6 -35 5 -18 2 -23 -13 -23 -25 0 -43 -19 -43 -45 0 -60 80 -58 82 2
1 40 -54 259 -69 273 -14 13 -15 13 -10 -1z"/>
<path d="M417 2067 l-68 -32 60 -90 c53 -80 58 -92 47 -110 -20 -32 -27 -74
-16 -95 12 -22 49 -27 68 -8 23 23 11 60 -53 159 -36 56 -65 102 -63 103 2 0
27 13 57 28 30 15 57 25 62 22 4 -2 24 -31 43 -63 32 -52 34 -61 24 -88 -13
-34 -6 -61 18 -70 40 -15 56 53 20 89 -7 8 -38 53 -69 101 -31 48 -58 87 -59
86 -2 0 -34 -15 -71 -32z"/>
<path d="M1387 1958 c-15 -5 -24 -14 -21 -20 4 -6 -2 -8 -16 -3 -15 5 -20 4
-16 -4 5 -7 1 -9 -8 -5 -9 3 -16 1 -16 -6 0 -6 -4 -9 -9 -6 -14 9 -42 -5 -34
-17 4 -6 0 -8 -10 -4 -21 8 -49 -2 -41 -14 3 -5 -3 -6 -12 -2 -13 5 -15 3 -9
-7 6 -9 4 -11 -4 -6 -7 5 -51 -9 -101 -30 -78 -35 -92 -45 -121 -89 -18 -27
-39 -55 -47 -61 -10 -9 -4 -16 30 -32 42 -21 91 -20 127 2 8 5 8 0 0 -21 -8
-22 -7 -30 5 -39 9 -6 14 -13 12 -15 -3 -2 15 -5 38 -7 31 -2 62 6 111 28 38
17 75 28 82 25 8 -2 12 -1 9 4 -3 5 16 18 42 29 257 108 321 137 347 158 17
14 22 22 11 18 -16 -6 -18 -3 -12 27 6 33 5 33 -14 -8 -25 -56 -32 -55 -14 3
l14 46 -27 -5 c-26 -5 -26 -4 -8 9 19 14 19 14 -1 16 -51 4 -151 -26 -247 -74
-60 -30 -54 -14 8 21 106 60 69 50 -170 -44 -216 -85 -202 -80 -190 -67 6 6
98 45 205 87 107 41 209 82 225 90 l30 15 -35 -1 c-63 -2 -81 1 -75 11 7 12
-1 12 -38 -2z m153 -138 c-8 -5 -19 -10 -25 -10 -5 0 -3 5 5 10 8 5 20 10 25
10 6 0 3 -5 -5 -10z m73 -5 c-3 -9 -8 -14 -10 -11 -3 3 -2 9 2 15 9 16 15 13
8 -4z m18 -12 c-12 -20 -14 -14 -5 12 4 9 9 14 11 11 3 -2 0 -13 -6 -23z
m-266 7 c-3 -5 -12 -10 -18 -10 -7 0 -6 4 3 10 19 12 23 12 15 0z m220 -2
c-19 -55 -26 -70 -31 -65 -6 5 22 77 30 77 3 0 3 -6 1 -12z m-115 -18 c-19
-11 -39 -19 -45 -19 -5 0 6 8 25 19 19 11 40 19 45 19 6 0 -6 -8 -25 -19z m75
-17 c-3 -16 -11 -32 -16 -37 -5 -6 -4 5 1 25 6 18 10 35 10 36 0 2 3 3 6 3 3
0 3 -12 -1 -27z m-284 -9 c-30 -13 -59 -23 -64 -21 -10 3 90 46 108 46 6 0
-14 -11 -44 -25z m256 4 c-3 -8 -6 -5 -6 6 -1 11 2 17 5 13 3 -3 4 -12 1 -19z
m74 -1 c-10 -9 -11 -8 -5 6 3 10 9 15 12 12 3 -3 0 -11 -7 -18z m-543 -16 c4
-29 -26 -101 -43 -101 -14 0 -55 37 -55 50 0 18 63 81 79 78 9 -2 18 -14 19
-27z m247 -36 c-27 -13 -57 -24 -65 -24 -8 0 10 11 40 24 71 30 90 30 25 0z
m-111 -1 c9 -8 16 -27 15 -42 0 -25 -1 -25 -10 -7 -7 16 -8 13 -4 -13 3 -20 1
-31 -5 -27 -6 3 -10 -4 -11 -17 -1 -23 -1 -23 -9 2 -4 14 -8 36 -8 50 l0 25 9
-25 c6 -18 7 -12 3 23 -6 51 -3 55 20 31z m-54 -70 c0 -8 -5 -14 -12 -14 -6 0
-3 -7 8 -15 10 -8 14 -15 8 -15 -5 0 -18 6 -28 13 -16 11 -17 17 -7 36 13 23
31 20 31 -5z"/>
<path d="M2589 1849 c-16 -53 -25 -69 -40 -69 -20 0 -39 -28 -32 -47 3 -7 13
-13 23 -13 13 0 24 15 38 53 19 50 22 52 57 51 26 -1 35 2 31 12 -3 8 0 11 10
7 10 -4 14 2 14 19 0 20 -8 28 -40 41 l-40 15 -21 -69z"/>
<path d="M1755 1803 c-55 -25 -162 -71 -238 -103 -76 -32 -145 -66 -152 -77
-10 -15 -55 -120 -55 -129 0 -1 23 -11 50 -23 39 -17 55 -19 70 -11 11 6 24 8
29 5 12 -7 62 16 56 25 -3 5 2 10 10 14 18 7 19 7 -1 -40 -9 -22 -25 -47 -37
-57 -17 -14 -17 -16 -3 -9 13 7 32 1 71 -20 l54 -29 71 36 c40 20 74 35 76 33
2 -2 -8 -22 -22 -45 -22 -38 -42 -50 -259 -158 -190 -94 -241 -116 -262 -110
l-27 6 25 -20 c14 -12 19 -20 10 -21 -10 0 -11 -3 -3 -13 10 -12 32 -121 32
-160 0 -16 -2 -16 -31 -2 -17 9 -33 15 -35 13 -5 -5 211 -113 666 -331 195
-94 382 -184 415 -200 80 -40 145 -67 145 -62 0 2 -39 23 -87 45 l-88 41 -2
77 c-2 52 1 71 7 57 8 -18 9 -16 11 10 2 30 2 30 8 -5 l7 -35 5 33 c4 23 1 37
-13 49 -25 23 -22 42 9 54 43 16 554 282 550 286 -2 2 -136 -62 -297 -143
-197 -97 -301 -144 -317 -141 -12 2 -20 0 -17 -5 9 -14 -45 2 -98 29 -27 13
-48 28 -48 34 0 5 6 7 13 3 6 -4 9 -3 4 1 -4 5 32 25 80 45 49 19 159 73 246
118 145 75 217 99 217 73 0 -12 39 -2 65 16 27 18 40 16 24 -3 -7 -9 33 7 89
35 57 28 108 49 114 45 7 -4 8 -3 4 5 -4 6 0 14 8 17 9 3 13 10 10 15 -3 5 6
14 20 21 14 6 26 17 26 25 0 7 5 13 11 13 15 0 52 89 47 115 -4 17 -1 22 9 18
11 -4 13 -16 8 -47 -5 -30 -4 -38 4 -30 15 14 32 74 21 74 -17 0 -4 28 25 54
l30 27 -30 -14 c-16 -8 -41 -15 -55 -15 -14 0 -110 -39 -214 -86 -104 -48
-193 -85 -198 -84 -4 2 89 50 207 107 119 57 213 106 211 108 -2 2 -41 -14
-86 -37 -45 -23 -80 -38 -78 -33 2 4 14 30 27 58 12 27 28 53 34 58 7 5 2 7
-13 3 -24 -5 -24 -4 -6 9 20 15 20 15 0 16 -10 1 -23 0 -29 -1 -5 -2 -24 -4
-40 -6 -17 -1 -47 -9 -68 -17 -53 -23 -46 -12 13 18 53 27 63 37 29 28 -19 -5
-20 -4 -10 15 15 28 15 29 -20 36 -19 3 -42 0 -61 -10 -16 -8 -32 -13 -36 -10
-3 3 0 6 6 6 19 0 14 18 -7 25 -12 3 -38 -3 -61 -15 -23 -12 -44 -19 -47 -17
-2 3 19 15 46 28 28 12 51 26 51 30 0 25 -83 -2 -242 -78 -101 -48 -182 -82
-189 -77 -7 4 -9 3 -6 -3 7 -11 -40 -36 -53 -28 -5 3 -48 -16 -97 -43 -92 -50
-398 -198 -561 -272 -82 -37 -97 -41 -119 -31 -14 7 -27 10 -30 8 -2 -2 9 -9
24 -16 27 -11 28 -14 31 -93 1 -46 5 -91 8 -100 8 -26 -11 -22 -101 25 -74 39
-80 44 -81 74 -1 18 -5 63 -9 99 -6 59 -5 66 9 60 39 -15 49 -16 22 -1 -15 9
-24 21 -20 25 15 14 431 220 446 220 7 0 27 -9 43 -20 17 -11 39 -20 49 -20
11 0 85 35 165 77 299 157 434 223 444 216 6 -3 7 -1 3 5 -4 7 -3 12 2 12 5 0
12 11 14 25 6 31 -8 33 -16 3 -3 -13 -15 -29 -26 -36 -20 -12 -21 -12 -6 17
17 32 11 65 -10 57 -7 -3 -14 0 -16 5 -2 6 -55 -17 -118 -51 -204 -107 -349
-180 -360 -180 -5 0 -10 6 -10 14 0 8 -9 21 -21 29 -20 14 -12 20 142 98 89
46 158 84 152 86 -7 3 -5 18 4 45 14 41 10 65 -7 38 -6 -8 -10 -12 -10 -7 0 4
-22 -4 -50 -18 -50 -25 -73 -20 -24 5 24 14 24 14 5 22 -12 4 -35 1 -56 -8
-48 -20 -44 -10 10 22 51 30 61 43 14 18 -30 -15 -32 -15 -24 2 4 11 9 28 12
39 3 16 1 15 -11 -5 -8 -14 -15 -32 -16 -41 0 -9 -7 -19 -15 -23 -18 -7 -18
-7 0 37 9 23 11 38 5 42 -6 3 -10 -4 -11 -17 0 -22 -1 -22 -8 -3 -5 11 -7 23
-5 26 2 4 -11 3 -29 -1 -17 -4 -45 -11 -62 -15 l-30 -7 23 19 c13 10 20 22 16
26 -10 10 -7 11 -119 -40z m195 -3 c0 -5 -2 -10 -4 -10 -3 0 -8 5 -11 10 -3 6
-1 10 4 10 6 0 11 -4 11 -10z m-33 -32 c-3 -7 -5 -2 -5 12 0 14 2 19 5 13 2
-7 2 -19 0 -25z m-40 -70 c-3 -8 -6 -5 -6 6 -1 11 2 17 5 13 3 -3 4 -12 1 -19z
m-12 -40 c-43 -25 -239 -108 -248 -105 -5 1 49 28 119 59 124 53 171 70 129
46z m45 -8 c-8 -5 -19 -10 -25 -10 -5 0 -3 5 5 10 8 5 20 10 25 10 6 0 3 -5
-5 -10z m-94 -76 c-81 -41 -150 -73 -152 -71 -5 5 276 146 291 146 6 0 -57
-34 -139 -75z m-378 57 c11 -7 10 -18 -3 -65 -18 -61 -43 -78 -84 -57 -18 10
-19 15 -9 39 16 37 28 50 28 28 0 -9 5 -14 10 -11 6 4 11 -6 11 -22 1 -21 4
-16 14 22 10 42 13 46 17 25 5 -25 5 -25 7 3 0 15 -3 27 -9 27 -5 0 -10 5 -10
10 0 12 10 13 28 1z m102 2 c-8 -3 -27 -12 -42 -20 -16 -7 -28 -10 -28 -5 0
12 40 31 65 31 14 -1 16 -2 5 -6z m76 -130 c10 -46 12 -49 13 -19 1 16 4 27 7
23 3 -3 3 -24 -1 -47 -7 -44 -34 -64 -72 -54 -23 6 -30 59 -10 67 10 4 13 -2
10 -21 -4 -24 -3 -25 7 -9 7 11 10 32 8 48 -6 42 5 25 19 -29 12 -45 12 -45 7
-7 -3 22 -7 48 -10 58 -3 9 -1 17 5 17 6 0 13 -12 17 -27z m238 -75 c8 -33 7
-50 -3 -44 -5 3 -11 -12 -15 -33 -3 -21 -13 -45 -23 -52 -14 -12 -15 -12 -9 0
5 7 4 16 -2 20 -5 3 -13 29 -16 56 -4 35 -3 42 3 25 8 -23 9 -22 10 13 1 32 4
37 25 37 16 0 26 -7 30 -22z m597 -64 c-95 -47 -176 -83 -179 -80 -3 3 53 33
124 66 71 33 147 69 169 79 22 11 45 20 50 19 6 0 -68 -38 -164 -84z m216 10
c-3 -3 -12 -4 -19 -1 -8 3 -5 6 6 6 11 1 17 -2 13 -5z m173 1 c0 -6 -56 -35
-67 -35 -4 1 8 9 27 20 39 22 40 22 40 15z m-1090 -41 c0 -8 -5 -12 -10 -9 -6
4 -8 11 -5 16 9 14 15 11 15 -7z m412 -9 c-16 -13 -42 -52 -57 -87 -15 -35
-33 -66 -39 -70 -6 -4 3 -12 22 -19 l33 -11 -28 -15 c-15 -8 -59 -28 -98 -45
-38 -16 -96 -43 -127 -59 -31 -16 -66 -29 -77 -29 -11 0 -21 -4 -23 -8 -1 -5
-34 -24 -73 -43 l-70 -35 3 -60 c3 -55 1 -62 -20 -72 -20 -11 -20 -11 -2 -7
13 3 21 0 21 -9 0 -10 -11 -13 -41 -10 -31 3 -36 2 -21 -5 11 -5 30 -10 41
-10 13 -1 24 -9 27 -21 3 -11 2 -20 -1 -20 -4 0 -43 20 -87 43 -79 43 -80 43
-83 86 -2 28 0 41 7 36 7 -4 11 5 11 24 0 16 3 37 6 46 4 10 2 15 -7 13 -9 -2
-14 6 -14 22 0 28 3 30 190 115 158 71 483 241 510 266 5 5 13 9 18 9 5 0 -5
-11 -21 -25z m72 -21 c21 -21 20 -54 -4 -84 l-20 -25 0 30 c0 17 -5 37 -10 45
-10 15 -8 -11 6 -79 4 -19 2 -22 -11 -17 -9 3 -19 6 -21 6 -2 0 -4 9 -4 21 0
15 -4 19 -16 15 -21 -8 -34 1 -27 20 5 13 7 13 14 2 7 -10 9 -10 10 0 1 6 3
17 4 22 1 6 4 18 5 28 1 10 5 5 10 -13 8 -30 8 -30 9 8 1 29 5 37 20 37 11 0
27 -7 35 -16z m386 -38 c-119 -61 -150 -72 -150 -57 0 6 10 11 23 12 12 0 65
22 117 49 52 27 100 49 105 49 6 0 -37 -24 -95 -53z m195 -66 c-124 -61 -168
-90 -137 -90 8 0 170 72 195 87 4 2 7 2 7 -1 0 -7 -197 -106 -209 -106 -4 0
-13 11 -19 25 -9 19 -9 25 1 25 6 1 73 29 147 65 74 35 140 63 145 63 6 0 -53
-31 -130 -68z m-362 46 c4 -10 1 -13 -8 -9 -8 3 -12 9 -9 14 7 12 11 11 17 -5z
m0 -37 c6 -9 7 -25 3 -35 -6 -16 -9 -16 -16 -4 -7 11 -10 7 -10 -17 0 -49 -18
-49 -23 -1 -3 38 -4 37 -7 -17 l-3 -60 -7 45 -7 45 -1 -43 c-2 -34 -5 -40 -14
-31 -19 17 -11 111 10 127 22 17 62 12 75 -9z m551 6 c-4 -8 -8 -15 -10 -15
-2 0 -4 7 -4 15 0 8 4 15 10 15 5 0 7 -7 4 -15z m-849 -35 c3 -6 3 -10 -2 -10
-11 1 -43 26 -43 34 0 9 37 -11 45 -24z m774 -34 c-6 -25 -15 -46 -18 -46 -4
0 -1 22 8 50 19 61 26 59 10 -4z m-739 14 c0 -5 -4 -10 -10 -10 -5 0 -10 5
-10 10 0 6 5 10 10 10 6 0 10 -4 10 -10z m130 3 c0 -3 -11 -21 -25 -39 -14
-18 -25 -35 -25 -38 0 -3 14 -13 32 -22 l32 -16 -55 -23 c-30 -12 -142 -66
-249 -119 l-195 -97 3 -110 4 -110 -91 46 c-72 35 -91 50 -93 68 -1 12 -2 59
-3 105 l-2 84 243 119 c210 104 246 118 262 108 17 -11 30 -7 83 19 67 32 79
36 79 25z m10 -38 c0 -8 -4 -15 -10 -15 -5 0 -10 7 -10 15 0 8 5 15 10 15 6 0
10 -7 10 -15z m311 -16 c12 -23 4 -89 -11 -89 -5 0 -10 -10 -12 -22 -4 -25
-28 -37 -28 -14 0 9 5 16 12 16 9 0 9 3 0 12 -7 7 -12 22 -12 35 0 26 -25 32
-34 8 -3 -8 -1 -26 4 -40 8 -22 7 -23 -13 -16 -14 5 -22 17 -21 30 1 28 -3 27
-21 -9 -19 -37 -19 -50 0 -50 8 0 15 -4 15 -8 0 -9 -334 -177 -432 -217 -78
-32 -82 -41 -72 -157 l7 -79 -34 14 c-19 8 -55 25 -81 38 l-48 23 2 70 c1 66
1 68 8 26 l7 -45 3 55 3 55 7 -55 7 -55 3 50 3 50 7 -50 7 -50 1 43 c2 33 6
42 20 42 9 0 -1 9 -23 19 -45 20 -67 42 -57 56 15 21 486 246 505 241 18 -4
57 9 145 52 23 11 42 16 42 12 0 -5 -4 -12 -10 -15 -5 -3 -10 -10 -10 -16 0
-5 5 -9 10 -9 6 0 10 6 10 13 0 20 39 57 60 57 11 0 24 -9 31 -21z m-320 -26
c13 -15 12 -15 -8 -4 -24 12 -29 21 -14 21 5 0 15 -7 22 -17z m-240 -423 c5 0
8 -42 8 -92 -1 -65 -4 -84 -9 -63 -7 29 -8 29 -10 5 -2 -20 -4 -17 -12 15 -5
22 -12 64 -15 94 -4 48 -3 53 12 47 9 -3 21 -6 26 -6z m37 -93 c2 53 5 71 15
68 8 -4 11 -22 10 -53 l-2 -47 10 39 c12 49 13 50 30 29 9 -11 10 -14 2 -9
-10 5 -13 -5 -12 -41 l1 -48 11 39 12 39 13 -27 c6 -15 12 -54 12 -87 l0 -59
-60 30 -60 30 2 93 2 92 6 -80 6 -80 2 72z"/>
<path d="M1411 1544 c0 -11 3 -14 6 -6 3 7 2 16 -1 19 -3 4 -6 -2 -5 -13z"/>
<path d="M1582 1430 c0 -14 2 -19 5 -12 2 6 2 18 0 25 -3 6 -5 1 -5 -13z"/>
<path d="M1822 1360 c0 -14 2 -19 5 -12 2 6 2 18 0 25 -3 6 -5 1 -5 -13z"/>
<path d="M1801 1344 c0 -11 3 -14 6 -6 3 7 2 16 -1 19 -3 4 -6 -2 -5 -13z"/>
<path d="M1568 993 c7 -3 16 -2 19 1 4 3 -2 6 -13 5 -11 0 -14 -3 -6 -6z"/>
<path d="M1673 983 c9 -2 23 -2 30 0 6 3 -1 5 -18 5 -16 0 -22 -2 -12 -5z"/>
<path d="M1738 983 c7 -3 16 -2 19 1 4 3 -2 6 -13 5 -11 0 -14 -3 -6 -6z"/>
<path d="M1500 960 c19 -11 40 -19 45 -19 6 0 -6 8 -25 19 -19 11 -39 19 -45
19 -5 0 6 -8 25 -19z"/>
<path d="M1587 919 c7 -7 15 -10 18 -7 3 3 -2 9 -12 12 -14 6 -15 5 -6 -5z"/>
<path d="M1502 850 c0 -19 2 -27 5 -17 2 9 2 25 0 35 -3 9 -5 1 -5 -18z"/>
<path d="M2182 1210 c0 -14 2 -19 5 -12 2 6 2 18 0 25 -3 6 -5 1 -5 -13z"/>
<path d="M2372 1190 c0 -14 2 -19 5 -12 2 6 2 18 0 25 -3 6 -5 1 -5 -13z"/>
<path d="M2024 1024 c-18 -14 -18 -15 4 -4 12 6 22 13 22 15 0 8 -5 6 -26 -11z"/>
<path d="M1783 923 c15 -2 37 -2 50 0 12 2 0 4 -28 4 -27 0 -38 -2 -22 -4z"/>
<path d="M1743 893 c7 -7 118 -5 126 2 2 3 -26 5 -64 5 -38 0 -65 -3 -62 -7z"/>
<path d="M1720 855 c36 -19 70 -34 75 -34 6 0 -19 15 -55 34 -36 19 -69 34
-75 34 -5 0 19 -15 55 -34z"/>
<path d="M1908 863 c7 -3 16 -2 19 1 4 3 -2 6 -13 5 -11 0 -14 -3 -6 -6z"/>
<path d="M1663 845 c0 -8 4 -12 9 -9 4 3 8 9 8 15 0 5 -4 9 -8 9 -5 0 -9 -7
-9 -15z"/>
<path d="M1690 842 c0 -6 9 -12 20 -15 11 -3 20 -3 20 -1 0 2 -9 8 -20 14 -11
6 -20 7 -20 2z"/>
<path d="M1792 750 c0 -19 2 -27 5 -17 2 9 2 25 0 35 -3 9 -5 1 -5 -18z"/>
<path d="M1812 755 c0 -16 2 -22 5 -12 2 9 2 23 0 30 -3 6 -5 -1 -5 -18z"/>
<path d="M2622 1060 c0 -19 2 -27 5 -17 2 9 2 25 0 35 -3 9 -5 1 -5 -18z"/>
<path d="M1942 680 c0 -14 2 -19 5 -12 2 6 2 18 0 25 -3 6 -5 1 -5 -13z"/>
<path d="M1962 650 c0 -19 2 -27 5 -17 2 9 2 25 0 35 -3 9 -5 1 -5 -18z"/>
<path d="M1992 660 c0 -14 2 -19 5 -12 2 6 2 18 0 25 -3 6 -5 1 -5 -13z"/>
<path d="M2072 630 c0 -14 2 -19 5 -12 2 6 2 18 0 25 -3 6 -5 1 -5 -13z"/>
<path d="M2072 570 c0 -14 2 -19 5 -12 2 6 2 18 0 25 -3 6 -5 1 -5 -13z"/>
<path d="M3098 1819 c-32 -16 -58 -33 -58 -37 0 -4 7 -45 15 -92 19 -109 19
-107 -10 -114 -14 -4 -31 -18 -37 -32 -11 -22 -9 -28 7 -40 24 -17 36 -18 59
-1 17 12 17 20 7 98 -7 46 -13 93 -14 103 -1 15 13 28 55 50 32 17 58 37 58
44 0 17 -5 16 -65 -17 -50 -27 -65 -30 -65 -9 0 4 27 21 60 38 55 28 72 41 53
40 -5 -1 -34 -14 -65 -31z"/>
<path d="M2172 1722 c-6 -15 -14 -38 -17 -50 -6 -22 -5 -23 17 -17 32 10 78
34 78 41 0 4 -7 4 -15 0 -10 -3 -15 1 -15 12 0 14 -2 15 -9 2 -6 -8 -8 -17 -5
-21 3 -6 -18 -19 -31 -19 -2 0 3 16 10 34 8 19 11 37 6 40 -5 3 -13 -7 -19
-22z"/>
<path d="M2246 1645 c-63 -32 -95 -37 -80 -14 3 5 -65 -25 -150 -68 -86 -43
-152 -79 -146 -81 6 -2 59 20 118 49 59 29 111 52 115 51 5 -2 5 3 1 9 -5 9
-2 10 10 6 11 -5 15 -3 10 5 -5 8 -2 9 10 5 10 -4 15 -3 11 3 -3 6 -2 10 4 10
5 0 12 -4 15 -8 3 -5 -36 -28 -87 -51 -117 -53 -203 -106 -188 -115 6 -4 65
22 130 58 65 36 121 66 124 66 9 0 177 100 177 105 0 7 4 8 -74 -30z"/>
<path d="M790 1630 c-30 -16 -51 -29 -47 -30 10 0 107 49 107 55 0 7 1 7 -60
-25z"/>
<path d="M585 1535 c-71 -35 -127 -64 -123 -64 10 -1 251 109 263 120 19 19
-13 6 -140 -56z"/>
<path d="M980 1528 c-265 -112 -336 -139 -360 -133 -22 6 -23 5 -9 -7 11 -9
20 -44 28 -112 6 -54 10 -101 7 -103 -2 -3 -18 3 -36 12 -18 9 -34 15 -36 12
-3 -3 265 -135 315 -155 8 -3 5 4 -7 16 -19 19 -22 33 -22 98 l0 75 42 -23
c24 -13 44 -32 46 -43 7 -42 15 -50 21 -21 6 28 7 28 21 11 11 -14 11 -17 1
-11 -21 13 -3 -35 21 -56 11 -10 16 -18 12 -18 -5 0 -4 -4 2 -8 11 -7 27 -82
18 -82 -2 0 -32 14 -65 31 -34 17 -63 29 -65 26 -2 -2 32 -23 77 -46 64 -33
79 -38 75 -23 -3 10 -8 64 -11 120 l-5 103 97 45 c53 24 103 42 110 39 8 -2
12 -1 9 4 -3 4 40 30 97 56 56 26 97 50 91 52 -5 2 -75 -27 -155 -65 -79 -37
-174 -81 -211 -98 -44 -19 -66 -34 -63 -42 7 -20 -28 -7 -113 41 l-74 41 29
13 c320 137 471 213 425 213 -4 0 -93 -39 -197 -86 -105 -47 -206 -92 -227
-100 -37 -16 -51 -40 -38 -65 4 -8 11 -49 15 -91 l7 -78 -91 42 c-50 22 -93
48 -96 58 -3 9 -7 57 -9 107 l-4 91 88 37 c49 20 100 38 115 41 37 6 210 88
220 103 4 7 5 14 3 16 -2 2 -46 -15 -98 -37z"/>
<path d="M2420 1515 c-25 -13 -41 -24 -37 -25 11 0 87 39 87 45 0 7 0 7 -50
-20z"/>
<path d="M464 1444 c3 -9 7 -28 7 -42 1 -27 1 -27 8 3 l6 29 20 -20 c22 -23
49 -39 92 -54 24 -8 25 -8 9 3 -11 6 -48 31 -84 54 -37 25 -61 36 -58 27z"/>
<path d="M1946 1320 c-59 -29 -101 -59 -62 -44 13 5 17 4 12 -4 -5 -8 -2 -10
9 -5 11 4 13 8 6 13 -7 3 11 17 39 30 28 13 54 28 56 32 7 10 8 11 -60 -22z"/>
<path d="M679 1305 c3 -17 6 -23 9 -13 3 15 9 14 59 -8 30 -14 57 -23 59 -22
1 2 -28 19 -65 38 l-67 35 5 -30z"/>
<path d="M3100 1305 c-25 -13 -40 -24 -35 -24 6 0 30 11 55 24 25 13 41 24 35
24 -5 0 -30 -11 -55 -24z"/>
<path d="M1975 1285 c-52 -32 -40 -32 16 0 24 14 40 25 34 25 -5 0 -28 -11
-50 -25z"/>
<path d="M232 1262 l-53 -35 38 -41 c100 -107 96 -100 83 -143 -9 -30 -9 -45
-1 -62 15 -27 57 -28 71 -1 14 27 5 43 -81 141 -39 43 -66 79 -61 79 4 0 27
16 49 35 l41 34 51 -59 c29 -33 47 -61 41 -65 -29 -18 3 -84 35 -71 35 13 16
55 -67 141 -45 47 -85 85 -88 84 -3 -1 -29 -17 -58 -37z"/>
<path d="M1824 1254 c-18 -14 -18 -14 6 -3 31 14 36 19 24 19 -6 0 -19 -7 -30
-16z"/>
<path d="M742 1230 c0 -19 2 -27 5 -17 2 9 2 25 0 35 -3 9 -5 1 -5 -18z"/>
<path d="M762 1240 c0 -14 2 -19 5 -12 2 6 2 18 0 25 -3 6 -5 1 -5 -13z"/>
<path d="M793 1215 c0 -22 2 -30 4 -17 2 12 2 30 0 40 -3 9 -5 -1 -4 -23z"/>
<path d="M822 1205 c0 -16 2 -22 5 -12 2 9 2 23 0 30 -3 6 -5 -1 -5 -18z"/>
<path d="M772 1180 c0 -14 2 -19 5 -12 2 6 2 18 0 25 -3 6 -5 1 -5 -13z"/>
<path d="M510 1185 c0 -3 43 -26 95 -52 52 -25 93 -48 91 -51 -2 -2 -13 1 -24
7 -12 6 -31 11 -44 11 -21 0 -21 -2 8 -19 18 -11 151 -80 297 -154 147 -74
279 -144 294 -155 31 -22 357 -186 393 -197 15 -5 20 -4 16 4 -5 7 -1 8 9 4
13 -4 14 -7 4 -14 -9 -5 32 -30 125 -74 76 -37 140 -64 143 -61 3 3 32 -9 65
-25 33 -17 62 -28 65 -26 4 5 -249 137 -262 137 -3 0 -3 -5 1 -12 4 -7 3 -8
-5 -4 -6 4 -9 11 -6 16 3 4 -2 11 -11 14 -22 8 -26 8 -19 -4 4 -6 -1 -7 -11
-3 -14 5 -14 7 -1 15 11 5 63 -15 173 -67 87 -42 163 -74 171 -71 7 3 12 1 10
-4 -2 -7 173 -100 189 -100 3 0 2 5 -2 12 -5 8 -2 9 12 4 21 -9 64 -15 64 -10
0 6 -150 79 -263 129 -60 26 -278 131 -485 235 -208 103 -474 231 -592 284
-118 52 -271 124 -340 159 -130 66 -160 80 -160 72z m1106 -593 c-5 -4 -266
126 -266 133 0 3 61 -25 135 -62 74 -37 133 -69 131 -71z m330 -120 c-5 -4
-66 26 -66 33 0 3 16 -3 35 -12 19 -9 33 -18 31 -21z"/>
<path d="M1070 1166 c0 -2 7 -7 16 -10 8 -3 12 -2 9 4 -6 10 -25 14 -25 6z"/>
<path d="M1068 1137 c7 -8 14 -29 14 -46 1 -17 5 -31 10 -31 5 0 7 4 4 8 -2 4
-1 14 5 22 7 12 9 11 9 -5 0 -17 2 -17 10 -5 8 12 10 8 11 -15 l1 -30 8 30 c5
20 8 24 9 10 1 -17 3 -18 11 -5 8 12 10 8 11 -15 1 -21 3 -24 6 -10 3 11 9 22
13 25 5 3 -24 23 -63 44 -40 22 -66 32 -59 23z"/>
<path d="M1130 1136 c0 -2 7 -7 16 -10 8 -3 12 -2 9 4 -6 10 -25 14 -25 6z"/>
<path d="M3165 1013 c-29 -94 -31 -98 -57 -95 -32 4 -68 -13 -68 -33 0 -21 29
-45 55 -45 19 0 27 10 45 57 11 31 26 76 33 100 10 37 15 43 38 43 48 0 119
13 119 21 0 5 -29 9 -65 9 -50 0 -65 3 -65 15 0 11 17 15 73 18 l72 3 -75 2
-75 2 -30 -97z"/>
<path d="M1279 1026 c7 -8 25 -19 41 -26 17 -7 30 -19 30 -27 0 -8 5 -11 10
-8 6 3 10 3 10 -2 0 -4 11 -13 25 -20 14 -6 25 -8 25 -3 0 4 -7 11 -16 14 -8
3 -13 10 -10 14 3 4 -25 22 -61 40 -36 17 -60 25 -54 18z"/>
<path d="M1340 1036 c0 -2 7 -7 16 -10 8 -3 12 -2 9 4 -6 10 -25 14 -25 6z"/>
<path d="M2848 1014 c-38 -20 -36 -28 2 -9 17 9 30 18 30 20 0 7 -1 6 -32 -11z"/>
<path d="M480 995 c0 -22 21 -64 71 -142 l47 -73 -20 -52 c-55 -145 24 -278
164 -278 l57 0 16 -52 c18 -62 19 -82 4 -111 -11 -20 -12 -19 -23 13 -13 42
-36 48 -76 20 -34 -24 -37 -40 -12 -63 46 -41 123 -28 141 25 15 43 14 59 -10
129 l-21 61 23 25 c30 31 33 116 6 157 -34 51 -100 74 -149 52 -13 -6 -23 2
-43 35 -22 34 -26 49 -21 81 9 57 -11 113 -56 153 -40 37 -98 49 -98 20z m75
-17 c33 -25 55 -75 55 -120 l0 -33 -20 25 c-21 26 -90 138 -90 146 0 11 30 2
55 -18z m84 -262 c20 -31 20 -36 6 -69 -22 -54 -19 -73 20 -115 19 -20 33 -30
30 -22 -4 11 2 15 26 14 24 -1 35 -8 46 -27 13 -27 13 -27 -20 -27 -44 0 -114
50 -133 95 -15 36 -18 102 -8 154 4 17 8 31 9 31 2 0 13 -15 24 -34z m153 -46
c54 -42 74 -128 40 -170 l-19 -23 -25 34 c-44 60 -90 149 -84 164 8 21 59 18
88 -5z m-52 -131 c0 -6 -8 -9 -17 -7 -24 4 -58 70 -49 93 5 15 12 10 36 -29
17 -26 30 -51 30 -57z m107 -231 c-3 -8 -6 -5 -6 6 -1 11 2 17 5 13 3 -3 4
-12 1 -19z"/>
<path d="M2774 974 c-18 -14 -18 -14 6 -3 31 14 36 19 24 19 -6 0 -19 -7 -30
-16z"/>
<path d="M2820 975 c-14 -8 -20 -14 -14 -15 5 0 19 7 30 15 24 18 16 19 -16 0z"/>
<path d="M1100 945 c0 -7 61 -37 66 -33 2 3 -12 12 -31 21 -19 9 -35 15 -35
12z"/>
<path d="M990 865 c0 -3 84 -47 188 -99 103 -51 252 -128 331 -170 183 -97
393 -198 385 -185 -3 6 -68 41 -143 77 -75 37 -274 138 -442 225 -294 151
-319 163 -319 152z"/>
<path d="M2870 755 c-59 -32 -46 -32 22 0 29 14 46 25 38 24 -8 0 -35 -11 -60
-24z"/>
<path d="M2623 642 c-100 -48 -183 -90 -183 -94 0 -5 10 -8 22 -8 12 0 18 3
15 6 -4 4 73 46 171 95 97 48 173 87 167 87 -5 0 -92 -39 -192 -86z"/>
<path d="M1050 708 c0 -7 12 -89 27 -182 27 -162 27 -169 10 -180 -48 -29 -52
-34 -41 -53 14 -21 60 -21 82 1 12 12 12 28 -7 123 -32 165 -40 233 -26 233
18 0 61 -43 80 -81 19 -38 54 -79 67 -79 4 0 -7 19 -25 43 -18 24 -39 59 -47
78 -15 40 -58 89 -77 89 -7 0 -13 5 -13 10 0 6 -7 10 -15 10 -8 0 -15 -6 -15
-12z"/>
<path d="M3095 568 c-6 -102 -10 -125 -21 -121 -23 9 -64 -25 -64 -52 0 -36
40 -54 74 -32 13 9 24 22 23 29 0 7 1 58 1 112 l2 99 25 -23 c30 -28 55 -74
56 -104 1 -17 2 -15 9 7 12 39 -6 96 -45 137 -18 19 -37 44 -43 54 -7 15 -12
-12 -17 -106z"/>
<path d="M2257 609 c7 -7 15 -10 18 -7 3 3 -2 9 -12 12 -14 6 -15 5 -6 -5z"/>
<path d="M2330 575 c14 -8 30 -14 35 -14 6 0 -1 6 -15 14 -14 8 -29 14 -35 14
-5 0 1 -6 15 -14z"/>
<path d="M2297 549 c7 -7 15 -10 18 -7 3 3 -2 9 -12 12 -14 6 -15 5 -6 -5z"/>
<path d="M2410 540 c10 -6 11 -10 3 -10 -9 0 -13 -16 -11 -52 l1 -53 7 50 c6
41 7 31 8 -53 1 -66 6 -101 12 -97 6 3 10 44 10 91 0 46 3 84 8 84 4 0 21 -9
37 -20 17 -11 34 -20 39 -20 6 0 -10 13 -35 28 -24 16 -50 36 -58 45 -7 9 -19
17 -25 17 -6 0 -4 -5 4 -10z"/>
<path d="M2346 528 c4 -6 9 -32 11 -57 5 -60 13 -66 13 -8 0 51 -7 77 -22 77
-5 0 -6 -5 -2 -12z"/>
<path d="M2380 472 l5 -67 3 59 c2 32 -1 63 -5 67 -4 4 -6 -22 -3 -59z"/>
<path d="M2460 525 c0 -7 81 -47 86 -43 2 3 -17 14 -41 26 -25 12 -45 20 -45
17z"/>
<path d="M2776 360 c-49 -72 -72 -98 -79 -91 -16 16 -67 13 -74 -4 -8 -21 25
-55 53 -55 18 0 40 24 99 110 42 61 75 117 73 126 -2 10 -31 -25 -72 -86z"/>
<path d="M1709 347 c-123 -85 -118 -84 -174 -48 -57 36 -75 38 -100 11 -15
-17 -16 -24 -7 -45 16 -34 77 -63 100 -48 9 7 35 21 58 33 22 11 64 38 94 60
29 22 57 37 61 34 5 -3 9 -20 9 -39 0 -19 5 -37 10 -40 6 -3 10 1 10 9 0 19
16 21 23 4 3 -7 3 16 1 52 -3 35 -6 66 -8 67 -1 1 -36 -21 -77 -50z m-229 -40
c0 -2 -10 -12 -22 -23 l-23 -19 19 23 c18 21 26 27 26 19z m40 -72 c-7 -9 -15
-13 -19 -10 -3 3 1 10 9 15 21 14 24 12 10 -5z"/>
</g>
</svg>
