<?xml version="1.0" standalone="no"?>
<!DOCTYPE svg PUBLIC "-//W3C//DTD SVG 20010904//EN"
 "http://www.w3.org/TR/2001/REC-SVG-20010904/DTD/svg10.dtd">
<svg version="1.0" xmlns="http://www.w3.org/2000/svg"
 width="225.000000pt" height="225.000000pt" viewBox="0 0 225.000000 225.000000"
 preserveAspectRatio="xMidYMid meet">

<g transform="translate(0.000000,225.000000) scale(0.100000,-0.100000)"
fill="#000000" stroke="none">
<path d="M1628 1822 c-162 -274 -260 -385 -393 -448 -96 -46 -163 -61 -349
-79 -264 -26 -383 -56 -492 -121 -63 -38 -133 -100 -166 -149 -11 -16 -2 -10
20 15 47 53 39 71 77 -165 36 -225 34 -217 55 -210 14 4 20 -1 24 -22 13 -65
66 -374 66 -387 0 -9 -33 -38 -74 -66 -41 -27 -77 -54 -80 -58 -3 -5 30 14 74
43 189 124 453 242 844 375 115 39 242 86 282 105 165 76 340 215 429 340 107
150 185 373 219 623 15 103 21 205 9 145 -2 -13 -7 -23 -11 -23 -4 0 -108 41
-232 90 -140 56 -224 95 -222 102 9 35 21 33 237 -43 208 -74 276 -93 231 -68
-10 6 -117 44 -237 84 l-219 73 -92 -156z m302 -7 l235 -95 -3 -38 c-2 -20 -5
-38 -6 -40 -2 -1 -58 21 -125 49 -91 38 -121 55 -119 68 2 12 -24 25 -114 56
-64 22 -119 43 -123 47 -5 5 10 48 18 48 1 0 108 -43 237 -95z m-168 -55 c71
-29 129 -48 140 -44 10 3 67 -15 133 -42 112 -46 115 -48 115 -78 0 -61 -7
-61 -143 0 -85 38 -127 63 -127 73 0 11 -41 34 -125 70 -69 30 -125 58 -125
63 0 12 3 11 132 -42z m98 -150 c5 0 10 7 10 15 0 8 2 15 4 15 2 0 62 -28 133
-62 l130 -63 -9 -42 -9 -42 -147 70 c-81 39 -201 95 -267 126 -66 31 -124 59
-128 63 -5 4 -4 17 2 29 11 20 15 19 141 -44 71 -36 134 -65 140 -65z m-108
-19 c90 -43 207 -99 261 -125 l99 -45 -7 -33 c-11 -50 -29 -97 -38 -100 -5 -2
-67 35 -138 82 -97 65 -127 89 -123 102 4 13 -24 34 -121 92 -70 41 -131 76
-136 78 -6 2 -7 11 -3 21 8 23 9 22 206 -72z m-103 -92 c114 -86 125 -91 137
-75 12 17 23 12 147 -70 l134 -87 -19 -50 c-10 -27 -28 -67 -39 -89 l-20 -39
-122 118 c-88 85 -122 124 -120 139 1 16 -30 49 -123 129 -68 59 -124 111
-124 117 0 17 19 5 149 -93z m2 -153 c49 -51 57 -57 70 -44 12 13 29 1 136
-101 68 -64 123 -119 123 -122 0 -6 -49 -81 -78 -118 l-19 -23 -107 136 c-82
106 -105 141 -101 159 4 17 -18 49 -111 155 -81 94 -114 139 -109 150 5 13 21
0 73 -58 37 -41 92 -101 123 -134z m-137 -16 c54 -83 104 -150 110 -150 7 0
17 5 24 12 9 9 17 5 34 -17 119 -151 188 -241 188 -246 0 -9 -109 -109 -118
-109 -12 1 -363 640 -357 650 3 6 9 10 13 10 4 0 52 -68 106 -150z m46 -197
c96 -174 176 -319 178 -323 6 -15 -240 -161 -253 -149 -2 3 -31 87 -64 187
-49 154 -56 184 -44 191 13 7 7 32 -37 167 -60 184 -58 175 -45 180 6 2 37
-70 70 -161 51 -139 63 -165 79 -163 16 3 30 -23 81 -147 34 -82 64 -159 68
-169 4 -10 10 -16 13 -13 3 3 -24 77 -60 164 -67 162 -74 183 -56 183 18 0 11
21 -60 183 -64 145 -76 187 -53 187 4 0 87 -143 183 -317z m-310 39 c25 -86
50 -156 55 -155 6 0 18 3 28 5 16 2 27 -25 78 -181 33 -102 56 -188 52 -192
-14 -13 -116 -48 -125 -43 -4 3 -8 1 -8 -4 0 -10 -117 -48 -125 -40 -10 9
-103 383 -97 386 32 12 32 19 -8 182 -22 89 -38 165 -35 168 3 3 21 6 40 6 19
1 35 4 35 8 0 8 53 27 60 21 3 -2 25 -75 50 -161z m-239 -59 c37 -149 47 -178
61 -175 12 2 20 -8 27 -35 64 -240 89 -348 83 -354 -8 -7 -104 -40 -107 -36
-1 1 -23 90 -48 197 -41 176 -44 196 -30 207 15 11 12 30 -29 187 -47 182 -47
177 -7 185 3 0 26 -79 50 -176z m-121 -26 c33 -168 37 -182 58 -185 13 -2 24
-12 27 -25 3 -12 23 -100 46 -196 22 -95 39 -175 37 -176 -7 -7 -111 -45 -114
-42 -2 2 -22 92 -45 201 -38 181 -40 198 -25 209 16 11 14 26 -18 180 -20 92
-38 178 -42 192 -5 21 -3 25 17 25 23 0 25 -8 59 -183z m-144 8 c18 -88 37
-178 41 -200 8 -33 13 -40 33 -40 26 0 27 -5 104 -376 5 -24 1 -28 -50 -48
-31 -11 -59 -21 -64 -21 -4 0 -10 17 -13 38 -14 84 -161 764 -164 755 -3 -7
95 -497 154 -775 5 -26 1 -30 -61 -59 -37 -17 -69 -30 -71 -28 -2 2 -22 94
-46 203 -39 188 -41 200 -24 212 16 12 15 25 -24 235 -31 167 -38 225 -29 230
26 16 81 21 89 7 7 -10 9 -9 9 4 0 16 32 27 69 24 9 -1 24 -51 47 -161z m-299
-61 c60 -343 52 -314 79 -302 13 6 26 9 28 7 10 -10 85 -404 78 -410 -4 -3
-37 -23 -74 -44 -50 -27 -69 -33 -72 -23 -2 7 -21 103 -41 212 -34 181 -35
201 -21 212 22 15 21 20 -21 252 -36 200 -36 205 -18 218 11 8 24 13 29 11 6
-2 20 -62 33 -133z"/>
<path d="M1146 1265 c2 -16 13 -57 24 -90 11 -33 17 -46 14 -30 -2 17 -13 57
-24 90 -11 33 -17 47 -14 30z"/>
<path d="M1190 1105 c0 -17 64 -235 68 -231 2 2 -11 55 -28 118 -30 105 -40
134 -40 113z"/>
<path d="M1260 855 c0 -17 64 -235 68 -231 2 2 -11 55 -28 118 -30 105 -40
134 -40 113z"/>
<path d="M191 956 c-1 -5 8 -63 20 -130 11 -67 36 -233 54 -371 18 -137 33
-237 34 -221 3 90 -102 790 -108 722z"/>
<path d="M301 164 c0 -11 3 -14 6 -6 3 7 2 16 -1 19 -3 4 -6 -2 -5 -13z"/>
</g>
</svg>
