<?xml version="1.0" standalone="no"?>
<!DOCTYPE svg PUBLIC "-//W3C//DTD SVG 20010904//EN"
 "http://www.w3.org/TR/2001/REC-SVG-20010904/DTD/svg10.dtd">
<svg version="1.0" xmlns="http://www.w3.org/2000/svg"
 width="256.000000pt" height="256.000000pt" viewBox="0 0 256.000000 256.000000"
 preserveAspectRatio="xMidYMid meet">

<g transform="translate(0.000000,256.000000) scale(0.100000,-0.100000)"
fill="#000000" stroke="none">
<path d="M1158 2340 c-170 -20 -385 -106 -518 -208 -81 -61 -193 -179 -243
-255 -215 -324 -241 -718 -73 -1062 64 -129 125 -214 227 -310 426 -403 1092
-385 1500 41 303 317 380 788 194 1181 -162 344 -477 570 -855 613 -95 11
-135 11 -232 0z m362 -119 c284 -74 515 -267 640 -535 66 -140 84 -228 84
-406 1 -131 -3 -168 -22 -240 -46 -169 -130 -316 -253 -443 l-70 -72 -25 83
c-30 102 -48 139 -110 221 -78 104 -209 189 -344 222 -30 7 -98 13 -150 13
-280 -4 -519 -194 -589 -470 l-18 -69 -69 70 c-121 121 -210 275 -256 445 -33
123 -33 357 0 480 78 288 269 516 536 640 73 35 190 71 271 83 76 12 291 -1
375 -22z m-122 -1266 c198 -47 354 -210 392 -410 7 -35 10 -71 7 -78 -14 -37
-216 -118 -356 -142 -207 -37 -453 5 -628 105 -60 34 -61 39 -38 138 36 150
134 276 269 342 121 60 230 74 354 45z"/>
<path d="M1175 1837 c-59 -20 -84 -35 -138 -86 -185 -173 -133 -470 101 -579
48 -23 71 -27 142 -27 101 0 170 27 244 95 110 101 142 281 74 414 -31 60
-105 133 -166 163 -65 32 -191 42 -257 20z m222 -114 c131 -61 179 -221 107
-353 -46 -85 -123 -129 -224 -129 -101 0 -178 44 -223 128 -87 158 1 348 174
380 59 11 104 4 166 -26z"/>
</g>
</svg>
